<?xml version="1.0" standalone="no"?>
<!DOCTYPE svg PUBLIC "-//W3C//DTD SVG 20010904//EN"
 "http://www.w3.org/TR/2001/REC-SVG-20010904/DTD/svg10.dtd">
<svg version="1.0" xmlns="http://www.w3.org/2000/svg"
 width="316.000000pt" height="316.000000pt" viewBox="0 0 316.000000 316.000000"
 preserveAspectRatio="xMidYMid meet">

<g transform="translate(0.000000,316.000000) scale(0.100000,-0.100000)"
fill="#000000" stroke="none">
<path d="M0 1580 l0 -1580 1580 0 1580 0 0 1580 0 1580 -1580 0 -1580 0 0
-1580z m448 677 c75 -49 82 -75 82 -317 0 -217 -2 -233 -43 -277 l-20 -23 20
-22 c41 -46 44 -62 45 -286 1 -198 0 -221 -19 -263 -20 -45 -57 -80 -100 -93
-17 -6 -179 -9 -260 -6 -10 0 -13 139 -13 661 l0 661 134 -4 c125 -3 136 -5
174 -31z m436 -44 c7 -89 20 -213 36 -358 6 -55 17 -163 25 -240 8 -77 19
-185 25 -240 6 -55 15 -138 20 -185 5 -47 12 -116 16 -153 l7 -68 -69 3 -69 3
-7 50 c-4 28 -10 85 -14 128 l-6 77 -53 0 c-51 0 -53 -1 -59 -32 -4 -18 -9
-72 -13 -120 -3 -47 -9 -91 -12 -96 -8 -12 -96 -21 -112 -12 -13 9 -12 29 20
310 38 338 73 646 81 725 17 165 31 268 36 276 3 5 36 9 73 9 l68 0 7 -77z
m485 59 c19 -9 48 -34 65 -55 l31 -39 3 -226 c2 -124 1 -240 -2 -257 -3 -17
-18 -43 -32 -58 l-26 -29 25 -26 c40 -43 47 -91 47 -319 0 -116 4 -213 9 -215
5 -1 11 -21 13 -43 l3 -40 -48 -3 c-61 -4 -93 15 -106 65 -6 21 -11 137 -11
258 -1 252 -2 255 -71 255 l-44 0 3 -277 c3 -316 7 -303 -80 -303 -37 0 -50 4
-58 19 -11 22 -15 1293 -3 1304 3 4 61 7 127 7 93 -1 129 -5 155 -18z m709 3
c39 -20 89 -77 99 -113 4 -15 8 -58 8 -97 l0 -70 -59 -3 c-37 -2 -62 1 -66 8
-4 7 -8 36 -8 66 0 63 -13 84 -52 84 -39 0 -53 -34 -48 -113 4 -69 -1 -57 150
-349 84 -163 100 -220 87 -318 -16 -115 -66 -173 -166 -194 -87 -19 -191 57
-212 154 -13 60 -14 140 -2 158 5 9 26 12 67 10 l59 -3 6 -75 c6 -89 14 -108
44 -116 55 -14 83 44 69 139 -6 39 -82 202 -159 342 -62 111 -80 171 -79 266
1 77 4 93 31 140 49 87 150 124 231 84z m560 -52 l-3 -68 -58 -3 -57 -3 0
-577 c0 -317 0 -582 0 -588 0 -15 -87 -24 -117 -13 l-23 9 0 584 0 585 -57 3
-58 3 -3 68 -3 67 191 0 191 0 -3 -67z m270 -15 c6 -46 16 -128 21 -183 6 -55
17 -167 26 -250 8 -82 20 -193 25 -245 6 -52 21 -195 35 -318 14 -122 25 -227
25 -233 0 -6 -28 -9 -72 -7 l-73 3 -8 115 c-4 63 -10 121 -12 128 -3 7 -24 12
-58 12 l-54 0 -6 -83 c-4 -45 -10 -104 -13 -130 l-7 -48 -61 3 c-71 3 -66 -11
-48 153 6 55 21 181 32 280 11 99 25 223 30 275 6 52 15 129 20 170 5 41 17
147 25 235 9 88 20 170 25 183 9 20 17 22 73 22 l64 0 11 -82z m-1173 50 c3
-13 4 -257 3 -543 l-3 -520 -57 -5 c-32 -3 -62 -4 -68 -2 -7 3 -10 184 -10
548 l0 544 65 0 c59 0 65 -2 70 -22z"/>
<path d="M280 1924 l0 -227 47 6 c71 8 73 14 73 216 0 212 -4 225 -73 229
l-47 3 0 -227z"/>
<path d="M290 1573 c0 -5 -1 -110 -2 -236 l-3 -227 44 0 c68 0 70 6 71 228 0
192 0 193 -25 217 -23 23 -85 36 -85 18z"/>
<path d="M775 1599 c-11 -118 -20 -218 -20 -224 0 -8 74 -9 82 -2 4 5 -30 404
-36 421 -4 10 -16 -78 -26 -195z"/>
<path d="M1229 2148 c0 -2 -1 -108 -2 -236 -1 -149 2 -232 8 -233 6 -1 24 0
40 1 58 3 60 10 60 236 0 192 -1 207 -19 220 -16 11 -85 21 -87 12z"/>
<path d="M2820 1775 c0 -16 -3 -46 -5 -65 -7 -50 -35 -321 -35 -331 0 -5 18
-9 40 -9 48 0 45 -17 29 220 -11 160 -26 256 -29 185z"/>
</g>
</svg>
