<?xml version="1.0" encoding="utf-8"?>
<!-- Generator: Adobe Illustrator 26.0.3, SVG Export Plug-In . SVG Version: 6.00 Build 0)  -->
<svg version="1.1" id="Layer_1" xmlns="http://www.w3.org/2000/svg" xmlns:xlink="http://www.w3.org/1999/xlink" x="0px" y="0px"
	 viewBox="0 0 1810 1706.4" style="enable-background:new 0 0 1810 1706.4;" xml:space="preserve">
<style type="text/css">
	.st0{fill:#EB1A03;}
</style>
<g>
	<g transform="translate(0.000000,1810.000000) scale(0.100000,-0.100000)">
		<path class="st0" d="M5634,16849.4c-12.5-7.8-102.5-15.6-202-15.6c-100.9-1.6-181.7-9.3-184.9-17.1c-3.1-9.3-46.6-15.6-97.8-15.6
			c-49.7,0-91.7-6.2-91.7-14s-48.2-18.7-108.7-24.8c-59-6.2-108.7-17.1-108.7-24.8c0-7.8-20.2-14-46.6-14
			c-24.8,0-46.6-6.2-46.6-15.6c0-7.8-31.1-15.6-69.9-15.6c-38.8,0-69.9-6.2-69.9-15.6c0-7.8-12.5-15.6-29.5-15.6
			c-15.6,0-54.4-10.9-83.9-23.3c-31.1-12.5-74.6-23.3-96.3-23.3c-21.7,0-38.8-6.2-38.8-15.6c0-7.8-17.1-15.6-38.8-15.6
			c-21.7,0-38.8-6.2-38.8-15.6c0-7.8-17.1-15.6-38.8-15.6s-38.8-6.2-38.8-12.5s-45.1-26.4-100.9-42c-56-17.1-100.9-35.7-100.9-42
			c0-7.8-14-12.5-31.1-12.5c-17.1,0-31.1-6.2-31.1-15.6c0-7.8-10.9-15.6-23.3-15.6s-23.3-6.2-23.3-15.6c0-7.8-9.3-15.6-18.7-15.6
			c-20.2,0-183.3-77.7-198.9-93.2c-4.7-4.7-49.7-29.5-100.9-54.4c-51.3-26.4-94.7-51.3-97.8-57.4c-3.1-7.8-18.7-12.5-35.7-12.5
			c-15.6,0-29.5-6.2-29.5-15.6c0-7.8-7.8-15.6-17.1-15.6s-26.4-9.3-37.3-18.7c-46.6-42-68.3-59-77.7-59c-4.7,0-32.6-24.8-63.7-54.4
			c-29.5-29.5-59-54.4-66.8-54.4c-6.2,0-34.2-20.2-60.6-46.6c-27.9-24.8-54.4-46.6-60.6-46.6c-7.8,0-45.1-31.1-85.5-69.9
			c-42-38.8-77.7-69.9-82.3-69.9c-24.8,0-334-310.7-334-335.5c0-12.5-6.2-21.7-15.6-21.7c-14,0-93.2-73-93.2-87
			c0-4.7-15.6-24.8-34.2-45.1c-93.2-100.9-105.6-116.5-105.6-132c0-7.8-6.2-15.6-12.5-15.6c-7.8,0-26.4-24.8-43.5-54.4
			c-15.6-29.5-32.6-54.4-37.3-54.4c-4.7,0-18.7-23.3-29.5-49.7c-12.5-27.9-34.2-62.1-48.2-74.6c-14-12.5-38.8-46.6-54.4-73
			c-17.1-27.9-35.7-51.3-42-51.3c-6.2,0-12.5-14-12.5-31.1c0-17.1-4.7-31.1-12.5-31.1c-6.2,0-21.7-23.3-32.6-49.7
			c-12.5-27.9-32.6-60.5-43.5-71.4c-10.9-10.9-20.2-34.2-20.2-51.3c0-15.6-6.2-29.5-15.6-29.5c-7.8,0-15.6-10.9-15.6-23.3
			c0-12.5-6.2-23.3-15.6-23.3c-7.8,0-15.6-17.1-15.6-37.3s-17.1-62.1-38.8-93.2c-21.7-31.1-38.8-71.4-38.8-87
			c0-17.1-6.2-31.1-15.6-31.1c-7.8,0-15.6-17.1-15.6-38.8s-6.2-38.8-15.6-38.8c-7.8,0-15.6-10.9-15.6-23.3
			c0-12.4-17.1-62.1-38.8-110.3c-21.7-48.2-38.8-107.2-38.8-132c0-24.8-6.2-45.1-15.6-45.1c-7.8,0-15.6-14-15.6-29.5
			c0-17.1-6.2-35.7-15.6-40.4c-7.8-4.7-15.6-34.2-15.6-63.7s-6.2-65.2-14-80.8c-48.2-96.3-63.7-153.8-63.7-243.8
			c0-56-6.2-100.9-14-100.9s-17.1-32.6-21.7-73c-3.1-42-21.7-153.8-40.4-251.6c-17.1-96.3-32.6-220.6-32.6-275
			c0-56-6.2-99.4-15.6-99.4c-24.8,0-20.2-399.2,4.7-408.5c14-6.2,14-9.3,0-9.3c-23.3-1.6-27.9-48.2-6.2-48.2
			c7.8,0,18.7-46.6,21.7-104.1c4.7-59,20.2-181.7,34.2-276.5c14-93.2,29.5-211.2,34.2-259.4c3.1-49.7,14-90.1,21.7-90.1
			c7.7,0,14-38.8,14-85.5c0-48.2,9.3-105.6,21.7-129c10.9-23.3,29.5-80.8,42-127.4c10.9-46.6,24.8-91.7,32.6-100.9
			c6.2-7.8,12.5-29.5,12.5-49.7c0-20.2,7.8-35.7,15.6-35.7c9.3,0,15.6-20.2,15.6-45.1c0-26.4,24.8-99.4,54.4-166.3
			c29.5-65.2,54.4-132,54.4-147.6c0-17.1,4.7-29.5,12.5-29.5c6.2,0,32.6-49.7,57.4-108.7c26.4-59,51.3-108.7,59-108.7
			c6.2,0,10.9-20.2,10.9-46.6c0-24.8,6.2-46.6,12.5-46.6c7.8,0,26.4-24.8,43.5-54.4c15.6-29.5,34.2-54.4,40.4-54.4
			c7.8,0,12.5-14,12.5-31.1c0-17.1,7.8-31.1,15.6-31.1c9.3,0,15.6-10.9,15.6-23.3c0-12.5,7.8-23.3,15.6-23.3
			c9.3,0,15.6-14,15.6-31.1c0-17.1,6.2-31.1,14-31.1s20.2-15.6,26.4-34.2c6.2-20.2,23.3-46.6,38.8-60.5c17.1-14,29.5-31.1,29.5-38.8
			s24.8-42,54.4-76.1c29.6-34.2,54.4-69.9,54.4-80.8c0-10.9,24.8-46.6,54.4-77.7c29.5-31.1,54.4-63.7,54.4-71.4s45.1-59,100.9-113.4
			s100.9-102.5,100.9-107.2c0-17.1,205.1-225.2,222.1-225.2c4.7,0,54.4-45.1,111.8-100.9c56-56,108.7-100.9,115-100.9
			c7.8,0,40.4-24.8,73-54.4c32.6-29.5,71.4-57.4,87-63.7c15.6-4.7,27.9-15.6,27.9-23.3c0-7.8,10.9-14,23.3-14s23.3-6.2,23.3-15.6
			c0-7.8,10.9-15.6,23.3-15.6s23.3-6.2,23.3-15.6c0-7.8,7.8-15.6,15.6-15.6c9.3,0,35.7-17.1,59-38.8c23.3-21.7,49.7-38.8,60.6-38.8
			c10.9,0,20.2-6.2,20.2-15.6c0-7.8,14-15.6,31.1-15.6s31.1-6.2,31.1-15.6c0-7.8,10.9-15.6,23.3-15.6s23.3-6.2,23.3-15.6
			c0-7.8,14-15.6,29.5-15.6c17.1,0,40.4-10.9,54.4-23.3c12.5-12.5,29.5-23.3,38.8-23.3s17.1-6.2,17.1-15.6c0-7.8,14-15.6,31.1-15.6
			c17.1,0,31.1-6.2,31.1-15.6c0-7.8,14-15.6,29.5-15.6c17.1,0,35.7-7.8,40.4-15.6c4.7-9.3,21.7-15.6,37.3-15.6s37.3-10.9,48.2-23.3
			c10.9-12.5,35.7-23.3,56-23.3s37.3-6.2,37.3-15.6c0-7.8,14-15.6,31.1-15.6c17.1,0,31.1-6.2,31.1-15.6c0-7.8,17.1-15.6,37.3-15.6
			c20.2,0,40.4-4.7,43.5-10.9c7.8-20.2,121.2-66.8,160-66.8c21.7,0,38.8-6.2,38.8-15.6c0-7.8,17.1-15.6,38.8-15.6
			s38.8-6.2,38.8-15.6c0-7.8,17.1-15.6,38.8-15.6c21.7,0,38.8-6.2,38.8-14c0-17.1,138.2-49.7,253.2-59c48.2-4.7,88.6-14,88.6-21.7
			s24.8-14,54.4-14c29.6,0,54.4-6.2,54.4-14s32.6-17.1,74.6-21.7c40.4-3.1,100.9-15.6,135.1-24.8c40.4-10.9,337.1-17.1,877.7-17.1
			c832.7,0,897.9,3.1,1096.7,63.7c26.4,7.8,65.2,14,88.6,14c23.4,0,42,7.8,42,15.6c0,9.3,37.3,15.6,83.9,15.6
			c46.6,0,88.6,6.2,94.7,14c4.7,9.3,40.4,20.2,77.7,26.4c38.8,4.7,69.9,15.6,69.9,23.3c0,7.8,14,14,29.5,14
			c17.1,0,35.7,7.8,40.4,15.6c4.7,9.3,23.3,15.6,40.4,15.6c15.6,0,29.5,7.8,29.5,15.6c0,9.3,23.3,15.6,52.9,15.6
			c29.5,0,73,10.9,97.8,23.3c23.3,12.5,62.1,26.4,85.5,31.1c23.3,4.7,51.3,18.6,65.2,31.1c12.5,12.5,37.3,23.3,54.4,23.3
			c18.6,0,32.6,7.8,32.6,15.6c0,9.3,14,15.6,29.5,15.6s32.6,9.3,37.3,21.7c4.7,10.9,29.5,24.8,54.4,29.5
			c24.8,4.7,57.4,20.2,69.9,34.2c14,12.5,35.7,23.3,48.2,23.3c14,0,24.8,7.8,24.8,15.6c0,9.3,7.8,15.6,17.1,15.6
			s38.8,17.1,66.8,38.8s60.6,38.8,73,38.8s32.6,14,45.1,31.1c12.5,17.1,27.9,31.1,35.7,31.1s23.3,9.3,34.2,20.2
			c51.3,45.1,69.9,57.4,85.5,57.4c7.8,0,15.6,7.8,15.6,15.6c0,9.3,10.9,15.6,24.8,15.6c12.5,0,46.6,24.8,74.6,54.4
			c29.5,29.5,60.5,54.4,71.4,54.4c10.9,0,31.1,12.5,45.1,27.9c46.6,51.3,108.7,80.8,172.4,80.8c34.2,0,62.1-7.8,62.1-15.6
			c0-9.3,17.1-34.2,38.8-56c21.7-21.8,38.8-45.1,38.8-51.3c0-6.2,27.9-24.8,62.1-40.4c34.2-15.6,62.1-34.2,62.1-42
			c0-6.2,10.9-12.5,23.3-12.5c12.5,0,23.3-6.2,23.3-15.6c0-7.8,10.9-15.6,23.3-15.6c14,0,43.5-17.1,66.8-38.8
			c23.3-21.7,49.7-38.8,60.6-38.8s20.2-6.2,20.2-15.6c0-7.8,10.9-15.6,23.3-15.6c12.5,0,23.3-6.2,23.3-15.6c0-7.8,14-15.6,31.1-15.6
			c17.1,0,31.1-6.2,31.1-15.6c0-7.8,14-15.6,29.5-15.6c15.6,0,32.6-10.9,38.8-23.3c4.7-12.5,23.3-23.3,40.4-23.3s31.1-6.2,31.1-15.6
			c0-7.8,14-15.6,31.1-15.6c17.1,0,31.1-6.2,31.1-15.6c0-7.8,10.9-15.6,23.3-15.6c12.5,0,23.3-6.2,23.3-15.6
			c0-7.8,12.5-15.6,27.9-15.6c15.6,0,42-10.9,59-23.3c15.6-12.5,42-23.3,57.4-23.3c14,0,26.4-6.2,26.4-15.6c0-7.8,14-15.6,31.1-15.6
			c17,0,31.1-6.2,31.1-15.6c0-7.8,10.9-15.6,23.3-15.6c12.5,0,23.3-6.2,23.3-14c0-6.2,29.5-17.1,65.2-21.7
			c37.3-4.7,68.3-17.1,71.4-24.8c3.1-9.3,29.5-17.1,59-17.1s52.9-6.2,52.9-15.6c0-7.8,21.7-15.6,46.6-15.6
			c26.4,0,46.6-6.2,46.6-15.6c0-7.8,12.5-15.6,27.9-15.6c14,0,76.1-18.6,135.1-38.8c60.5-21.7,135.1-38.8,167.8-38.8
			c31.1,0,57.4-6.2,57.4-15.6c0-7.8,18.6-15.6,42-15.6c23.3,0,62.1-6.2,88.6-14c209.7-62.1,231.5-63.7,1089-63.7
			c857.5,0,879.2,1.6,1089,63.7c26.4,7.8,65.2,14,88.6,14c23.3,0,42,7.8,42,15.6c0,9.3,38.8,15.6,85.5,15.6c46.6,0,85.5,6.2,85.5,14
			s38.8,18.6,85.5,24.8c46.6,4.7,85.5,17.1,85.5,24.8c0,7.8,14,14,29.5,14c17.1,0,35.7,7.8,40.4,15.6c4.7,9.3,23.3,15.6,40.4,15.6
			c15.6,0,29.5,7.8,29.5,15.6c0,9.3,20.2,15.6,45.1,15.6c26.4,0,51.3,6.2,56,15.6c4.7,7.8,21.7,15.6,35.7,15.6
			c14,0,46.6,10.9,71.4,23.3c23.3,12.5,57.4,23.3,73,23.3c17.1,0,29.5,7.8,29.5,15.6c0,9.3,10.9,15.6,23.3,15.6
			c12.5,0,23.3,7.8,23.3,15.6c0,9.3,12.5,15.6,27.9,15.6c15.6,0,42,10.9,59,23.3c15.6,12.5,42,23.3,57.4,23.3
			c14,0,26.4,7.8,26.4,15.6c0,9.3,10.9,15.6,23.3,15.6c12.5,0,23.3,7.8,23.3,15.6c0,9.3,14,15.6,31.1,15.6
			c17.1,0,31.1,7.8,31.1,15.6c0,9.3,10.9,15.6,23.3,15.6c14,0,43.5,17.1,66.8,38.8c23.3,21.7,49.7,38.8,60.6,38.8
			c10.9,0,20.2,7.8,20.2,15.6c0,9.3,14,15.6,31.1,15.6c17.1,0,31.1,7.8,31.1,15.6c0,9.3,7.8,15.6,17.1,15.6s26.4,9.3,37.3,20.2
			c48.2,42,68.3,57.4,77.7,57.4c6.2,0,18.7,9.3,31.1,20.2c10.9,9.3,38.8,32.6,63.7,49.7c23.3,17.1,59,46.6,77.7,66.8
			c20.2,18.7,42,34.2,49.7,34.2c18.7,0,438,413.2,438,431.8c0,6.2,34.2,49.7,77.7,96.3c42,45.1,80.8,94.7,87,111.8
			c4.7,15.6,15.6,27.9,23.3,27.9c7.8,0,14,10.9,14,23.3c0,12.5,7.8,23.3,15.6,23.3c9.3,0,15.6,14,15.6,31.1
			c0,17.1,9.3,31.1,21.7,31.1c10.9,0,29.5,23.3,42,51.3c10.9,26.4,32.6,60.6,48.2,74.6c15.6,14,27.9,37.3,27.9,51.3
			s6.2,24.8,14,24.8s18.6,17.1,23.3,38.8c6.2,21.7,17.1,38.8,24.8,38.8c9.3,0,15.6,14,15.6,31.1s7.8,31.1,15.6,31.1
			c9.3,0,15.6,10.9,15.6,23.3s7.8,23.3,15.6,23.3c9.3,0,15.6,14,15.6,32.6c0,17.1,10.9,42,23.3,54.4c12.5,14,23.3,37.3,23.3,54.4
			c0,15.6,7.8,29.5,15.6,29.5c9.3,0,15.6,14,15.6,31.1c0,17,7.8,31.1,15.6,31.1c9.3,0,15.6,10.9,15.6,23.3
			c0,12.5,7.8,23.3,15.6,23.3c9.3,0,15.6,17.1,15.6,37.3s10.9,57.4,23.3,82.3c12.5,23.3,31.1,76.1,42,118.1
			c10.9,40.4,23.3,73,29.5,73c10.9,0,15.6,18.6,42,155.4c6.2,38.8,21.7,85.5,31.1,104.1c10.9,18.6,18.7,48.2,18.7,65.2
			c0,18.7,7.8,32.6,15.6,32.6c9.3,0,15.6,31.1,15.6,69.9c0,38.8,6.2,69.9,14,69.9s17.1,26.4,21.7,59c4.7,31.1,20.2,116.5,35.7,189.5
			c14,73,27.9,203.5,32.6,292c3.1,87,12.5,158.5,21.7,158.5c7.8,0,14,49.7,14,108.7c0,62.1,6.2,108.7,15.6,108.7
			c24.8,0,20.2,601.2-3.1,610.5c-15.6,6.2-15.6,9.3,0,9.3c21.7,1.6,26.4,110.3,3.1,110.3c-9.3,0-15.6,93.2-15.6,248.5
			c0,155.4-6.2,248.5-15.6,248.5c-23.3,0-18.6,73,4.7,82.3c15.6,6.2,15.6,9.3,0,9.3c-10.9,1.6-20.2,12.5-20.2,24.8
			c0,20.2-57.4,23.3-419.4,23.3c-268.8,0-419.4,6.2-419.4,15.6s-17.1,15.6-38.8,15.6c-21.7,0-38.8-6.2-38.8-15.6
			c0-7.8-17.1-15.6-38.8-15.6c-21.7,0-38.8,7.8-38.8,15.6c0,9.3-93.2,15.6-248.5,15.6c-155.3,0-248.5-6.2-248.5-15.6
			c0-7.8-14-15.6-31.1-15.6c-17.1,0-31.1,7.8-31.1,15.6c0,24.8-663.3,20.2-674.2-3.1c-7.8-15.6-10.9-15.6-18.7,0
			c-10.9,23.3-782.9,27.9-782.9,3.1c0-7.8-31.1-15.6-69.9-15.6c-38.8,0-69.9,7.8-69.9,15.6c0,9.3-20.2,15.6-46.6,15.6
			c-24.8,0-46.6-6.2-46.6-15.6c0-7.8-6.2-15.6-15.6-15.6c-7.8,0-42-24.8-73-54.4c-31.1-29.5-63.7-54.4-71.4-54.4
			c-6.2,0-49.7-38.8-96.3-85.5c-45.1-46.6-87-85.5-91.7-85.5c-10.9,0-49.7-35.7-191.1-170.8c-62.1-60.6-116.5-108.7-121.2-108.7
			c-10.9,0-46.6-29.5-74.6-59c-73-79.2-192.6-189.5-205.1-189.5c-6.2,0-51.3-40.4-100.9-88.6c-94.7-96.3-166.3-160-177.1-160
			c-4.7,0-62.1-52.9-127.4-116.5c-65.2-63.7-125.9-116.5-132-116.5c-7.8,0-62.1-48.2-121.2-108.7c-60.5-59-113.4-108.7-118.1-108.7
			c-4.7,0-26.4-15.6-46.6-34.2c-56-52.9-82.3-74.6-93.2-74.6c-4.7,0-24.8-15.6-45.1-34.2c-20.2-20.2-52.9-51.3-73-69.9
			c-51.3-46.6-76.1-77.7-76.1-97.8c0-7.8-6.2-15.6-15.6-15.6c-7.8,0-15.6-6.2-15.6-15.6c0-7.8,14-15.6,29.5-15.6
			c17.1,0,35.7,7.8,40.4,15.6c6.2,10.9,554.6,15.6,1593.8,15.6c1741.3,0,1646.6,4.7,1621.8-90.1c-4.7-23.3-14-60.6-18.7-83.9
			c-4.7-24.8-14-43.5-21.7-43.5s-14-27.9-14-62.1c0-34.2-6.2-62.1-15.6-62.1c-7.8,0-15.6-24.8-15.6-54.4c0-37.3-7.8-54.4-23.3-54.4
			c-14,0-23.3-14-23.3-37.3c0-21.7-6.2-43.5-15.6-48.2c-7.8-4.7-15.6-26.4-15.6-48.2c0-20.2-6.2-37.3-15.6-37.3
			c-7.8,0-15.6-10.9-15.6-23.3s-6.2-23.3-15.6-23.3c-7.8,0-15.6-14-15.6-31.1c0-17-4.7-31.1-12.5-31.1c-6.2,0-24.8-24.8-40.4-54.4
			c-17.1-29.5-35.7-54.4-43.5-54.4c-6.2,0-12.5-7.8-12.5-15.6c0-21.7-77.7-141.3-111.8-172.4c-15.6-14-27.9-31.1-27.9-35.7
			c0-14-40.4-56-54.4-56c-6.2,0-20.2-9.3-32.6-21.7c-12.5-12.5-21.7-26.4-21.7-32.6c0-12.5-42-54.4-54.4-54.4
			c-4.7,0-26.4-15.6-46.6-34.2c-62.1-59-83.9-74.6-100.9-74.6c-7.8,0-15.6-6.2-15.6-15.6c0-7.8-10.9-15.6-23.3-15.6
			c-12.5,0-45.1-20.2-71.4-46.6c-26.4-24.8-62.1-49.7-77.7-54.4c-17.1-6.2-29.5-17.1-29.5-24.8c0-7.8-17.1-14-38.8-14
			c-21.7,0-38.8-6.2-38.8-15.6c0-7.8-10.9-15.6-23.3-15.6c-12.5,0-35.7-6.2-51.3-14c-71.4-35.7-147.6-63.7-174-63.7
			c-17.1,0-31.1-6.2-31.1-15.6c0-7.8-37.3-15.6-83.9-15.6s-87-6.2-90.1-12.5c-10.9-27.9-288.9-87-434.9-93.2
			c-83.9-3.1-152.2-12.5-152.2-20.2c0-7.8-62.1-14-139.8-14c-82.3,0-139.8,6.2-139.8,15.6s-63.7,15.6-158.5,15.6
			c-118.1,0-200.4,10.9-329.3,42c-94.7,21.7-174,46.6-177.1,54.4c-3.1,6.2-40.4,12.5-82.3,12.5c-42,0-76.1,6.2-76.1,14
			s-24.8,18.6-56,24.8c-31.1,4.7-68.3,15.6-82.3,23.3c-14,7.8-48.2,23.3-74.6,34.2c-27.9,10.9-51.3,24.8-51.3,31.1
			c0,7.8-14,12.5-31.1,12.5c-31.1,0-167.8,71.4-219,113.4c-15.6,14-40.4,26.4-52.9,26.4c-12.5,0-23.3,6.2-23.3,12.5
			c0,6.2-31.1,24.8-66.8,40.4c-37.3,15.6-77.7,40.4-90.1,57.4c-10.9,15.6-26.4,29.5-34.2,29.5c-12.5,0-37.3,18.6-96.3,74.6
			c-20.2,18.7-42,34.2-46.6,34.2c-10.9,0-163.1,152.2-163.1,164.7c0,4.7-15.6,24.8-34.2,45.1c-88.6,96.3-105.6,116.5-105.6,124.3
			c0,4.7-7.8,17.1-15.6,27.9c-32.6,38.8-93.2,136.7-93.2,150.7c0,9.3-6.2,15.6-15.6,15.6c-7.8,0-15.6,14-15.6,31.1
			c0,17.1-6.2,31.1-12.5,31.1c-7.8,0-26.4,24.8-43.5,54.4c-15.6,29.5-34.2,54.4-40.4,54.4c-7.8,0-12.5,17.1-12.5,38.8
			c0,21.7-6.2,38.8-15.6,38.8c-7.8,0-15.6,14-15.6,29.5c0,17.1-4.7,32.6-10.9,35.7c-20.2,7.8-97.8,181.7-97.8,214.3
			c0,17.1-6.2,31.1-15.6,31.1c-7.8,0-15.6,31.1-15.6,69.9c0,38.8-6.2,69.9-15.6,69.9c-7.8,0-15.6,18.6-15.6,42
			c0,23.4-6.2,62.1-14,88.6c-32.6,102.5-63.7,293.6-63.7,382.2c0,51.3-6.2,93.2-15.6,93.2s-15.6,80.8-15.6,209.7
			c0,118.1,6.2,209.7,14,209.7c7.8,0,17.1,57.4,21.7,129c7.8,136.7,66.8,399.2,90.1,399.2c7.8,0,14,38.8,14,85.5
			c0,46.6,7.8,85.5,15.6,85.5c9.3,0,15.6,12.5,15.6,27.9c0,37.3,79.2,220.6,96.3,220.6c6.2,0,12.5,20.2,12.5,45.1
			s4.7,48.2,12.5,51.3c6.2,3.1,31.1,45.1,56,94.7c24.8,48.2,49.7,88.6,57.4,88.6c7.8,0,14,14,14,31.1c0,17.1,7.8,31.1,15.6,31.1
			c9.3,0,27.9,24.8,42,54.4c14,29.5,31.1,54.4,38.8,54.4c6.2,0,12.5,7.8,12.5,15.6c0,9.3,17.1,34.2,38.8,56
			c21.7,21.8,38.8,45.1,38.8,51.3c0,15.6,242.4,265.6,256.3,265.6c15.6,0,85.5,76.1,85.5,93.2c0,7.8,14,15.6,31.1,15.6
			s31.1,7.8,31.1,15.6c0,9.3,7.8,15.6,17.1,15.6s26.4,9.3,37.3,20.2c49.7,43.5,69.9,57.4,80.8,57.4c7.8,0,23.3,14,35.7,31.1
			c12.5,17.1,34.2,31.1,49.7,31.1s27.9,6.2,27.9,14s17.1,18.6,38.8,23.3c21.7,6.2,38.8,17.1,38.8,24.8c0,9.3,10.9,15.6,23.3,15.6
			c12.5,0,23.3,7.8,23.3,15.6c0,9.3,21.7,15.6,46.6,15.6c26.4,0,46.6,6.2,46.6,14c0,6.2,38.8,24.8,85.5,40.4
			c46.6,14,88.6,32.6,94.7,40.4c4.7,7.8,35.7,14,69.9,14c32.6,0,60.5,7.8,60.5,15.6c0,9.3,10.9,15.6,23.3,15.6
			c14,0,40.4,10.9,60.5,23.3c20.2,14,97.8,32.6,170.8,43.5c73,9.3,133.6,23.3,133.6,29.5c0,17.1,958.4,15.6,969.3-1.6
			c4.7-6.2,52.9-17.1,105.6-21.7c93.2-9.3,202-40.4,223.7-62.1c6.2-6.2,34.2-10.9,63.7-10.9c27.9,0,51.3-6.2,51.3-15.6
			c0-7.8,21.7-15.6,46.6-15.6c26.4,0,46.6-6.2,46.6-15.6c0-7.8,6.2-15.6,15.6-15.6c23.3,0,194.2-82.3,198.9-96.3
			c3.1-6.2,15.6-12.5,26.4-12.5c26.4,0,116.5-51.3,116.5-65.2c0-7.8,10.9-12.5,23.3-12.5c12.5,0,23.3-6.2,23.3-15.6
			c0-7.8,10.9-15.6,24.8-15.6c27.9,0,68.3-35.7,68.3-60.6c0-9.3,6.2-17.1,14-17.1c6.2,0,34.2-20.2,60.5-46.6
			c27.9-24.8,56-46.6,65.2-46.6c7.8,0,26.4-17.1,40.4-38.8c14-21.7,35.7-38.8,46.6-38.8c12.5,0,21.7-14,21.7-31.1
			c0-17.1,9.3-31.1,20.2-31.1c9.3-1.6,52.9-32.6,94.7-69.9l77.7-69.9l1095.2,3.1l1096.7,4.7l4.7,52.9c3.1,27.9-1.6,59-10.9,68.3
			s-17.1,26.4-17.1,38.8c0,10.9-10.9,31.1-23.3,43.5c-12.5,14-23.3,40.4-23.3,62.1c0,20.2-6.2,37.3-15.6,37.3
			c-7.8,0-15.6,10.9-15.6,23.3c0,12.5-6.2,23.3-15.6,23.3c-7.8,0-15.6,18.6-15.6,40.4c0,21.8-9.3,49.7-18.7,60.6
			c-49.7,56-59,71.4-59,100.9c0,17.1-6.2,31.1-15.6,31.1c-7.8,0-15.6,10.9-15.6,23.3c0,12.5-4.7,23.3-10.9,23.3
			c-7.8,0-26.4,27.9-42,62.1c-17.1,34.2-35.7,62.1-43.5,62.1c-6.2,0-12.5,10.9-12.5,23.3c0,12.5-6.2,23.3-15.6,23.3
			c-7.8,0-15.6,10.9-15.6,24.8c0,14-24.8,48.2-54.4,77.7c-29.5,27.9-54.4,59-54.4,68.3s-20.2,37.3-46.6,65.2
			c-24.8,26.4-46.6,54.4-46.6,60.5c0,6.1-17.1,29.5-38.8,51.3c-21.7,21.8-38.8,43.5-38.8,48.2c0,9.3-54.4,69.9-127.4,144.5
			c-281.1,282.7-379,374.4-425.7,394.5c-20.2,9.3-37.3,23.3-37.3,31.1c0,6.2-7.8,12.5-15.6,12.5c-9.3,0-34.2,17.1-56,38.8
			c-21.7,21.7-45.1,38.8-51.3,38.8c-6.2,0-34.2,21.7-60.5,46.6c-27.9,26.4-54.4,46.6-62.1,46.6c-6.2,0-29.5,17.1-52.9,38.8
			c-23.3,21.7-52.9,38.8-66.8,38.8c-12.5,0-23.3,7.8-23.3,15.6c0,9.3-10.9,15.6-23.3,15.6c-12.5,0-23.3,4.7-23.3,12.5
			c0,14-88.6,65.2-115,65.2c-9.3,0-27.9,14-40.4,31.1c-12.5,17.1-38.8,31.1-57.4,31.1c-20.2,0-35.7,7.8-35.7,15.6
			c0,9.3-10.9,15.6-24.8,15.6c-12.5,0-34.2,10.9-46.6,23.3c-14,12.5-35.7,23.3-51.3,23.3c-14,0-42,14-60.6,31.1
			c-18.6,17-46.6,31.1-65.2,31.1c-17.1,0-31.1,7.8-31.1,15.6c0,9.3-12.5,15.6-27.9,15.6c-15.6,0-42,10.9-59,23.3
			c-15.6,12.5-42,23.3-56,23.3c-15.6,0-27.9,7.8-27.9,15.6c0,9.3-24.8,15.6-54.4,15.6c-29.5,0-54.4,7.8-54.4,15.6
			c0,9.3-14,15.6-31.1,15.6c-17.1,0-31.1,7.8-31.1,15.6c0,9.3-23.3,15.6-49.7,15.6c-27.9,1.6-68.3,10.9-90.1,23.3
			c-21.7,12.5-54.4,21.7-73,23.3c-20.2,0-35.7,7.8-35.7,15.6c0,9.3-31.1,15.6-69.9,15.6s-69.9,6.2-69.9,14
			c0,14-17.1,18.7-178.6,48.2c-51.3,9.3-105.6,23.3-119.6,31.1c-15.6,9.3-66.8,15.6-113.4,15.6c-46.6,0-85.5,6.2-85.5,14
			c0,23.3-257.9,35.7-699,35.7c-455.2,0-714.6-12.5-714.6-34.2c0-6.2-40.4-17.1-88.6-20.2c-163.1-15.6-338.6-43.5-354.2-59
			c-7.8-7.8-29.5-14-49.7-14c-20.2,0-35.7-6.2-35.7-15.6c0-7.8-24.8-15.6-54.4-15.6s-54.4-6.2-54.4-15.6c0-7.8-27.9-15.6-62.1-15.6
			c-34.2,0-62.1-6.2-62.1-15.6c0-7.8-26.4-18.7-57.4-23.3c-32.6-4.7-71.4-15.6-85.5-24.8c-15.6-7.8-45.1-14-66.8-14
			c-21.7,0-38.8-6.2-38.8-15.6c0-7.8-14-15.6-31.1-15.6c-17.1,0-31.1-6.2-31.1-15.6c0-7.8-14-15.6-31.1-15.6
			c-34.2,0-144.5-48.2-152.2-65.2c-3.1-7.8-23.3-12.5-43.5-12.5c-20.2,0-37.3-6.2-37.3-15.6c0-7.8-14-15.6-31.1-15.6
			c-17,0-31.1-6.2-31.1-15.6c0-7.8-14-15.6-31.1-15.6c-17.1,0-31.1-6.2-31.1-15.6c0-7.8-17.1-18.7-38.8-24.8
			c-21.7-4.7-38.8-15.6-38.8-23.3c0-7.8-14-14-31.1-14c-17.1,0-31.1-6.2-31.1-15.6c0-7.8-10.9-15.6-23.3-15.6
			c-12.5,0-23.3-6.2-23.3-15.6c0-7.8-14-15.6-29.5-15.6c-17.1,0-40.4-10.9-54.4-23.3c-12.5-12.5-29.5-23.3-38.8-23.3
			c-9.3,0-17.1-6.2-17.1-15.6c0-7.8-14-15.6-31.1-15.6c-17.1,0-31.1-6.2-31.1-15.6c0-7.8-10.9-15.6-23.3-15.6
			c-12.5,0-23.3-6.2-23.3-15.6c0-7.8-14-15.6-31.1-15.6c-17.1,0-31.1-10.9-31.1-23.3c0-12.5-14-23.3-31.1-23.3
			c-17.1,0-31.1-6.2-31.1-15.6c0-7.8-7.8-15.6-17.1-15.6s-40.4-24.8-69.9-54.4c-27.9-29.5-59-54.4-68.3-54.4s-37.3-20.2-63.7-46.6
			c-26.4-24.8-62.1-49.7-77.7-54.4c-17.1-6.2-29.5-17.1-29.5-24.8c0-7.8-27.9-14-62.1-14c-56,0-73,9.3-141.3,77.7
			c-42,43.5-83.9,77.7-90.1,77.7s-34.2,21.7-60.5,46.6c-27.9,26.4-60.6,46.6-73,46.6s-23.3,7.8-23.3,15.6c0,9.3-10.9,15.6-23.3,15.6
			c-12.5,0-38.8,17.1-60.5,38.8c-21.7,21.7-49.7,38.8-63.7,38.8c-12.5,0-23.3,7.8-23.3,15.6c0,9.3-10.9,15.6-23.3,15.6
			c-12.5,0-23.3,4.7-23.3,12.5c0,14-88.6,65.2-115,65.2c-9.3,0-27.9,14-40.4,31.1c-12.5,17.1-31.1,31.1-42,31.1
			c-10.9,0-20.2,7.8-20.2,15.6c0,9.3-12.5,15.6-27.9,15.6c-15.6,0-42,10.9-59,23.3c-15.6,12.5-42,23.3-56,23.3
			c-15.6,0-27.9,7.8-27.9,15.6c0,9.3-14,15.6-31.1,15.6c-17,0-31.1,7.8-31.1,15.6c0,9.3-17.1,15.6-38.8,15.6
			c-21.7,0-38.8,6.2-38.8,14s-20.2,18.6-46.6,24.8c-24.8,6.2-49.7,17.1-54.4,24.8c-6.2,7.8-23.3,14-40.4,14
			c-15.6,0-29.5,7.8-29.5,15.6c0,9.3-17.1,15.6-38.8,15.6c-21.7,0-38.8,7.8-38.8,15.6c0,9.3-14,15.6-29.5,15.6
			c-17.1,0-34.2,6.2-38.8,14c-4.7,6.2-43.5,17.1-85.5,23.3c-43.5,6.2-82.3,17.1-87,24.8c-4.7,9.3-34.2,15.6-63.7,15.6
			c-29.5,0-52.9,7.8-52.9,15.6c0,9.3-20.2,15.6-46.6,15.6c-24.8,0-46.6,7.8-46.6,15.6c0,9.3-24.8,15.6-54.4,15.6s-54.4,6.2-54.4,14
			c0,6.2-51.3,17.1-111.8,23.3c-62.1,6.2-119.6,17.1-127.4,24.8c-9.3,9.3-52.9,15.6-97.8,15.6c-45.1,0-82.3,6.2-82.3,14
			c0,20.2-172.4,31.1-629.1,40.4C5814.2,16861.8,5646.3,16858.8,5634,16849.4z M6455.7,14923.2c0-6.2,45.1-17.1,99.4-23.3
			c119.6-12.5,248.5-48.2,279.7-79.2c12.5-12.5,43.5-23.3,69.9-23.3c26.4,0,48.2-6.2,48.2-15.6c0-7.8,14-15.6,31.1-15.6
			c34.2,0,206.6-77.7,214.3-96.3c3.1-6.2,18.6-12.5,34.2-12.5c26.4,0,115-49.7,166.3-93.2c10.9-7.8,23.3-15.6,27.9-15.6
			s26.4-15.6,46.6-34.2c54.4-51.3,82.3-74.6,93.2-74.6c4.7,0,37.3-27.9,71.4-62.1c35.7-34.2,69.9-62.1,76.1-62.1
			c35.7,0,99.4-85.5,135.1-186.4c26.4-74.6,24.8-97.8-10.9-124.3c-17.1-12.5-34.2-48.2-40.4-88.6c-4.7-37.3-15.6-66.8-23.3-66.8
			c-7.7,0-14-24.8-14-54.4c0-29.5-6.2-54.4-15.6-54.4c-7.8,0-15.6-20.2-15.6-45.1c0-49.7-37.3-149.1-62.1-164.7
			c-7.8-4.7-15.6-40.4-15.6-79.2c0-37.3-6.2-68.3-15.6-68.3c-7.8,0-15.6-38.8-15.6-85.5v-85.5h-233c-144.5,0-233,6.2-233,15.6
			c0,21.7-57.4,18.6-66.8-3.1c-6.2-15.6-12.5-14-26.4,3.1s-20.2,18.6-26.4,4.7c-3.1-10.9-17.1-20.2-29.5-20.2
			c-12.5,0-21.7-6.2-21.7-15.6c0-7.8-10.9-15.6-23.3-15.6c-12.4,0-54.4-31.1-91.7-69.9c-38.8-38.8-74.6-69.9-80.8-69.9
			c-12.5,0-43.5-29.5-233-212.8c-80.8-79.2-153.8-144.5-161.6-144.5c-9.3,0-15.6-6.2-15.6-15.6c0-7.8-7.8-15.6-15.6-15.6
			c-9.3,0-46.6-31.1-83.9-69.9c-38.8-38.8-74.6-69.9-79.2-69.9c-15.6,0-54.4-43.5-54.4-60.5c0-9.3-10.9-17.1-23.3-17.1
			c-12.4,0-23.3-6.2-23.3-15.6c0-7.8-7.8-15.6-15.6-15.6c-9.3,0-40.4-24.8-68.3-54.4c-29.5-29.5-57.4-54.4-62.1-54.4
			s-57.4-46.6-116.5-104.1c-113.4-111.8-183.3-175.5-195.8-175.5c-3.1,0-60.6-52.9-127.4-116.5c-65.2-63.7-124.3-116.5-132-116.5
			c-6.2,0-52.9-42-104.1-93.2c-51.3-51.3-100.9-93.2-111.8-93.2c-9.3,0-48.2-31.1-85.5-69.9c-35.7-38.8-71.4-69.9-76.1-69.9
			c-6.2,0-27.9-14-48.2-29.5c-31.1-24.8-32.6-31.1-12.5-38.8c14-4.7,612.1-9.3,1329.7-9.3c1109.1,0,1308-3.1,1326.7-21.7
			c12.5-14,21.7-54.4,21.7-100.9c0-43.5,7.8-79.2,15.6-79.2c9.3,0,15.6-20.2,15.6-45.1c0-23.3,17.1-91.7,38.8-150.7
			c21.7-59,38.8-119.6,38.8-133.6c0-15.6,7.8-27.9,15.6-27.9c9.3,0,15.6-24.8,15.6-54.4c0-29.6,7.8-54.4,15.6-54.4
			c9.3,0,15.6-17.1,15.6-38.8c0-48.2,45.1-163.1,63.7-163.1c7.8,0,14-14,14-31.1c0-17.1,7.8-31.1,15.6-31.1
			c27.9,0,17.1-77.7-15.6-111.8c-17.1-18.6-31.1-43.5-31.1-54.4c0-10.9-7.8-20.2-15.6-20.2c-9.3,0-40.4-23.3-69.9-49.7
			c-68.3-66.8-97.8-90.1-108.7-90.1c-4.7,0-26.4-15.6-46.6-34.2c-62.1-59-83.9-74.6-100.9-74.6c-7.8,0-15.6-6.2-15.6-15.6
			c0-7.8-10.9-15.6-23.3-15.6c-12.4,0-23.3-6.2-23.3-12.5c0-7.8-27.9-26.4-62.1-42c-34.2-15.6-62.1-34.2-62.1-42
			c0-6.2-17.1-12.5-38.8-12.5c-21.7,0-38.8-6.2-38.8-15.6c0-7.8-14-15.6-29.5-15.6c-17.1,0-32.6-4.7-35.7-10.9
			c-7.8-18.7-118.1-66.8-152.2-66.8c-17.1,0-31.1-6.2-31.1-15.6c0-7.8-27.9-15.6-62.1-15.6c-34.2,0-62.1-6.2-62.1-12.5
			c0-7.8-51.3-23.3-111.8-34.2c-62.1-10.9-147.6-29.5-189.5-40.4c-45.1-12.5-152.2-21.7-261-21.7c-111.8,0-183.3-6.2-183.3-15.6
			s-43.5-15.6-100.9-15.6s-100.9,6.2-100.9,15.6s-60.6,15.6-150.7,15.6c-156.9,0-501.8,65.2-501.8,94.7c0,7.8-31.1,14-69.9,14
			c-38.8,0-69.9,4.7-69.9,12.5c0,6.2-45.1,24.8-100.9,42c-56,15.6-100.9,35.7-100.9,42c0,6.2-17.1,12.5-38.8,12.5
			c-21.7,0-38.8,7.8-38.8,15.6c0,9.3-12.5,15.6-26.4,15.6c-35.7,0-206.6,79.2-206.6,96.3c0,6.2-10.9,12.5-23.3,12.5
			c-12.5,0-23.3,7.8-23.3,15.6c0,9.3-14,15.6-31.1,15.6c-17.1,0-31.1,6.2-31.1,12.5c0,7.8-24.8,26.4-54.4,43.5
			c-29.5,15.6-54.4,34.2-54.4,40.4c0,7.8-7.8,12.5-15.6,12.5c-15.6,0-31.1,12.5-132,105.6c-20.2,18.7-42,34.2-46.6,34.2
			c-15.6,0-54.4,43.5-54.4,60.6c0,9.3-6.2,17.1-12.5,17.1c-15.6,0-127.4,100.9-127.4,115c0,6.2-15.6,27.9-34.2,48.2
			c-52.9,56-74.6,82.3-74.6,93.2c0,4.7-15.6,26.4-34.2,46.6c-56,59-74.6,83.9-74.6,96.3c0,7.8-14,23.3-31.1,35.7
			c-17.1,12.5-31.1,37.3-31.1,56c0,37.3-46.6,130.5-65.2,130.5c-7.8,0-12.5,10.9-12.5,23.3s-6.2,23.3-15.6,23.3
			c-7.8,0-15.6,14-15.6,31.1c0,17-6.2,31.1-15.6,31.1c-7.8,0-15.6,14-15.6,31.1c0,15.6-17.1,60.5-38.8,99.4
			c-21.7,38.8-38.8,80.8-38.8,93.2c0,14-6.2,24.8-15.6,24.8c-7.8,0-15.6,27.9-15.6,62.1c0,34.2-6.2,62.1-15.6,62.1
			c-7.8,0-15.6,24.8-15.6,56c0,29.5-7.8,69.9-17.1,87c-17.1,31.1-38.8,138.2-56,273.4c-4.7,35.7-14,65.2-21.7,65.2
			c-7.7,0-14,160-14,365c0,233,6.2,365,15.6,365s15.6,23.3,15.6,51.3s14,113.4,32.6,191.1c18.7,76.1,35.7,164.7,40.4,197.3
			c4.7,31.1,14,57.4,21.7,57.4c7.7,0,14,27.9,14,62.1c0,34.2,6.2,62.1,12.5,62.1s24.8,35.7,42,77.7c17.1,43.5,35.7,77.7,42,77.7
			c6.2,0,12.5,20.2,12.5,45.1s4.7,48.2,12.5,51.3c6.2,3.1,31.1,45.1,57.4,94.7c24.8,48.2,51.3,88.6,57.4,88.6
			c6.1,0,12.5,14,12.5,31.1c0,17.1,7.8,31.1,15.6,31.1c9.3,0,15.6,7.8,15.6,15.6c0,17.1,15.6,38.8,74.6,100.9
			c18.7,20.2,34.2,48.2,34.2,62.1c0,14,40.4,66.8,90.1,116.5c48.2,51.3,105.6,116.5,127.4,146c21.7,31.1,46.6,56,57.4,56
			c9.3,0,49.7,31.1,87,69.9c38.8,38.8,74.6,69.9,80.8,69.9c9.3,0,37.3,21.7,93.2,74.6c20.2,18.6,49.7,34.2,65.2,34.2
			s38.8,14,51.3,31.1c12.5,17.1,27.9,31.1,35.7,31.1c6.2,0,38.8,17.1,69.9,38.8c31.1,21.7,69.9,38.8,83.9,38.8
			c15.6,0,27.9,7.8,27.9,15.6c0,9.3,10.9,15.6,23.3,15.6c12.4,0,23.3,7.8,23.3,15.6c0,9.3,12.5,15.6,27.9,15.6
			c14,0,40.4,10.9,56,23.3c17.1,12.5,43.5,23.3,59,23.3s27.9,7.8,27.9,15.6c0,9.3,24.8,15.6,54.4,15.6s54.4,7.8,54.4,15.6
			c0,9.3,20.2,15.6,45.1,15.6c26.4,0,49.7,6.2,54.4,14c4.7,6.2,69.9,24.8,144.5,38.8c76.1,15.6,153.8,32.6,175.5,40.4
			C5528.3,14938.7,6455.7,14940.3,6455.7,14923.2z"/>
	</g>
	<g transform="translate(0.000000,1810.000000) scale(0.100000,-0.100000)">
		<path d="M2191.6,6315.8c-34.2-4.7-88.6-21.7-122.7-35.7c-32.6-14-73-26.4-88.6-26.4c-17.1,0-29.5-6.2-29.5-15.6
			c0-7.8-10.9-15.6-23.3-15.6c-23.3,0-38.8-9.3-93.2-57.4c-10.9-10.9-24.8-20.2-31.1-20.2c-17.1,0-194.2-181.7-194.2-200.4
			c0-9.3-6.2-17.1-15.6-17.1c-7.8,0-15.6-10.9-15.6-23.3c0-14-14-38.8-31.1-57.4c-17.1-18.7-31.1-46.6-31.1-60.6
			c0-15.6-10.9-37.3-23.3-51.3c-12.5-12.5-23.3-49.7-23.3-85.5c0-35.7-6.2-63.7-15.6-63.7c-9.3,0-15.6-66.8-15.6-170.8
			c0-104.1,6.2-170.8,15.6-170.8c9.3,0,15.6-32.6,15.6-71.4c0-42,9.3-79.2,23.3-93.2c12.5-14,23.3-37.3,23.3-54.4
			c0-15.6,7.8-29.5,15.6-29.5c9.3,0,15.6-10.9,15.6-23.3c0-12.4,7.8-23.3,15.6-23.3c9.3,0,15.6-14,15.6-31.1s6.2-31.1,12.5-31.1
			c6.2,0,24.8-23.3,42-49.7c26.4-45.1,60.6-82.3,138.2-147.6c14-10.9,31.1-20.2,40.4-20.2c7.8,0,15.6-6.2,15.6-15.6
			c0-7.8,10.9-15.6,23.3-15.6c14,0,38.8-14,57.4-31.1c18.7-17.1,45.1-31.1,59-31.1c13.9,0,38.8-10.9,56-23.3
			c15.6-12.5,59-23.3,96.3-23.3c35.7,0,65.2-6.2,65.2-15.6c0-9.3,80.8-15.6,209.7-15.6s209.7,6.2,209.7,15.6
			c0,9.3,26.4,15.6,59,15.6c34.2,0,80.8,9.3,105.6,21.7c24.8,10.9,68.3,31.1,96.3,42c26.4,12.5,49.7,26.4,49.7,32.6
			c0,7.8,6.2,12.5,14,12.5c18.7,0,125.9,104.1,125.9,122.7c0,9.3,9.3,17.1,20.2,17.1c12.5,0,29.5,17.1,38.8,38.8
			c9.3,21.7,24.8,38.8,34.2,38.8c7.8,0,15.6,14,15.6,31.1c0,17,7.8,31.1,15.6,31.1c9.3,0,15.6,17.1,15.6,38.8
			c0,21.7,7.8,38.8,15.6,38.8c9.3,0,15.6,14,15.6,31.1c0,17,7.8,31.1,15.6,31.1c9.3,0,15.6,27.9,15.6,62.1
			c0,34.2,10.9,88.6,23.3,119.6c23.3,54.4,32.6,273.4,14,321.5c-7.8,21.7-57.4,24.8-393,24.8c-209.7,0-410.1,7.8-442.7,15.6
			c-52.9,12.5-65.2,9.3-90.1-18.6c-23.3-26.4-27.9-60.6-27.9-183.3c0-183.3-21.7-170.8,299.8-170.8c217.5,0,228.4-1.6,228.4-31.1
			c0-17.1-6.2-31.1-15.6-31.1c-7.8,0-15.6-15.6-15.6-35.7c0-18.6-14-45.1-31.1-57.4c-17.1-12.5-31.1-32.6-31.1-43.5
			c0-24.8-60.6-79.2-88.6-80.8c-10.9,0-20.2-6.2-20.2-15.6c0-7.8-14-15.6-31.1-15.6c-17,0-31.1-6.2-31.1-15.6
			c0-7.8-23.3-15.6-51.3-15.6s-59-7.8-68.3-17.1c-20.2-20.2-284.2,12.5-284.2,35.7c0,6.2-20.2,12.5-46.6,12.5
			c-24.8,0-46.6,7.8-46.6,15.6c0,9.3-9.3,15.6-21.7,15.6c-46.6,0-195.8,172.4-195.8,225.2c0,12.5-6.2,23.3-15.6,23.3
			s-15.6,74.6-15.6,194.2s6.2,194.2,15.6,194.2s15.6,21.7,15.6,46.6c0,48.2,7.8,60.6,74.6,132c18.7,20.2,34.2,45.1,34.2,54.4
			c0,7.8,14,15.6,31.1,15.6s31.1,7.8,31.1,15.6c0,9.3,10.9,15.6,23.3,15.6s23.3,4.7,23.3,12.5c0,26.4,100.9,65.2,170.8,65.2
			c45.1,0,79.2,7.8,83.9,20.2c7.8,15.6,10.9,15.6,18.7,0c4.7-12.5,38.8-20.2,83.9-20.2c69.9,0,215.9-60.6,229.9-96.3
			c3.1-6.2,15.6-12.5,26.4-12.5c10.9,0,23.3-6.2,26.4-12.5c3.1-7.8,104.1-18.7,226.8-23.3l220.6-10.9v56c0,56-6.2,66.8-88.6,153.8
			c-27.9,29.5-51.3,57.4-51.3,62.1c0,12.5-42,54.4-54.4,54.4c-4.7,0-17.1,7.8-27.9,15.6c-38.8,32.6-136.7,93.2-150.7,93.2
			c-9.3,0-15.6,7.8-15.6,15.6c0,9.3-17.1,15.6-38.8,15.6c-21.7,0-56,9.3-74.6,21.7C2621.9,6321.9,2348.5,6343.7,2191.6,6315.8z"/>
		<path d="M4280.9,6321.9c-107.2-18.6-203.5-43.5-211.2-56c-4.7-6.2-21.7-12.5-38.8-12.5c-15.6,0-29.5-6.2-29.5-15.6
			c0-7.8-14-15.6-31.1-15.6c-17.1,0-31.1-6.2-31.1-14s-15.6-20.2-34.2-26.4c-20.2-6.2-46.6-23.3-60.6-38.8
			c-14-17.1-31.1-29.5-37.3-29.5c-15.6,0-116.5-110.3-116.5-127.4c0-6.2-10.9-12.5-23.3-12.5s-23.3-14-23.3-31.1
			c0-17-6.2-31.1-15.6-31.1c-7.8,0-15.6-10.9-15.6-23.3c0-12.4-6.2-23.3-15.6-23.3c-7.8,0-15.6-17.1-15.6-38.8
			c0-21.7-6.2-38.8-14-38.8c-14,0-63.7-136.7-63.7-177.1c0-14-6.2-24.8-15.6-24.8s-15.6-66.8-15.6-170.8s6.2-170.8,15.6-170.8
			s15.6-14,15.6-32.6c0-46.6,48.2-184.9,63.7-184.9c7.8,0,14-14,14-32.6c0-17.1,9.3-40.4,20.2-52.9c9.3-10.9,32.6-38.8,49.7-63.7
			c59-83.9,219-239.3,245.4-239.3c14,0,26.4-6.2,26.4-15.6c0-7.8,9.3-15.6,20.2-15.6c9.3,0,54.4-18.7,96.3-38.8
			c43.5-21.7,96.3-38.8,121.2-38.8c23.3,0,42-6.2,42-15.6c0-9.3,82.3-15.6,217.5-15.6s217.5,6.2,217.5,15.6
			c0,9.3,23.3,15.6,52.9,15.6c27.9,0,60.6,10.9,71.4,23.3c10.9,12.5,32.6,23.3,48.2,23.3c17.1,0,29.5,7.8,29.5,15.6
			c0,9.3,10.9,15.6,23.3,15.6c12.4,0,23.3,7.8,23.3,15.6c0,9.3,10.9,15.6,24.8,15.6c24.8,0,285.8,254.7,285.8,279.7
			c0,9.3,7.8,15.6,15.6,15.6c9.3,0,15.6,14,15.6,31.1c0,17.1,6.2,31.1,14,31.1s18.6,27.9,24.8,62.1c6.2,34.2,17.1,65.2,24.8,71.4
			c7.8,4.7,14,38.8,14,77.7c0,37.3,7.8,68.3,15.6,68.3c9.3,0,15.6,54.4,15.6,132c0,77.7-6.2,132-15.6,132
			c-7.8,0-15.6,35.7-15.6,77.7c0,43.5-6.2,77.7-15.6,77.7c-7.8,0-15.6,10.9-15.6,23.3c0,32.6-51.3,147.6-65.2,147.6
			c-7.8,0-12.5,10.9-12.5,23.3c0,12.4-6.2,23.3-15.6,23.3c-7.8,0-15.6,14-15.6,31.1c0,17-10.9,31.1-23.3,31.1
			c-12.4,0-23.3,6.2-23.3,12.5c0,15.6-100.9,127.4-115,127.4c-6.2,0-27.9,17.1-49.7,38.8c-21.7,21.7-48.2,38.8-60.6,38.8
			c-12.4,0-23.3,7.8-23.3,15.6c0,9.3-14,15.6-31.1,15.6c-17,0-31.1,7.8-31.1,15.6c0,9.3-12.5,15.6-27.9,15.6s-34.2,4.7-40.4,10.9
			C4700.4,6304.9,4399,6343.7,4280.9,6321.9z M4582.3,5919.6c17.1-12.5,43.5-23.3,59-23.3c15.6,0,27.9-6.2,27.9-15.6
			c0-7.8,10.9-15.6,23.3-15.6c26.4,0,147.6-115,147.6-141.3c0-9.3,10.9-26.4,23.3-38.8c12.5-14,23.3-40.4,23.3-62.1
			c0-20.2,7.8-37.3,15.6-37.3c9.3,0,15.6-20.2,15.6-46.6c0-24.8,7.8-46.6,15.6-46.6c9.3,0,15.6-34.2,15.6-77.7
			c0-42-6.2-77.7-15.6-77.7c-7.8,0-15.6-20.2-15.6-45.1c0-56-34.2-138.2-76.1-183.3c-18.7-18.7-32.6-45.1-32.6-59
			c0-12.5-7.8-23.3-17.1-23.3s-24.8-9.3-35.7-18.7c-65.2-63.7-107.2-90.1-139.8-90.1c-20.2,0-40.4-7.8-43.5-18.7
			c-9.3-24.8-343.3-23.3-351.1,1.6c-3.1,9.3-23.3,17.1-43.5,17.1s-37.3,4.7-37.3,12.5c0,6.2-31.1,32.6-69.9,57.4
			c-37.3,26.4-69.9,59-69.9,74.6c0,14-6.2,26.4-14,26.4c-17.1,0-94.7,158.5-94.7,192.6c0,14-6.2,24.8-15.6,24.8
			c-7.8,0-15.6,38.8-15.6,85.5s7.8,85.5,15.6,85.5c9.3,0,15.6,21.7,15.6,48.2c0,46.6,74.6,200.4,97.8,200.4c6.2,0,10.9,14,10.9,29.5
			c0,17.1,14,35.7,31.1,40.4c17.1,4.7,31.1,17.1,31.1,24.8c0,7.8,9.3,14,20.2,14c10.9,0,29.5,14,42,31.1
			c12.5,17.1,37.3,31.1,57.4,31.1c18.7,0,43.5,10.9,54.4,23.3C4265.4,5950.7,4540.4,5950.7,4582.3,5919.6z"/>
		<path d="M6308.2,6321.9c-73-10.9-163.1-40.4-163.1-56c0-6.2-24.8-12.5-54.4-12.5c-29.5,0-54.4-6.2-54.4-15.6
			c0-7.8-14-15.6-31.1-15.6c-17,0-31.1-6.2-31.1-15.6c0-7.8-21.7-26.4-49.7-40.4c-63.7-32.6-229.9-200.4-229.9-231.5
			c0-14-10.9-27.9-23.3-32.6c-12.5-6.2-23.3-23.3-23.3-38.8c0-15.6-6.2-29.5-15.6-29.5c-7.8,0-15.6-10.9-15.6-23.3
			c0-12.4-6.2-23.3-15.6-23.3c-7.8,0-15.6-20.2-15.6-45.1c0-24.9-9.3-48.2-18.7-52.9c-27.9-7.8-27.9-545.2,0-573.2
			c9.3-9.3,18.7-31.1,18.7-46.6c0-17.1,14-43.5,31.1-62.1c17.1-18.6,31.1-46.6,31.1-62.1s9.3-27.9,21.7-27.9
			c10.9,0,31.1-23.3,42-49.7c24.8-62.1,156.9-198.9,191.1-198.9c14,0,24.8-6.2,24.8-15.6c0-7.8,10.9-15.6,23.3-15.6
			c12.4,0,23.3-6.2,23.3-14c0-7.8,31.1-26.4,69.9-42c38.8-14,69.9-32.6,69.9-38.8c0-7.8,27.9-14,62.1-14c34.2,0,62.1-6.2,62.1-15.6
			c0-9.3,82.3-15.6,217.5-15.6s217.5,6.2,217.5,15.6c0,9.3,23.3,15.6,52.9,15.6c29.6,0,63.7,10.9,77.7,23.3
			c12.5,12.5,32.6,23.3,43.5,23.3c12.5,0,37.3,14,56,31.1c18.7,17.1,43.5,31.1,57.4,31.1c12.5,0,23.3,7.8,23.3,15.6
			c0,9.3,9.3,15.6,20.2,15.6c29.5,0,197.3,170.8,197.3,202c0,7.8,7.8,15.6,15.6,15.6c9.3,0,15.6,14,15.6,31.1c0,17,6.2,31.1,14,31.1
			s20.2,15.6,26.4,35.7c6.2,18.7,14,37.3,20.2,42c23.3,20.2,48.2,82.3,48.2,124.3c0,24.8,7.8,46.6,15.6,46.6
			c9.3,0,15.6,82.3,15.6,217.5s-6.2,217.5-15.6,217.5c-7.8,0-15.6,17.1-15.6,37.3c0,46.6-76.1,226.8-94.7,226.8
			c-7.8,0-14,7.8-14,15.6c0,38.8-202,234.6-275,268.8c-20.2,9.3-35.7,21.7-35.7,29.5c0,6.2-14,12.5-31.1,12.5
			c-17,0-31.1,7.8-31.1,15.6c0,9.3-17.1,15.6-38.8,15.6c-21.7,0-38.8,6.2-38.8,12.5C6781.9,6301.8,6444.8,6342.2,6308.2,6321.9z
			 M6626.6,5919.6c10.9-12.5,32.6-23.3,48.2-23.3c17.1,0,29.5-6.2,29.5-15.6c0-7.8,10.9-15.6,23.3-15.6c12.4,0,23.3-6.2,23.3-15.6
			c0-7.8,14-15.6,31.1-15.6c17.1,0,31.1-7.8,31.1-15.6c0-9.3,15.6-34.2,35.7-54.4c57.4-62.1,73-83.9,73-100.9
			c0-7.8,7.8-15.6,15.6-15.6c9.3,0,15.6-24.8,15.6-54.4c0-29.6,7.8-54.4,15.6-54.4c9.3,0,15.6-49.7,15.6-116.5
			s-6.2-116.5-15.6-116.5c-7.8,0-15.6-31.1-15.6-69.9c0-38.8-6.2-69.9-12.5-69.9c-6.2,0-24.8-20.2-38.8-45.1
			c-35.7-60.6-150.7-172.4-177.1-172.4c-10.9,0-20.2-6.2-20.2-15.6c0-7.8-17.1-15.6-38.8-15.6c-21.7,0-38.8-6.2-38.8-15.6
			c0-7.8-20.2-15.6-45.1-15.6c-26.4,0-51.3-7.8-56-15.6c-15.6-23.3-240.8,6.2-240.8,32.6c0,7.8-20.2,14-46.6,14
			c-24.8,0-46.6,7.8-46.6,15.6c0,9.3-7.8,15.6-17.1,15.6c-27.9,0-169.3,153.8-169.3,184.9c0,17.1-4.7,32.6-10.9,35.7
			c-7.8,3.1-24.8,31.1-38.8,63.7c-37.3,77.7-38.8,307.6-4.7,343.3c12.5,12.5,23.3,37.3,23.3,54.4c0,18.7,7.8,32.6,15.6,32.6
			c9.3,0,15.6,10.9,15.6,23.3c0,37.3,139.8,169.3,214.3,202c35.7,15.6,65.2,34.2,65.2,42c0,6.2,73,12.5,161.6,12.5
			C6570.7,5943,6611.1,5938.3,6626.6,5919.6z"/>
		<path d="M10141.9,6315.8c-43.5-6.2-102.5-23.3-130.5-37.3c-26.4-14-62.1-24.8-79.2-24.8c-15.6,0-27.9-6.2-27.9-15.6
			c0-7.8-14-15.6-31.1-15.6c-17.1,0-31.1-6.2-31.1-14c0-7.8-15.6-20.2-34.2-26.4c-35.7-10.9-198.9-170.8-253.2-247
			c-17.1-24.8-40.4-52.9-49.7-63.7c-10.9-10.9-20.2-37.3-20.2-60.6s-9.3-49.7-20.2-62.1c-77.7-76.1-71.4-691.3,6.2-691.3
			c7.8,0,14-20.2,14-46.6c0-24.8,7.8-46.6,15.6-46.6c9.3,0,15.6-7.8,15.6-17.1s9.3-26.4,20.2-37.3c40.4-46.6,57.4-68.3,57.4-77.7
			c0-20.2,188-194.2,209.7-194.2c14,0,35.7-10.9,49.7-23.3c12.5-14,43.5-29.5,68.3-34.2c24.8-4.7,52.9-18.7,62.1-29.5
			c9.3-12.5,45.1-21.7,77.7-21.7c34.2,0,60.5-6.2,60.5-15.6c0-9.3,85.5-15.6,225.2-15.6s225.2,6.2,225.2,15.6
			c0,9.3,27.9,15.6,63.7,15.6s73,10.9,85.5,23.3c14,12.5,35.7,23.3,51.3,23.3c14,0,42,14,60.5,31.1c18.6,17.1,43.5,31.1,57.4,31.1
			c23.3,0,100.9,65.2,100.9,85.5c0,4.7,15.6,26.4,35.7,46.6c57.4,62.1,73,83.9,73,100.9c0,7.8,7.8,15.6,15.6,15.6
			c9.3,0,15.6,17.1,15.6,38.8c0,21.7,6.2,38.8,14,38.8s18.7,27.9,24.8,62.1c6.2,34.2,17.1,62.1,24.8,62.1c7.8,0,14,24.8,14,54.4
			c0,29.5,7.8,54.4,15.6,54.4c9.3,0,15.6,74.6,15.6,192.6v192.6l-445.8,6.2c-247,3.1-459.8,1.6-473.8-1.6
			c-24.8-4.7-27.9-26.4-27.9-172.4v-167.8l56-9.3c31.1-6.2,142.9-9.3,248.5-7.8c209.7,3.1,247-7.8,211.2-63.7
			c-9.3-17.1-18.7-45.1-18.7-62.1c0-62.1-136.7-186.4-205.1-186.4c-21.7,0-43.5-7.8-46.6-17.1c-7.8-23.3-374.4-24.8-382.2,0
			c-3.1,9.3-23.3,17.1-43.5,17.1c-20.2,0-37.3,7.8-37.3,15.6c0,9.3-12.5,15.6-27.9,15.6c-37.3,0-174,133.6-174,170.8
			c0,7.8-6.2,15.6-12.5,15.6c-29.5,0-54.4,94.7-62.1,236.1c-6.2,139.8-4.7,158.5,35.7,253.2c23.3,56,49.7,100.9,57.4,100.9
			c6.2,0,12.5,9.3,12.5,20.2c0,21.7,68.3,88.6,90.1,88.6c6.2,0,21.7,14,34.2,31.1c12.5,17.1,37.3,31.1,56,31.1
			c20.2,0,45.1,10.9,59,23.3c35.7,35.7,346.4,32.6,411.7-3.1c26.4-15.6,48.2-32.6,48.2-38.8c0-7.8,10.9-12.5,23.3-12.5
			c12.5,0,23.3-6.2,23.3-14c0-29.5,96.3-46.6,295.1-51.3c206.6-4.7,209.7-4.7,214.3,31.1c3.1,18.7-1.6,34.2-10.9,34.2
			s-17.1,15.6-17.1,35.7c0,18.6-14,45.1-31.1,57.4c-17,12.4-31.1,31.1-31.1,42c0,23.3-56,82.3-77.7,82.3c-9.3,0-37.3,20.2-63.7,46.6
			c-26.4,24.8-62.1,49.7-77.7,54.4c-17.1,6.2-29.5,17.1-29.5,24.8c0,7.8-17.1,14-37.3,14s-40.4,4.7-43.5,12.5
			c-7.8,20.2-156.9,68.3-245.4,82.3C10388.9,6331.3,10247.6,6331.3,10141.9,6315.8z"/>
		<path d="M7822.7,6303.3c-56-1.6-118.1-7.8-138.2-12.5l-37.3-7.8l10.9-306c14-419.4,14-598.1,1.6-722.4
			c-6.2-57.4-4.7-113.4,3.1-124.3c7.8-9.3,12.5-46.6,10.9-80.8c-3.1-34.2-9.3-164.7-15.6-290.5l-10.9-229.9h421
			c332.4,0,431.8,4.7,472.2,21.7c27.9,12.5,69.9,26.4,93.2,31.1c23.4,4.7,51.3,20.2,65.2,32.6c12.5,12.5,34.2,23.3,48.2,23.3
			c14,0,42,15.6,62.1,35.7c96.3,88.6,116.5,104.1,124.3,104.1c12.5,0,54.4,42,54.4,54.4c0,9.3,15.6,29.5,59,77.7
			c9.3,10.9,18.6,27.9,18.6,37.3c0,9.3,7.8,17.1,15.6,17.1c9.3,0,15.6,10.9,15.6,24.8c0,12.5,10.9,34.2,23.3,46.6
			c12.5,14,26.4,42,31.1,65.2c4.7,23.3,18.7,62.1,31.1,85.5c26.4,51.3,32.6,366.6,7.8,411.7c-7.8,14-21.7,56-31.1,91.7
			s-26.4,76.1-38.8,88.6c-12.5,12.5-23.3,29.5-23.3,38.8c0,9.3-6.2,17.1-15.6,17.1c-7.8,0-15.6,10.9-15.6,23.3
			c0,48.2-146,225.2-184.9,225.2c-9.3,0-17.1,7.8-17.1,15.6c0,9.3-10.9,15.6-23.3,15.6c-12.5,0-23.3,6.2-23.3,12.5
			c0,7.8-40.4,34.2-88.6,59c-49.7,24.8-91.7,49.7-94.7,57.4c-3.1,6.2-21.7,10.9-42,10.9c-20.2,0-56,7.8-80.8,17.1
			C8465.8,6287.7,7995.1,6311.1,7822.7,6303.3z M8428.5,5919.6c21.7-12.5,52.9-21.7,69.9-23.3c17.1,0,42-14,54.4-31.1
			c12.5-17.1,31.1-31.1,42-31.1s34.2-14,51.3-31.1c17.1-17.1,31.1-40.4,31.1-51.3c0-10.9,14-29.5,31.1-42
			c17.1-12.5,31.1-37.3,31.1-56c0-18.7,10.9-42,23.3-52.9c18.7-15.6,23.3-57.4,23.3-189.5c0-130.5-4.7-175.5-23.3-192.6
			c-12.5-14-23.3-37.3-23.3-52.9c0-15.6-6.2-34.2-15.6-38.8c-7.8-4.7-15.6-21.7-15.6-35.7c0-15.6-18.6-40.4-42-57.4
			c-21.7-17.1-48.2-38.8-57.4-46.6c-40.4-38.8-104.1-69.9-139.8-69.9c-20.2,0-40.4-6.2-43.5-14c-3.1-12.5-222.1-24.8-326.2-18.7
			c-26.4,1.6-27.9,37.3-27.9,518.8c0,285.8,4.7,523.5,10.9,528.2C8102.4,5953.8,8388.1,5943,8428.5,5919.6z"/>
		<path d="M12048,6294c-17.1-7.8-31.1-27.9-31.1-45.1c0-17.1-9.3-43.5-20.2-56c-10.9-14-29.5-54.4-42-90.1
			c-10.9-37.3-26.4-66.8-34.2-66.8c-6.2,0-12.5-14-12.5-31.1c0-17.1-6.2-31.1-15.6-31.1c-7.8,0-15.6-24.8-15.6-54.4
			c0-29.5-6.2-54.4-14-54.4c-6.2,0-24.8-31.1-38.8-69.9c-15.6-38.8-34.2-69.9-42-69.9s-14-24.8-14-54.4c0-29.5-6.2-54.4-15.6-54.4
			c-7.8,0-15.6-12.5-15.6-27.9s-10.9-42-23.3-59c-12.5-15.6-23.3-42-23.3-56c0-15.6-6.2-27.9-15.6-27.9c-7.8,0-15.6-14-15.6-31.1
			c0-17-6.2-31.1-15.6-31.1c-7.8,0-15.6-17.1-15.6-38.8c0-21.7-6.2-38.8-15.6-38.8c-7.8,0-15.6-17.1-15.6-37.3
			c0-20.2-10.9-45.1-23.3-56c-12.5-10.9-23.3-32.6-23.3-48.2c0-15.6-6.2-32.6-15.6-37.3c-7.8-4.7-15.6-23.3-15.6-40.4
			c0-15.6-6.2-29.5-15.6-29.5c-7.8,0-15.6-10.9-15.6-23.3c0-23.3-4.7-35.7-51.3-129c-14-29.5-26.4-62.1-26.4-74.6
			s-6.2-21.7-15.6-21.7c-7.8,0-15.6-14-15.6-31.1c0-17.1-6.2-31.1-15.6-31.1c-7.8,0-15.6-17.1-15.6-38.8s-6.2-38.8-12.5-38.8
			c-10.9,0-49.7-119.6-49.7-155.4c0-9.3,59-15.6,139.8-15.6c82.3,0,139.8,6.2,139.8,15.6c0,9.3,26.4,15.6,59,15.6
			c66.8,0,111.8,40.4,111.8,100.9c0,21.7,7.8,38.8,15.6,38.8c9.3,0,15.6,17.1,15.6,38.8s7.8,38.8,15.6,38.8
			c9.3,0,15.6,21.7,15.6,48.2c0,46.6,29.5,91.7,59,91.7c9.3,0,20.2,9.3,24.8,20.2c7.8,15.6,10.9,15.6,18.6,0
			c4.7-10.9,32.6-20.2,60.5-20.2s56,9.3,60.6,20.2c7.8,15.6,10.9,15.6,18.6,0c6.2-15.6,77.7-20.2,281.1-20.2
			c197.3,0,276.5-4.7,290.5-20.2c10.9-10.9,32.6-59,48.2-108.7c15.6-48.2,34.2-88.6,40.4-88.6c7.8,0,14-21.7,14-48.2
			c0-68.3,31.1-91.7,122.7-91.7c43.5,0,79.2-6.2,79.2-15.6c0-7.8,17.1-15.6,38.8-15.6s38.8,7.8,38.8,15.6c0,9.3,31.1,15.6,69.9,15.6
			h69.9v69.9c0,38.8-6.2,69.9-15.6,69.9c-7.8,0-15.6,17.1-15.6,38.8s-6.2,38.8-14,38.8s-26.4,31.1-42,69.9
			c-14,38.8-32.6,69.9-38.8,69.9c-7.8,0-14,21.7-14,46.6c0,26.4-6.2,46.6-15.6,46.6c-7.8,0-15.6,17.1-15.6,37.3
			c0,20.2-4.7,40.4-10.9,43.5c-21.7,9.3-97.8,175.5-97.8,211.2c0,18.7-6.2,34.2-15.6,34.2c-7.8,0-15.6,14-15.6,31.1
			c0,17.1-6.2,31.1-12.5,31.1c-6.2,0-24.8,35.7-42,77.7c-17.1,43.5-35.7,77.7-42,77.7c-6.2,0-12.5,21.7-12.5,46.6
			c0,26.4-6.2,46.6-15.6,46.6c-7.8,0-15.6,17.1-15.6,37.3c0,20.2-4.7,40.4-10.9,43.5c-17.1,6.2-66.8,116.5-66.8,144.5
			c0,12.5-6.2,23.3-15.6,23.3c-7.8,0-15.6,17.1-15.6,38.8c0,21.7-6.2,38.8-15.6,38.8c-7.8,0-15.6,9.3-15.6,21.7
			c0,29.5-80.8,217.5-96.3,223.7c-6.2,3.1-12.5,24.8-12.5,49.7c0,26.4-10.9,48.2-26.4,54.4
			C12369.5,6309.5,12085.3,6311.1,12048,6294z M12253.1,5702.1c9.3-21.7,23.3-38.8,31.1-38.8c6.2,0,12.5-17.1,12.5-38.8
			c0-21.7,6.2-38.8,12.5-38.8c6.2,0,20.2-31.1,31.1-68.3c9.3-37.3,27.9-79.2,42-91.7c12.5-14,23.3-35.7,23.3-48.2
			c0-14,7.8-24.8,15.6-24.8c9.3,0,15.6-20.2,15.6-46.6s7.8-46.6,20.2-48.2c9.3-1.6,1.6-7.8-20.2-14c-59-18.6-408.5-17.1-434.9,1.6
			c-17.1,12.5-18.6,18.7-3.1,24.8c9.3,3.1,18.6,27.9,18.6,52.9c0,24.8,7.8,45.1,15.6,45.1c9.3,0,15.6,17.1,15.6,38.8
			c0,21.7,6.2,38.8,12.5,38.8c14,0,96.3,172.4,96.3,200.4c0,9.3,7.8,17.1,15.6,17.1c9.3,0,15.6,12.5,15.6,27.9
			C12187.8,5751.9,12228.2,5758.1,12253.1,5702.1z"/>
		<path d="M13368.4,6287.7c-17.1-18.7-17.1-26.4-3.1-31.1c27.9-9.3,26.4-1643.5,0-1656c-15.6-7.8-15.6-10.9,0-18.7
			c9.3-4.7,18.7-18.7,18.7-31.1c0-17.1,37.3-21.7,194.2-21.7h194.2v528.2c0,341.8,6.2,528.2,15.6,528.2c9.3,0,15.6-6.2,15.6-15.6
			c0-7.8,10.9-15.6,23.3-15.6c12.5,0,23.3-9.3,23.3-20.2s14-29.5,31.1-42c17.1-12.5,31.1-31.1,31.1-42c0-10.9,20.2-42,46.6-68.3
			c24.8-26.4,49.7-62.1,54.4-77.7c6.2-17.1,17.1-29.5,24.8-29.5s14-7.8,14-15.6c0-15.6,12.5-34.2,59-85.5
			c9.3-10.9,18.7-32.6,18.7-45.1c0-14,7.8-24.8,15.6-24.8c9.3,0,15.6-6.2,15.6-15.6c0-24.8,150.7-170.8,177.1-170.8
			c15.6,0,24.8,12.5,24.8,32.6c0,17.1,9.3,42,20.2,52.9c48.2,54.4,57.4,69.9,57.4,93.2c0,12.5,7.8,23.3,15.6,23.3
			c9.3,0,15.6,9.3,15.6,20.2s17.1,32.6,38.8,48.2c21.7,15.6,38.8,38.8,38.8,51.3c0,12.5,17.1,38.8,37.3,59
			c20.2,20.2,52.9,68.3,73,108.7c18.6,38.8,40.4,69.9,48.2,69.9c6.2,0,12.5,7.8,12.5,17.1s9.3,24.8,20.2,35.7
			c9.3,12.5,29.5,35.7,42,54.4c12.5,17.1,27.9,32.6,34.2,32.6c6.2,0,12.5-243.8,12.5-543.7v-543.7h69.9c38.8,0,69.9-6.2,69.9-15.6
			c0-7.8,38.8-15.6,85.5-15.6c46.6,0,85.5,7.8,85.5,15.6c0,9.3,24.8,15.6,54.4,15.6h54.4v883.9c0,790.7-3.1,883.9-24.8,893.2
			c-14,4.7-93.2,9.3-175.5,9.3c-125.9,0-158.5-4.7-184.9-29.5c-18.6-15.6-34.2-32.6-34.2-38.8s-17.1-29.5-38.8-52.9
			c-21.7-23.3-38.8-48.2-38.8-57.4c0-9.3-14-26.4-31.1-38.8c-17.1-12.5-31.1-27.9-31.1-35.7c0-7.8-9.3-23.3-18.7-34.2
			c-46.6-51.3-59-69.9-59-85.5c0-7.8-6.2-15.6-15.6-15.6c-7.8,0-15.6-10.9-15.6-23.3c0-14-15.6-42-34.2-62.1
			c-56-59-74.6-83.9-74.6-96.3c0-7.8-14-23.3-31.1-35.7c-17.1-12.5-31.1-31.1-31.1-42c0-23.3-76.1-104.1-113.4-118.1
			c-14-4.7-26.4-3.1-26.4,6.2c0,9.3-9.3,26.4-18.7,37.3c-46.6,51.3-59,69.9-59,85.5c0,7.8-6.2,15.6-12.5,15.6
			c-7.8,0-26.4,24.8-43.5,54.4c-15.6,29.5-32.6,54.4-38.8,54.4s-18.6,21.7-29.5,46.6c-10.9,26.4-24.8,46.6-32.6,46.6
			s-14,7.8-14,15.6c0,17.1-15.6,38.8-73,100.9c-20.2,20.2-35.7,45.1-35.7,54.4c0,7.8-6.2,15.6-14,15.6c-7.8,0-21.7,21.7-32.6,46.6
			c-10.9,26.4-35.7,60.6-56,76.1c-20.2,17.1-37.3,35.7-37.3,43.5c0,31.1-76.1,49.7-225.2,56
			C13421.2,6309.5,13385.4,6306.4,13368.4,6287.7z"/>
		<path d="M15634.8,6036.1c-4.7-978.7-10.9-1382.5-20.2-1432.3c-10.9-52.9-9.3-59,23.3-66.8c20.2-4.7,282.7-6.2,580.9-4.7l543.7,4.7
			l-6.2,169.3c-3.1,113.4-12.5,177.1-24.8,191.1c-24.8,23.3-147.6,27.9-147.6,4.7c0-9.3-96.3-15.6-257.9-15.6
			c-315.4,0-306-6.2-306,186.4c-1.6,76.1,4.7,144.5,10.9,150.7s127.4,10.9,267.2,7.8c141.3-3.1,270.3,0,287.4,4.7
			c26.4,9.3,29.5,24.8,29.5,172.4c0,121.2-6.2,169.3-21.7,186.4c-18.7,18.7-60.6,18.7-268.8,3.1c-233-15.6-248.5-15.6-281.1,12.5
			c-29.5,24.8-34.2,45.1-34.2,146c0,63.7,4.7,132,9.3,152.2l9.3,34.2h372.8h371.3l-10.9,175.5c-6.2,94.7-14,177.1-17.1,181.7
			s-254.7,7.8-557.7,7.8h-549.9L15634.8,6036.1z"/>
		<path d="M1553.2,4083.5c-6.2-15.6-12.5-417.9-12.5-893.2c-1.6-865.3-1.6-865.3,31.1-873c88.6-23.3,253.2-27.9,307.6-9.3l59,18.7
			l-3.1,414.8c-4.7,646.2-6.2,636.9,31.1,627.6c17.1-4.7,31.1-21.7,31.1-37.3c0-17.1,7.8-29.5,15.6-29.5c17.1,0,93.2-69.9,93.2-85.5
			c0-4.7,15.6-26.4,35.7-46.6c52.9-57.4,73-83.9,73-94.7c0-4.7,21.7-29.5,46.6-52.9c26.4-23.3,46.6-48.2,46.6-52.9
			c0-10.9,20.2-37.3,74.6-94.7c18.7-20.2,34.2-42,34.2-46.6c0-4.7,15.6-26.4,35.7-46.6c51.3-56,73-82.3,73-93.2
			c0-4.7,15.6-26.4,35.7-46.6c54.4-59,73-83.9,73-96.3c0-7.8,14-23.3,31.1-35.7c17.1-12.5,31.1-29.5,31.1-38.8
			c0-7.8,26.4-43.5,59-79.2l57.4-63.7l147.6-10.9c82.3-6.2,161.6-6.2,175.5,0c24.8,9.3,26.4,76.1,26.4,901v891.6h-194.2h-192.6
			l-4.7-517.3c-3.1-422.6-9.3-520.4-26.4-540.6c-20.2-21.7-26.4-20.2-51.3,4.7c-15.6,15.6-27.9,35.7-27.9,43.5
			c0,9.3-6.2,15.6-15.6,15.6c-7.8,0-15.6,6.2-15.6,15.6c0,14-38.8,65.2-88.6,118.1c-10.9,10.9-20.2,26.4-20.2,35.7
			s-6.2,17.1-12.5,17.1c-6.2,0-23.3,18.7-37.3,43.5c-15.6,23.3-43.5,60.6-63.7,83.9c-20.2,23.3-49.7,60.6-66.8,83.9
			c-15.6,21.7-45.1,57.4-63.7,77.7c-20.2,20.2-35.7,40.4-35.7,45.1c0,10.9-23.3,40.4-88.6,108.7c-27.9,29.5-51.3,57.4-51.3,62.1
			c0,9.3-17.1,31.1-57.4,77.7c-10.9,10.9-20.2,24.8-20.2,31.1c0,4.7-15.6,26.4-34.2,46.6c-20.2,20.2-52.9,60.6-74.6,91.7l-38.8,54.4
			l-156.9,1.6C1588.9,4109.9,1564.1,4106.8,1553.2,4083.5z"/>
		<path d="M4088.3,4015.1c-17.1-51.3-35.7-96.3-43.5-100.9c-6.2-4.7-12.5-24.8-12.5-46.6c0-20.2-6.2-37.3-15.6-37.3
			c-7.8,0-15.6-17.1-15.6-38.8s-6.2-38.8-15.6-38.8c-7.8,0-15.6-9.3-15.6-21.7c0-27.9-79.2-202-96.3-208.1
			c-6.2-3.1-12.5-29.5-12.5-57.4s-6.2-54.4-12.5-57.4c-15.6-6.2-96.3-172.4-96.3-195.8c0-10.9-6.2-18.7-15.6-18.7
			c-7.8,0-15.6-20.2-15.6-46.6c0-24.8-4.7-46.6-12.5-46.6c-6.2,0-32.6-52.9-57.4-116.5c-26.4-63.7-51.3-116.5-57.4-116.5
			c-7.8,0-12.5-20.2-12.5-46.6c0-24.8-6.2-46.6-14-46.6c-6.2,0-24.8-31.1-38.8-69.9c-15.6-38.8-34.2-69.9-42-69.9
			c-7.8,0-14-20.2-14-46.6c0-24.8-6.2-46.6-15.6-46.6c-7.8,0-15.6-14-15.6-31.1c0-17-14-52.9-31.1-80.8
			c-51.3-85.5-43.5-100.9,60.6-113.4c110.3-12.5,296.7,4.7,321.5,29.5c9.3,10.9,23.3,42,29.5,68.3c4.7,27.9,17.1,49.7,24.8,49.7
			s14,24.8,14,54.4c0,29.5,7.8,54.4,15.6,54.4c9.3,0,15.6,10.9,15.6,23.3c0,14,15.6,42,35.7,62.1c34.2,35.7,38.8,37.3,368.1,38.8
			c427.2,4.7,403.9,6.2,403.9-31.1c0-17.1,6.2-31.1,15.6-31.1c7.8,0,18.7-18.7,24.8-42c14-69.9,40.4-129,54.4-129
			c7.8,0,14-21.7,14-48.2c0-83.9,23.3-91.7,247-91.7c192.6,0,203.5,1.6,203.5,31.1c0,17.1-6.2,31.1-15.6,31.1
			c-7.8,0-15.6,17.1-15.6,38.8c0,21.7-6.2,38.8-14,38.8s-21.7,23.3-32.6,51.3c-10.9,26.4-35.7,83.9-56,124.3
			c-20.2,42-37.3,88.6-37.3,105.6c0,15.6-6.2,29.5-15.6,29.5c-7.8,0-15.6,14-15.6,29.5c0,17.1-6.2,35.7-15.6,40.4
			c-7.8,4.7-15.6,20.2-15.6,32.6c0,14-10.9,34.2-23.3,46.6c-12.5,14-23.3,40.4-23.3,62.1c0,20.2-6.2,37.3-15.6,37.3
			c-7.8,0-15.6,14-15.6,31.1c0,17-6.2,31.1-15.6,31.1c-7.8,0-15.6,17.1-15.6,38.8c0,21.7-6.2,38.8-15.6,38.8
			c-7.8,0-15.6,12.5-15.6,27.9c0,14-10.9,40.4-23.3,56c-12.5,17.1-23.3,43.5-23.3,59c0,15.6-6.2,27.9-15.6,27.9
			c-7.8,0-15.6,21.7-15.6,46.6c0,26.4-14,62.1-31.1,80.8c-17.1,18.7-31.1,46.6-31.1,60.6c0,15.6-10.9,37.3-23.3,51.3
			c-12.5,12.5-23.3,37.3-23.3,54.4c0,18.7-6.2,32.6-15.6,32.6c-7.8,0-15.6,21.7-15.6,46.6c0,26.4-6.2,46.6-12.5,46.6
			s-24.8,35.7-42,77.7c-17.1,43.5-35.7,77.7-42,77.7s-12.5,21.7-12.5,46.6c0,26.4-6.2,46.6-15.6,46.6c-7.8,0-15.6,9.3-15.6,20.2
			s-17.1,35.7-38.8,54.4c-34.2,31.1-57.4,34.2-206.6,34.2h-166.3L4088.3,4015.1z M4360.2,3496.3c15.6-24.8,27.9-59,27.9-73
			c1.6-15.6,9.3-27.9,17.1-27.9c9.3,0,15.6-20.2,15.6-46.6c0-24.8,6.2-46.6,14-46.6c7.8,0,17.1-20.2,21.7-45.1
			c6.2-24.8,24.8-77.7,43.5-116.5c49.7-107.2,31.1-118.1-200.4-118.1c-146,0-188,4.7-194.2,21.7c-10.9,27.9,4.7,87,21.7,87
			c7.8,0,14,27.9,14,62.1c0,34.2,4.7,62.1,12.5,62.1c6.2,0,32.6,52.9,57.4,116.5c26.4,63.7,51.3,116.5,59,116.5
			c6.2,0,10.9,14,10.9,32.6C4280.9,3567.7,4327.6,3553.8,4360.2,3496.3z"/>
		<path d="M5154,4068c-7.8-24.8-15.6-57.4-14-74.6c0-17.1-1.6-74.6-4.7-127.4c-7.8-144.5-6.2-144.5,257.9-144.5h223.7v-107.2
			c0-71.4-6.2-110.3-18.7-115c-15.6-6.2-15.6-9.3,0-9.3c23.3-1.6,27.9-265.6,3.1-265.6c-7.8,0-15.6-14-15.6-31.1
			c0-17.1,7.8-31.1,15.6-31.1c23.3,0,18.7-135.1-3.1-146c-15.6-7.8-15.6-10.9,0-18.7c23.3-10.9,27.9-596.5,3.1-596.5
			c-23.3,0-18.7-29.5,7.8-56c31.1-32.6,287.4-56,351.1-34.2l45.1,15.6V3024v697.5h219c267.2,0,261-4.7,251.6,184.9
			c-3.1,73-9.3,149.1-14,169.3l-6.2,34.2h-643.1h-643.1L5154,4068z"/>
		<path d="M6733.7,4099c-1.6-7.8-3.1-405.4-6.2-885.4c-3.1-730.1,0-877.7,18.6-891.6c20.2-17.1,352.7-12.5,369.7,4.7
			c6.2,4.7,14,1624.9,9.3,1756.9c-1.6,23.3-21.7,26.4-195.8,26.4C6822.3,4109.9,6735.3,4105.3,6733.7,4099z"/>
		<path d="M8117.8,4094.4c0-7.8-23.3-15.6-49.7-15.6c-27.9,0-82.3-17.1-119.6-38.8c-35.7-21.7-76.1-38.8-88.6-38.8
			s-21.7-6.2-21.7-15.6c0-7.8-7.8-15.6-15.6-15.6c-27.9,0-233-198.9-233-225.2c0-9.3-17.1-31.1-57.4-77.7
			c-10.9-10.9-20.2-35.7-20.2-52.9c0-18.7-6.2-32.6-15.6-32.6c-7.8,0-15.6-17.1-15.6-38.8s-6.2-38.8-14-38.8
			c-26.4,0-51.3-180.2-43.5-334c7.8-170.8,23.3-256.3,43.5-256.3c7.8,0,14-17.1,14-38.8s7.8-38.8,15.6-38.8c9.3,0,15.6-14,15.6-29.5
			c0-17.1,9.3-40.4,20.2-51.3c9.3-10.9,29.5-40.4,42-66.8c26.4-51.3,163.1-194.2,186.4-194.2c9.3,0,15.6-4.7,15.6-10.9
			c0-7.8,27.9-26.4,62.1-42c34.2-17.1,62.1-35.7,62.1-43.5c0-6.2,14-12.5,31.1-12.5c17,0,31.1-6.2,31.1-15.6
			c0-7.8,10.9-15.6,23.3-15.6c12.4,0,23.3-6.2,23.3-15.6c0-7.8,20.2-15.6,45.1-15.6c24.9,0,69.9-10.9,99.4-23.3
			c73-29.5,292-29.5,375.9,0c34.2,12.5,80.8,23.3,105.6,23.3c23.3,0,42,7.8,42,15.6c0,9.3,14,15.6,31.1,15.6
			c17.1,0,31.1,7.8,31.1,15.6c0,9.3,9.3,15.6,21.7,15.6c12.5,0,32.6,9.3,43.5,20.2c10.9,9.3,40.4,29.5,66.8,42
			c62.1,31.1,225.2,194.2,225.2,225.2c0,12.5,7.8,23.3,15.6,23.3c9.3,0,27.9,24.8,42,54.4c14,29.5,31.1,54.4,38.8,54.4
			c6.2,0,12.5,24.8,12.5,54.4c0,29.5,6.2,54.4,14,54.4c32.6,0,63.7,456.7,34.2,486.2c-9.3,9.3-17.1,37.3-17.1,60.6
			c0,23.3-6.2,43.5-15.6,43.5c-7.8,0-15.6,12.5-15.6,29.5c0,31.1-76.1,177.1-96.3,184.9c-6.2,3.1-12.5,12.5-12.5,20.2
			c0,35.7-197.3,231.5-233,231.5c-7.8,0-15.6,7.8-15.6,15.6c0,9.3-12.5,15.6-26.4,15.6c-15.6,0-56,18.7-90.1,38.8
			c-34.2,21.7-85.5,38.8-111.8,38.8c-27.9,0-51.3,7.8-51.3,15.6c0,9.3-85.5,15.6-225.2,15.6
			C8203.3,4109.9,8117.8,4103.7,8117.8,4094.4z M8472.1,3727.8c35.7-4.7,65.2-15.6,65.2-23.3s17.1-14,38.8-14
			c26.4,0,63.7-26.4,121.2-85.5c111.8-116.5,119.6-125.9,119.6-163.1c0-17.1,7.8-31.1,15.6-31.1c9.3,0,15.6-24.8,15.6-54.4
			c0-29.6,7.8-54.4,15.6-54.4c9.3,0,15.6-35.7,15.6-77.7c0-80.8-29.5-202-49.7-202c-7.8,0-12.5-21.7-12.5-46.6
			c0-48.2-10.9-68.3-74.6-129c-80.8-79.2-111.8-104.1-127.4-104.1c-7.8,0-15.6-6.2-15.6-14c0-20.2-150.7-51.3-290.5-59
			c-85.5-4.7-129-1.6-129,9.3c0,9.3-14,17.1-29.5,17.1c-17.1,0-40.4,10.9-54.4,23.3c-12.5,12.5-26.4,23.3-32.6,23.3
			c-21.7,0-163.1,153.8-163.1,177.1c0,14-6.2,24.8-15.6,24.8c-7.8,0-15.6,10.9-15.6,23.3s-6.2,23.3-12.5,23.3
			c-6.2,0-20.2,46.6-29.5,105.6c-21.7,133.6,15.6,375.9,59,375.9c7.8,0,14,7.8,14,15.6c0,18.7,21.7,46.6,74.6,97.8
			c88.6,87,111.8,104.1,142.9,104.1c17.1,0,31.1,7.8,31.1,15.6c0,9.3,24.8,15.6,54.4,15.6s54.4,7.8,54.4,15.6
			C8257.6,3752.6,8299.6,3751,8472.1,3727.8z"/>
		<path d="M9562.6,4021.4c-3.1-773.6,1.6-1688.6,9.3-1696.4c4.7-4.7,88.6-9.3,186.4-9.3c133.6,0,181.7,4.7,191.1,21.7
			c7.8,10.9,10.9,247,6.2,523.5c-4.7,447.4-3.1,503.3,18.7,503.3c31.1,0,209.7-178.6,209.7-209.7c0-12.5,6.2-23.3,14-23.3
			s20.2-15.6,26.4-34.2c6.2-20.2,31.1-54.4,54.4-76.1c24.8-23.3,45.1-46.6,45.1-51.3c0-10.9,20.2-37.3,74.6-94.7
			c18.7-20.2,34.2-42,34.2-46.6c0-4.7,15.6-26.4,35.7-46.6c87-94.7,104.1-116.5,104.1-122.7c0-4.7,24.8-34.2,54.4-65.2
			c29.5-29.5,54.4-62.1,54.4-69.9c0-7.8,24.8-40.4,54.4-71.4s54.4-63.7,54.4-71.4c0-37.3,49.7-52.9,202-60.6
			c90.1-4.7,170.8-6.2,178.6-3.1c10.9,4.7,14,284.2,12.5,809.3c-3.1,442.7-4.7,845-4.7,894.8v88.6H11006
			c-129,0-177.1-6.2-194.2-23.3c-18.6-18.7-21.7-104.1-21.7-515.7c0-271.9,0-506.4,0-520.4c0-15.6-7.8-27.9-15.6-27.9
			c-17.1,0-93.2,69.9-93.2,85.5c0,4.7-15.6,26.4-34.2,46.6c-52.9,56-74.6,82.3-74.6,93.2c0,6.2-9.3,18.7-18.6,31.1
			c-10.9,10.9-34.2,38.8-51.3,63.7c-17.1,23.3-40.4,51.3-49.7,62.1c-10.9,10.9-20.2,23.3-20.2,27.9c0,10.9-52.9,73-104.1,127.4
			c-20.2,20.2-35.7,40.4-35.7,45.1c0,6.2-9.3,18.7-18.6,29.5c-43.5,45.1-90.1,102.5-90.1,111.8c0,6.2-12.5,21.7-29.5,35.7
			c-15.6,14-40.4,46.6-54.4,71.4c-43.5,79.2-62.1,104.1-124.3,166.3c-32.6,32.6-69.9,59-80.8,59c-12.5,0-21.7,7.8-21.7,15.6
			c0,9.3-62.1,15.6-155.4,15.6h-155.4v-88.7H9562.6z"/>
	</g>
</g>
</svg>
