<?xml version="1.0" standalone="no"?>
<!DOCTYPE svg PUBLIC "-//W3C//DTD SVG 20010904//EN"
 "http://www.w3.org/TR/2001/REC-SVG-20010904/DTD/svg10.dtd">
<svg version="1.0" xmlns="http://www.w3.org/2000/svg"
 width="200.000000pt" height="200.000000pt" viewBox="0 0 200.000000 200.000000"
 preserveAspectRatio="xMidYMid meet">

<g transform="translate(0.000000,200.000000) scale(0.100000,-0.100000)"
fill="#000000" stroke="none">
<path d="M679 1510 c-68 -12 -141 -53 -187 -105 -135 -154 -87 -413 94 -501
100 -49 252 -44 336 11 l37 24 62 -32 c51 -26 76 -33 140 -36 183 -8 301 83
329 255 5 32 7 75 4 96 l-7 38 -112 0 -112 0 -70 -62 -70 -63 111 -5 c104 -5
111 -6 108 -25 -17 -92 -169 -135 -267 -75 -90 55 -111 198 -43 285 60 76 211
88 267 21 18 -22 171 -23 171 -2 0 27 -66 101 -118 132 -110 66 -247 65 -354
-2 l-36 -23 -69 34 c-74 37 -141 48 -214 35z m152 -152 c39 -22 44 -33 33 -75
-4 -15 -14 -23 -28 -23 -12 0 -51 -28 -91 -65 l-70 -64 87 -1 88 0 15 -36 c18
-44 14 -51 -39 -75 -102 -46 -213 -4 -258 98 -39 88 -2 199 79 242 53 28 134
27 184 -1z"/>
<path d="M460 763 c-41 -15 -54 -78 -22 -106 29 -26 78 -22 98 8 22 33 12 57
-23 53 -33 -4 -44 -28 -12 -28 21 0 22 -1 7 -16 -24 -24 -60 -2 -56 34 3 25 6
27 46 25 47 -2 54 8 17 25 -28 13 -32 13 -55 5z"/>
<path d="M585 745 c-28 -27 -30 -37 -14 -68 16 -29 28 -37 60 -37 55 0 82 83
37 114 -32 22 -55 20 -83 -9z m75 -24 c12 -23 5 -47 -16 -55 -21 -8 -42 3 -49
25 -14 42 44 68 65 30z"/>
<path d="M745 758 c-27 -15 -35 -28 -35 -59 0 -55 83 -82 114 -37 23 33 19 64
-10 87 -30 24 -41 25 -69 9z m53 -30 c30 -30 -4 -77 -41 -57 -20 11 -23 55 -4
62 21 9 32 8 45 -5z"/>
<path d="M867 764 c-4 -4 -7 -34 -7 -66 l0 -58 35 0 c63 0 99 65 57 103 -21
19 -74 32 -85 21z m61 -36 c18 -18 14 -46 -7 -58 -29 -15 -31 -13 -31 30 0 41
14 52 38 28z"/>
<path d="M1017 759 c-27 -16 -39 -56 -26 -82 16 -30 28 -37 64 -37 38 0 55 16
55 52 0 24 -4 28 -30 28 -20 0 -30 -5 -30 -15 0 -8 7 -15 15 -15 8 0 15 -4 15
-9 0 -12 -27 -21 -45 -15 -21 8 -29 42 -14 60 9 11 23 14 53 9 l41 -6 -24 21
c-26 22 -47 25 -74 9z"/>
<path d="M1172 758 c-9 -12 -52 -106 -52 -114 0 -11 29 -2 34 11 3 8 17 15 31
15 14 0 28 -7 31 -15 4 -8 13 -15 21 -15 8 0 13 6 10 13 -52 125 -55 129 -75
105z m28 -59 c0 -5 -7 -9 -15 -9 -15 0 -20 12 -9 23 8 8 24 -1 24 -14z"/>
<path d="M1270 705 c0 -37 4 -65 10 -65 10 0 15 29 10 60 -1 11 5 8 23 -8 l24
-23 16 23 c16 23 16 23 16 -14 1 -27 5 -38 16 -38 12 0 15 14 15 65 0 74 -13
83 -45 35 l-20 -30 -23 30 c-13 17 -28 30 -33 30 -5 0 -9 -29 -9 -65z"/>
<path d="M1430 706 l0 -66 41 0 c46 0 51 23 6 28 -31 4 -27 22 4 22 27 0 19
24 -9 28 -30 4 -18 22 14 22 40 0 23 25 -19 28 l-37 3 0 -65z"/>
<path d="M427 603 c-10 -18 -1 -117 11 -121 8 -2 12 8 12 32 0 45 8 45 40 1
38 -53 50 -45 50 30 0 51 -3 65 -15 65 -11 0 -15 -11 -15 -37 l-1 -38 -30 38
c-31 37 -44 44 -52 30z"/>
<path d="M585 554 c-14 -31 -25 -60 -25 -65 0 -15 20 -10 26 6 8 20 61 19 72
-1 5 -9 14 -15 20 -13 14 6 -38 129 -55 129 -7 0 -24 -25 -38 -56z m41 -21
c-11 -11 -19 6 -11 24 8 17 8 17 12 0 3 -10 2 -21 -1 -24z"/>
<path d="M680 595 c0 -8 7 -15 14 -15 11 0 16 -14 18 -47 4 -66 28 -70 28 -5
0 41 3 51 20 55 39 10 20 27 -30 27 -38 0 -50 -4 -50 -15z"/>
<path d="M792 548 c2 -38 8 -63 16 -66 9 -3 12 14 12 62 0 53 -3 66 -15 66
-13 0 -15 -11 -13 -62z"/>
<path d="M861 584 c-12 -15 -21 -32 -21 -39 0 -23 41 -65 65 -65 34 0 68 32
68 63 0 64 -74 90 -112 41z m78 -18 c9 -11 10 -20 1 -36 -13 -25 -47 -24 -63
2 -22 34 36 66 62 34z"/>
<path d="M1000 545 c0 -37 4 -65 10 -65 6 0 10 16 10 35 0 44 8 44 40 0 38
-53 50 -45 50 30 0 51 -3 65 -15 65 -11 0 -15 -11 -15 -37 l-1 -38 -30 38
c-17 20 -35 37 -40 37 -5 0 -9 -29 -9 -65z"/>
</g>
</svg>
