<?xml version="1.0" encoding="utf-8"?>
<!-- Generator: Adobe Illustrator 26.0.3, SVG Export Plug-In . SVG Version: 6.00 Build 0)  -->
<svg version="1.1" id="Layer_1" xmlns="http://www.w3.org/2000/svg" xmlns:xlink="http://www.w3.org/1999/xlink" x="0px" y="0px"
	 viewBox="0 0 1810 1706.4" style="enable-background:new 0 0 1810 1706.4;" xml:space="preserve">
<style type="text/css">
	.st0{fill:#EB1A03;}
</style>
<g transform="translate(0.000000,1810.000000) scale(0.100000,-0.100000)">
	<path class="st0" d="M5106.6,17989.1c-14.4-9-118.5-18-233.5-18c-116.7-1.8-210.1-10.8-213.7-19.8c-3.6-10.8-53.9-18-113.1-18
		c-57.5,0-106-7.2-106-16.2c0-9-55.7-21.6-125.7-28.7c-68.2-7.2-125.7-19.8-125.7-28.7c0-9-23.3-16.2-53.9-16.2
		c-28.7,0-53.9-7.2-53.9-18c0-9-35.9-18-80.8-18c-44.9,0-80.8-7.2-80.8-18c0-9-14.4-18-34.1-18c-18,0-62.9-12.6-97-26.9
		c-35.9-14.4-86.2-26.9-111.3-26.9c-25.1,0-44.9-7.2-44.9-18c0-9-19.8-18-44.9-18s-44.9-7.2-44.9-18c0-9-19.8-18-44.9-18
		s-44.9-7.2-44.9-14.4s-52.1-30.5-116.7-48.5c-64.7-19.8-116.7-41.3-116.7-48.5c0-9-16.2-14.4-35.9-14.4c-19.8,0-35.9-7.2-35.9-18
		c0-9-12.6-18-26.9-18s-26.9-7.2-26.9-18c0-9-10.8-18-21.6-18c-23.3,0-211.9-89.8-229.9-107.8c-5.4-5.4-57.5-34.1-116.7-62.9
		c-59.3-30.5-109.5-59.3-113.1-66.4c-3.6-9-21.6-14.4-41.3-14.4c-18,0-34.1-7.2-34.1-18c0-9-9-18-19.8-18
		c-10.8,0-30.5-10.8-43.1-21.6c-53.9-48.5-79-68.2-89.8-68.2c-5.4,0-37.7-28.7-73.6-62.9c-34.1-34.1-68.2-62.9-77.2-62.9
		c-7.2,0-39.5-23.3-70-53.9c-32.3-28.7-62.9-53.9-70-53.9c-9,0-52.1-35.9-98.8-80.8c-48.5-44.9-89.8-80.8-95.2-80.8
		c-28.7,0-386.1-359.2-386.1-387.9c0-14.4-7.2-25.1-18-25.1c-16.2,0-107.8-84.4-107.8-100.6c0-5.4-18-28.7-39.5-52.1
		c-107.8-116.7-122.1-134.7-122.1-152.6c0-9-7.2-18-14.4-18c-9,0-30.5-28.7-50.3-62.9c-18-34.1-37.7-62.9-43.1-62.9
		c-5.4,0-21.6-26.9-34.1-57.5c-14.4-32.3-39.5-71.8-55.7-86.2c-16.2-14.4-44.9-53.9-62.9-84.4c-19.8-32.3-41.3-59.3-48.5-59.3
		s-14.4-16.2-14.4-35.9c0-19.8-5.4-35.9-14.4-35.9c-7.2,0-25.1-26.9-37.7-57.5c-14.4-32.3-37.7-70-50.3-82.6
		c-12.6-12.6-23.3-39.5-23.3-59.3c0-18-7.2-34.1-18-34.1c-9,0-18-12.6-18-26.9c0-14.4-7.2-26.9-18-26.9c-9,0-18-19.8-18-43.1
		c0-23.3-19.8-71.8-44.9-107.8c-25.1-35.9-44.9-82.6-44.9-100.6c0-19.8-7.2-35.9-18-35.9c-9,0-18-19.8-18-44.9s-7.2-44.9-18-44.9
		c-9,0-18-12.6-18-26.9s-19.8-71.8-44.9-127.5c-25.1-55.7-44.9-123.9-44.9-152.6s-7.2-52.1-18-52.1c-9,0-18-16.2-18-34.1
		c0-19.8-7.2-41.3-18-46.7c-9-5.4-18-39.5-18-73.6s-7.2-75.4-16.2-93.4c-55.7-111.3-73.6-177.8-73.6-281.9
		c0-64.7-7.2-116.7-16.2-116.7s-19.8-37.7-25.1-84.4c-3.6-48.5-25.1-177.8-46.7-290.9c-19.8-111.3-37.7-255-37.7-317.9
		c0-64.7-7.2-114.9-18-114.9c-28.7,0-23.3-461.5,5.4-472.3c16.2-7.2,16.2-10.8,0-10.8c-26.9-1.8-32.3-55.7-7.2-55.7
		c9,0,21.6-53.9,25.1-120.3c5.4-68.2,23.3-210.1,39.5-319.7c16.2-107.8,34.1-244.2,39.5-299.9c3.6-57.5,16.2-104.2,25.1-104.2
		s16.2-44.9,16.2-98.8c0-55.7,10.8-122.1,25.1-149.1c12.6-26.9,34.1-93.4,48.5-147.3c12.6-53.9,28.7-106,37.7-116.7
		c7.2-9,14.4-34.1,14.4-57.5c0-23.3,9-41.3,18-41.3c10.8,0,18-23.3,18-52.1c0-30.5,28.7-114.9,62.9-192.2
		c34.1-75.4,62.9-152.6,62.9-170.6c0-19.8,5.4-34.1,14.4-34.1c7.2,0,37.7-57.5,66.4-125.7c30.5-68.2,59.3-125.7,68.2-125.7
		c7.2,0,12.6-23.3,12.6-53.9c0-28.7,7.2-53.9,14.4-53.9c9,0,30.5-28.7,50.3-62.9c18-34.1,39.5-62.9,46.7-62.9
		c9,0,14.4-16.2,14.4-35.9c0-19.8,9-35.9,18-35.9c10.8,0,18-12.6,18-26.9c0-14.4,9-26.9,18-26.9c10.8,0,18-16.2,18-35.9
		c0-19.8,7.2-35.9,16.2-35.9c9,0,23.3-18,30.5-39.5c7.2-23.3,26.9-53.9,44.9-70c19.8-16.2,34.1-35.9,34.1-44.9s28.7-48.5,62.9-88
		s62.9-80.8,62.9-93.4c0-12.6,28.7-53.9,62.9-89.8c34.1-35.9,62.9-73.6,62.9-82.6s52.1-68.2,116.7-131.1s116.7-118.5,116.7-123.9
		c0-19.8,237.1-260.4,256.8-260.4c5.4,0,62.9-52.1,129.3-116.7c64.7-64.7,125.7-116.7,132.9-116.7c9,0,46.7-28.7,84.4-62.9
		c37.7-34.1,82.6-66.4,100.6-73.6c18-5.4,32.3-18,32.3-26.9c0-9,12.6-16.2,26.9-16.2s26.9-7.2,26.9-18c0-9,12.6-18,26.9-18
		s26.9-7.2,26.9-18c0-9,9-18,18-18c10.8,0,41.3-19.8,68.2-44.9c26.9-25.1,57.5-44.9,70-44.9c12.6,0,23.3-7.2,23.3-18
		c0-9,16.2-18,35.9-18s35.9-7.2,35.9-18c0-9,12.6-18,26.9-18s26.9-7.2,26.9-18c0-9,16.2-18,34.1-18c19.8,0,46.7-12.6,62.9-26.9
		c14.4-14.4,34.1-26.9,44.9-26.9s19.8-7.2,19.8-18c0-9,16.2-18,35.9-18c19.8,0,35.9-7.2,35.9-18c0-9,16.2-18,34.1-18
		c19.8,0,41.3-9,46.7-18c5.4-10.8,25.1-18,43.1-18s43.1-12.6,55.7-26.9c12.6-14.4,41.3-26.9,64.7-26.9s43.1-7.2,43.1-18
		c0-9,16.2-18,35.9-18c19.8,0,35.9-7.2,35.9-18c0-9,19.8-18,43.1-18c23.3,0,46.7-5.4,50.3-12.6c9-23.3,140.1-77.2,185-77.2
		c25.1,0,44.9-7.2,44.9-18c0-9,19.8-18,44.9-18s44.9-7.2,44.9-18c0-9,19.8-18,44.9-18c25.1,0,44.9-7.2,44.9-16.2
		c0-19.8,159.8-57.5,292.7-68.2c55.7-5.4,102.4-16.2,102.4-25.1s28.7-16.2,62.9-16.2s62.9-7.2,62.9-16.2s37.7-19.8,86.2-25.1
		c46.7-3.6,116.7-18,156.2-28.7c46.7-12.6,389.7-19.8,1014.7-19.8c962.6,0,1038,3.6,1267.9,73.6c30.5,9,75.4,16.2,102.4,16.2
		s48.5,9,48.5,18c0,10.8,43.1,18,97,18s102.4,7.2,109.5,16.2c5.4,10.8,46.7,23.3,89.8,30.5c44.9,5.4,80.8,18,80.8,26.9
		c0,9,16.2,16.2,34.1,16.2c19.8,0,41.3,9,46.7,18c5.4,10.8,26.9,18,46.7,18c18,0,34.1,9,34.1,18c0,10.8,26.9,18,61.1,18
		c34.1,0,84.4,12.6,113.1,26.9c26.9,14.4,71.8,30.5,98.8,35.9c26.9,5.4,59.3,21.5,75.4,35.9c14.4,14.4,43.1,26.9,62.9,26.9
		c21.5,0,37.7,9,37.7,18c0,10.8,16.2,18,34.1,18s37.7,10.8,43.1,25.1c5.4,12.6,34.1,28.7,62.9,34.1c28.7,5.4,66.4,23.3,80.8,39.5
		c16.2,14.4,41.3,26.9,55.7,26.9c16.2,0,28.7,9,28.7,18c0,10.8,9,18,19.8,18c10.8,0,44.9,19.8,77.2,44.9
		c32.3,25.1,70,44.9,84.4,44.9c14.4,0,37.7,16.2,52.1,35.9c14.4,19.8,32.3,35.9,41.3,35.9c9,0,26.9,10.8,39.5,23.3
		c59.3,52.1,80.8,66.4,98.8,66.4c9,0,18,9,18,18c0,10.8,12.6,18,28.7,18c14.4,0,53.9,28.7,86.2,62.9c34.1,34.1,70,62.9,82.6,62.9
		c12.6,0,35.9,14.4,52.1,32.3c53.9,59.3,125.7,93.4,199.3,93.4c39.5,0,71.8-9,71.8-18c0-10.8,19.8-39.5,44.9-64.7
		s44.9-52.1,44.9-59.3s32.3-28.7,71.8-46.7c39.5-18,71.8-39.5,71.8-48.5c0-7.2,12.6-14.4,26.9-14.4c14.4,0,26.9-7.2,26.9-18
		c0-9,12.6-18,26.9-18c16.2,0,50.3-19.8,77.2-44.9s57.5-44.9,70-44.9s23.3-7.2,23.3-18c0-9,12.6-18,26.9-18c14.4,0,26.9-7.2,26.9-18
		c0-9,16.2-18,35.9-18c19.8,0,35.9-7.2,35.9-18c0-9,16.2-18,34.1-18c18,0,37.7-12.6,44.9-26.9c5.4-14.4,26.9-26.9,46.7-26.9
		c19.8,0,35.9-7.2,35.9-18c0-9,16.2-18,35.9-18c19.8,0,35.9-7.2,35.9-18c0-9,12.6-18,26.9-18c14.4,0,26.9-7.2,26.9-18
		c0-9,14.4-18,32.3-18c18,0,48.5-12.6,68.2-26.9c18-14.4,48.5-26.9,66.4-26.9c16.2,0,30.5-7.2,30.5-18c0-9,16.2-18,35.9-18
		s35.9-7.2,35.9-18c0-9,12.6-18,26.9-18c14.4,0,26.9-7.2,26.9-16.2c0-7.2,34.1-19.8,75.4-25.1c43.1-5.4,79-19.8,82.6-28.7
		c3.6-10.8,34.1-19.8,68.2-19.8s61.1-7.2,61.1-18c0-9,25.1-18,53.9-18c30.5,0,53.9-7.2,53.9-18c0-9,14.4-18,32.3-18
		c16.2,0,88-21.5,156.2-44.9c70-25.1,156.2-44.9,194-44.9c35.9,0,66.4-7.2,66.4-18c0-9,21.5-18,48.5-18c26.9,0,71.8-7.2,102.4-16.2
		c242.4-71.8,267.6-73.6,1258.9-73.6s1016.4,1.8,1258.9,73.6c30.5,9,75.4,16.2,102.4,16.2c26.9,0,48.5,9,48.5,18
		c0,10.8,44.9,18,98.8,18s98.8,7.2,98.8,16.2c0,9,44.9,21.5,98.8,28.7c53.9,5.4,98.8,19.8,98.8,28.7c0,9,16.2,16.2,34.1,16.2
		c19.8,0,41.3,9,46.7,18c5.4,10.8,26.9,18,46.7,18c18,0,34.1,9,34.1,18c0,10.8,23.3,18,52.1,18c30.5,0,59.3,7.2,64.7,18
		c5.4,9,25.1,18,41.3,18c16.2,0,53.9,12.6,82.6,26.9c26.9,14.4,66.4,26.9,84.4,26.9c19.8,0,34.1,9,34.1,18c0,10.8,12.6,18,26.9,18
		c14.4,0,26.9,9,26.9,18c0,10.8,14.4,18,32.3,18c18,0,48.5,12.6,68.2,26.9c18,14.4,48.5,26.9,66.4,26.9c16.2,0,30.5,9,30.5,18
		c0,10.8,12.6,18,26.9,18c14.4,0,26.9,9,26.9,18c0,10.8,16.2,18,35.9,18c19.8,0,35.9,9,35.9,18c0,10.8,12.6,18,26.9,18
		c16.2,0,50.3,19.8,77.2,44.9c26.9,25.1,57.5,44.9,70,44.9c12.6,0,23.3,9,23.3,18c0,10.8,16.2,18,35.9,18c19.8,0,35.9,9,35.9,18
		c0,10.8,9,18,19.8,18c10.8,0,30.5,10.8,43.1,23.3c55.7,48.5,79,66.4,89.8,66.4c7.2,0,21.6,10.8,35.9,23.3
		c12.6,10.8,44.9,37.7,73.6,57.5c26.9,19.8,68.2,53.9,89.8,77.2c23.3,21.6,48.5,39.5,57.5,39.5c21.6,0,506.4,477.7,506.4,499.2
		c0,7.2,39.5,57.5,89.8,111.3c48.5,52.1,93.4,109.5,100.6,129.3c5.4,18,18,32.3,26.9,32.3c9,0,16.2,12.6,16.2,26.9
		c0,14.4,9,26.9,18,26.9c10.8,0,18,16.2,18,35.9c0,19.8,10.8,35.9,25.1,35.9c12.6,0,34.1,26.9,48.5,59.3
		c12.6,30.5,37.7,70,55.7,86.2c18,16.2,32.3,43.1,32.3,59.3c0,16.2,7.2,28.7,16.2,28.7c9,0,21.5,19.8,26.9,44.9
		c7.2,25.1,19.8,44.9,28.7,44.9c10.8,0,18,16.2,18,35.9s9,35.9,18,35.9c10.8,0,18,12.6,18,26.9s9,26.9,18,26.9
		c10.8,0,18,16.2,18,37.7c0,19.8,12.6,48.5,26.9,62.9c14.4,16.2,26.9,43.1,26.9,62.9c0,18,9,34.1,18,34.1c10.8,0,18,16.2,18,35.9
		s9,35.9,18,35.9c10.8,0,18,12.6,18,26.9c0,14.4,9,26.9,18,26.9c10.8,0,18,19.8,18,43.1c0,23.3,12.6,66.4,26.9,95.2
		c14.4,26.9,35.9,88,48.5,136.5c12.6,46.7,26.9,84.4,34.1,84.4c12.6,0,18,21.5,48.5,179.6c7.2,44.9,25.1,98.8,35.9,120.3
		c12.6,21.5,21.6,55.7,21.6,75.4c0,21.6,9,37.7,18,37.7c10.8,0,18,35.9,18,80.8c0,44.9,7.2,80.8,16.2,80.8c9,0,19.8,30.5,25.1,68.2
		c5.4,35.9,23.3,134.7,41.3,219.1c16.2,84.4,32.3,235.3,37.7,337.6c3.6,100.6,14.4,183.2,25.1,183.2c9,0,16.2,57.5,16.2,125.7
		c0,71.8,7.2,125.7,18,125.7c28.7,0,23.3,695-3.6,705.8c-18,7.2-18,10.8,0,10.8c25.1,1.8,30.5,127.5,3.6,127.5
		c-10.8,0-18,107.8-18,287.3c0,179.6-7.2,287.3-18,287.3c-26.9,0-21.5,84.4,5.4,95.2c18,7.2,18,10.8,0,10.8
		c-12.6,1.8-23.3,14.4-23.3,28.7c0,23.3-66.4,26.9-484.9,26.9c-310.7,0-484.9,7.2-484.9,18s-19.8,18-44.9,18s-44.9-7.2-44.9-18
		c0-9-19.8-18-44.9-18c-25.1,0-44.9,9-44.9,18c0,10.8-107.8,18-287.3,18s-287.3-7.2-287.3-18c0-9-16.2-18-35.9-18
		c-19.8,0-35.9,9-35.9,18c0,28.7-766.8,23.3-779.4-3.6c-9-18-12.6-18-21.6,0c-12.6,26.9-905.1,32.3-905.1,3.6c0-9-35.9-18-80.8-18
		s-80.8,9-80.8,18c0,10.8-23.3,18-53.9,18c-28.7,0-53.9-7.2-53.9-18c0-9-7.2-18-18-18c-9,0-48.5-28.7-84.4-62.9
		c-35.9-34.1-73.6-62.9-82.6-62.9c-7.2,0-57.5-44.9-111.3-98.8c-52.1-53.9-100.6-98.8-106-98.8c-12.6,0-57.5-41.3-220.9-197.5
		c-71.8-70-134.7-125.7-140.1-125.7c-12.6,0-53.9-34.1-86.2-68.2c-84.4-91.6-222.7-219.1-237.1-219.1c-7.2,0-59.3-46.7-116.7-102.4
		c-109.5-111.3-192.2-185-204.7-185c-5.4,0-71.8-61.1-147.3-134.7c-75.4-73.6-145.5-134.7-152.6-134.7c-9,0-71.8-55.7-140.1-125.7
		c-70-68.2-131.1-125.7-136.5-125.7s-30.5-18-53.9-39.5c-64.7-61.1-95.2-86.2-107.8-86.2c-5.4,0-28.7-18-52.1-39.5
		c-23.3-23.3-61.1-59.3-84.4-80.8c-59.3-53.9-88-89.8-88-113.1c0-9-7.2-18-18-18c-9,0-18-7.2-18-18c0-9,16.2-18,34.1-18
		c19.8,0,41.3,9,46.7,18c7.2,12.6,641.1,18,1842.5,18c2013.1,0,1903.6,5.4,1874.9-104.2c-5.4-26.9-16.2-70-21.6-97
		c-5.4-28.7-16.2-50.3-25.1-50.3s-16.2-32.3-16.2-71.8s-7.2-71.8-18-71.8c-9,0-18-28.7-18-62.9c0-43.1-9-62.9-26.9-62.9
		c-16.2,0-26.9-16.2-26.9-43.1c0-25.1-7.2-50.3-18-55.7c-9-5.4-18-30.5-18-55.7c0-23.3-7.2-43.1-18-43.1c-9,0-18-12.6-18-26.9
		s-7.2-26.9-18-26.9c-9,0-18-16.2-18-35.9s-5.4-35.9-14.4-35.9c-7.2,0-28.7-28.7-46.7-62.9c-19.8-34.1-41.3-62.9-50.3-62.9
		c-7.2,0-14.4-9-14.4-18c0-25.1-89.8-163.4-129.3-199.3c-18-16.2-32.3-35.9-32.3-41.3c0-16.2-46.7-64.7-62.9-64.7
		c-7.2,0-23.3-10.8-37.7-25.1c-14.4-14.4-25.1-30.5-25.1-37.7c0-14.4-48.5-62.9-62.9-62.9c-5.4,0-30.5-18-53.9-39.5
		c-71.8-68.2-97-86.2-116.7-86.2c-9,0-18-7.2-18-18c0-9-12.6-18-26.9-18c-14.4,0-52.1-23.3-82.6-53.9
		c-30.5-28.7-71.8-57.5-89.8-62.9c-19.8-7.2-34.1-19.8-34.1-28.7c0-9-19.8-16.2-44.9-16.2s-44.9-7.2-44.9-18c0-9-12.6-18-26.9-18
		c-14.4,0-41.3-7.2-59.3-16.2c-82.6-41.3-170.6-73.6-201.1-73.6c-19.8,0-35.9-7.2-35.9-18c0-9-43.1-18-97-18
		c-53.9,0-100.6-7.2-104.2-14.4c-12.6-32.3-334-100.6-502.8-107.8c-97-3.6-176-14.4-176-23.3c0-9-71.8-16.2-161.6-16.2
		c-95.2,0-161.6,7.2-161.6,18c0,10.8-73.6,18-183.2,18c-136.5,0-231.7,12.6-380.7,48.5c-109.5,25.1-201.1,53.9-204.7,62.9
		c-3.6,7.2-46.7,14.4-95.2,14.4c-48.5,0-88,7.2-88,16.2c0,9-28.7,21.5-64.7,28.7c-35.9,5.4-79,18-95.2,26.9
		c-16.2,9-55.7,26.9-86.2,39.5c-32.3,12.6-59.3,28.7-59.3,35.9c0,9-16.2,14.4-35.9,14.4c-35.9,0-194,82.6-253.2,131.1
		c-18,16.2-46.7,30.5-61.1,30.5c-14.4,0-26.9,7.2-26.9,14.4c0,7.2-35.9,28.7-77.2,46.7c-43.1,18-89.8,46.7-104.2,66.4
		c-12.6,18-30.5,34.1-39.5,34.1c-14.4,0-43.1,21.5-111.3,86.2c-23.3,21.6-48.5,39.5-53.9,39.5c-12.6,0-188.6,176-188.6,190.4
		c0,5.4-18,28.7-39.5,52.1c-102.4,111.3-122.1,134.7-122.1,143.7c0,5.4-9,19.8-18,32.3c-37.7,44.9-107.8,158-107.8,174.2
		c0,10.8-7.2,18-18,18c-9,0-18,16.2-18,35.9c0,19.8-7.2,35.9-14.4,35.9c-9,0-30.5,28.7-50.3,62.9c-18,34.1-39.5,62.9-46.7,62.9
		c-9,0-14.4,19.8-14.4,44.9c0,25.1-7.2,44.9-18,44.9c-9,0-18,16.2-18,34.1c0,19.8-5.4,37.7-12.6,41.3
		c-23.3,9-113.1,210.1-113.1,247.8c0,19.8-7.2,35.9-18,35.9c-9,0-18,35.9-18,80.8c0,44.9-7.2,80.8-18,80.8c-9,0-18,21.5-18,48.5
		s-7.2,71.8-16.2,102.4c-37.7,118.5-73.6,339.4-73.6,441.8c0,59.3-7.2,107.8-18,107.8c-10.8,0-18,93.4-18,242.4
		c0,136.5,7.2,242.4,16.2,242.4s19.8,66.4,25.1,149.1c9,158,77.2,461.5,104.2,461.5c9,0,16.2,44.9,16.2,98.8c0,53.9,9,98.8,18,98.8
		c10.8,0,18,14.4,18,32.3c0,43.1,91.6,255,111.3,255c7.2,0,14.4,23.3,14.4,52.1s5.4,55.7,14.4,59.3c7.2,3.6,35.9,52.1,64.7,109.5
		c28.7,55.7,57.5,102.4,66.4,102.4c9,0,16.2,16.2,16.2,35.9c0,19.8,9,35.9,18,35.9c10.8,0,32.3,28.7,48.5,62.9
		c16.2,34.1,35.9,62.9,44.9,62.9c7.2,0,14.4,9,14.4,18c0,10.8,19.8,39.5,44.9,64.7s44.9,52.1,44.9,59.3
		c0,18,280.2,307.1,296.3,307.1c18,0,98.8,88,98.8,107.8c0,9,16.2,18,35.9,18s35.9,9,35.9,18c0,10.8,9,18,19.8,18
		c10.8,0,30.5,10.8,43.1,23.3c57.5,50.3,80.8,66.4,93.4,66.4c9,0,26.9,16.2,41.3,35.9c14.4,19.8,39.5,35.9,57.5,35.9
		c18,0,32.3,7.2,32.3,16.2c0,9,19.8,21.5,44.9,26.9c25.1,7.2,44.9,19.8,44.9,28.7c0,10.8,12.6,18,26.9,18c14.4,0,26.9,9,26.9,18
		c0,10.8,25.1,18,53.9,18c30.5,0,53.9,7.2,53.9,16.2c0,7.2,44.9,28.7,98.8,46.7c53.9,16.2,102.4,37.7,109.5,46.7
		c5.4,9,41.3,16.2,80.8,16.2c37.7,0,70,9,70,18c0,10.8,12.6,18,26.9,18c16.2,0,46.7,12.6,70,26.9c23.3,16.2,113.1,37.7,197.5,50.3
		c84.4,10.8,154.4,26.9,154.4,34.1c0,19.8,1108,18,1120.6-1.8c5.4-7.2,61.1-19.8,122.1-25.1c107.8-10.8,233.5-46.7,258.6-71.8
		c7.2-7.2,39.5-12.6,73.6-12.6c32.3,0,59.3-7.2,59.3-18c0-9,25.1-18,53.9-18c30.5,0,53.9-7.2,53.9-18c0-9,7.2-18,18-18
		c26.9,0,224.5-95.2,229.9-111.3c3.6-7.2,18-14.4,30.5-14.4c30.5,0,134.7-59.3,134.7-75.4c0-9,12.6-14.4,26.9-14.4
		c14.4,0,26.9-7.2,26.9-18c0-9,12.6-18,28.7-18c32.3,0,79-41.3,79-70c0-10.8,7.2-19.8,16.2-19.8c7.2,0,39.5-23.3,70-53.9
		c32.3-28.7,64.7-53.9,75.4-53.9c9,0,30.5-19.8,46.7-44.9c16.2-25.1,41.3-44.9,53.9-44.9c14.4,0,25.1-16.2,25.1-35.9
		c0-19.8,10.8-35.9,23.3-35.9c10.8-1.8,61.1-37.7,109.5-80.8l89.8-80.8l1266.1,3.6l1267.9,5.4l5.4,61.1c3.6,32.3-1.8,68.2-12.6,79
		s-19.8,30.5-19.8,44.9c0,12.6-12.6,35.9-26.9,50.3c-14.4,16.2-26.9,46.7-26.9,71.8c0,23.3-7.2,43.1-18,43.1c-9,0-18,12.6-18,26.9
		c0,14.4-7.2,26.9-18,26.9c-9,0-18,21.5-18,46.7s-10.8,57.5-21.6,70c-57.5,64.7-68.2,82.6-68.2,116.7c0,19.8-7.2,35.9-18,35.9
		c-9,0-18,12.6-18,26.9c0,14.4-5.4,26.9-12.6,26.9c-9,0-30.5,32.3-48.5,71.8c-19.8,39.5-41.3,71.8-50.3,71.8
		c-7.2,0-14.4,12.6-14.4,26.9c0,14.4-7.2,26.9-18,26.9c-9,0-18,12.6-18,28.7c0,16.2-28.7,55.7-62.9,89.8
		c-34.1,32.3-62.9,68.2-62.9,79c0,10.8-23.3,43.1-53.9,75.4c-28.7,30.5-53.9,62.9-53.9,70s-19.8,34.1-44.9,59.3
		s-44.9,50.3-44.9,55.7c0,10.8-62.9,80.8-147.3,167c-325,326.8-438.2,432.8-492.1,456.1c-23.3,10.8-43.1,26.9-43.1,35.9
		c0,7.2-9,14.4-18,14.4c-10.8,0-39.5,19.8-64.7,44.9c-25.1,25.1-52.1,44.9-59.3,44.9s-39.5,25.1-70,53.9
		c-32.3,30.5-62.9,53.9-71.8,53.9c-7.2,0-34.1,19.8-61.1,44.9c-26.9,25.1-61.1,44.9-77.2,44.9c-14.4,0-26.9,9-26.9,18
		c0,10.8-12.6,18-26.9,18c-14.4,0-26.9,5.4-26.9,14.4c0,16.2-102.4,75.4-132.9,75.4c-10.8,0-32.3,16.2-46.7,35.9
		c-14.4,19.8-44.9,35.9-66.4,35.9c-23.3,0-41.3,9-41.3,18c0,10.8-12.6,18-28.7,18c-14.4,0-39.5,12.6-53.9,26.9
		c-16.2,14.4-41.3,26.9-59.3,26.9c-16.2,0-48.5,16.2-70,35.9s-53.9,35.9-75.4,35.9c-19.8,0-35.9,9-35.9,18c0,10.8-14.4,18-32.3,18
		c-18,0-48.5,12.6-68.2,26.9c-18,14.4-48.5,26.9-64.7,26.9c-18,0-32.3,9-32.3,18c0,10.8-28.7,18-62.9,18c-34.1,0-62.9,9-62.9,18
		c0,10.8-16.2,18-35.9,18c-19.8,0-35.9,9-35.9,18c0,10.8-26.9,18-57.5,18c-32.3,1.8-79,12.6-104.2,26.9
		c-25.1,14.4-62.9,25.1-84.4,26.9c-23.3,0-41.3,9-41.3,18c0,10.8-35.9,18-80.8,18c-44.9,0-80.8,7.2-80.8,16.2
		c0,16.2-19.8,21.6-206.5,55.7c-59.3,10.8-122.1,26.9-138.3,35.9c-18,10.8-77.2,18-131.1,18c-53.9,0-98.8,7.2-98.8,16.2
		c0,26.9-298.1,41.3-808.1,41.3c-526.2,0-826.1-14.4-826.1-39.5c0-7.2-46.7-19.8-102.4-23.3c-188.6-18-391.5-50.3-409.5-68.2
		c-9-9-34.1-16.2-57.5-16.2c-23.3,0-41.3-7.2-41.3-18c0-9-28.7-18-62.9-18s-62.9-7.2-62.9-18c0-9-32.3-18-71.8-18s-71.8-7.2-71.8-18
		c0-9-30.5-21.6-66.4-26.9c-37.7-5.4-82.6-18-98.8-28.7c-18-9-52.1-16.2-77.2-16.2c-25.1,0-44.9-7.2-44.9-18c0-9-16.2-18-35.9-18
		c-19.8,0-35.9-7.2-35.9-18c0-9-16.2-18-35.9-18c-39.5,0-167-55.7-176-75.4c-3.6-9-26.9-14.4-50.3-14.4c-23.3,0-43.1-7.2-43.1-18
		c0-9-16.2-18-35.9-18s-35.9-7.2-35.9-18c0-9-16.2-18-35.9-18c-19.8,0-35.9-7.2-35.9-18c0-9-19.8-21.6-44.9-28.7
		c-25.1-5.4-44.9-18-44.9-26.9c0-9-16.2-16.2-35.9-16.2c-19.8,0-35.9-7.2-35.9-18c0-9-12.6-18-26.9-18c-14.4,0-26.9-7.2-26.9-18
		c0-9-16.2-18-34.1-18c-19.8,0-46.7-12.6-62.9-26.9c-14.4-14.4-34.1-26.9-44.9-26.9c-10.8,0-19.8-7.2-19.8-18c0-9-16.2-18-35.9-18
		c-19.8,0-35.9-7.2-35.9-18c0-9-12.6-18-26.9-18c-14.4,0-26.9-7.2-26.9-18c0-9-16.2-18-35.9-18c-19.8,0-35.9-12.6-35.9-26.9
		c0-14.4-16.2-26.9-35.9-26.9c-19.8,0-35.9-7.2-35.9-18c0-9-9-18-19.8-18c-10.8,0-46.7-28.7-80.8-62.9c-32.3-34.1-68.2-62.9-79-62.9
		s-43.1-23.3-73.6-53.9c-30.5-28.7-71.8-57.5-89.8-62.9c-19.8-7.2-34.1-19.8-34.1-28.7c0-9-32.3-16.2-71.8-16.2
		c-64.7,0-84.4,10.8-163.4,89.8c-48.5,50.3-97,89.8-104.2,89.8s-39.5,25.1-70,53.9c-32.3,30.5-70,53.9-84.4,53.9
		c-14.4,0-26.9,9-26.9,18c0,10.8-12.6,18-26.9,18c-14.4,0-44.9,19.8-70,44.9c-25.1,25.1-57.5,44.9-73.6,44.9c-14.4,0-26.9,9-26.9,18
		c0,10.8-12.6,18-26.9,18c-14.4,0-26.9,5.4-26.9,14.4c0,16.2-102.4,75.4-132.9,75.4c-10.8,0-32.3,16.2-46.7,35.9
		c-14.4,19.8-35.9,35.9-48.5,35.9s-23.3,9-23.3,18c0,10.8-14.4,18-32.3,18c-18,0-48.5,12.6-68.2,26.9c-18,14.4-48.5,26.9-64.7,26.9
		c-18,0-32.3,9-32.3,18c0,10.8-16.2,18-35.9,18s-35.9,9-35.9,18c0,10.8-19.8,18-44.9,18c-25.1,0-44.9,7.2-44.9,16.2
		c0,9-23.3,21.5-53.9,28.7c-28.7,7.2-57.5,19.8-62.9,28.7c-7.2,9-26.9,16.2-46.7,16.2c-18,0-34.1,9-34.1,18c0,10.8-19.8,18-44.9,18
		c-25.1,0-44.9,9-44.9,18c0,10.8-16.2,18-34.1,18c-19.8,0-39.5,7.2-44.9,16.2c-5.4,7.2-50.3,19.8-98.8,26.9
		c-50.3,7.2-95.2,19.8-100.6,28.7c-5.4,10.8-39.5,18-73.6,18s-61.1,9-61.1,18c0,10.8-23.3,18-53.9,18c-28.7,0-53.9,9-53.9,18
		c0,10.8-28.7,18-62.9,18s-62.9,7.2-62.9,16.2c0,7.2-59.3,19.8-129.3,26.9c-71.8,7.2-138.3,19.8-147.3,28.7
		c-10.8,10.8-61.1,18-113.1,18c-52.1,0-95.2,7.2-95.2,16.2c0,23.3-199.3,35.9-727.3,46.7
		C5314.9,18003.4,5120.9,17999.9,5106.6,17989.1z M6056.6,15762.2c0-7.2,52.1-19.8,114.9-26.9c138.3-14.4,287.3-55.7,323.3-91.6
		c14.4-14.4,50.3-26.9,80.8-26.9s55.7-7.2,55.7-18c0-9,16.2-18,35.9-18c39.5,0,238.8-89.8,247.8-111.3c3.6-7.2,21.5-14.4,39.5-14.4
		c30.5,0,132.9-57.5,192.2-107.8c12.6-9,26.9-18,32.3-18c5.4,0,30.5-18,53.9-39.5c62.9-59.3,95.2-86.2,107.8-86.2
		c5.4,0,43.1-32.3,82.6-71.8c41.3-39.5,80.8-71.8,88-71.8c41.3,0,114.9-98.8,156.2-215.5c30.5-86.2,28.7-113.1-12.6-143.7
		c-19.8-14.4-39.5-55.7-46.7-102.4c-5.4-43.1-18-77.2-26.9-77.2s-16.2-28.7-16.2-62.9c0-34.1-7.2-62.9-18-62.9c-9,0-18-23.3-18-52.1
		c0-57.5-43.1-172.4-71.8-190.4c-9-5.4-18-46.7-18-91.6c0-43.1-7.2-79-18-79c-9,0-18-44.9-18-98.8v-98.8h-269.4
		c-167,0-269.4,7.2-269.4,18c0,25.1-66.4,21.5-77.2-3.6c-7.2-18-14.4-16.2-30.5,3.6s-23.3,21.5-30.5,5.4
		c-3.6-12.6-19.8-23.3-34.1-23.3c-14.4,0-25.1-7.2-25.1-18c0-9-12.6-18-26.9-18s-62.9-35.9-106-80.8c-44.9-44.9-86.2-80.8-93.4-80.8
		c-14.4,0-50.3-34.1-269.4-246c-93.4-91.6-177.8-167-186.8-167c-10.8,0-18-7.2-18-18c0-9-9-18-18-18c-10.8,0-53.9-35.9-97-80.8
		c-44.9-44.9-86.2-80.8-91.6-80.8c-18,0-62.9-50.3-62.9-70c0-10.8-12.6-19.8-26.9-19.8s-26.9-7.2-26.9-18c0-9-9-18-18-18
		c-10.8,0-46.7-28.7-79-62.9c-34.1-34.1-66.4-62.9-71.8-62.9c-5.4,0-66.4-53.9-134.7-120.3c-131.1-129.3-211.9-202.9-226.3-202.9
		c-3.6,0-70-61.1-147.3-134.7c-75.4-73.6-143.7-134.7-152.6-134.7c-7.2,0-61.1-48.5-120.3-107.8c-59.3-59.3-116.7-107.8-129.3-107.8
		c-10.8,0-55.7-35.9-98.8-80.8c-41.3-44.9-82.6-80.8-88-80.8c-7.2,0-32.3-16.2-55.7-34.1c-35.9-28.7-37.7-35.9-14.4-44.9
		c16.2-5.4,707.6-10.8,1537.2-10.8c1282.2,0,1512.1-3.6,1533.7-25.1c14.4-16.2,25.1-62.9,25.1-116.7c0-50.3,9-91.6,18-91.6
		c10.8,0,18-23.3,18-52.1c0-26.9,19.8-106,44.9-174.2c25.1-68.2,44.9-138.3,44.9-154.4c0-18,9-32.3,18-32.3c10.8,0,18-28.7,18-62.9
		s9-62.9,18-62.9c10.8,0,18-19.8,18-44.9c0-55.7,52.1-188.6,73.6-188.6c9,0,16.2-16.2,16.2-35.9c0-19.8,9-35.9,18-35.9
		c32.3,0,19.8-89.8-18-129.3c-19.8-21.5-35.9-50.3-35.9-62.9c0-12.6-9-23.3-18-23.3c-10.8,0-46.7-26.9-80.8-57.5
		c-79-77.2-113.1-104.2-125.7-104.2c-5.4,0-30.5-18-53.9-39.5c-71.8-68.2-97-86.2-116.7-86.2c-9,0-18-7.2-18-18c0-9-12.6-18-26.9-18
		s-26.9-7.2-26.9-14.4c0-9-32.3-30.5-71.8-48.5c-39.5-18-71.8-39.5-71.8-48.5c0-7.2-19.8-14.4-44.9-14.4c-25.1,0-44.9-7.2-44.9-18
		c0-9-16.2-18-34.1-18c-19.8,0-37.7-5.4-41.3-12.6c-9-21.6-136.5-77.2-176-77.2c-19.8,0-35.9-7.2-35.9-18c0-9-32.3-18-71.8-18
		c-39.5,0-71.8-7.2-71.8-14.4c0-9-59.3-26.9-129.3-39.5c-71.8-12.6-170.6-34.1-219.1-46.7c-52.1-14.4-176-25.1-301.7-25.1
		c-129.3,0-211.9-7.2-211.9-18c0-10.8-50.3-18-116.7-18s-116.7,7.2-116.7,18c0,10.8-70,18-174.2,18c-181.4,0-580.1,75.4-580.1,109.5
		c0,9-35.9,16.2-80.8,16.2c-44.9,0-80.8,5.4-80.8,14.4c0,7.2-52.1,28.7-116.7,48.5c-64.7,18-116.7,41.3-116.7,48.5
		c0,7.2-19.8,14.4-44.9,14.4s-44.9,9-44.9,18c0,10.8-14.4,18-30.5,18c-41.3,0-238.8,91.6-238.8,111.3c0,7.2-12.6,14.4-26.9,14.4
		c-14.4,0-26.9,9-26.9,18c0,10.8-16.2,18-35.9,18c-19.8,0-35.9,7.2-35.9,14.4c0,9-28.7,30.5-62.9,50.3c-34.1,18-62.9,39.5-62.9,46.7
		c0,9-9,14.4-18,14.4c-18,0-35.9,14.4-152.6,122.1c-23.3,21.6-48.5,39.5-53.9,39.5c-18,0-62.9,50.3-62.9,70
		c0,10.8-7.2,19.8-14.4,19.8c-18,0-147.3,116.7-147.3,132.9c0,7.2-18,32.3-39.5,55.7c-61.1,64.7-86.2,95.2-86.2,107.8
		c0,5.4-18,30.5-39.5,53.9c-64.7,68.2-86.2,97-86.2,111.3c0,9-16.2,26.9-35.9,41.3c-19.8,14.4-35.9,43.1-35.9,64.7
		c0,43.1-53.9,150.9-75.4,150.9c-9,0-14.4,12.6-14.4,26.9s-7.2,26.9-18,26.9c-9,0-18,16.2-18,35.9s-7.2,35.9-18,35.9
		c-9,0-18,16.2-18,35.9c0,18-19.8,70-44.9,114.9c-25.1,44.9-44.9,93.4-44.9,107.8c0,16.2-7.2,28.7-18,28.7c-9,0-18,32.3-18,71.8
		c0,39.5-7.2,71.8-18,71.8c-9,0-18,28.7-18,64.7c0,34.1-9,80.8-19.8,100.6c-19.8,35.9-44.9,159.8-64.7,316.1
		c-5.4,41.3-16.2,75.4-25.1,75.4s-16.2,185-16.2,422c0,269.4,7.2,422,18,422s18,26.9,18,59.3s16.2,131.1,37.7,220.9
		c21.6,88,41.3,190.4,46.7,228.1c5.4,35.9,16.2,66.4,25.1,66.4s16.2,32.3,16.2,71.8c0,39.5,7.2,71.8,14.4,71.8s28.7,41.3,48.5,89.8
		c19.8,50.3,41.3,89.8,48.5,89.8s14.4,23.3,14.4,52.1s5.4,55.7,14.4,59.3c7.2,3.6,35.9,52.1,66.4,109.5
		c28.7,55.7,59.3,102.4,66.4,102.4s14.4,16.2,14.4,35.9c0,19.8,9,35.9,18,35.9c10.8,0,18,9,18,18c0,19.8,18,44.9,86.2,116.7
		c21.6,23.3,39.5,55.7,39.5,71.8c0,16.2,46.7,77.2,104.2,134.7c55.7,59.3,122.1,134.7,147.3,168.8c25.1,35.9,53.9,64.7,66.4,64.7
		c10.8,0,57.5,35.9,100.6,80.8c44.9,44.9,86.2,80.8,93.4,80.8c10.8,0,43.1,25.1,107.8,86.2c23.3,21.5,57.5,39.5,75.4,39.5
		s44.9,16.2,59.3,35.9c14.4,19.8,32.3,35.9,41.3,35.9c7.2,0,44.9,19.8,80.8,44.9c35.9,25.1,80.8,44.9,97,44.9c18,0,32.3,9,32.3,18
		c0,10.8,12.6,18,26.9,18s26.9,9,26.9,18c0,10.8,14.4,18,32.3,18c16.2,0,46.7,12.6,64.7,26.9c19.8,14.4,50.3,26.9,68.2,26.9
		s32.3,9,32.3,18c0,10.8,28.7,18,62.9,18s62.9,9,62.9,18c0,10.8,23.3,18,52.1,18c30.5,0,57.5,7.2,62.9,16.2
		c5.4,7.2,80.8,28.7,167,44.9c88,18,177.8,37.7,202.9,46.7C4984.4,15780.2,6056.6,15782,6056.6,15762.2z"/>
</g>
<g transform="translate(0.000000,1810.000000) scale(0.100000,-0.100000)">
	<path d="M1127,5811.5c-39.5-5.4-102.4-25.1-141.9-41.3c-37.7-16.2-84.4-30.5-102.4-30.5c-19.8,0-34.1-7.2-34.1-18
		c0-9-12.6-18-26.9-18c-26.9,0-44.9-10.8-107.8-66.4c-12.6-12.6-28.7-23.3-35.9-23.3c-19.8,0-224.5-210.1-224.5-231.7
		c0-10.8-7.2-19.8-18-19.8c-9,0-18-12.6-18-26.9c0-16.2-16.2-44.9-35.9-66.4c-19.8-21.6-35.9-53.9-35.9-70c0-18-12.6-43.1-26.9-59.3
		c-14.4-14.4-26.9-57.5-26.9-98.8s-7.2-73.6-18-73.6s-18-77.2-18-197.5c0-120.3,7.2-197.5,18-197.5s18-37.7,18-82.6
		c0-48.5,10.8-91.6,26.9-107.8c14.4-16.2,26.9-43.1,26.9-62.9c0-18,9-34.1,18-34.1c10.8,0,18-12.6,18-26.9s9-26.9,18-26.9
		c10.8,0,18-16.2,18-35.9s7.2-35.9,14.4-35.9s28.7-26.9,48.5-57.5c30.5-52.1,70-95.2,159.8-170.6c16.2-12.6,35.9-23.3,46.7-23.3
		c9,0,18-7.2,18-18c0-9,12.6-18,26.9-18c16.2,0,44.9-16.2,66.4-35.9c21.6-19.8,52.1-35.9,68.2-35.9s44.9-12.6,64.7-26.9
		c18-14.4,68.2-26.9,111.3-26.9c41.3,0,75.4-7.2,75.4-18s93.4-18,242.4-18s242.4,7.2,242.4,18s30.5,18,68.2,18
		c39.5,0,93.4,10.8,122.1,25.1c28.7,12.6,79,35.9,111.3,48.5c30.5,14.4,57.5,30.5,57.5,37.7c0,9,7.2,14.4,16.2,14.4
		c21.6,0,145.5,120.3,145.5,141.9c0,10.8,10.8,19.8,23.3,19.8c14.4,0,34.1,19.8,44.9,44.9c10.8,25.1,28.7,44.9,39.5,44.9
		c9,0,18,16.2,18,35.9s9,35.9,18,35.9c10.8,0,18,19.8,18,44.9s9,44.9,18,44.9c10.8,0,18,16.2,18,35.9s9,35.9,18,35.9
		c10.8,0,18,32.3,18,71.8c0,39.5,12.6,102.4,26.9,138.3c26.9,62.9,37.7,316.1,16.2,371.7c-9,25.1-66.4,28.7-454.3,28.7
		c-242.4,0-474.1,9-511.8,18c-61.1,14.4-75.4,10.8-104.2-21.5c-26.9-30.5-32.3-70-32.3-211.9c0-211.9-25.1-197.5,346.6-197.5
		c251.4,0,264-1.8,264-35.9c0-19.8-7.2-35.9-18-35.9c-9,0-18-18-18-41.3c0-21.5-16.2-52.1-35.9-66.4c-19.8-14.4-35.9-37.7-35.9-50.3
		c0-28.7-70-91.6-102.4-93.4c-12.6,0-23.3-7.2-23.3-18c0-9-16.2-18-35.9-18s-35.9-7.2-35.9-18c0-9-26.9-18-59.3-18s-68.2-9-79-19.8
		c-23.3-23.3-328.6,14.4-328.6,41.3c0,7.2-23.3,14.4-53.9,14.4c-28.7,0-53.9,9-53.9,18c0,10.8-10.8,18-25.1,18
		c-53.9,0-226.3,199.3-226.3,260.4c0,14.4-7.2,26.9-18,26.9s-18,86.2-18,224.5c0,138.3,7.2,224.5,18,224.5s18,25.1,18,53.9
		c0,55.7,9,70,86.2,152.6c21.6,23.3,39.5,52.1,39.5,62.9c0,9,16.2,18,35.9,18s35.9,9,35.9,18c0,10.8,12.6,18,26.9,18
		s26.9,5.4,26.9,14.4c0,30.5,116.7,75.4,197.5,75.4c52.1,0,91.6,9,97,23.3c9,18,12.6,18,21.6,0c5.4-14.4,44.9-23.3,97-23.3
		c80.8,0,249.6-70,265.8-111.3c3.6-7.2,18-14.4,30.5-14.4c12.6,0,26.9-7.2,30.5-14.4c3.6-9,120.3-21.6,262.2-26.9l255-12.6v64.7
		c0,64.7-7.2,77.2-102.4,177.8c-32.3,34.1-59.3,66.4-59.3,71.8c0,14.4-48.5,62.9-62.9,62.9c-5.4,0-19.8,9-32.3,18
		c-44.9,37.7-158,107.8-174.2,107.8c-10.8,0-18,9-18,18c0,10.8-19.8,18-44.9,18s-64.7,10.8-86.2,25.1
		C1624.4,5818.6,1308.4,5843.8,1127,5811.5z"/>
	<path d="M3542.4,5818.6c-123.9-21.5-235.3-50.3-244.2-64.7c-5.4-7.2-25.1-14.4-44.9-14.4c-18,0-34.1-7.2-34.1-18
		c0-9-16.2-18-35.9-18c-19.8,0-35.9-7.2-35.9-16.2c0-9-18-23.3-39.5-30.5c-23.3-7.2-53.9-26.9-70-44.9
		c-16.2-19.8-35.9-34.1-43.1-34.1c-18,0-134.7-127.5-134.7-147.3c0-7.2-12.6-14.4-26.9-14.4s-26.9-16.2-26.9-35.9s-7.2-35.9-18-35.9
		c-9,0-18-12.6-18-26.9s-7.2-26.9-18-26.9c-9,0-18-19.8-18-44.9c0-25.1-7.2-44.9-16.2-44.9c-16.2,0-73.6-158-73.6-204.7
		c0-16.2-7.2-28.7-18-28.7c-10.8,0-18-77.2-18-197.5c0-120.3,7.2-197.5,18-197.5c10.8,0,18-16.2,18-37.7
		c0-53.9,55.7-213.7,73.6-213.7c9,0,16.2-16.2,16.2-37.7c0-19.8,10.8-46.7,23.3-61.1c10.8-12.6,37.7-44.9,57.5-73.6
		c68.2-97,253.2-276.6,283.7-276.6c16.2,0,30.5-7.2,30.5-18c0-9,10.8-18,23.3-18c10.8,0,62.9-21.6,111.3-44.9
		c50.3-25.1,111.3-44.9,140.1-44.9c26.9,0,48.5-7.2,48.5-18s95.2-18,251.4-18c156.2,0,251.4,7.2,251.4,18s26.9,18,61.1,18
		c32.3,0,70,12.6,82.6,26.9c12.6,14.4,37.7,26.9,55.7,26.9c19.8,0,34.1,9,34.1,18c0,10.8,12.6,18,26.9,18s26.9,9,26.9,18
		c0,10.8,12.6,18,28.7,18c28.7,0,330.4,294.5,330.4,323.3c0,10.8,9,18,18,18c10.8,0,18,16.2,18,35.9c0,19.8,7.2,35.9,16.2,35.9
		c9,0,21.5,32.3,28.7,71.8c7.2,39.5,19.8,75.4,28.7,82.6c9,5.4,16.2,44.9,16.2,89.8c0,43.1,9,79,18,79c10.8,0,18,62.9,18,152.6
		c0,89.8-7.2,152.6-18,152.6c-9,0-18,41.3-18,89.8c0,50.3-7.2,89.8-18,89.8c-9,0-18,12.6-18,26.9c0,37.7-59.3,170.6-75.4,170.6
		c-9,0-14.4,12.6-14.4,26.9s-7.2,26.9-18,26.9c-9,0-18,16.2-18,35.9s-12.6,35.9-26.9,35.9s-26.9,7.2-26.9,14.4
		c0,18-116.7,147.3-132.9,147.3c-7.2,0-32.3,19.8-57.5,44.9c-25.1,25.1-55.7,44.9-70,44.9s-26.9,9-26.9,18c0,10.8-16.2,18-35.9,18
		s-35.9,9-35.9,18c0,10.8-14.4,18-32.3,18s-39.5,5.4-46.7,12.6C4027.3,5798.9,3678.9,5843.8,3542.4,5818.6z M3890.8,5353.5
		c19.8-14.4,50.3-26.9,68.2-26.9c18,0,32.3-7.2,32.3-18c0-9,12.6-18,26.9-18c30.5,0,170.6-132.9,170.6-163.4
		c0-10.8,12.6-30.5,26.9-44.9c14.4-16.2,26.9-46.7,26.9-71.8c0-23.3,9-43.1,18-43.1c10.8,0,18-23.3,18-53.9c0-28.7,9-53.9,18-53.9
		c10.8,0,18-39.5,18-89.8c0-48.5-7.2-89.8-18-89.8c-9,0-18-23.3-18-52.1c0-64.7-39.5-159.8-88-211.9c-21.6-21.6-37.7-52.1-37.7-68.2
		c0-14.4-9-26.9-19.8-26.9c-10.8,0-28.7-10.8-41.3-21.6c-75.4-73.6-123.9-104.2-161.6-104.2c-23.3,0-46.7-9-50.3-21.6
		c-10.8-28.7-396.9-26.9-405.9,1.8c-3.6,10.8-26.9,19.8-50.3,19.8s-43.1,5.4-43.1,14.4c0,7.2-35.9,37.7-80.8,66.4
		c-43.1,30.5-80.8,68.2-80.8,86.2c0,16.2-7.2,30.5-16.2,30.5c-19.8,0-109.5,183.2-109.5,222.7c0,16.2-7.2,28.7-18,28.7
		c-9,0-18,44.9-18,98.8c0,53.9,9,98.8,18,98.8c10.8,0,18,25.1,18,55.7c0,53.9,86.2,231.7,113.1,231.7c7.2,0,12.6,16.2,12.6,34.1
		c0,19.8,16.2,41.3,35.9,46.7c19.8,5.4,35.9,19.8,35.9,28.7c0,9,10.8,16.2,23.3,16.2c12.6,0,34.1,16.2,48.5,35.9
		c14.4,19.8,43.1,35.9,66.4,35.9c21.6,0,50.3,12.6,62.9,26.9C3524.4,5389.4,3842.3,5389.4,3890.8,5353.5z"/>
	<path d="M5886,5818.6c-84.4-12.6-188.6-46.7-188.6-64.7c0-7.2-28.7-14.4-62.9-14.4c-34.1,0-62.9-7.2-62.9-18c0-9-16.2-18-35.9-18
		s-35.9-7.2-35.9-18c0-9-25.1-30.5-57.5-46.7c-73.6-37.7-265.8-231.7-265.8-267.6c0-16.2-12.6-32.3-26.9-37.7
		c-14.4-7.2-26.9-26.9-26.9-44.9c0-18-7.2-34.1-18-34.1c-9,0-18-12.6-18-26.9s-7.2-26.9-18-26.9c-9,0-18-23.3-18-52.1
		s-10.8-55.7-21.6-61.1c-32.3-9-32.3-630.3,0-662.7c10.8-10.8,21.6-35.9,21.6-53.9c0-19.8,16.2-50.3,35.9-71.8
		c19.8-21.5,35.9-53.9,35.9-71.8s10.8-32.3,25.1-32.3c12.6,0,35.9-26.9,48.5-57.5c28.7-71.8,181.4-229.9,220.9-229.9
		c16.2,0,28.7-7.2,28.7-18c0-9,12.6-18,26.9-18s26.9-7.2,26.9-16.2s35.9-30.5,80.8-48.5c44.9-16.2,80.8-37.7,80.8-44.9
		c0-9,32.3-16.2,71.8-16.2c39.5,0,71.8-7.2,71.8-18s95.2-18,251.4-18s251.4,7.2,251.4,18s26.9,18,61.1,18s73.6,12.6,89.8,26.9
		c14.4,14.4,37.7,26.9,50.3,26.9c14.4,0,43.1,16.2,64.7,35.9c21.6,19.8,50.3,35.9,66.4,35.9c14.4,0,26.9,9,26.9,18
		c0,10.8,10.8,18,23.3,18c34.1,0,228.1,197.5,228.1,233.5c0,9,9,18,18,18c10.8,0,18,16.2,18,35.9s7.2,35.9,16.2,35.9
		c9,0,23.3,18,30.5,41.3c7.2,21.6,16.2,43.1,23.3,48.5c26.9,23.3,55.7,95.2,55.7,143.7c0,28.7,9,53.9,18,53.9
		c10.8,0,18,95.2,18,251.4s-7.2,251.4-18,251.4c-9,0-18,19.8-18,43.1c0,53.9-88,262.2-109.5,262.2c-9,0-16.2,9-16.2,18
		c0,44.9-233.5,271.2-317.9,310.7c-23.3,10.8-41.3,25.1-41.3,34.1c0,7.2-16.2,14.4-35.9,14.4s-35.9,9-35.9,18
		c0,10.8-19.8,18-44.9,18c-25.1,0-44.9,7.2-44.9,14.4C6433.7,5795.3,6044,5842,5886,5818.6z M6254.1,5353.5
		c12.6-14.4,37.7-26.9,55.7-26.9c19.8,0,34.1-7.2,34.1-18c0-9,12.6-18,26.9-18s26.9-7.2,26.9-18c0-9,16.2-18,35.9-18
		c19.8,0,35.9-9,35.9-18c0-10.8,18-39.5,41.3-62.9c66.4-71.8,84.4-97,84.4-116.7c0-9,9-18,18-18c10.8,0,18-28.7,18-62.9
		s9-62.9,18-62.9c10.8,0,18-57.5,18-134.7c0-77.2-7.2-134.7-18-134.7c-9,0-18-35.9-18-80.8s-7.2-80.8-14.4-80.8
		c-7.2,0-28.7-23.3-44.9-52.1c-41.3-70-174.2-199.3-204.7-199.3c-12.6,0-23.3-7.2-23.3-18c0-9-19.8-18-44.9-18
		c-25.1,0-44.9-7.2-44.9-18c0-9-23.3-18-52.1-18c-30.5,0-59.3-9-64.7-18c-18-26.9-278.4,7.2-278.4,37.7c0,9-23.3,16.2-53.9,16.2
		c-28.7,0-53.9,9-53.9,18c0,10.8-9,18-19.8,18c-32.3,0-195.7,177.8-195.7,213.7c0,19.8-5.4,37.7-12.6,41.3
		c-9,3.6-28.7,35.9-44.9,73.6c-43.1,89.8-44.9,355.6-5.4,396.9c14.4,14.4,26.9,43.1,26.9,62.9c0,21.6,9,37.7,18,37.7
		c10.8,0,18,12.6,18,26.9c0,43.1,161.6,195.7,247.8,233.5c41.3,18,75.4,39.5,75.4,48.5c0,7.2,84.4,14.4,186.8,14.4
		C6189.5,5380.5,6236.2,5375.1,6254.1,5353.5z"/>
	<path d="M10318.1,5811.5c-50.3-7.2-118.5-26.9-150.9-43.1c-30.5-16.2-71.8-28.7-91.6-28.7c-18,0-32.3-7.2-32.3-18
		c0-9-16.2-18-35.9-18c-19.8,0-35.9-7.2-35.9-16.2c0-9-18-23.3-39.5-30.5c-41.3-12.6-229.9-197.5-292.7-285.5
		c-19.8-28.7-46.7-61.1-57.5-73.6c-12.6-12.6-23.3-43.1-23.3-70c0-26.9-10.8-57.5-23.3-71.8c-89.8-88-82.6-799.2,7.2-799.2
		c9,0,16.2-23.3,16.2-53.9c0-28.7,9-53.9,18-53.9c10.8,0,18-9,18-19.8c0-10.8,10.8-30.5,23.3-43.1c46.7-53.9,66.4-79,66.4-89.8
		c0-23.3,217.3-224.5,242.4-224.5c16.2,0,41.3-12.6,57.5-26.9c14.4-16.2,50.3-34.1,79-39.5c28.7-5.4,61.1-21.6,71.8-34.1
		c10.8-14.4,52.1-25.1,89.8-25.1c39.5,0,70-7.2,70-18s98.8-18,260.4-18s260.4,7.2,260.4,18s32.3,18,73.6,18
		c41.3,0,84.4,12.6,98.8,26.9c16.2,14.4,41.3,26.9,59.3,26.9c16.2,0,48.5,16.2,70,35.9c21.5,19.8,50.3,35.9,66.4,35.9
		c26.9,0,116.7,75.4,116.7,98.8c0,5.4,18,30.5,41.3,53.9c66.4,71.8,84.4,97,84.4,116.7c0,9,9,18,18,18c10.8,0,18,19.8,18,44.9
		c0,25.1,7.2,44.9,16.2,44.9c9,0,21.6,32.3,28.7,71.8c7.2,39.5,19.8,71.8,28.7,71.8c9,0,16.2,28.7,16.2,62.9c0,34.1,9,62.9,18,62.9
		c10.8,0,18,86.2,18,222.7v222.7l-515.4,7.2c-285.5,3.6-531.6,1.8-547.7-1.8c-28.7-5.4-32.3-30.5-32.3-199.3v-194l64.7-10.8
		c35.9-7.2,165.2-10.8,287.3-9c242.4,3.6,285.5-9,244.2-73.6c-10.8-19.8-21.6-52.1-21.6-71.8c0-71.8-158-215.5-237.1-215.5
		c-25.1,0-50.3-9-53.9-19.8c-9-26.9-432.8-28.7-441.8,0c-3.6,10.8-26.9,19.8-50.3,19.8c-23.3,0-43.1,9-43.1,18
		c0,10.8-14.4,18-32.3,18c-43.1,0-201.1,154.4-201.1,197.5c0,9-7.2,18-14.4,18c-34.1,0-62.9,109.5-71.8,273
		c-7.2,161.6-5.4,183.2,41.3,292.7c26.9,64.7,57.5,116.7,66.4,116.7c7.2,0,14.4,10.8,14.4,23.3c0,25.1,79,102.4,104.2,102.4
		c7.2,0,25.1,16.2,39.5,35.9c14.4,19.8,43.1,35.9,64.7,35.9c23.3,0,52.1,12.6,68.2,26.9c41.3,41.3,400.5,37.7,475.9-3.6
		c30.5-18,55.7-37.7,55.7-44.9c0-9,12.6-14.4,26.9-14.4c14.4,0,26.9-7.2,26.9-16.2c0-34.1,111.3-53.9,341.2-59.3
		c238.8-5.4,242.4-5.4,247.8,35.9c3.6,21.6-1.8,39.5-12.6,39.5c-10.8,0-19.8,18-19.8,41.3c0,21.5-16.2,52.1-35.9,66.4
		s-35.9,35.9-35.9,48.5c0,26.9-64.7,95.2-89.8,95.2c-10.8,0-43.1,23.3-73.6,53.9c-30.5,28.7-71.8,57.5-89.8,62.9
		c-19.8,7.2-34.1,19.8-34.1,28.7c0,9-19.8,16.2-43.1,16.2c-23.3,0-46.7,5.4-50.3,14.4c-9,23.3-181.4,79-283.7,95.2
		C10603.6,5829.4,10440.2,5829.4,10318.1,5811.5z"/>
	<path d="M7636.9,5797.1c-64.7-1.8-136.5-9-159.8-14.4l-43.1-9l12.6-353.8c16.2-484.9,16.2-691.4,1.8-835.1
		c-7.2-66.4-5.4-131.1,3.6-143.7c9-10.8,14.4-53.9,12.6-93.4c-3.6-39.5-10.8-190.4-18-335.8l-12.6-265.8h486.7
		c384.3,0,499.2,5.4,545.9,25.1c32.3,14.4,80.8,30.5,107.8,35.9s59.3,23.3,75.4,37.7c14.4,14.4,39.5,26.9,55.7,26.9
		c16.2,0,48.5,18,71.8,41.3c111.3,102.4,134.7,120.3,143.7,120.3c14.4,0,62.9,48.5,62.9,62.9c0,10.8,18,34.1,68.2,89.8
		c10.8,12.6,21.5,32.3,21.5,43.1c0,10.8,9,19.8,18,19.8c10.8,0,18,12.6,18,28.7c0,14.4,12.6,39.5,26.9,53.9
		c14.4,16.2,30.5,48.5,35.9,75.4c5.4,26.9,21.6,71.8,35.9,98.8c30.5,59.3,37.7,423.8,9,475.9c-9,16.2-25.1,64.7-35.9,106
		s-30.5,88-44.9,102.4c-14.4,14.4-26.9,34.1-26.9,44.9s-7.2,19.8-18,19.8c-9,0-18,12.6-18,26.9c0,55.7-168.8,260.4-213.7,260.4
		c-10.8,0-19.8,9-19.8,18c0,10.8-12.6,18-26.9,18c-14.4,0-26.9,7.2-26.9,14.4c0,9-46.7,39.5-102.4,68.2
		c-57.5,28.7-106,57.5-109.5,66.4c-3.6,7.2-25.1,12.6-48.5,12.6c-23.3,0-64.7,9-93.4,19.8
		C8380.4,5779.1,7836.2,5806.1,7636.9,5797.1z M8337.3,5353.5c25.1-14.4,61.1-25.1,80.8-26.9c19.8,0,48.5-16.2,62.9-35.9
		c14.4-19.8,35.9-35.9,48.5-35.9c12.6,0,39.5-16.2,59.3-35.9c19.8-19.8,35.9-46.7,35.9-59.3c0-12.6,16.2-34.1,35.9-48.5
		c19.8-14.4,35.9-43.1,35.9-64.7c0-21.6,12.6-48.5,26.9-61.1c21.6-18,26.9-66.4,26.9-219.1c0-150.9-5.4-202.9-26.9-222.7
		c-14.4-16.2-26.9-43.1-26.9-61.1s-7.2-39.5-18-44.9c-9-5.4-18-25.1-18-41.3c0-18-21.5-46.7-48.5-66.4
		c-25.1-19.8-55.7-44.9-66.4-53.9c-46.7-44.9-120.3-80.8-161.6-80.8c-23.3,0-46.7-7.2-50.3-16.2c-3.6-14.4-256.8-28.7-377.1-21.6
		c-30.5,1.8-32.3,43.1-32.3,599.8c0,330.4,5.4,605.2,12.6,610.6C7960.2,5393,8290.6,5380.5,8337.3,5353.5z"/>
	<path d="M12521.6,5786.3c-19.8-9-35.9-32.3-35.9-52.1c0-19.8-10.8-50.3-23.3-64.7c-12.6-16.2-34.1-62.9-48.5-104.2
		c-12.6-43.1-30.5-77.2-39.5-77.2c-7.2,0-14.4-16.2-14.4-35.9c0-19.8-7.2-35.9-18-35.9c-9,0-18-28.7-18-62.9
		c0-34.1-7.2-62.9-16.2-62.9c-7.2,0-28.7-35.9-44.9-80.8c-18-44.9-39.5-80.8-48.5-80.8c-9,0-16.2-28.7-16.2-62.9
		c0-34.1-7.2-62.9-18-62.9c-9,0-18-14.4-18-32.3s-12.6-48.5-26.9-68.2c-14.4-18-26.9-48.5-26.9-64.7c0-18-7.2-32.3-18-32.3
		c-9,0-18-16.2-18-35.9s-7.2-35.9-18-35.9c-9,0-18-19.8-18-44.9s-7.2-44.9-18-44.9c-9,0-18-19.8-18-43.1c0-23.3-12.6-52.1-26.9-64.7
		c-14.4-12.6-26.9-37.7-26.9-55.7s-7.2-37.7-18-43.1c-9-5.4-18-26.9-18-46.7c0-18-7.2-34.1-18-34.1c-9,0-18-12.6-18-26.9
		c0-26.9-5.4-41.3-59.3-149.1c-16.2-34.1-30.5-71.8-30.5-86.2s-7.2-25.1-18-25.1c-9,0-18-16.2-18-35.9c0-19.8-7.2-35.9-18-35.9
		c-9,0-18-19.8-18-44.9s-7.2-44.9-14.4-44.9c-12.6,0-57.5-138.3-57.5-179.6c0-10.8,68.2-18,161.6-18c95.2,0,161.6,7.2,161.6,18
		s30.5,18,68.2,18c77.2,0,129.3,46.7,129.3,116.7c0,25.1,9,44.9,18,44.9c10.8,0,18,19.8,18,44.9s9,44.9,18,44.9
		c10.8,0,18,25.1,18,55.7c0,53.9,34.1,106,68.2,106c10.8,0,23.3,10.8,28.7,23.3c9,18,12.6,18,21.5,0c5.4-12.6,37.7-23.3,70-23.3
		s64.7,10.8,70,23.3c9,18,12.6,18,21.5,0c7.2-18,89.8-23.3,325-23.3c228.1,0,319.7-5.4,335.8-23.3c12.6-12.6,37.7-68.2,55.7-125.7
		c18-55.7,39.5-102.4,46.7-102.4c9,0,16.2-25.1,16.2-55.7c0-79,35.9-106,141.9-106c50.3,0,91.6-7.2,91.6-18c0-9,19.8-18,44.9-18
		s44.9,9,44.9,18c0,10.8,35.9,18,80.8,18h80.8v80.8c0,44.9-7.2,80.8-18,80.8c-9,0-18,19.8-18,44.9s-7.2,44.9-16.2,44.9
		s-30.5,35.9-48.5,80.8c-16.2,44.9-37.7,80.8-44.9,80.8c-9,0-16.2,25.1-16.2,53.9c0,30.5-7.2,53.9-18,53.9c-9,0-18,19.8-18,43.1
		c0,23.3-5.4,46.7-12.6,50.3c-25.1,10.8-113.1,202.9-113.1,244.2c0,21.6-7.2,39.5-18,39.5c-9,0-18,16.2-18,35.9
		c0,19.8-7.2,35.9-14.4,35.9s-28.7,41.3-48.5,89.8c-19.8,50.3-41.3,89.8-48.5,89.8s-14.4,25.1-14.4,53.9c0,30.5-7.2,53.9-18,53.9
		c-9,0-18,19.8-18,43.1c0,23.3-5.4,46.7-12.6,50.3c-19.8,7.2-77.2,134.7-77.2,167c0,14.4-7.2,26.9-18,26.9c-9,0-18,19.8-18,44.9
		c0,25.1-7.2,44.9-18,44.9c-9,0-18,10.8-18,25.1c0,34.1-93.4,251.4-111.3,258.6c-7.2,3.6-14.4,28.7-14.4,57.5
		c0,30.5-12.6,55.7-30.5,62.9C12893.3,5804.3,12564.7,5806.1,12521.6,5786.3z M12758.7,5102.1c10.8-25.1,26.9-44.9,35.9-44.9
		c7.2,0,14.4-19.8,14.4-44.9c0-25.1,7.2-44.9,14.4-44.9c7.2,0,23.3-35.9,35.9-79c10.8-43.1,32.3-91.6,48.5-106
		c14.4-16.2,26.9-41.3,26.9-55.7c0-16.2,9-28.7,18-28.7c10.8,0,18-23.3,18-53.9s9-53.9,23.3-55.7c10.8-1.8,1.8-9-23.3-16.2
		c-68.2-21.5-472.3-19.8-502.8,1.8c-19.8,14.4-21.5,21.6-3.6,28.7c10.8,3.6,21.5,32.3,21.5,61.1c0,28.7,9,52.1,18,52.1
		c10.8,0,18,19.8,18,44.9c0,25.1,7.2,44.9,14.4,44.9c16.2,0,111.3,199.3,111.3,231.7c0,10.8,9,19.8,18,19.8c10.8,0,18,14.4,18,32.3
		C12683.2,5159.6,12729.9,5166.8,12758.7,5102.1z"/>
	<path d="M14048.1,5779.1c-19.8-21.6-19.8-30.5-3.6-35.9c32.3-10.8,30.5-1900,0-1914.4c-18-9-18-12.6,0-21.6
		c10.8-5.4,21.6-21.6,21.6-35.9c0-19.8,43.1-25.1,224.5-25.1h224.5v610.6c0,395.1,7.2,610.6,18,610.6s18-7.2,18-18
		c0-9,12.6-18,26.9-18c14.4,0,26.9-10.8,26.9-23.3s16.2-34.1,35.9-48.5c19.8-14.4,35.9-35.9,35.9-48.5c0-12.6,23.3-48.5,53.9-79
		c28.7-30.5,57.5-71.8,62.9-89.8c7.2-19.8,19.8-34.1,28.7-34.1s16.2-9,16.2-18c0-18,14.4-39.5,68.2-98.8
		c10.8-12.6,21.6-37.7,21.6-52.1c0-16.2,9-28.7,18-28.7c10.8,0,18-7.2,18-18c0-28.7,174.2-197.5,204.7-197.5
		c18,0,28.7,14.4,28.7,37.7c0,19.8,10.8,48.5,23.3,61.1c55.7,62.9,66.4,80.8,66.4,107.8c0,14.4,9,26.9,18,26.9
		c10.8,0,18,10.8,18,23.3s19.8,37.7,44.9,55.7s44.9,44.9,44.9,59.3c0,14.4,19.8,44.9,43.1,68.2c23.3,23.3,61.1,79,84.4,125.7
		c21.5,44.9,46.7,80.8,55.7,80.8c7.2,0,14.4,9,14.4,19.8c0,10.8,10.8,28.7,23.3,41.3c10.8,14.4,34.1,41.3,48.5,62.9
		c14.4,19.8,32.3,37.7,39.5,37.7s14.4-281.9,14.4-628.5v-628.5h80.8c44.9,0,80.8-7.2,80.8-18c0-9,44.9-18,98.8-18
		c53.9,0,98.8,9,98.8,18c0,10.8,28.7,18,62.9,18h62.9v1021.8c0,914.1-3.6,1021.8-28.7,1032.6c-16.2,5.4-107.8,10.8-202.9,10.8
		c-145.5,0-183.2-5.4-213.7-34.1c-21.5-18-39.5-37.7-39.5-44.9c0-7.2-19.8-34.1-44.9-61.1c-25.1-26.9-44.9-55.7-44.9-66.4
		c0-10.8-16.2-30.5-35.9-44.9c-19.8-14.4-35.9-32.3-35.9-41.3c0-9-10.8-26.9-21.6-39.5c-53.9-59.3-68.2-80.8-68.2-98.8
		c0-9-7.2-18-18-18c-9,0-18-12.6-18-26.9c0-16.2-18-48.5-39.5-71.8c-64.7-68.2-86.2-97-86.2-111.3c0-9-16.2-26.9-35.9-41.3
		c-19.8-14.4-35.9-35.9-35.9-48.5c0-26.9-88-120.3-131.1-136.5c-16.2-5.4-30.5-3.6-30.5,7.2c0,10.8-10.8,30.5-21.6,43.1
		c-53.9,59.3-68.2,80.8-68.2,98.8c0,9-7.2,18-14.4,18c-9,0-30.5,28.7-50.3,62.9c-18,34.1-37.7,62.9-44.9,62.9s-21.5,25.1-34.1,53.9
		c-12.6,30.5-28.7,53.9-37.7,53.9s-16.2,9-16.2,18c0,19.8-18,44.9-84.4,116.7c-23.3,23.3-41.3,52.1-41.3,62.9c0,9-7.2,18-16.2,18
		s-25.1,25.1-37.7,53.9c-12.6,30.5-41.3,70-64.7,88c-23.3,19.8-43.1,41.3-43.1,50.3c0,35.9-88,57.5-260.4,64.7
		C14109.1,5804.3,14067.8,5800.7,14048.1,5779.1z"/>
	<path d="M16668.2,5488.2c-5.4-1131.4-12.6-1598.3-23.3-1655.8c-12.6-61.1-10.8-68.2,26.9-77.2c23.3-5.4,326.8-7.2,671.6-5.4
		l628.5,5.4l-7.2,195.7c-3.6,131.1-14.4,204.7-28.7,220.9c-28.7,26.9-170.6,32.3-170.6,5.4c0-10.8-111.3-18-298.1-18
		c-364.6,0-353.8-7.2-353.8,215.5c-1.8,88,5.4,167,12.6,174.2c7.2,7.2,147.3,12.6,308.9,9c163.4-3.6,312.5,0,332.2,5.4
		c30.5,10.8,34.1,28.7,34.1,199.3c0,140.1-7.2,195.7-25.1,215.5c-21.6,21.6-70,21.6-310.7,3.6c-269.4-18-287.3-18-325,14.4
		c-34.1,28.7-39.5,52.1-39.5,168.8c0,73.6,5.4,152.6,10.8,176l10.8,39.5h431h429.2l-12.6,202.9c-7.2,109.5-16.2,204.7-19.8,210.1
		s-294.5,9-644.7,9H16670L16668.2,5488.2z"/>
	<path d="M388.9,3230.8c-7.2-18-14.4-483.1-14.4-1032.6c-1.8-1000.3-1.8-1000.3,35.9-1009.3c102.4-26.9,292.7-32.3,355.6-10.8
		l68.2,21.6l-3.6,479.5c-5.4,747.1-7.2,736.3,35.9,725.5c19.8-5.4,35.9-25.1,35.9-43.1c0-19.8,9-34.1,18-34.1
		c19.8,0,107.8-80.8,107.8-98.8c0-5.4,18-30.5,41.3-53.9c61.1-66.4,84.4-97,84.4-109.5c0-5.4,25.1-34.1,53.9-61.1
		c30.5-26.9,53.9-55.7,53.9-61.1c0-12.6,23.3-43.1,86.2-109.5c21.6-23.3,39.5-48.5,39.5-53.9c0-5.4,18-30.5,41.3-53.9
		c59.3-64.7,84.4-95.2,84.4-107.8c0-5.4,18-30.5,41.3-53.9c62.9-68.2,84.4-97,84.4-111.3c0-9,16.2-26.9,35.9-41.3
		c19.8-14.4,35.9-34.1,35.9-44.9c0-9,30.5-50.3,68.2-91.6l66.4-73.6l170.6-12.6c95.2-7.2,186.8-7.2,202.9,0
		c28.7,10.8,30.5,88,30.5,1041.6v1030.8h-224.5h-222.7l-5.4-598c-3.6-488.5-10.8-601.6-30.5-625c-23.3-25.1-30.5-23.3-59.3,5.4
		c-18,18-32.3,41.3-32.3,50.3c0,10.8-7.2,18-18,18c-9,0-18,7.2-18,18c0,16.2-44.9,75.4-102.4,136.5c-12.6,12.6-23.3,30.5-23.3,41.3
		c0,10.8-7.2,19.8-14.4,19.8s-26.9,21.6-43.1,50.3c-18,26.9-50.3,70-73.6,97c-23.3,26.9-57.5,70-77.2,97
		c-18,25.1-52.1,66.4-73.6,89.8c-23.3,23.3-41.3,46.7-41.3,52.1c0,12.6-26.9,46.7-102.4,125.7c-32.3,34.1-59.3,66.4-59.3,71.8
		c0,10.8-19.8,35.9-66.4,89.8c-12.6,12.6-23.3,28.7-23.3,35.9c0,5.4-18,30.5-39.5,53.9c-23.3,23.3-61.1,70-86.2,106l-44.9,62.9
		l-181.4,1.8C430.2,3261.4,401.5,3257.8,388.9,3230.8z"/>
	<path d="M3319.7,3151.8c-19.8-59.3-41.3-111.3-50.3-116.7c-7.2-5.4-14.4-28.7-14.4-53.9c0-23.3-7.2-43.1-18-43.1
		c-9,0-18-19.8-18-44.9s-7.2-44.9-18-44.9c-9,0-18-10.8-18-25.1c0-32.3-91.6-233.5-111.3-240.6c-7.2-3.6-14.4-34.1-14.4-66.4
		s-7.2-62.9-14.4-66.4c-18-7.2-111.3-199.3-111.3-226.3c0-12.6-7.2-21.6-18-21.6c-9,0-18-23.3-18-53.9c0-28.7-5.4-53.9-14.4-53.9
		c-7.2,0-37.7-61.1-66.4-134.7c-30.5-73.6-59.3-134.7-66.4-134.7c-9,0-14.4-23.3-14.4-53.9c0-28.7-7.2-53.9-16.2-53.9
		c-7.2,0-28.7-35.9-44.9-80.8c-18-44.9-39.5-80.8-48.5-80.8s-16.2-23.3-16.2-53.9c0-28.7-7.2-53.9-18-53.9c-9,0-18-16.2-18-35.9
		s-16.2-61.1-35.9-93.4c-59.3-98.8-50.3-116.7,70-131.1c127.5-14.4,343,5.4,371.7,34.1c10.8,12.6,26.9,48.5,34.1,79
		c5.4,32.3,19.8,57.5,28.7,57.5s16.2,28.7,16.2,62.9c0,34.1,9,62.9,18,62.9c10.8,0,18,12.6,18,26.9c0,16.2,18,48.5,41.3,71.8
		c39.5,41.3,44.9,43.1,425.6,44.9c493.9,5.4,466.9,7.2,466.9-35.9c0-19.8,7.2-35.9,18-35.9c9,0,21.6-21.6,28.7-48.5
		c16.2-80.8,46.7-149.1,62.9-149.1c9,0,16.2-25.1,16.2-55.7c0-97,26.9-106,285.5-106c222.7,0,235.3,1.8,235.3,35.9
		c0,19.8-7.2,35.9-18,35.9c-9,0-18,19.8-18,44.9s-7.2,44.9-16.2,44.9c-9,0-25.1,26.9-37.7,59.3c-12.6,30.5-41.3,97-64.7,143.7
		c-23.3,48.5-43.1,102.4-43.1,122.1c0,18-7.2,34.1-18,34.1c-9,0-18,16.2-18,34.1c0,19.8-7.2,41.3-18,46.7c-9,5.4-18,23.3-18,37.7
		c0,16.2-12.6,39.5-26.9,53.9c-14.4,16.2-26.9,46.7-26.9,71.8c0,23.3-7.2,43.1-18,43.1c-9,0-18,16.2-18,35.9s-7.2,35.9-18,35.9
		c-9,0-18,19.8-18,44.9c0,25.1-7.2,44.9-18,44.9c-9,0-18,14.4-18,32.3c0,16.2-12.6,46.7-26.9,64.7c-14.4,19.8-26.9,50.3-26.9,68.2
		c0,18-7.2,32.3-18,32.3c-9,0-18,25.1-18,53.9c0,30.5-16.2,71.8-35.9,93.4c-19.8,21.6-35.9,53.9-35.9,70c0,18-12.6,43.1-26.9,59.3
		c-14.4,14.4-26.9,43.1-26.9,62.9c0,21.6-7.2,37.7-18,37.7c-9,0-18,25.1-18,53.9c0,30.5-7.2,53.9-14.4,53.9s-28.7,41.3-48.5,89.8
		c-19.8,50.3-41.3,89.8-48.5,89.8s-14.4,25.1-14.4,53.9c0,30.5-7.2,53.9-18,53.9c-9,0-18,10.8-18,23.3s-19.8,41.3-44.9,62.9
		c-39.5,35.9-66.4,39.5-238.8,39.5h-192.2L3319.7,3151.8z M3634,2552c18-28.7,32.3-68.2,32.3-84.4c1.8-18,10.8-32.3,19.8-32.3
		c10.8,0,18-23.3,18-53.9c0-28.7,7.2-53.9,16.2-53.9s19.8-23.3,25.1-52.1c7.2-28.7,28.7-89.8,50.3-134.7
		c57.5-123.9,35.9-136.5-231.7-136.5c-168.8,0-217.3,5.4-224.5,25.1c-12.6,32.3,5.4,100.6,25.1,100.6c9,0,16.2,32.3,16.2,71.8
		c0,39.5,5.4,71.8,14.4,71.8c7.2,0,37.7,61.1,66.4,134.7c30.5,73.6,59.3,134.7,68.2,134.7c7.2,0,12.6,16.2,12.6,37.7
		C3542.4,2634.6,3596.3,2618.5,3634,2552z"/>
	<path d="M4551.7,3212.9c-9-28.7-18-66.4-16.2-86.2c0-19.8-1.8-86.2-5.4-147.3c-9-167-7.2-167,298.1-167h258.6v-123.9
		c0-82.6-7.2-127.5-21.6-132.9c-18-7.2-18-10.8,0-10.8c26.9-1.8,32.3-307.1,3.6-307.1c-9,0-18-16.2-18-35.9c0-19.8,9-35.9,18-35.9
		c26.9,0,21.6-156.2-3.6-168.8c-18-9-18-12.6,0-21.6c26.9-12.6,32.3-689.6,3.6-689.6c-26.9,0-21.6-34.1,9-64.7
		c35.9-37.7,332.2-64.7,405.9-39.5l52.1,18v806.3v806.3H5789c308.9,0,301.7-5.4,290.9,213.7c-3.6,84.4-10.8,172.4-16.2,195.7
		l-7.2,39.5h-743.5h-743.5L4551.7,3212.9z"/>
	<path d="M6378,3248.8c-1.8-9-3.6-468.7-7.2-1023.6c-3.6-844,0-1014.7,21.5-1030.8c23.3-19.8,407.7-14.4,427.4,5.4
		c7.2,5.4,16.2,1878.5,10.8,2031.1c-1.8,26.9-25.1,30.5-226.3,30.5C6480.4,3261.4,6379.8,3256,6378,3248.8z"/>
	<path d="M7978.1,3243.4c0-9-26.9-18-57.5-18c-32.3,0-95.2-19.8-138.3-44.9c-41.3-25.1-88-44.9-102.4-44.9s-25.1-7.2-25.1-18
		c0-9-9-18-18-18c-32.3,0-269.4-229.9-269.4-260.4c0-10.8-19.8-35.9-66.4-89.8c-12.6-12.6-23.3-41.3-23.3-61.1
		c0-21.6-7.2-37.7-18-37.7c-9,0-18-19.8-18-44.9s-7.2-44.9-16.2-44.9c-30.5,0-59.3-208.3-50.3-386.1c9-197.5,26.9-296.3,50.3-296.3
		c9,0,16.2-19.8,16.2-44.9s9-44.9,18-44.9c10.8,0,18-16.2,18-34.1c0-19.8,10.8-46.7,23.3-59.3c10.8-12.6,34.1-46.7,48.5-77.2
		c30.5-59.3,188.6-224.5,215.5-224.5c10.8,0,18-5.4,18-12.6c0-9,32.3-30.5,71.8-48.5c39.5-19.8,71.8-41.3,71.8-50.3
		c0-7.2,16.2-14.4,35.9-14.4s35.9-7.2,35.9-18c0-9,12.6-18,26.9-18s26.9-7.2,26.9-18c0-9,23.3-18,52.1-18s80.8-12.6,114.9-26.9
		c84.4-34.1,337.6-34.1,434.6,0c39.5,14.4,93.4,26.9,122.1,26.9c26.9,0,48.5,9,48.5,18c0,10.8,16.2,18,35.9,18
		c19.8,0,35.9,9,35.9,18c0,10.8,10.8,18,25.1,18c14.4,0,37.7,10.8,50.3,23.3c12.6,10.8,46.7,34.1,77.2,48.5
		c71.8,35.9,260.4,224.5,260.4,260.4c0,14.4,9,26.9,18,26.9c10.8,0,32.3,28.7,48.5,62.9c16.2,34.1,35.9,62.9,44.9,62.9
		c7.2,0,14.4,28.7,14.4,62.9c0,34.1,7.2,62.9,16.2,62.9c37.7,0,73.6,528,39.5,562.1c-10.8,10.8-19.8,43.1-19.8,70s-7.2,50.3-18,50.3
		c-9,0-18,14.4-18,34.1c0,35.9-88,204.7-111.3,213.7c-7.2,3.6-14.4,14.4-14.4,23.3c0,41.3-228.1,267.6-269.4,267.6c-9,0-18,9-18,18
		c0,10.8-14.4,18-30.5,18c-18,0-64.7,21.6-104.2,44.9c-39.5,25.1-98.8,44.9-129.3,44.9c-32.3,0-59.3,9-59.3,18
		c0,10.8-98.8,18-260.4,18C8076.9,3261.4,7978.1,3254.2,7978.1,3243.4z M8387.6,2819.6c41.3-5.4,75.4-18,75.4-26.9
		s19.8-16.2,44.9-16.2c30.5,0,73.6-30.5,140.1-98.8c129.3-134.7,138.3-145.5,138.3-188.6c0-19.8,9-35.9,18-35.9
		c10.8,0,18-28.7,18-62.9s9-62.9,18-62.9c10.8,0,18-41.3,18-89.8c0-93.4-34.1-233.5-57.5-233.5c-9,0-14.4-25.1-14.4-53.9
		c0-55.7-12.6-79-86.2-149.1c-93.4-91.6-129.3-120.3-147.3-120.3c-9,0-18-7.2-18-16.2c0-23.3-174.2-59.3-335.8-68.2
		c-98.8-5.4-149.1-1.8-149.1,10.8c0,10.8-16.2,19.8-34.1,19.8c-19.8,0-46.7,12.6-62.9,26.9c-14.4,14.4-30.5,26.9-37.7,26.9
		c-25.1,0-188.6,177.8-188.6,204.7c0,16.2-7.2,28.7-18,28.7c-9,0-18,12.6-18,26.9s-7.2,26.9-14.4,26.9c-7.2,0-23.3,53.9-34.1,122.1
		c-25.1,154.4,18,434.6,68.2,434.6c9,0,16.2,9,16.2,18c0,21.6,25.1,53.9,86.2,113.1c102.4,100.6,129.3,120.3,165.2,120.3
		c19.8,0,35.9,9,35.9,18c0,10.8,28.7,18,62.9,18s62.9,9,62.9,18C8139.7,2848.3,8188.2,2846.5,8387.6,2819.6z"/>
	<path d="M9648.3,3159c-3.6-894.3,1.8-1952.1,10.8-1961.1c5.4-5.4,102.4-10.8,215.5-10.8c154.4,0,210.1,5.4,220.9,25.1
		c9,12.6,12.6,285.5,7.2,605.2c-5.4,517.2-3.6,581.9,21.6,581.9c35.9,0,242.4-206.5,242.4-242.4c0-14.4,7.2-26.9,16.2-26.9
		c9,0,23.3-18,30.5-39.5c7.2-23.3,35.9-62.9,62.9-88c28.7-26.9,52.1-53.9,52.1-59.3c0-12.6,23.3-43.1,86.2-109.5
		c21.6-23.3,39.5-48.5,39.5-53.9c0-5.4,18-30.5,41.3-53.9c100.6-109.5,120.3-134.7,120.3-141.9c0-5.4,28.7-39.5,62.9-75.4
		c34.1-34.1,62.9-71.8,62.9-80.8c0-9,28.7-46.7,62.9-82.6s62.9-73.6,62.9-82.6c0-43.1,57.5-61.1,233.5-70
		c104.2-5.4,197.5-7.2,206.5-3.6c12.6,5.4,16.2,328.6,14.4,935.6c-3.6,511.8-5.4,976.9-5.4,1034.4v102.4h-199.3
		c-149.1,0-204.7-7.2-224.5-26.9c-21.5-21.6-25.1-120.3-25.1-596.2c0-314.3,0-585.4,0-601.6c0-18-9-32.3-18-32.3
		c-19.8,0-107.8,80.8-107.8,98.8c0,5.4-18,30.5-39.5,53.9c-61.1,64.7-86.2,95.2-86.2,107.8c0,7.2-10.8,21.6-21.5,35.9
		c-12.6,12.6-39.5,44.9-59.3,73.6c-19.8,26.9-46.7,59.3-57.5,71.8c-12.6,12.6-23.3,26.9-23.3,32.3c0,12.6-61.1,84.4-120.3,147.3
		c-23.3,23.3-41.3,46.7-41.3,52.1c0,7.2-10.8,21.6-21.5,34.1c-50.3,52.1-104.2,118.5-104.2,129.3c0,7.2-14.4,25.1-34.1,41.3
		c-18,16.2-46.7,53.9-62.9,82.6c-50.3,91.6-71.8,120.3-143.7,192.2c-37.7,37.7-80.8,68.2-93.4,68.2c-14.4,0-25.1,9-25.1,18
		c0,10.8-71.8,18-179.6,18h-179.6V3159z"/>
</g>
</svg>
