<?xml version="1.0" standalone="no"?>
<!DOCTYPE svg PUBLIC "-//W3C//DTD SVG 20010904//EN"
 "http://www.w3.org/TR/2001/REC-SVG-20010904/DTD/svg10.dtd">
<svg version="1.0" xmlns="http://www.w3.org/2000/svg"
 width="1600.000000pt" height="1524.000000pt" viewBox="0 0 1600.000000 1524.000000"
 preserveAspectRatio="xMidYMid meet">

<g transform="translate(0.000000,1524.000000) scale(0.100000,-0.100000)"
fill="#000000" stroke="none">
<path d="M7915 12710 c-165 -35 -296 -131 -369 -269 -59 -113 -41 -190 49
-207 59 -11 97 14 136 86 38 72 92 123 166 157 73 33 192 31 267 -6 108 -53
177 -159 177 -273 0 -103 -27 -165 -102 -233 -53 -48 -109 -72 -195 -84 -74
-11 -115 -34 -125 -72 -4 -13 -7 -108 -8 -210 l-1 -186 -307 -82 c-799 -212
-988 -267 -991 -283 -4 -19 90 -163 110 -170 7 -3 153 33 323 79 456 123 912
242 954 249 42 7 89 -5 844 -208 452 -121 489 -129 505 -114 30 26 98 164 87
174 -5 5 -273 80 -595 167 -322 86 -610 164 -642 172 -66 18 -65 16 -58 172
l5 103 61 22 c139 51 241 141 305 271 139 283 5 606 -298 721 -75 28 -224 41
-298 24z"/>
<path d="M6161 10953 c-13 -3 -139 -34 -280 -69 -235 -58 -258 -66 -283 -94
l-28 -30 0 -2215 c0 -1218 3 -2215 6 -2215 3 0 26 18 51 39 173 153 477 303
706 351 l57 11 0 410 c0 396 1 410 20 429 19 19 33 20 303 20 229 0 287 -3
303 -14 18 -14 19 -32 22 -429 l3 -414 72 -18 c244 -59 469 -170 665 -328 l82
-67 0 1735 0 1735 -22 4 c-13 3 -48 8 -78 11 -237 26 -542 140 -750 280 -266
179 -461 382 -687 718 -68 100 -112 157 -122 156 -9 -1 -27 -4 -40 -6z m329
-1424 c106 -89 201 -149 430 -274 58 -31 108 -62 112 -69 4 -6 8 -210 8 -453
0 -430 -1 -444 -20 -463 -19 -19 -33 -20 -305 -20 -272 0 -286 1 -305 20 -20
20 -20 33 -20 668 0 357 3 652 7 655 7 7 12 4 93 -64z"/>
<path d="M9827 10946 c-7 -6 -42 -62 -77 -123 -240 -426 -658 -782 -1094 -932
-128 -45 -273 -78 -386 -89 l-75 -7 -3 -1553 -2 -1552 407 2 408 3 5 1199 5
1200 80 31 c186 73 324 156 471 284 45 38 84 67 88 64 3 -4 6 -631 6 -1395 l0
-1388 405 0 405 0 0 2043 0 2044 -22 21 c-16 15 -89 37 -248 77 -294 74 -356
86 -373 71z"/>
<path d="M10820 10680 c-20 -20 -20 -31 -18 -2003 l3 -1982 423 -3 422 -2 0
1450 c0 1415 0 1450 19 1450 71 0 450 -143 589 -223 212 -120 424 -277 684
-504 59 -51 114 -93 122 -93 34 0 37 35 34 409 l-3 368 -28 41 c-69 99 -310
307 -495 426 -275 178 -956 458 -1587 652 -129 40 -139 40 -165 14z"/>
<path d="M5069 10639 c-255 -96 -606 -264 -638 -305 l-21 -27 0 -1004 0 -1004
-25 -24 -24 -25 -268 0 c-227 0 -272 2 -291 16 l-22 15 0 879 c0 483 -3 885
-6 894 -3 9 -15 16 -26 16 -19 0 -301 -185 -461 -303 -108 -79 -215 -173 -284
-249 l-53 -58 0 -1690 0 -1691 60 75 c163 202 403 378 655 481 l110 45 3 437
c2 389 4 439 19 455 15 17 38 18 292 18 152 0 281 -4 287 -8 31 -21 34 -54 34
-435 l0 -385 68 -7 c101 -10 253 -42 361 -77 97 -30 280 -114 359 -163 l42
-26 0 2079 c0 2229 3 2097 -47 2106 -11 2 -66 -14 -124 -35z"/>
<path d="M11986 8228 c-14 -19 -16 -66 -16 -310 0 -357 -16 -328 175 -328
l135 0 2 -491 3 -491 85 -25 c202 -58 362 -150 514 -295 55 -53 124 -128 151
-167 28 -38 53 -70 58 -70 4 -1 6 485 5 1078 -3 1045 -4 1080 -22 1100 -19 21
-23 21 -547 21 l-528 0 -15 -22z"/>
<path d="M4067 6455 c-206 -35 -451 -142 -613 -268 -307 -238 -506 -595 -545
-980 -59 -579 264 -1156 785 -1403 217 -102 382 -139 626 -138 248 1 425 45
650 160 188 96 371 256 487 425 25 38 50 69 54 69 5 0 23 -21 40 -47 205 -303
531 -515 906 -590 132 -26 395 -23 530 5 392 84 702 297 918 631 275 426 289
1012 34 1445 -205 347 -501 569 -894 672 -138 36 -411 45 -566 19 -277 -46
-533 -174 -735 -368 -81 -77 -183 -199 -219 -262 -9 -15 -19 -6 -74 70 -130
178 -314 336 -504 432 -99 49 -286 110 -397 128 -116 18 -372 18 -483 0z m375
-679 c395 -76 657 -466 574 -856 -82 -387 -469 -638 -857 -556 -205 44 -402
199 -494 391 -59 122 -79 220 -72 349 10 187 75 334 207 466 177 176 409 251
642 206z m2473 -16 c134 -41 265 -128 353 -233 59 -71 129 -216 148 -307 23
-111 15 -271 -20 -375 -65 -192 -184 -329 -365 -420 -391 -197 -869 7 -1008
430 -22 68 -26 98 -27 205 -1 138 14 207 64 314 41 86 122 188 194 247 73 60
220 133 296 148 30 6 64 13 75 15 47 11 223 -4 290 -24z"/>
<path d="M8420 5070 l0 -1339 348 2 347 2 3 605 3 605 111 -170 c61 -93 209
-323 328 -510 119 -187 245 -384 281 -438 l64 -97 300 2 300 3 3 178 2 178
-127 187 c-70 103 -193 282 -273 397 -207 299 -350 512 -350 523 0 6 77 111
172 234 95 122 264 342 375 487 l204 265 -3 110 -3 111 -340 0 -339 0 -148
-195 c-82 -107 -240 -314 -351 -460 l-202 -265 -5 460 -5 460 -347 3 -348 2 0
-1340z"/>
<path d="M10800 5068 l0 -1341 458 6 c475 6 604 14 809 48 381 63 598 192 777
464 174 264 248 515 247 835 -1 525 -278 1012 -669 1180 -252 108 -607 149
-1279 150 l-343 0 0 -1342z m957 732 c302 -39 544 -246 624 -536 28 -101 31
-264 6 -375 -34 -146 -129 -296 -250 -392 -133 -106 -286 -156 -491 -160
l-131 -2 -3 725 c-1 399 0 731 3 738 5 15 135 16 242 2z"/>
</g>
</svg>
