<?xml version="1.0" standalone="no"?>
<!DOCTYPE svg PUBLIC "-//W3C//DTD SVG 20010904//EN"
 "http://www.w3.org/TR/2001/REC-SVG-20010904/DTD/svg10.dtd">
<svg version="1.0" xmlns="http://www.w3.org/2000/svg"
 width="200.000000pt" height="200.000000pt" viewBox="0 0 200.000000 200.000000"
 preserveAspectRatio="xMidYMid meet">

<g transform="translate(0.000000,200.000000) scale(0.100000,-0.100000)"
fill="#000000" stroke="none">
<path d="M5 1005 c0 -539 1 -758 2 -487 2 272 2 713 0 980 -1 268 -2 46 -2
-493z"/>
<path d="M1995 1005 c0 -539 1 -758 2 -487 2 272 2 713 0 980 -1 268 -2 46 -2
-493z"/>
<path d="M1029 1303 c-11 -12 -14 -75 -16 -287 -3 -290 1 -318 45 -324 45 -7
52 12 52 134 0 62 4 124 9 137 32 84 147 90 180 9 6 -15 13 -77 14 -139 4
-119 12 -143 51 -143 40 0 46 18 46 141 0 161 -28 231 -112 275 -36 19 -129
18 -154 -1 -10 -8 -22 -15 -26 -15 -5 0 -8 45 -8 99 0 77 -4 103 -16 115 -20
21 -48 20 -65 -1z"/>
<path d="M1496 1251 c-13 -14 -14 -24 -7 -44 18 -47 91 -37 91 13 0 49 -50 68
-84 31z"/>
<path d="M587 1130 c-56 -10 -117 -58 -146 -113 -75 -147 27 -327 186 -327 64
0 91 10 138 52 50 43 75 99 75 168 0 142 -119 245 -253 220z m111 -106 c74
-52 69 -189 -8 -229 -66 -34 -141 -9 -170 58 -27 60 -8 136 42 171 29 21 107
20 136 0z"/>
<path d="M1502 1098 c-17 -17 -17 -379 0 -396 15 -15 51 -15 66 0 8 8 12 67
12 198 0 195 -3 210 -45 210 -12 0 -26 -5 -33 -12z"/>
</g>
</svg>
