<?xml version="1.0" standalone="no"?>
<!DOCTYPE svg PUBLIC "-//W3C//DTD SVG 20010904//EN"
 "http://www.w3.org/TR/2001/REC-SVG-20010904/DTD/svg10.dtd">
<svg version="1.0" xmlns="http://www.w3.org/2000/svg"
 width="793.000000pt" height="612.000000pt" viewBox="0 0 793.000000 612.000000"
 preserveAspectRatio="xMidYMid meet">

<g transform="translate(0.000000,612.000000) scale(0.100000,-0.100000)"
fill="#000000" stroke="none">
<path d="M3340 3847 c-35 -18 -38 -59 -6 -85 37 -29 147 -42 421 -52 368 -14
395 -19 555 -105 95 -51 100 -49 100 35 0 45 7 88 20 121 l19 52 -67 -6 c-38
-3 -89 -15 -117 -27 -45 -21 -59 -22 -170 -17 -79 4 -202 21 -360 51 -245 47
-351 55 -395 33z"/>
<path d="M4651 3746 c-10 -12 -2 -15 46 -18 32 -2 60 -3 62 -1 6 4 -66 33 -82
33 -8 0 -20 -6 -26 -14z"/>
<path d="M4610 3671 c0 -19 6 -21 53 -22 28 0 62 -2 74 -5 12 -2 25 0 28 5 3
5 -21 15 -52 21 -32 6 -68 14 -80 17 -18 4 -23 1 -23 -16z"/>
<path d="M4620 3579 c0 -21 18 -23 85 -10 46 9 33 17 -37 24 -42 4 -48 2 -48
-14z"/>
<path d="M3168 3400 c-2 -7 -38 -23 -80 -36 -92 -29 -148 -75 -148 -121 0 -38
18 -60 55 -69 29 -7 30 -7 12 13 -22 26 -11 59 32 96 29 24 98 53 106 45 7 -7
-61 -165 -93 -215 -18 -27 -44 -55 -58 -62 l-27 -12 24 -25 c48 -52 82 -18
147 148 22 57 45 120 51 140 7 21 16 40 21 43 23 14 17 -23 -20 -127 -43 -120
-48 -163 -17 -163 13 0 23 12 32 38 15 45 61 117 75 117 5 0 -2 -25 -16 -56
-28 -64 -28 -99 -1 -99 13 0 25 19 44 70 43 119 30 155 -38 98 -27 -23 -32
-25 -25 -8 5 11 18 48 30 81 l21 61 72 6 c39 3 90 1 114 -4 47 -11 70 4 45 30
-14 14 -161 20 -271 12 -27 -2 -57 0 -66 3 -10 4 -19 2 -21 -4z"/>
<path d="M3849 3369 c-104 -74 -179 -175 -179 -240 0 -50 40 -99 81 -99 34 0
35 4 9 37 -41 53 -15 149 61 223 43 42 97 76 106 67 2 -3 -22 -58 -53 -122
-48 -95 -58 -126 -59 -168 0 -45 3 -53 25 -64 23 -12 25 -11 28 15 2 15 10 51
18 80 l15 54 24 -26 c55 -60 145 -19 196 88 35 73 37 114 8 145 -28 30 -66 23
-122 -21 l-40 -32 7 28 c9 36 -16 66 -54 66 -15 0 -47 -14 -71 -31z m261 -54
c0 -83 -96 -196 -154 -181 -41 10 -42 41 -3 94 43 57 73 86 112 106 42 22 45
21 45 -19z"/>
<path d="M4507 3373 c-4 -3 -7 -14 -7 -23 0 -13 -11 -19 -40 -24 -49 -8 -57
-36 -10 -36 17 0 30 -3 30 -8 0 -4 -14 -43 -30 -87 -34 -86 -36 -138 -7 -143
9 -2 19 2 21 10 26 85 40 129 57 174 l20 54 92 -3 c80 -2 92 0 95 16 3 15 -6
17 -82 17 -79 0 -86 2 -86 20 0 24 -38 48 -53 33z"/>
<path d="M4351 3251 c-38 -35 -39 -55 -6 -103 30 -45 30 -45 4 -58 -16 -9 -26
-8 -45 5 -23 15 -24 15 -24 -9 0 -31 47 -50 88 -35 48 19 50 49 6 102 -20 24
-22 31 -12 53 12 25 12 25 20 5 4 -12 10 -21 13 -21 9 0 35 72 29 81 -10 17
-42 9 -73 -20z"/>
<path d="M3375 3217 c-37 -37 -53 -94 -39 -136 7 -19 17 -27 41 -29 34 -3 73
12 73 29 0 6 -8 6 -21 -1 -30 -17 -49 -5 -49 29 0 28 2 29 33 24 44 -7 69 21
65 74 -3 35 -6 38 -36 41 -26 3 -39 -3 -67 -31z m75 -20 c0 -8 -9 -22 -19 -31
-26 -23 -39 -2 -15 25 20 22 34 25 34 6z"/>
<path d="M4249 3233 c0 -11 -3 -13 -6 -5 -2 6 -17 12 -33 12 -55 0 -117 -111
-92 -165 13 -29 29 -31 60 -9 20 14 23 14 28 0 13 -34 39 -16 60 42 12 31 28
72 35 90 12 28 12 34 -1 42 -24 15 -50 11 -51 -7z m-19 -45 c0 -25 -46 -108
-60 -108 -22 0 -3 79 27 112 22 24 33 23 33 -4z"/>
<path d="M4650 3235 c0 -12 -4 -13 -18 -4 -28 18 -64 4 -89 -33 -54 -82 -27
-191 32 -131 16 16 18 16 27 0 16 -29 46 -21 53 14 4 18 18 54 31 82 17 37 20
55 13 69 -12 22 -49 24 -49 3z m-20 -47 c0 -25 -46 -108 -60 -108 -16 0 -12
48 6 83 26 49 54 63 54 25z"/>
<path d="M3465 3010 c-187 -37 -440 -181 -493 -280 -48 -91 -11 -199 76 -216
34 -7 44 10 20 34 -16 16 -12 105 7 141 37 72 111 136 223 191 102 50 252 87
252 62 0 -11 -84 -125 -154 -209 l-58 -71 -38 15 c-54 22 -101 11 -139 -33
-30 -33 -42 -84 -21 -84 6 0 10 7 10 15 0 29 75 47 110 25 12 -7 5 -19 -40
-60 -30 -28 -78 -62 -107 -76 -56 -28 -58 -39 -20 -81 39 -44 68 -32 147 62
40 47 78 84 84 82 17 -5 55 -116 56 -162 0 -48 8 -61 41 -73 32 -13 53 -1 45
24 -17 53 128 508 190 600 29 42 19 58 -28 48 -21 -4 -28 -1 -33 16 -11 36
-52 45 -130 30z m30 -290 c-9 -17 -31 -70 -49 -116 l-33 -85 -16 43 c-14 34
-15 45 -4 59 26 37 112 136 115 134 2 -2 -4 -17 -13 -35z"/>
<path d="M4440 2889 c-23 -51 -25 -80 -8 -97 22 -22 36 -12 62 43 23 51 26 85
6 85 -5 0 -15 3 -24 6 -12 5 -21 -6 -36 -37z"/>
<path d="M3680 2895 c0 -45 -28 -137 -96 -322 -72 -198 -82 -239 -61 -267 21
-29 61 -13 118 45 68 70 120 179 120 252 0 50 3 57 20 57 10 0 19 5 19 10 0 6
-18 10 -40 10 -49 0 -50 5 -9 107 29 70 30 80 17 103 -10 18 -23 26 -51 28
-34 3 -37 1 -37 -23z m46 -308 c-8 -48 -58 -153 -91 -192 l-26 -30 5 30 c2 17
24 84 47 149 38 109 43 117 56 100 10 -13 12 -32 9 -57z"/>
<path d="M3916 2878 c-9 -57 -41 -159 -110 -346 -68 -186 -72 -242 -15 -242
32 0 125 96 165 172 32 62 38 83 39 135 0 59 1 63 23 63 13 0 20 4 17 10 -3 6
-21 10 -40 10 -19 0 -36 4 -39 8 -2 4 9 40 25 81 45 112 36 151 -34 151 -21 0
-26 -6 -31 -42z m44 -276 c0 -29 -10 -68 -25 -100 -30 -66 -88 -149 -92 -135
-4 10 52 186 82 256 20 48 35 39 35 -21z"/>
<path d="M4553 2808 c-25 -28 -34 -71 -21 -106 9 -22 4 -44 -26 -122 -20 -52
-44 -103 -54 -113 -14 -16 -14 -19 -2 -27 38 -24 52 -10 90 97 18 51 38 101
46 110 25 35 25 3 0 -70 -31 -91 -32 -118 -6 -142 17 -15 24 -16 46 -6 22 10
25 16 19 41 -5 22 1 51 21 101 32 81 27 102 -24 107 -40 4 -49 31 -28 88 10
31 11 45 3 53 -17 17 -42 13 -64 -11z"/>
<path d="M4257 2753 c-4 -3 -7 -17 -7 -30 l0 -24 -23 27 c-28 32 -58 29 -107
-12 -64 -55 -107 -188 -78 -244 19 -36 66 -39 98 -5 29 31 36 31 44 0 5 -20
13 -25 36 -25 26 0 30 5 40 43 14 55 29 92 57 146 29 56 30 95 1 115 -24 17
-50 21 -61 9z m-37 -98 c0 -20 -7 -50 -17 -68 -20 -39 -73 -107 -84 -107 -16
0 -19 38 -5 84 33 108 106 170 106 91z"/>
<path d="M4387 2753 c-4 -3 -7 -22 -7 -41 0 -18 -16 -70 -35 -113 -49 -113
-45 -159 15 -159 22 0 27 6 38 53 7 28 28 85 47 126 19 40 35 79 35 87 0 35
-70 70 -93 47z"/>
<path d="M4830 2749 c-57 -23 -111 -97 -124 -171 -8 -44 7 -110 31 -134 23
-23 96 -14 129 17 32 30 31 46 -2 25 -14 -10 -37 -16 -52 -14 -23 2 -28 9 -30
37 -2 19 -1 45 3 59 6 23 7 23 24 8 39 -36 99 -8 127 60 19 46 18 67 -7 98
-22 28 -54 33 -99 15z m63 -89 c-7 -25 -41 -60 -59 -60 -33 0 -28 33 11 68 38
35 58 32 48 -8z"/>
<path d="M2570 1515 c0 -30 5 -55 10 -55 6 0 10 9 10 20 0 15 7 20 25 20 18 0
25 -5 25 -20 0 -11 7 -20 15 -20 12 0 15 13 15 55 0 42 -3 55 -15 55 -9 0 -15
-9 -15 -25 0 -20 -5 -25 -25 -25 -20 0 -25 5 -25 25 0 14 -4 25 -10 25 -5 0
-10 -25 -10 -55z"/>
<path d="M2747 1552 c-10 -10 -17 -28 -17 -40 0 -27 33 -62 58 -62 31 0 62 29
62 59 0 54 -68 82 -103 43z m78 -21 c11 -36 -17 -67 -50 -55 -20 8 -29 42 -15
59 18 21 57 19 65 -4z"/>
<path d="M2900 1560 c0 -5 9 -10 20 -10 17 0 20 -7 20 -45 0 -25 5 -45 10 -45
6 0 10 20 10 45 0 38 3 45 20 45 11 0 20 5 20 10 0 6 -22 10 -50 10 -27 0 -50
-4 -50 -10z"/>
<path d="M3157 1515 c-25 -51 -23 -82 3 -50 16 20 49 19 72 -2 24 -22 23 -4
-3 58 -12 27 -27 49 -33 49 -7 0 -24 -25 -39 -55z m53 -7 c0 -5 -7 -8 -15 -8
-17 0 -18 2 -9 25 5 13 8 14 15 3 5 -7 9 -16 9 -20z"/>
<path d="M3320 1515 c0 -30 5 -55 10 -55 6 0 10 14 10 30 0 38 10 38 35 0 31
-46 45 -38 45 25 0 42 -3 55 -15 55 -10 0 -15 -10 -15 -32 l0 -33 -26 33 c-14
17 -30 32 -35 32 -5 0 -9 -25 -9 -55z"/>
<path d="M3480 1514 l0 -55 42 3 c34 2 45 8 57 29 13 24 13 29 -2 53 -14 21
-25 26 -57 26 l-40 0 0 -56z m75 1 c0 -23 -5 -31 -22 -33 -20 -3 -23 1 -23 33
0 32 3 36 23 33 17 -2 22 -10 22 -33z"/>
<path d="M3730 1515 c0 -42 3 -55 15 -55 8 0 15 9 15 20 0 15 7 20 25 20 14 0
25 5 25 10 0 6 -11 10 -25 10 -16 0 -25 6 -25 15 0 10 10 15 30 15 17 0 30 5
30 10 0 6 -20 10 -45 10 l-45 0 0 -55z"/>
<path d="M3880 1515 c0 -30 5 -55 10 -55 6 0 10 7 10 15 0 8 6 15 14 15 7 0
19 -7 26 -15 7 -8 19 -15 27 -15 12 0 13 3 4 14 -9 10 -9 20 0 40 17 36 -2 56
-52 56 l-39 0 0 -55z m68 18 c-2 -10 -12 -18 -23 -18 -11 0 -21 8 -23 18 -3
13 3 17 23 17 20 0 26 -4 23 -17z"/>
<path d="M4040 1515 l0 -55 45 0 c25 0 45 5 45 10 0 6 -16 10 -35 10 -19 0
-35 5 -35 10 0 6 13 10 29 10 42 0 48 18 9 22 -43 4 -43 22 0 26 48 5 39 22
-13 22 l-45 0 0 -55z"/>
<path d="M4204 1555 c-9 -22 3 -45 23 -45 31 0 50 -17 36 -31 -10 -10 -18 -10
-37 -1 -16 7 -28 8 -31 2 -3 -6 5 -15 19 -22 20 -8 32 -8 52 0 37 17 29 53
-13 66 -49 13 -42 32 10 27 9 -1 17 3 17 8 0 17 -70 13 -76 -4z"/>
<path d="M4360 1515 c0 -30 5 -55 10 -55 6 0 10 9 10 20 0 16 7 20 30 20 23 0
30 -4 30 -20 0 -11 5 -20 10 -20 6 0 10 25 10 55 0 54 -15 77 -22 33 -2 -17
-11 -24 -30 -26 -24 -3 -28 0 -28 22 0 14 -4 26 -10 26 -5 0 -10 -25 -10 -55z"/>
<path d="M4610 1515 c0 -30 5 -55 10 -55 6 0 10 7 10 15 0 10 10 15 30 15 36
0 56 30 40 60 -8 15 -21 20 -50 20 l-40 0 0 -55z m70 15 c0 -15 -7 -20 -25
-20 -18 0 -25 5 -25 20 0 15 7 20 25 20 18 0 25 -5 25 -20z"/>
<path d="M4786 1518 c-14 -33 -19 -55 -12 -57 5 -2 12 1 14 8 5 15 55 14 70
-1 22 -22 22 -2 0 50 -12 29 -28 52 -35 52 -7 0 -24 -24 -37 -52z m54 -10 c0
-5 -9 -8 -20 -8 -18 0 -19 3 -9 21 9 17 13 19 20 8 5 -8 9 -17 9 -21z"/>
<path d="M4944 1555 c-8 -20 13 -45 37 -45 23 0 34 -19 20 -33 -9 -9 -16 -8
-31 1 -11 7 -21 8 -25 2 -9 -14 34 -32 60 -26 33 9 41 37 15 58 -12 10 -29 18
-37 18 -8 0 -13 6 -10 13 2 7 16 11 31 9 19 -3 26 0 22 7 -11 17 -76 14 -82
-4z"/>
<path d="M5100 1560 c0 -5 7 -10 15 -10 11 0 15 -12 15 -45 0 -25 5 -45 10
-45 6 0 10 20 10 45 0 38 3 45 20 45 11 0 20 5 20 10 0 6 -20 10 -45 10 -25 0
-45 -4 -45 -10z"/>
<path d="M5271 1519 c-22 -51 -22 -74 1 -51 15 15 55 16 63 2 3 -5 12 -10 20
-10 18 0 -28 104 -48 108 -9 2 -23 -17 -36 -49z m49 -5 c0 -8 -7 -14 -15 -14
-17 0 -18 2 -9 24 7 18 24 12 24 -10z"/>
</g>
</svg>
