<?xml version="1.0" standalone="no"?>
<!DOCTYPE svg PUBLIC "-//W3C//DTD SVG 20010904//EN"
 "http://www.w3.org/TR/2001/REC-SVG-20010904/DTD/svg10.dtd">
<svg version="1.0" xmlns="http://www.w3.org/2000/svg"
 width="480.000000pt" height="359.000000pt" viewBox="0 0 480.000000 359.000000"
 preserveAspectRatio="xMidYMid meet">

<g transform="translate(0.000000,359.000000) scale(0.100000,-0.100000)"
fill="#000000" stroke="none">
<path d="M2048 3543 c6 -2 18 -2 25 0 6 3 1 5 -13 5 -14 0 -19 -2 -12 -5z"/>
<path d="M1925 3525 c-225 -50 -442 -148 -625 -284 -81 -60 -255 -223 -272
-255 -6 -11 6 -3 27 17 20 20 42 35 49 34 6 -1 10 3 9 10 -1 6 5 17 15 24 14
11 15 11 5 -1 -19 -20 3 -43 28 -29 14 7 19 7 17 -3 -2 -7 6 -13 17 -14 11 -1
37 -6 57 -12 27 -7 38 -7 42 1 3 9 7 9 13 0 6 -8 18 -4 42 18 19 16 36 29 39
29 3 0 34 -13 69 -30 34 -16 68 -30 73 -30 6 0 10 -5 10 -10 0 -6 6 -10 13 -9
18 4 97 -23 97 -32 0 -5 7 -6 15 -3 8 4 15 1 15 -5 0 -6 5 -11 12 -11 17 0
171 -62 188 -76 8 -6 30 -15 47 -19 18 -3 35 -11 38 -16 4 -5 13 -9 22 -9 8 0
27 -8 41 -18 15 -10 56 -27 92 -37 36 -9 67 -21 70 -25 3 -4 25 -13 50 -21 36
-11 44 -18 42 -34 -2 -11 -1 -17 2 -14 5 5 86 188 86 195 0 1 -60 -13 -132
-32 -73 -18 -140 -34 -150 -34 -22 0 -12 37 12 45 10 3 24 13 32 23 12 16 11
16 -7 2 -11 -8 -7 0 9 18 16 17 34 29 39 25 6 -3 7 -1 3 6 -5 7 22 43 71 95
43 45 148 159 233 253 85 94 156 168 158 164 1 -4 -26 -83 -61 -176 -35 -94
-63 -171 -63 -172 1 -1 42 7 91 18 49 11 98 18 107 15 10 -2 16 0 12 5 -3 5 1
9 9 9 8 0 30 2 48 5 30 5 31 4 10 -5 -14 -6 -21 -16 -18 -24 4 -9 -29 -52 -81
-108 -147 -159 -347 -384 -326 -365 24 20 38 23 28 5 -5 -8 0 -7 11 2 10 8 21
13 24 12 31 -18 68 -35 136 -63 44 -18 86 -38 94 -43 7 -6 20 -11 29 -12 18
-3 31 -9 109 -47 29 -13 50 -20 47 -15 -4 6 2 5 14 -1 11 -6 30 -11 42 -11 12
0 18 -4 15 -10 -4 -6 -10 -8 -15 -5 -5 3 -12 0 -16 -6 -4 -7 -3 -9 4 -5 7 4
12 -6 14 -26 4 -45 38 -53 38 -9 l0 31 220 0 220 0 0 51 c0 89 0 89 160 89
164 0 170 -3 170 -86 l0 -54 45 0 c45 0 45 0 45 -35 0 -35 0 -35 -45 -35 l-45
0 2 -162 c1 -90 3 -146 5 -125 2 20 7 37 9 37 3 0 37 -16 75 -35 38 -19 73
-34 77 -33 14 3 60 -21 66 -34 9 -21 -4 77 -26 192 -27 141 -69 272 -133 407
-62 131 -75 117 125 134 286 24 549 -2 690 -69 33 -16 60 -25 60 -21 0 21 -75
89 -130 118 -33 18 -104 44 -157 57 -88 23 -119 26 -298 27 -110 1 -250 -2
-311 -6 -109 -8 -111 -8 -121 15 -24 50 -205 258 -227 262 -6 1 -17 5 -23 9
-7 5 -18 5 -25 1 -6 -4 -8 -3 -5 3 4 5 -7 22 -22 37 -21 20 -30 24 -34 14 -4
-9 -6 -8 -6 3 -1 9 -8 16 -17 15 -9 0 -18 5 -20 12 -1 7 0 8 3 2 2 -5 9 -10
15 -10 7 0 6 5 -1 14 -7 8 -21 12 -32 9 -16 -5 -18 -8 -7 -14 7 -5 8 -9 2 -9
-5 0 -19 7 -30 15 -18 15 -18 15 0 8 13 -4 17 -3 13 4 -4 6 -25 14 -47 18 -39
7 -43 11 -43 47 0 10 -4 15 -8 12 -5 -3 -7 -9 -4 -14 3 -5 1 -11 -5 -15 -5 -3
-10 -2 -10 3 0 5 -21 15 -47 22 -70 18 -104 34 -99 45 2 5 -12 10 -31 11 -19
0 -38 6 -42 13 -4 7 -12 11 -17 10 -19 -5 -96 23 -115 42 -10 10 -20 18 -21
17 -7 -6 -98 26 -98 34 0 5 -14 7 -31 4 -22 -3 -29 -1 -26 8 3 8 -20 21 -64
36 -62 21 -79 22 -179 16 -100 -6 -300 -39 -321 -52 -5 -3 -35 0 -66 7 l-57
13 64 17 c77 20 51 23 -35 4z m545 1 c0 -3 -4 -8 -10 -11 -5 -3 -10 -1 -10 4
0 6 5 11 10 11 6 0 10 -2 10 -4z"/>
<path d="M2565 3524 c33 -7 74 -13 90 -12 17 0 -1 6 -40 14 -91 17 -128 16
-50 -2z"/>
<path d="M2710 3500 c34 -11 60 -11 35 0 -11 5 -29 8 -40 8 -16 0 -15 -2 5 -8z"/>
<path d="M1988 3493 c7 -3 16 -2 19 1 4 3 -2 6 -13 5 -11 0 -14 -3 -6 -6z"/>
<path d="M2778 3483 c7 -3 16 -2 19 1 4 3 -2 6 -13 5 -11 0 -14 -3 -6 -6z"/>
<path d="M2940 3430 c8 -5 20 -10 25 -10 6 0 3 5 -5 10 -8 5 -19 10 -25 10 -5
0 -3 -5 5 -10z"/>
<path d="M3040 3386 c0 -3 14 -12 30 -21 17 -9 30 -13 30 -11 0 3 -13 12 -30
21 -16 9 -30 13 -30 11z"/>
<path d="M3110 3346 c0 -2 7 -7 16 -10 8 -3 12 -2 9 4 -6 10 -25 14 -25 6z"/>
<path d="M3150 3321 c0 -5 7 -12 16 -15 14 -5 15 -4 4 9 -14 17 -20 19 -20 6z"/>
<path d="M3180 3289 c-13 -9 -13 -10 1 -6 17 6 85 -36 139 -86 19 -18 49 -44
65 -57 27 -22 26 -21 -5 13 -34 37 -108 97 -160 130 -18 12 -29 13 -40 6z"/>
<path d="M2689 3033 c-13 -16 -12 -17 4 -4 16 13 21 21 13 21 -2 0 -10 -8 -17
-17z"/>
<path d="M2128 2823 c7 -3 16 -2 19 1 4 3 -2 6 -13 5 -11 0 -14 -3 -6 -6z"/>
<path d="M1080 2608 c-33 -68 -77 -176 -97 -240 -21 -65 -42 -118 -47 -118 -4
0 -5 8 -2 18 5 14 4 14 -9 -2 -15 -20 -15 -20 -15 0 0 16 -2 17 -10 4 -5 -8
-10 -10 -10 -5 0 6 -10 10 -22 11 -34 1 -92 12 -122 24 -15 5 -31 8 -36 5 -5
-3 -11 1 -13 7 -4 10 -8 9 -17 -2 -9 -12 -10 -6 -5 25 4 22 5 38 2 35 -10 -10
-55 -186 -73 -285 -27 -150 -24 -506 5 -628 9 -38 21 -60 21 -40 0 5 6 10 13
10 6 0 30 4 51 8 30 6 37 5 31 -5 -5 -9 -2 -10 13 -6 11 4 39 1 63 -5 24 -6
58 -13 74 -14 17 -2 32 -4 35 -5 3 -1 8 -2 11 -2 3 1 19 -45 35 -101 29 -105
92 -278 138 -379 14 -32 22 -58 17 -58 -5 0 -12 8 -15 17 -6 15 -8 15 -16 3
-9 -13 -10 -13 -10 0 0 13 -1 13 -10 0 -5 -8 -10 -10 -10 -4 0 11 -25 17 -122
29 -57 7 -62 9 -75 25 -12 13 -12 13 -8 -1 4 -9 0 -16 -8 -16 -8 0 -14 7 -13
16 1 9 -5 15 -11 13 -7 -1 -13 3 -13 10 0 6 -3 9 -6 6 -10 -10 26 -69 38 -62
7 4 8 3 4 -5 -16 -24 129 -227 251 -352 76 -78 84 -72 -110 -90 -195 -18 -459
-7 -572 23 -111 30 -183 66 -242 121 l-46 42 7 -45 c42 -277 397 -379 1040
-299 88 11 163 22 168 25 4 3 50 -20 102 -51 92 -55 247 -127 302 -141 21 -5
25 -4 19 6 -5 9 -4 11 4 6 6 -4 9 -11 6 -15 -8 -14 149 -54 186 -47 23 4 27 3
14 -2 -14 -7 2 -12 65 -23 128 -21 518 -18 635 5 138 27 268 72 395 137 133
69 226 136 326 234 38 38 56 58 39 43 -33 -30 -47 -35 -43 -17 2 6 -4 13 -12
15 -20 4 -212 81 -278 110 -29 13 -58 24 -65 24 -7 0 -21 6 -32 14 -11 7 -31
17 -45 21 -14 4 -47 18 -75 30 -27 13 -73 31 -102 41 -45 16 -49 20 -35 31 18
14 -70 -17 -263 -92 -121 -47 -474 -167 -530 -179 -29 -7 -29 -7 -10 8 20 15
20 15 1 16 -20 0 -20 0 0 15 14 11 16 15 4 15 -12 0 -11 4 4 15 11 8 17 18 13
21 -4 4 -13 2 -21 -5 -17 -14 -23 0 -20 47 2 31 0 33 -22 28 -13 -4 -24 -4
-24 -2 0 3 39 17 87 31 107 33 412 145 473 175 35 17 39 20 17 17 -18 -3 -30
0 -34 9 -3 8 -13 14 -22 14 -17 0 -208 76 -226 90 -5 4 -21 11 -35 15 -14 4
-58 22 -97 41 -40 18 -85 36 -100 40 -16 3 -46 15 -68 25 -125 57 -455 189
-475 191 -14 1 13 5 60 8 81 6 80 6 -47 8 l-133 2 0 260 0 260 183 2 c100 1
191 2 202 3 68 4 195 -14 232 -33 113 -58 117 -195 6 -254 -24 -13 -43 -27
-43 -31 0 -4 9 -3 20 3 14 7 26 8 39 0 14 -7 21 -6 24 3 4 9 6 9 6 0 1 -7 8
-13 16 -13 8 0 15 -4 15 -10 0 -20 19 -10 23 13 2 12 5 -19 6 -69 l1 -92 30
-4 30 -4 2 245 3 246 318 0 317 1 0 -58 0 -58 -185 0 -185 0 0 -40 0 -39 158
-3 157 -3 0 -55 0 -55 -157 -3 -158 -3 0 -99 c0 -63 4 -100 10 -100 6 0 10 7
8 16 -2 10 3 19 10 21 8 3 10 -1 5 -13 -4 -11 -3 -15 4 -11 9 6 83 -22 268
-102 11 -5 40 -17 65 -27 25 -9 64 -26 87 -36 23 -10 45 -18 48 -18 4 0 20 -9
36 -21 16 -11 45 -21 64 -22 19 -1 35 -3 35 -4 0 -1 -12 -9 -27 -18 -27 -15
-27 -16 -3 -10 39 10 373 177 495 247 179 104 212 121 190 101 -12 -11 -19
-28 -17 -43 2 -19 0 -21 -7 -11 -11 17 -39 23 -46 11 -3 -5 3 -7 12 -6 23 4
33 -11 33 -49 0 -23 -3 -27 -10 -15 -6 9 -10 10 -10 3 0 -6 -3 -20 -6 -30 -4
-13 -3 -14 4 -5 7 11 10 9 15 -7 6 -24 32 -28 41 -6 4 12 2 13 -13 6 -16 -9
-17 -7 -13 14 5 30 9 31 31 4 l17 -22 40 25 c58 36 71 43 59 30 -11 -12 -255
-165 -325 -204 -184 -103 -249 -142 -246 -146 2 -2 14 1 25 7 16 9 29 7 60 -9
22 -11 45 -20 51 -20 5 0 39 -13 73 -30 35 -16 71 -30 80 -30 9 0 19 -4 22
-10 3 -6 15 -10 26 -10 10 0 19 -5 19 -12 0 -6 3 -8 7 -5 3 4 13 1 21 -5 7 -7
23 -13 34 -15 24 -4 50 -28 40 -38 -4 -5 -1 -5 6 -1 15 9 15 1 2 -25 -18 -33
-3 -21 20 16 12 19 18 40 14 46 -4 7 -3 9 4 5 33 -20 172 315 232 559 8 33 20
48 67 82 352 249 641 561 729 788 33 84 38 206 12 265 -17 38 -22 33 -33 -32
-9 -58 -87 -203 -158 -298 -107 -140 -305 -332 -493 -476 -62 -47 -77 -55 -86
-43 -8 11 -9 11 -4 -3 4 -13 -5 -23 -34 -38 -49 -25 -51 -25 -130 4 -95 36
-104 39 -115 41 -25 4 -75 30 -75 39 0 5 -6 2 -13 -9 -13 -17 -15 -17 -30 5
-9 13 -14 27 -11 31 2 4 -1 11 -7 15 -8 4 -9 3 -5 -4 11 -18 -10 -14 -25 5
-16 19 -122 69 -194 91 -27 8 -102 18 -165 22 l-115 7 85 2 c59 1 80 4 70 11
-8 5 -25 10 -38 10 -12 0 -32 5 -45 12 -47 24 -57 28 -75 28 -11 0 -29 9 -42
20 -13 11 -32 20 -42 20 -10 0 -36 9 -58 20 -22 11 -46 20 -55 20 -8 0 -15 5
-15 12 0 6 -3 8 -7 5 -3 -4 -12 1 -20 11 -12 16 -13 16 -7 -3 5 -18 4 -18 -6
-2 -6 9 -8 22 -4 29 4 7 3 8 -4 4 -16 -10 -15 0 4 32 13 22 11 20 -11 -6 -33
-40 -76 -64 -95 -52 -7 4 -18 7 -24 6 -6 -2 -7 -1 -3 2 5 2 -2 15 -14 28 -13
14 -17 24 -10 24 19 0 71 62 71 85 0 21 -17 45 -31 45 -4 0 -5 -9 -2 -19 3
-12 -8 -33 -32 -59 -20 -23 -36 -49 -35 -59 1 -10 2 -35 1 -56 l-1 -38 -52 3
-53 3 -3 59 c-3 58 -3 58 -31 53 -43 -9 -97 10 -125 44 -23 27 -26 39 -26 110
0 72 -2 79 -20 79 -18 0 -20 -7 -20 -70 0 -39 -6 -86 -14 -105 -24 -55 -105
-84 -140 -49 -23 22 -20 39 9 58 23 15 25 23 25 91 0 68 -2 75 -20 75 -17 0
-20 -7 -21 -42 -2 -30 -3 -35 -6 -15 -2 15 -10 27 -16 27 -7 0 -6 4 3 10 13 8
12 10 -2 10 -16 0 -18 -12 -18 -110 0 -145 9 -164 90 -187 62 -17 66 -23 53
-72 -5 -21 -10 -23 -51 -17 -58 8 -138 52 -171 95 -25 32 -26 42 -29 168 l-4
133 -32 0 c-31 0 -32 1 -28 35 l4 35 462 2 c253 1 469 2 479 1 10 0 14 4 10 8
-13 13 -971 11 -1012 -1 -28 -8 -38 -7 -53 6 -9 9 -15 21 -12 25 3 5 -3 6 -12
2 -12 -4 -15 -3 -10 5 5 8 2 10 -8 6 -19 -7 -11 -24 11 -24 9 0 14 -3 10 -6
-12 -13 -45 8 -51 33 -8 31 -11 28 -20 -20 l-7 -39 38 2 c60 4 63 3 63 -35 l0
-35 -50 0 -50 0 0 -176 0 -175 -52 3 -53 3 -3 173 -2 172 -65 0 -65 0 0 -176
0 -175 -52 3 -53 3 -3 55 -3 55 -65 0 c-63 0 -67 2 -100 37 -33 36 -34 41 -34
118 l0 80 -30 0 c-28 0 -30 3 -30 35 l0 35 145 0 145 0 0 58 c0 32 5 63 12 70
8 8 58 12 153 13 99 0 131 3 110 10 -37 11 -280 14 -296 3 -8 -4 -9 -3 -5 4 4
7 18 12 31 12 13 0 27 5 31 11 4 8 -1 9 -17 4 -20 -7 -22 -6 -12 6 10 12 6 15
-20 14 -18 0 -34 3 -37 6 -10 13 -130 56 -130 47 0 -5 -5 -6 -10 -3 -6 4 -7
11 -4 17 5 7 1 9 -9 5 -11 -4 -15 -1 -12 14 8 40 -8 15 -65 -103z m1680 -551
c0 -2 -10 -12 -22 -23 l-23 -19 19 23 c18 21 26 27 26 19z m-1830 -142 c5 3
15 -1 22 -9 14 -14 72 -42 138 -66 70 -26 90 -35 90 -44 0 -4 7 -6 15 -2 13 5
15 -24 15 -219 l0 -224 -67 31 c-154 69 -185 82 -199 79 -24 -3 -36 68 -41
241 -5 157 1 255 14 220 3 -6 8 -10 13 -7z m327 -61 c-3 -3 -12 -4 -19 -1 -8
3 -5 6 6 6 11 1 17 -2 13 -5z m2158 -64 c61 -23 145 -94 145 -122 0 -11 -28
-18 -116 -29 -109 -14 -116 -14 -125 3 -26 49 -150 67 -222 33 -52 -24 -70
-63 -65 -136 5 -72 30 -102 96 -119 82 -20 170 7 194 60 13 30 14 31 63 24 70
-9 176 -32 183 -38 13 -13 -57 -93 -107 -123 -70 -42 -140 -56 -278 -55 -173
0 -259 24 -338 94 -53 46 -78 102 -79 173 0 107 50 178 159 226 73 32 121 38
280 35 128 -3 159 -6 210 -26z m281 -345 c-11 -8 -23 -15 -27 -15 -4 0 -10 -8
-12 -17 -4 -17 -5 -17 -6 -1 0 10 11 24 27 32 35 19 42 19 18 1z m-779 -341
c-3 -3 -12 -4 -19 -1 -8 3 -5 6 6 6 11 1 17 -2 13 -5z m763 -308 c0 -3 -4 -8
-10 -11 -5 -3 -10 -1 -10 4 0 6 5 11 10 11 6 0 10 -2 10 -4z m-304 -351 c-1
-8 -5 -17 -8 -21 -5 -4 -4 16 1 34 3 9 9 -1 7 -13z m-1701 -170 l20 -16 -20
10 c-11 5 -29 17 -40 26 l-20 16 20 -10 c11 -5 29 -17 40 -26z m45 -23 c0 -8
130 -72 147 -72 6 0 16 -7 23 -15 7 -8 27 -15 44 -15 21 0 27 -3 18 -9 -9 -5
7 -13 47 -22 34 -7 61 -17 61 -21 0 -11 2 -11 -76 13 -110 34 -323 149 -275
149 6 0 11 -4 11 -8z m323 -189 c-7 -2 -21 -2 -30 0 -10 3 -4 5 12 5 17 0 24
-2 18 -5z m121 -2 c3 -4 -6 -6 -19 -3 -14 2 -25 6 -25 8 0 8 39 4 44 -5z m83
-17 c-3 -3 -12 -4 -19 -1 -8 3 -5 6 6 6 11 1 17 -2 13 -5z"/>
<path d="M1460 2445 c0 -24 3 -25 55 -25 52 0 55 1 55 25 0 24 -3 25 -55 25
-52 0 -55 -1 -55 -25z"/>
<path d="M3487 2451 c-7 -28 -1 -31 60 -31 50 0 53 1 53 25 0 24 -3 25 -54 25
-45 0 -55 -3 -59 -19z"/>
<path d="M1790 2440 c0 -5 5 -10 11 -10 5 0 7 5 4 10 -3 6 -8 10 -11 10 -2 0
-4 -4 -4 -10z"/>
<path d="M1242 2273 c3 -72 5 -78 25 -81 12 -2 31 2 42 8 18 9 21 20 21 80 l0
70 -45 0 -46 0 3 -77z"/>
<path d="M2440 2290 c0 -45 -4 -62 -15 -66 -23 -9 -18 -24 8 -24 37 0 47 19
47 87 0 56 -2 63 -20 63 -18 0 -20 -7 -20 -60z"/>
<path d="M3105 2339 l-40 -7 43 2 c40 1 43 0 40 -24 -3 -24 -6 -25 -83 -30
-44 -3 -86 -9 -92 -13 -16 -10 -17 -49 -1 -65 17 -17 31 -15 24 4 -13 35 22
54 99 54 42 0 76 5 83 12 24 24 7 81 -22 77 -6 -1 -29 -5 -51 -10z"/>
<path d="M3294 2334 c3 -9 6 -22 6 -29 0 -8 10 -16 23 -18 l22 -4 -22 -2 c-43
-2 -23 -21 22 -21 l45 0 0 45 0 45 -51 0 c-43 0 -50 -3 -45 -16z"/>
<path d="M3501 2233 c1 -65 5 -102 8 -83 6 33 30 54 32 28 0 -7 4 -4 9 7 6 13
9 -12 9 -72 1 -86 2 -93 21 -93 19 0 20 7 20 165 l0 165 -50 0 -50 0 1 -117z"/>
<path d="M2590 2322 c0 -4 25 -8 56 -8 32 0 48 3 37 7 -25 10 -93 11 -93 1z"/>
<path d="M3020 2143 c9 -52 24 -78 60 -103 l31 -22 -25 37 c-14 20 -28 56 -32
81 -5 33 -11 44 -24 44 -15 0 -16 -6 -10 -37z"/>
<path d="M3348 2100 c3 -71 6 -80 23 -80 17 0 19 8 19 80 0 76 -1 80 -22 80
-22 0 -23 -3 -20 -80z"/>
<path d="M3195 2090 c3 -5 26 -10 51 -10 28 0 43 4 39 10 -3 6 -26 10 -51 10
-28 0 -43 -4 -39 -10z"/>
<path d="M3198 1993 c12 -2 32 -2 45 0 12 2 2 4 -23 4 -25 0 -35 -2 -22 -4z"/>
<path d="M3638 1993 c12 -2 32 -2 45 0 12 2 2 4 -23 4 -25 0 -35 -2 -22 -4z"/>
<path d="M3962 1745 c0 -16 2 -22 5 -12 2 9 2 23 0 30 -3 6 -5 -1 -5 -18z"/>
<path d="M3560 1725 c0 -5 5 -17 10 -25 5 -8 10 -10 10 -5 0 6 -5 17 -10 25
-5 8 -10 11 -10 5z"/>
<path d="M1538 1650 l-3 -50 62 0 c90 0 132 24 116 66 -8 23 -46 34 -113 34
l-58 0 -4 -50z m107 10 c-3 -5 -22 -14 -43 -20 -46 -12 -52 -12 -52 0 0 6 15
10 33 10 17 0 39 5 47 10 19 12 23 12 15 0z"/>
<path d="M530 1509 l-45 -41 50 38 c28 21 52 40 54 41 2 2 0 3 -5 3 -5 0 -29
-18 -54 -41z"/>
<path d="M1818 1493 c7 -3 16 -2 19 1 4 3 -2 6 -13 5 -11 0 -14 -3 -6 -6z"/>
<path d="M1763 1483 c9 -2 23 -2 30 0 6 3 -1 5 -18 5 -16 0 -22 -2 -12 -5z"/>
<path d="M1653 1473 c15 -2 39 -2 55 0 15 2 2 4 -28 4 -30 0 -43 -2 -27 -4z"/>
<path d="M439 1433 l-34 -38 38 34 c34 33 42 41 34 41 -2 0 -19 -17 -38 -37z"/>
<path d="M540 1349 l-65 -61 63 52 c55 46 80 71 70 70 -2 -1 -32 -28 -68 -61z"/>
<path d="M329 1332 c-204 -208 -300 -382 -286 -519 6 -54 38 -123 73 -155 18
-16 19 -13 19 75 0 103 19 157 95 268 41 61 48 75 29 63 -8 -5 -8 -1 0 13 6
11 7 24 3 28 -4 5 -1 5 6 1 7 -4 12 -2 12 5 0 7 3 9 6 6 4 -4 1 -13 -6 -22 -7
-9 -11 -17 -9 -19 2 -2 49 44 104 102 55 59 90 99 79 90 -24 -21 -38 -24 -28
-5 5 8 2 8 -9 -2 -18 -15 -23 -26 -7 -16 19 12 10 -4 -21 -34 -35 -36 -41 -38
-33 -13 5 13 4 14 -4 3 -9 -12 -11 -12 -15 0 -2 8 -3 6 -2 -3 2 -10 -1 -21 -7
-24 -5 -3 -7 -12 -4 -20 3 -8 1 -14 -4 -14 -6 0 -10 -8 -11 -17 0 -15 -2 -15
-9 2 -12 28 -12 43 1 25 8 -11 9 -5 5 25 -4 31 -3 35 4 20 10 -19 10 -19 6 2
-2 13 0 26 5 29 5 3 2 12 -6 21 -15 14 -14 18 5 38 11 12 17 25 13 28 -8 9 57
68 68 61 5 -3 6 2 3 10 -3 9 -7 16 -8 16 0 0 -31 -31 -67 -68z m-17 -45 c-12
-13 -19 -27 -15 -32 5 -4 3 -5 -4 -1 -7 3 -14 -2 -18 -14 -4 -11 -11 -18 -16
-15 -8 5 57 85 69 85 3 0 -4 -10 -16 -23z m-15 -72 c-7 -13 -14 -20 -15 -14
-5 14 6 39 17 39 5 0 4 -11 -2 -25z m-41 -7 c4 -7 4 -10 -1 -6 -4 4 -15 2 -24
-5 -14 -11 -14 -10 -2 6 16 20 18 21 27 5z m-55 -51 c-10 -9 -11 -8 -5 6 3 10
9 15 12 12 3 -3 0 -11 -7 -18z m142 8 c-3 -9 -8 -14 -10 -11 -3 3 -2 9 2 15 9
16 15 13 8 -4z m-103 -131 c0 -8 -19 -13 -24 -6 -3 5 1 9 9 9 8 0 15 -2 15 -3z"/>
<path d="M631 1384 c0 -11 3 -14 6 -6 3 7 2 16 -1 19 -3 4 -6 -2 -5 -13z"/>
<path d="M2178 1283 c28 -2 76 -2 105 0 28 2 5 3 -53 3 -58 0 -81 -1 -52 -3z"/>
<path d="M760 1011 c0 -6 4 -13 10 -16 6 -3 7 1 4 9 -7 18 -14 21 -14 7z"/>
<path d="M3619 703 c-13 -16 -12 -17 4 -4 9 7 17 15 17 17 0 8 -8 3 -21 -13z"/>
<path d="M1965 530 c-3 -5 -1 -10 4 -10 6 0 11 5 11 10 0 6 -2 10 -4 10 -3 0
-8 -4 -11 -10z"/>
</g>
</svg>
