<?xml version="1.0" standalone="no"?>
<!DOCTYPE svg PUBLIC "-//W3C//DTD SVG 20010904//EN"
 "http://www.w3.org/TR/2001/REC-SVG-20010904/DTD/svg10.dtd">
<svg version="1.0" xmlns="http://www.w3.org/2000/svg"
 width="315.000000pt" height="145.000000pt" viewBox="0 0 315.000000 145.000000"
 preserveAspectRatio="xMidYMid meet">

<g transform="translate(0.000000,145.000000) scale(0.100000,-0.100000)"
fill="#000000" stroke="none">
<path d="M1836 1059 c-27 -21 -33 -52 -16 -79 8 -12 10 -10 10 10 0 31 26 70
46 70 8 0 14 5 14 10 0 16 -26 11 -54 -11z"/>
<path d="M631 1059 c-48 -15 -132 -70 -164 -109 -60 -71 -94 -183 -82 -269 16
-118 118 -246 226 -286 72 -25 177 -24 250 4 53 20 58 20 100 5 62 -22 176
-23 214 -1 26 16 27 17 5 11 -55 -16 -230 1 -230 22 0 3 19 27 41 52 61 68 81
122 87 225 4 85 3 90 -32 161 -38 78 -85 125 -166 166 -51 26 -191 37 -249 19z
m234 -59 c57 -28 123 -94 148 -150 15 -33 21 -66 21 -125 1 -104 -32 -177
-105 -235 -44 -35 -52 -38 -81 -29 -46 13 -59 10 -23 -5 41 -17 19 -28 -70
-34 -104 -7 -164 16 -236 87 -66 66 -89 124 -89 220 0 133 83 244 213 287 57
19 166 11 222 -16z"/>
<path d="M1868 1039 c-10 -5 -18 -17 -18 -25 0 -13 2 -13 22 0 23 16 60 13 88
-8 12 -9 12 -6 -1 14 -18 27 -62 37 -91 19z"/>
<path d="M1775 1017 c-12 -28 2 -63 31 -76 34 -15 45 -5 16 15 -12 8 -26 29
-31 47 -7 26 -10 29 -16 14z"/>
<path d="M1914 987 c22 -18 29 -32 29 -57 0 -30 2 -31 14 -14 7 10 13 23 13
30 0 22 -41 64 -63 64 -20 0 -20 -2 7 -23z"/>
<path d="M1906 937 c-6 -30 -14 -42 -39 -53 l-32 -14 35 2 c43 4 70 43 54 79
-10 23 -11 22 -18 -14z"/>
<path d="M1560 951 l25 -7 3 -225 2 -226 -22 -11 c-18 -8 0 -11 87 -11 86 0
105 3 88 11 -23 11 -23 12 -23 245 l0 233 -92 -1 c-54 -1 -82 -4 -68 -8z"/>
<path d="M1770 930 c0 -14 42 -40 66 -40 11 0 28 8 37 18 24 27 21 33 -10 17
-22 -12 -31 -12 -60 0 -18 8 -33 10 -33 5z"/>
<path d="M1312 793 c-13 -2 -43 -23 -67 -46 -68 -66 -73 -154 -14 -222 74 -84
239 -74 285 18 16 31 15 31 -16 -5 -27 -33 -37 -38 -75 -38 -61 0 -90 31 -96
105 l-4 40 104 3 103 3 -6 31 c-8 40 -29 73 -60 94 -25 16 -114 26 -154 17z
m88 -22 c5 -11 10 -40 10 -65 l0 -46 -46 0 -46 0 7 48 c4 26 11 55 16 65 13
23 46 22 59 -2z"/>
<path d="M2135 793 c-20 -5 -70 -37 -90 -58 -20 -20 -35 -67 -35 -109 0 -48
27 -96 72 -129 29 -22 126 -35 172 -23 26 6 96 62 96 76 0 4 -15 -7 -34 -26
-26 -26 -42 -34 -71 -34 -20 0 -45 4 -55 10 -27 14 -44 75 -43 152 1 82 26
133 64 133 23 0 24 -3 24 -59 0 -54 3 -61 26 -74 55 -32 116 17 88 69 -31 59
-130 93 -214 72z"/>
<path d="M2465 785 c-72 -25 -97 -80 -50 -111 35 -23 92 -11 107 21 9 19 7 29
-6 50 -19 29 -14 45 15 45 23 0 39 -35 39 -84 0 -44 -14 -54 -90 -65 -75 -10
-100 -33 -100 -90 0 -55 32 -81 97 -81 35 0 58 6 75 20 25 19 26 19 43 0 39
-43 157 -14 154 38 -1 16 -2 16 -6 0 -2 -10 -13 -18 -24 -18 -18 0 -19 8 -19
111 0 110 0 111 -30 139 -45 42 -128 52 -205 25z m105 -199 c0 -46 -5 -69 -16
-81 -27 -27 -39 -12 -42 52 -3 54 0 63 20 77 12 9 26 16 30 16 5 0 8 -29 8
-64z"/>
<path d="M1790 781 c25 -7 25 -7 28 -147 2 -138 2 -141 -20 -152 -18 -8 0 -11
87 -11 86 0 105 3 88 11 -22 11 -23 15 -23 160 l0 148 -92 -1 c-54 -1 -82 -4
-68 -8z"/>
</g>
</svg>
