<?xml version="1.0" encoding="utf-8"?>
<!-- Generator: Adobe Illustrator 26.0.3, SVG Export Plug-In . SVG Version: 6.00 Build 0)  -->
<svg version="1.1" id="Layer_1" xmlns="http://www.w3.org/2000/svg" xmlns:xlink="http://www.w3.org/1999/xlink" x="0px" y="0px"
	 viewBox="0 0 1810 536.1" style="enable-background:new 0 0 1810 536.1;" xml:space="preserve">
<style type="text/css">
	.st0{fill:#02197D;}
</style>
<g transform="translate(0.000000,833.000000) scale(0.100000,-0.100000)">
	<path class="st0" d="M11285.3,8338c-21.2-4-50.4-14.6-64.9-25.2c-14.6-10.6-37.1-18.6-47.7-18.6c-27.8,0-157.7-95.4-159-115.3
		c0-9.3-5.3-17.2-10.6-17.2c-15.9,0-82.2-104.7-82.2-127.2c0-10.6-9.3-38.4-21.2-61c-13.3-26.5-21.2-75.5-22.5-135.2
		c0-75.5,8-108.7,37.1-172.3c42.4-86.1,111.3-167,144.4-167c25.2,0,25.2-5.3,2.7,120.6c-11.9,70.2-14.6,125.9-5.3,185.5
		c19.9,147.1,47.7,210.7,125.9,287.5c39.8,37.1,79.5,68.9,87.5,68.9c8,0,23.9,8,34.5,17.2c45.1,37.1,161.7,64.9,275.6,66.3
		l115.3,1.3l-51.7,23.9c-29.2,11.9-63.6,23.9-76.9,23.9c-13.3,0-41.1,9.3-62.3,19.9C11462.9,8335.4,11347.6,8348.6,11285.3,8338z"/>
	<path class="st0" d="M2361.1,8282.4c-108.7-10.6-344.5-53-363.1-64.9c-6.6-4-34.5-11.9-59.6-17.2c-26.5-5.3-68.9-17.2-94.1-25.2
		c-114-41.1-261-100.7-291.5-119.3c-10.6-6.6-87.5-45.1-168.3-84.8c-82.2-41.1-149.7-79.5-149.7-84.8c0-6.6-14.6-18.6-33.1-26.5
		c-18.6-9.3-41.1-22.5-50.4-29.2c-9.3-8-58.3-45.1-110-84.8c-120.6-90.1-115.3-84.8-270.3-235.9c-72.9-70.2-132.5-133.8-132.5-140.5
		c0-6.6-13.3-26.5-29.2-45.1c-27.8-29.2-137.8-181.5-198.8-274.3c-42.4-63.6-200.1-392.2-242.5-504.8
		c-11.9-33.1-30.5-79.5-41.1-103.4c-10.6-23.9-18.6-55.7-18.6-71.6c0-15.9-8-58.3-18.6-95.4C2.6,5966.2-9.4,5445.4,64.8,5127.4
		c10.6-47.7,26.5-124.6,35.8-172.3c18.6-96.7,61-225.3,107.3-324.6c15.9-35.8,41.1-92.8,54.3-125.9c13.3-33.1,27.8-62.3,33.1-66.3
		c4-4,21.2-33.1,35.8-66.3c42.4-90.1,91.4-172.3,112.6-189.5c18.6-15.9,102-137.8,102-149.7c0-4,8-14.6,17.2-23.9
		c8-10.6,25.2-31.8,35.8-49c34.5-53,348.5-361.7,410.8-402.8c75.5-49,216-155,225.3-168.3c4-5.3,35.8-25.2,71.6-43.7
		c34.5-18.6,72.9-42.4,83.5-53s30.5-19.9,43.7-19.9c13.3,0,58.3-17.2,100.7-38.4c115.3-55.7,194.8-87.5,356.4-139.1
		c194.8-62.3,302.1-82.2,572.4-110c214.7-21.2,238.5-21.2,424,0c107.3,13.3,217.3,22.5,243.8,22.5c25.2,0,72.9,8,106,18.6
		c31.8,10.6,103.4,31.8,157.7,47.7c153.7,43.7,267.7,83.5,304.8,102c18.6,9.3,39.8,17.2,46.4,17.2c11.9,0,59.6,23.9,262.4,128.5
		c41.1,21.2,78.2,17.2,161.7-21.2c106-49,265-111.3,291.5-115.3c14.6-1.3,98.1-21.2,185.5-42.4c87.5-21.2,216-46.4,284.9-54.3
		c68.9-9.3,176.2-22.5,238.5-30.5c133.8-15.9,410.8-5.3,523.4,21.2c43.7,9.3,107.3,22.5,141.8,26.5c34.5,5.3,66.3,14.6,70.2,22.5
		c5.3,6.6,23.9,11.9,42.4,11.9c27.8,0,250.4,98.1,269,117.9c4,5.3,23.9,17.2,43.7,27.8c21.2,10.6,50.4,31.8,66.3,47.7
		c15.9,15.9,53,41.1,82.2,55.7l53,27.8l-50.4,1.3c-27.8,0-76.9-14.6-112.6-31.8c-76.9-39.8-246.5-102-300.8-110
		c-21.2-2.7-96.7-13.3-165.6-23.9c-292.8-43.7-402.8-49-587-26.5c-96.7,10.6-206.7,26.5-246.5,33.1c-39.8,8-88.8,13.3-110,13.3
		c-19.9,0-88.8,15.9-152.4,34.5c-64.9,18.6-152.4,42.4-196.1,53c-43.7,10.6-98.1,25.2-120.6,31.8c-22.5,8-47.7,13.3-57,13.3
		s-43.7,15.9-75.5,34.5l-59.6,35.8l37.1,22.5c19.9,11.9,49,35.8,62.3,51.7c14.6,14.6,31.8,27.8,38.4,27.8c6.6,0,38.4,23.9,70.2,53
		c31.8,29.2,62.3,53,68.9,53c6.6,0,19.9,14.6,29.2,33.1c9.3,18.6,23.9,33.1,31.8,33.1c8,0,59.6,54.3,114,121.9
		c54.3,66.3,124.6,151.1,155,186.8c61,72.9,182.9,273,222.6,367c14.6,33.1,33.1,63.6,41.1,68.9s19.9,33.1,25.2,59.6
		c4,27.8,25.2,86.1,46.4,129.9c53,112.6,117.9,337.9,133.8,470.4c6.6,62.3,19.9,139.1,26.5,170.9c19.9,91.4,15.9,520.7-6.6,650.6
		c-10.6,62.3-22.5,156.4-27.8,210.7c-5.3,53-17.2,112.6-27.8,132.5c-10.6,18.6-18.6,43.7-18.6,54.3c-1.3,22.5-41.1,144.4-55.7,167
		c-5.3,8-18.6,43.7-30.5,79.5c-13.3,35.8-39.8,92.8-61,125.9c-21.2,34.5-35.8,70.2-31.8,82.2c5.3,10.6-2.6,30.5-17.2,43.7
		c-21.2,22.5-68.9,110-68.9,128.5c0,25.2-214.7,312.7-311.4,418.7c-92.8,103.4-292.8,287.5-335.2,311.4
		c-13.3,6.6-50.4,34.5-83.5,63.6c-34.5,27.8-67.6,50.4-74.2,50.4c-8,0-39.8,19.9-71.6,43.7c-82.2,59.6-99.4,68.9-210.7,125.9
		c-54.3,27.8-111.3,57-125.9,64.9c-43.7,25.2-233.2,92.8-311.4,110c-39.8,9.3-87.5,21.2-106,27.8c-18.6,5.3-57,14.6-86.1,19.9
		c-29.2,5.3-68.9,17.2-87.5,26.5C3138.9,8283.7,2524.1,8298.3,2361.1,8282.4z M3063.4,7937.9c206.7-31.8,238.5-39.8,364.4-87.5
		c51.7-19.9,107.3-38.4,125.9-42.4s45.1-15.9,59.6-25.2c14.6-10.6,35.8-18.6,49-18.6s23.9-5.3,23.9-13.3c0-6.6,14.6-15.9,33.1-21.2
		c17.2-4,61-27.8,95.4-53c34.5-25.2,70.2-45.1,79.5-45.1s35.8-17.2,59.6-37.1c23.9-21.2,68.9-53,99.4-70.2
		c121.9-71.6,284.9-227.9,443.9-422.7c55.7-68.9,112.6-137.8,127.2-153.7c31.8-35.8,70.2-117.9,66.3-140.5
		c-2.6-9.3,6.6-15.9,19.9-15.9c13.3,1.3,22.5-6.6,22.5-21.2c0-11.9,17.2-55.7,38.4-95.4s45.1-96.7,54.3-127.2
		c8-30.5,21.2-55.7,30.5-55.7c19.9,0,49-72.9,49-123.2c0-19.9,8-58.3,18.6-84.8c22.5-62.3,70.2-269,80.8-348.5
		c31.8-259.7,15.9-557.8-42.4-781.8c-18.6-68.9-41.1-159-49-200.1c-9.3-39.8-29.2-96.7-43.7-125.9c-15.9-27.8-35.8-72.9-43.7-98.1
		c-27.8-76.9-145.8-308.7-184.2-357.8c-18.6-25.2-37.1-53-41.1-62.3c-4-8-53-71.6-108.7-139.1c-119.3-144.4-288.9-311.4-335.2-328.6
		c-18.6-6.6-33.1-18.6-33.1-26.5c0-6.6-8-13.3-17.2-13.3s-23.9-11.9-33.1-26.5c-9.3-14.6-25.2-26.5-35.8-26.5s-29.2-15.9-42.4-34.5
		c-11.9-18.6-34.5-39.8-49-46.4c-15.9-6.6-37.1-17.2-47.7-23.9s-47.7-25.2-82.2-41.1c-57-25.2-64.9-26.5-99.4-8
		c-21.2,10.6-67.6,25.2-103.4,33.1c-72.9,14.6-239.8,58.3-271.6,70.2c-108.7,42.4-312.7,62.3-377.6,37.1l-39.8-15.9l46.4-17.2
		c25.2-9.3,91.4-26.5,145.8-37.1c139.1-27.8,210.7-47.7,243.8-66.3c14.6-8,54.3-22.5,87.5-30.5c156.4-41.1,190.8-53,194.8-64.9
		c4-13.3-57-35.8-148.4-54.3c-21.2-4-75.5-21.2-119.3-38.4c-139.1-55.7-438.6-98.1-682.4-98.1c-298.1,1.3-677.1,58.3-743.3,114
		c-10.6,9.3-34.5,17.2-53,17.2c-17.2,1.3-55.7,11.9-84.8,26.5c-29.2,14.6-59.6,25.2-67.6,26.5c-8,0-22.5,9.3-31.8,19.9
		s-27.8,19.9-41.1,19.9c-14.6,0-72.9,29.2-131.2,66.3c-58.3,35.8-110,66.3-115.3,66.3c-6.6,0-61,41.1-121.9,91.4
		c-61,50.4-127.2,99.4-145.8,108.7c-37.1,19.9-266.3,246.5-266.3,263.7c0,6.6-29.2,45.1-63.6,86.1c-34.5,39.8-74.2,95.4-88.8,123.2
		c-14.6,26.5-41.1,70.2-61,95.4c-18.6,25.2-51.7,79.5-71.6,119.3c-49,96.7-152.4,345.8-152.4,367c0,9.3-5.3,27.8-11.9,41.1
		c-33.1,66.3-54.3,173.6-66.3,340.5c-8,102-17.2,216-21.2,253.1c-9.3,99.4,17.2,451.8,39.8,540.6c10.6,41.1,19.9,98.1,19.9,125.9
		c0,29.2,8,58.3,19.9,67.6c10.6,9.3,19.9,27.8,19.9,42.4c0,26.5,5.3,39.8,76.9,196.1c21.2,47.7,43.7,100.7,49,119.3
		c5.3,18.6,17.2,42.4,26.5,53c10.6,10.6,23.9,34.5,31.8,53c15.9,37.1,33.1,64.9,127.2,213.3c49,76.9,135.2,184.2,149.7,184.2
		c8,0,15.9,6.6,15.9,13.3c0,18.6,282.2,292.8,347.2,337.9c10.6,8,54.3,35.8,98.1,64.9c42.4,27.8,108.7,71.6,144.4,95.4
		c37.1,25.2,72.9,45.1,79.5,45.1c11.9,0,75.5,27.8,225.3,100.7c37.1,17.2,72.9,31.8,80.8,31.8c8,0,38.4,11.9,68.9,26.5
		c29.2,14.6,74.2,26.5,98.1,26.5s64.9,6.6,92.8,13.3C2406.2,7977.6,2744.1,7988.2,3063.4,7937.9z"/>
	<path class="st0" d="M10751.3,8103.5c-23.9-25.2-42.4-49-42.4-53c0-5.3-21.2-37.1-46.4-74.2c-25.2-35.8-49-79.5-54.3-99.4
		c-4-18.6-13.2-37.1-19.9-41.1c-8-4-11.9-61-10.6-127.2c1.3-104.7,6.6-129.9,41.1-194.8c53-102,133.8-180.2,235.9-229.2
		c106-51.7,237.2-59.6,328.6-18.6c67.6,30.5,74.2,61,13.2,61c-23.9,1.3-67.6,9.3-96.7,19.9c-29.2,10.6-63.6,19.9-76.9,19.9
		c-14.6,0-45.1,19.9-70.2,45.1s-53,47.7-63.6,51.7c-33.1,13.3-82.2,92.8-114,185.5c-26.5,79.5-29.2,106-21.2,204.1
		c4,61,19.9,148.4,35.8,192.1c14.6,43.7,21.2,86.1,15.9,91.4C10799,8143.2,10775.2,8127.3,10751.3,8103.5z"/>
	<path class="st0" d="M11488,8127.3c-121.9-43.7-238.5-131.2-278.3-206.7c-34.5-64.9-51.7-156.4-35.8-185.5
		c17.2-33.1,42.4-23.9,51.7,17.2c4,17.2,21.2,38.4,37.1,46.4c14.6,8,43.7,29.2,62.3,49c19.9,18.6,62.3,47.7,94.1,63.6
		c53,25.2,75.5,27.8,227.9,22.5c153.7-5.3,173.6-8,234.5-41.1c59.6-33.1,178.9-145.8,178.9-168.3c0-15.9,45.1-61,70.2-70.2
		c19.9-6.6,21.2-2.6,14.6,27.8c-4,19.9-35.8,91.4-67.6,159c-80.8,164.3-160.3,233.2-331.3,286.2
		C11665.6,8152.5,11556.9,8152.5,11488,8127.3z"/>
	<path class="st0" d="M11466.8,7796.1c-15.9-10.6-29.2-30.5-29.2-45.1c0-18.6,14.6-26.5,70.2-33.1c80.8-10.6,148.4-41.1,226.6-100.7
		c68.9-54.3,140.5-144.4,140.5-180.2c0-14.6,11.9-61,26.5-103.4c30.5-87.5,33.1-133.8,11.9-188.2c-21.2-54.3-51.7-217.3-43.7-231.9
		c4-6.6,46.4,46.4,95.4,117.9c74.2,110,90.1,143.1,103.4,221.3c19.9,111.3,0,227.9-51.7,316.7c-49,82.2-165.6,186.8-243.8,218.6
		C11686.8,7823.9,11513.2,7829.2,11466.8,7796.1z"/>
	<path class="st0" d="M11588.7,7503.2c5.3-21.2,15.9-78.2,23.9-129.9c18.6-120.6-13.2-262.4-78.2-347.2
		c-23.9-31.8-43.7-62.3-43.7-67.6c0-15.9-137.8-106-176.2-115.3c-19.9-5.3-39.8-14.6-43.7-21.2c-4-6.6-76.9-11.9-161.7-11.9
		c-86.1,0-148.4-5.3-140.5-11.9c18.6-17.2,174.9-55.7,287.5-70.2c87.5-10.6,114-9.3,165.6,9.3c111.3,39.8,188.2,78.2,188.2,95.4
		c0,8,11.9,25.2,27.8,35.8c45.1,31.8,111.3,155,128.5,238.5c39.8,196.1,1.3,327.3-116.6,409.4
		C11600.7,7550.9,11578.1,7545.6,11588.7,7503.2z"/>
	<path class="st0" d="M10079.5,7484.7c-35.8-5.3-329.9-10.6-650.6-9.3c-605.5,0-641.3-2.6-641.3-54.3c0-18.6,17.2-27.8,75.5-39.8
		c41.1-8,104.7-14.6,141.8-14.6c92.8,0,167-22.5,168.3-50.4c0-11.9,4-37.1,8-55.7c11.9-55.7,18.5-2945.6,8-3178.8
		c-8-172.3-14.6-218.6-30.5-226.6c-10.6-5.3-76.9-21.2-145.8-33.1c-124.6-23.9-185.5-42.4-185.5-59.6c0-4,21.2-15.9,45.1-23.9
		c34.5-13.3,245.1-18.6,825.5-21.2c685-4,783.1-1.3,814.9,17.2c29.2,15.9,45.1,17.2,79.5,5.3c30.5-10.6,292.8-15.9,845.4-18.6
		c812.3-4,886.5,0,871.9,43.7c-9.3,26.5-115.3,58.3-223.9,68.9c-53,4-103.4,14.6-110,21.2c-18.6,18.6-18.6,38.4-26.5,1231
		c-4,593.6-11.9,1083.9-17.2,1089.2c-6.6,5.3-58.3,4-116.6-2.6c-58.3-6.6-351.1-11.9-650.6-10.6c-511.5,2.7-545.9,1.3-585.7-21.2
		c-23.9-14.6-42.4-29.2-42.4-33.1c0-11.9,135.2-39.8,190.8-39.8c27.8,0,82.2-9.3,120.6-19.9c80.8-23.9,79.5-19.9,99.4-258.4
		c13.3-155,6.6-1692.1-8-1832.5c-8-75.5-14.6-92.8-37.1-102c-23.9-9.3-157.7-34.5-306.1-58.3c-43.7-6.6-363.1,54.3-384.3,72.9
		c-17.2,17.2-15.9-79.5-19.9,1869.6C10189.5,7683.4,10201.4,7501.9,10079.5,7484.7z"/>
	<path class="st0" d="M10538,7357.5c0-87.5,34.5-163,112.6-254.4c117.9-140.5,214.7-186.8,385.6-188.2
		c116.6,0,200.1,26.5,288.9,92.8c127.2,95.4,206.7,269,145.8,319.3c-10.6,9.3-22.5,14.6-23.9,11.9
		c-80.8-111.3-131.2-161.7-192.1-193.5c-51.7-26.5-200.1-47.7-279.6-39.8c-80.8,9.3-202.7,57-246.5,98.1
		c-14.6,13.3-43.7,34.5-63.6,47.7c-21.2,14.6-53,55.7-71.6,96.7c-17.2,39.8-38.4,71.6-45.1,71.6S10536.7,7391.9,10538,7357.5z"/>
	<path class="st0" d="M7296.9,6211.3c-29.2-8-84.8-25.2-123.2-38.4c-39.8-13.3-91.4-25.2-115.3-25.2c-25.2,0-47.7-5.3-51.7-11.9
		c-4-6.6-23.9-15.9-43.7-21.2c-19.9-4-50.4-18.6-68.9-31.8s-59.6-33.1-90.1-45.1c-30.5-11.9-68.9-33.1-84.8-45.1
		c-117.9-96.7-164.3-139.1-259.7-237.2c-61-61-110-119.3-110-128.5s-17.2-41.1-38.4-70.2c-43.7-58.3-79.5-155-120.6-322
		c-33.1-137.8-35.8-410.8-5.3-551.2c10.6-50.4,25.2-121.9,31.8-157.7c8-37.1,18.6-68.9,25.2-72.9c5.3-5.3,14.6-25.2,19.9-47.7
		c5.3-21.2,23.9-61,39.8-86.1c17.2-25.2,35.8-61,41.1-79.5c10.6-34.5,197.4-226.6,291.5-300.8c94.1-72.9,302.1-170.9,412.1-194.8
		c58.3-13.3,135.2-33.1,170.9-45.1c98.1-31.8,527.4-31.8,628.1,1.3c39.8,11.9,92.8,22.5,116.6,22.5c46.4,0,67.6,9.3,246.5,104.7
		c243.8,129.9,368.4,253.1,491.6,482.3c66.3,124.6,75.5,194.8,22.5,194.8c-34.5-1.3-94.1-62.3-102-104.7
		c-5.3-22.5-19.9-50.4-33.1-62.3c-14.6-11.9-25.2-29.2-25.2-37.1c0-17.2-124.6-174.9-165.6-209.4
		c-147.1-124.6-204.1-151.1-367-170.9c-148.4-17.2-339.2,0-414.7,38.4c-91.4,45.1-231.9,192.1-271.6,283.6
		c-6.6,15.9-18.6,39.8-25.2,50.4c-64.9,111.3-143.1,522.1-131.2,694.3l4,63.6l784.4,2.7c430.6,0,788.4,5.3,793.7,11.9
		c5.3,5.3,2.7,22.5-5.3,39.8c-8,15.9-17.2,67.6-21.2,115.3c-8,110-41.1,239.8-82.2,328.6c-17.2,38.4-31.8,74.2-31.8,79.5
		c0,11.9-9.3,23.9-116.6,161.7c-103.4,131.2-147.1,172.3-280.9,262.4c-87.5,58.3-136.5,78.2-251.8,102
		c-47.7,9.3-103.4,22.5-125.9,30.5c-21.2,8-61,19.9-87.5,27.8C7709,6229.9,7371.1,6228.5,7296.9,6211.3z M7625.5,6121.2
		c163-61,202.7-192.1,229.2-769.9c6.6-136.5,4-182.9-8-190.8c-9.3-5.3-160.3-9.3-335.2-9.3c-247.8,0-320.7,4-329.9,18.6
		c-13.2,21.2-4,218.6,23.9,461.1c29.2,261,59.6,373.7,115.3,429.3C7408.2,6149,7502.3,6167.6,7625.5,6121.2z"/>
	<path class="st0" d="M13597.5,6212.6c-139.1-23.9-324.6-67.6-367-86.1c-22.5-10.6-53-18.6-66.3-18.6c-14.6,0-34.5-14.6-43.7-33.1
		c-11.9-23.9-31.8-34.5-74.2-41.1c-57-8-144.4-63.6-226.6-144.4c-22.5-21.2-66.3-59.6-95.4-84.8c-30.5-25.2-54.3-51.7-54.3-61
		c0-8-17.2-27.8-38.4-43.7c-57-41.1-180.2-302.1-198.8-420c-8-50.4-18.6-119.3-22.5-152.4c-14.6-92.8-6.6-326,14.6-454.5
		c10.6-63.6,19.9-129.9,19.9-147.1c0-21.2,9.3-35.8,26.5-41.1c14.6-4,26.5-19.9,26.5-33.1c0-23.9,38.4-117.9,53-132.5
		c4-4,25.2-35.8,46.4-72.9c41.1-71.6,237.2-271.6,266.3-271.6c9.3,0,22.5-8,27.8-18.6c13.3-21.2,155-114,176.2-114
		c17.2,0,86.1-35.8,119.3-61c10.6-9.3,46.4-21.2,79.5-29.2c33.1-6.6,107.3-26.5,165.6-43.7c96.7-29.2,129.9-31.8,384.3-31.8
		c174.9,0,298.1,5.3,331.3,15.9c196.1,58.3,257.1,78.2,304.8,106c29.2,15.9,61,33.1,70.2,37.1c58.3,23.9,83.5,38.4,155,92.8
		c67.6,50.4,202.7,192.1,213.3,222.6c4,13.3,21.2,38.4,39.8,58.3c17.2,18.6,31.8,39.8,31.8,46.4c0,8,11.9,29.2,26.5,50.4
		c13.3,19.9,29.2,59.6,34.5,88.8c6.6,45.1,4,54.3-15.9,59.6c-14.6,4-30.5,9.3-37.1,11.9c-11.9,5.3-50.4-53-91.4-140.5
		c-31.8-67.6-164.3-235.9-223.9-286.2c-76.9-62.3-202.7-139.1-275.6-165.6c-37.1-13.3-117.9-23.9-214.7-27.8
		c-131.2-6.6-168.3-2.7-245.1,19.9c-55.7,17.2-104.7,42.4-123.2,63.6c-18.6,18.6-51.7,42.4-74.2,51.7
		c-37.1,14.6-66.3,58.3-124.6,177.6c-57,120.6-121.9,315.4-133.8,405.5c-37.1,276.9-41.1,422.7-19.9,700.9
		c10.6,152.4,26.5,283.6,34.5,291.5c6.6,6.6,13.3,33.1,13.3,57s11.9,66.3,26.5,92.8c14.6,27.8,26.5,57,26.5,66.3
		c0,9.3,21.2,57,49,106c26.5,50.4,54.3,103.4,62.3,120.6c8,15.9,25.2,33.1,38.4,37.1c11.9,4,29.2,18.6,35.8,31.8
		c18.6,33.1,124.6,79.5,184.2,79.5c76.9,0,173.6-41.1,210.7-91.4c49-63.6,45.1-147.1-18.5-314c-43.7-116.6-49-144.4-49-253.1
		c-1.3-103.4,4-131.2,31.8-184.2c53-103.4,132.5-181.5,245.1-238.5l102-51.7h161.7c160.3,0,186.8,5.3,284.9,61
		c10.6,6.6,33.1,17.2,50.4,25.2s33.1,29.2,37.1,51.7c5.3,21.2,15.9,42.4,25.2,46.4c42.4,15.9,55.7,220,29.2,416.1
		c-6.6,45.1-94.1,149.7-209.4,247.8c-25.2,22.5-55.7,54.3-66.3,70.2c-34.5,49-355.1,200.1-482.3,227.9
		c-29.2,6.6-79.5,21.2-112.6,33.1C14082.5,6220.6,13712.8,6233.8,13597.5,6212.6z"/>
	<path class="st0" d="M16227.7,6207.3c-58.3-8-141.8-25.2-185.5-38.4c-43.7-13.3-100.7-29.2-125.9-37.1
		c-46.4-13.3-84.8-29.2-288.9-119.3c-64.9-29.2-208-156.4-234.5-209.4c-61-120.6-70.2-144.4-86.1-214.7
		c-18.6-83.5-13.3-104.7,64.9-261c29.2-57,45.1-74.2,87.5-90.1c249.1-95.4,307.4-100.7,511.5-51.7
		c194.8,46.4,319.3,141.8,356.4,274.3c22.5,78.2,15.9,206.7-14.6,278.3c-15.9,35.8-35.8,64.9-43.7,64.9
		c-22.5,0-153.7,145.8-153.7,170.9c0,21.2,19.9,51.7,66.3,104.7c43.7,49,262.4,92.8,284.9,57c4-6.6,25.2-15.9,46.4-21.2
		c94.1-21.2,117.9-129.9,121.9-560.5c2.7-258.4,0-336.6-14.6-363.1c-18.6-37.1-78.2-67.6-173.6-91.4c-208-49-360.4-78.2-424-78.2
		c-123.2,0-438.6-53-496.9-82.2c-29.2-15.9-68.9-35.8-88.8-46.4c-19.9-9.3-54.3-39.8-76.9-67.6c-22.5-26.5-55.7-64.9-72.9-84.8
		c-15.9-18.6-34.5-59.6-39.8-90.1c-5.3-30.5-17.2-58.3-27.8-62.3c-26.5-9.3-26.5-435.9-1.3-466.4c10.6-11.9,25.2-47.7,34.5-78.2
		c33.1-119.3,185.5-261,332.6-311.4c151.1-50.4,181.5-55.7,371-55.7c176.2,1.3,204.1,4,335.2,42.4c106,30.5,149.7,50.4,169.6,75.5
		c13.2,17.2,43.7,35.8,66.3,41.1c38.4,9.3,88.8,70.2,108.7,132.5c10.6,31.8,64.9,70.2,72.9,49c1.3-6.6,15.9-26.5,30.5-43.7
		c13.3-15.9,25.2-37.1,25.2-47.7c0-9.3,15.9-30.5,35.8-47.7c19.9-15.9,58.3-50.4,87.5-74.2c53-47.7,178.9-100.7,294.2-123.2
		c106-21.2,372.3-5.3,443.9,27.8c33.1,14.6,86.1,30.5,117.9,35.8c37.1,5.3,59.6,17.2,63.6,30.5c2.7,11.9,26.5,35.8,51.7,53
		c131.2,90.1,210.7,235.9,223.9,413.4c5.3,61,10.6,136.5,13.2,168.3l4,57l-47.7-4l-49-4v-92.8c0-135.2-54.3-320.7-104.7-363.1
		c-9.3-8-57-15.9-107.3-17.2l-91.4-4l-26.5,66.3c-25.2,63.6-26.5,99.4-31.8,853.3c-4,751.3-5.3,788.4-29.2,805.6
		c-13.3,9.3-34.5,46.4-46.4,82.2c-21.2,63.6-31.8,75.5-173.6,192.1c-54.3,43.7-222.6,131.2-290.2,149.7
		C16780.3,6219.3,16478.1,6245.8,16227.7,6207.3z M16638.5,4609.3c0-434.6-2.7-486.3-22.5-524.7c-13.2-23.9-23.9-53-23.9-67.6
		c0-57-120.6-121.9-223.9-120.6c-84.8,1.3-102,10.6-135.2,71.6c-63.6,119.3-70.2,561.8-10.6,791.1c22.5,91.4,34.5,115.3,75.5,152.4
		c26.5,23.9,58.3,42.4,68.9,43.7c10.6,0,38.4,11.9,59.6,26.5c22.5,14.6,66.3,39.8,99.4,55.7c33.1,15.9,64.9,37.1,70.2,46.4
		c6.6,10.6,18.6,15.9,26.5,13.3C16634.5,5093,16638.5,4965.8,16638.5,4609.3z"/>
</g>
</svg>
