<?xml version="1.0" standalone="no"?>
<!DOCTYPE svg PUBLIC "-//W3C//DTD SVG 20010904//EN"
 "http://www.w3.org/TR/2001/REC-SVG-20010904/DTD/svg10.dtd">
<svg version="1.0" xmlns="http://www.w3.org/2000/svg"
 width="1358.000000pt" height="175.000000pt" viewBox="0 0 1358.000000 175.000000"
 preserveAspectRatio="xMidYMid meet">

<g transform="translate(0.000000,175.000000) scale(0.100000,-0.100000)"
fill="#000000" stroke="none">
<path d="M11360 965 l0 -596 88 3 87 3 5 335 c3 227 9 341 17 355 26 46 62 68
117 73 48 4 56 1 87 -26 l34 -30 5 -354 5 -353 88 -3 87 -3 0 361 c0 230 -4
377 -11 405 -17 67 -69 122 -136 141 -98 29 -198 2 -261 -71 l-32 -36 0 196 0
195 -90 0 -90 0 0 -595z"/>
<path d="M3957 1523 c-4 -3 -7 -64 -7 -135 l0 -128 -60 0 -60 0 0 -65 0 -65
59 0 60 0 3 -327 c4 -414 3 -412 141 -434 34 -6 90 -7 124 -3 l63 6 0 63 0 62
-57 6 c-92 10 -88 -5 -91 332 l-3 294 73 3 73 3 3 62 3 62 -73 3 -73 3 -3 133
-3 132 -83 0 c-45 0 -86 -3 -89 -7z"/>
<path d="M10227 1523 c-4 -3 -7 -64 -7 -135 l0 -128 -60 0 -60 0 0 -65 0 -65
59 0 60 0 3 -332 c3 -299 5 -336 21 -366 29 -54 128 -81 241 -67 l56 7 0 63 0
62 -52 6 c-90 11 -88 3 -88 338 l0 289 70 0 70 0 0 65 0 64 -67 3 -68 3 -3
133 -3 132 -83 0 c-45 0 -86 -3 -89 -7z"/>
<path d="M1097 1276 c-93 -26 -149 -94 -184 -226 -25 -95 -25 -358 0 -457 36
-139 116 -228 214 -240 82 -9 149 12 200 64 l43 45 0 -156 0 -156 85 0 85 0 0
555 0 555 -85 0 -85 0 0 -47 c-1 -41 -2 -45 -12 -28 -17 32 -51 66 -80 81 -40
21 -126 26 -181 10z m191 -156 c54 -33 74 -93 79 -240 11 -265 -38 -385 -155
-385 -37 0 -48 5 -77 36 -38 42 -51 92 -60 239 -12 171 20 314 77 354 31 22
96 20 136 -4z"/>
<path d="M3033 1280 c-92 -20 -168 -80 -194 -157 -20 -57 -16 -150 8 -205 29
-63 78 -97 220 -149 139 -51 181 -83 190 -145 7 -53 -19 -109 -59 -130 -39
-20 -108 -20 -148 1 -36 19 -69 82 -70 133 l0 32 -86 0 -86 0 7 -57 c14 -115
60 -185 149 -224 42 -19 69 -23 151 -24 55 0 118 6 141 12 52 16 119 74 146
127 29 57 36 167 14 234 -29 87 -74 116 -305 198 -30 10 -67 31 -83 46 -24 22
-28 34 -28 76 0 71 28 103 98 110 28 2 63 2 77 -2 33 -8 65 -61 65 -108 l0
-38 85 0 85 0 0 33 c0 47 -23 119 -50 158 -47 65 -208 105 -327 79z"/>
<path d="M4567 1280 c-155 -40 -227 -158 -242 -405 -17 -250 44 -425 170 -490
54 -28 67 -30 159 -30 110 0 160 16 223 69 43 36 89 134 104 220 18 107 7 344
-20 426 -48 143 -131 207 -279 215 -42 2 -94 0 -115 -5z m159 -145 c63 -41 88
-148 82 -350 -4 -119 -8 -149 -29 -200 -38 -93 -110 -129 -179 -88 -64 37 -90
132 -90 323 0 196 29 297 93 326 37 16 88 12 123 -11z"/>
<path d="M10835 1275 c-27 -8 -53 -14 -56 -15 -3 0 -27 -19 -53 -41 -91 -80
-129 -198 -128 -404 0 -208 40 -341 122 -406 49 -39 148 -63 233 -56 159 14
253 113 273 290 l7 57 -85 0 -86 0 -7 -57 c-9 -75 -31 -121 -69 -144 -40 -24
-83 -24 -123 1 -41 25 -59 60 -74 144 -16 95 -7 347 15 406 31 82 87 120 155
105 47 -10 79 -50 93 -116 l12 -59 84 0 84 0 -7 58 c-9 71 -38 142 -73 175
-65 63 -215 92 -317 62z"/>
<path d="M12367 1280 c-170 -43 -247 -190 -247 -470 1 -245 56 -377 180 -434
65 -29 216 -29 281 0 90 42 159 139 174 247 l6 47 -90 0 -91 0 0 -40 c0 -94
-51 -150 -136 -150 -45 0 -57 4 -82 30 -36 36 -52 97 -55 206 l-2 79 229 3
229 2 -6 118 c-9 197 -52 292 -154 339 -60 28 -173 39 -236 23z m163 -148 c33
-34 50 -87 50 -159 l0 -53 -140 0 -140 0 0 28 c0 64 30 147 65 180 30 27 42
32 86 32 42 0 55 -5 79 -28z"/>
<path d="M13215 1279 c-50 -12 -94 -42 -123 -83 l-22 -31 0 48 0 47 -85 0 -85
0 0 -445 0 -446 88 3 87 3 5 340 c6 378 5 376 75 409 61 29 150 13 171 -31 5
-10 11 -175 14 -368 l5 -350 88 -3 87 -3 0 379 0 378 -27 55 c-21 40 -39 60
-70 77 -48 26 -147 36 -208 21z"/>
<path d="M1710 888 c0 -372 0 -373 24 -424 37 -79 102 -114 212 -114 64 0 159
46 192 92 l22 33 0 -53 0 -52 85 0 85 0 0 445 0 445 -90 0 -90 0 0 -331 c0
-319 -1 -333 -21 -366 -11 -18 -34 -41 -51 -49 -37 -19 -108 -20 -137 -2 -48
30 -51 52 -51 412 l0 336 -90 0 -90 0 0 -372z"/>
<path d="M2510 815 l0 -445 85 0 85 0 0 445 0 445 -85 0 -85 0 0 -445z"/>
<path d="M3560 815 l0 -445 90 0 90 0 0 445 0 445 -90 0 -90 0 0 -445z"/>
<path d="M9830 815 l0 -445 90 0 90 0 0 445 0 445 -90 0 -90 0 0 -445z"/>
</g>
</svg>
