<?xml version="1.0" standalone="no"?>
<!DOCTYPE svg PUBLIC "-//W3C//DTD SVG 20010904//EN"
 "http://www.w3.org/TR/2001/REC-SVG-20010904/DTD/svg10.dtd">
<svg version="1.0" xmlns="http://www.w3.org/2000/svg"
 width="1024.000000pt" height="1024.000000pt" viewBox="0 0 1024.000000 1024.000000"
 preserveAspectRatio="xMidYMid meet">

<g transform="translate(0.000000,1024.000000) scale(0.100000,-0.100000)"
fill="#000000" stroke="none">
<path d="M4860 8654 c-1067 -99 -2004 -609 -2620 -1429 -149 -198 -232 -332
-334 -540 -183 -371 -289 -720 -342 -1130 -22 -164 -24 -590 -5 -750 116 -979
598 -1820 1386 -2416 398 -302 883 -526 1387 -640 275 -62 436 -81 750 -86
298 -6 410 1 648 37 364 56 707 163 1047 325 467 223 915 581 1244 993 404
505 656 1107 736 1756 22 181 22 593 -1 776 -160 1303 -1036 2404 -2286 2875
-265 100 -530 166 -845 211 -106 15 -656 28 -765 18z m1573 -476 c12 -6 74
-50 137 -98 63 -48 216 -162 340 -255 124 -92 229 -172 235 -176 5 -5 -872 -9
-1988 -9 l-1998 0 123 100 c68 54 219 178 336 275 l214 175 1290 0 c961 0
1295 -3 1311 -12z m727 -1003 l0 -375 -2005 0 -2005 0 0 375 0 375 2005 0
2005 0 0 -375z m0 -1760 l0 -1295 -2005 0 -2005 0 0 1295 0 1295 2005 0 2005
0 0 -1295z m560 -1445 c0 -20 -7 -20 -2570 -20 -2563 0 -2570 0 -2570 20 0 20
7 20 2570 20 2563 0 2570 0 2570 -20z m370 -120 c0 -20 -7 -20 -1102 -20
l-1102 0 41 -42 c117 -120 128 -273 30 -412 -29 -41 -129 -112 -192 -135 -130
-49 -250 -44 -363 13 -28 14 -56 26 -62 26 -6 0 -10 -36 -10 -93 l0 -93 190
-190 c104 -104 190 -192 190 -196 0 -5 -85 -8 -190 -8 l-190 0 0 -70 0 -70
185 0 185 0 0 -40 0 -40 163 -2 162 -3 3 -52 3 -53 195 0 195 0 -3 -57 -3 -58
-1230 0 -1230 0 -3 58 -3 57 190 0 190 0 3 43 3 42 143 3 142 3 0 49 0 50 140
0 140 0 0 70 0 70 -175 0 c-96 0 -175 4 -175 9 0 4 78 93 174 196 l175 189 3
89 c2 49 0 91 -4 93 -3 2 -28 -7 -55 -21 -73 -38 -172 -56 -245 -44 -117 19
-218 70 -287 144 -63 69 -86 125 -86 215 1 86 27 148 90 215 19 21 35 39 35
41 0 2 -481 4 -1070 4 -1063 0 -1070 0 -1070 20 0 20 7 20 2940 20 2933 0
2940 0 2940 -20z"/>
<path d="M3730 7417 c0 -9 31 -51 70 -93 110 -122 110 -152 -4 -304 -32 -43
-55 -83 -54 -95 3 -18 10 -20 63 -19 166 2 323 185 284 329 -16 55 -88 127
-161 160 -77 35 -198 48 -198 22z"/>
<path d="M4570 7415 c0 -8 29 -46 63 -84 35 -38 72 -85 81 -105 27 -56 11 -93
-99 -236 -19 -25 -34 -54 -32 -65 2 -18 9 -20 62 -19 180 3 334 205 270 356
-22 54 -102 120 -176 146 -75 26 -169 30 -169 7z"/>
<path d="M5410 7415 c0 -9 25 -45 56 -78 73 -79 94 -114 94 -158 0 -36 -13
-60 -115 -202 -47 -66 -40 -81 39 -75 147 12 286 147 286 278 0 65 -18 106
-66 152 -56 53 -143 90 -226 96 -60 4 -68 3 -68 -13z"/>
<path d="M6250 7417 c0 -9 29 -49 65 -89 36 -40 72 -87 80 -104 24 -50 1 -104
-97 -228 -23 -29 -38 -57 -36 -70 3 -19 9 -21 63 -20 104 2 207 71 259 176 62
125 8 247 -139 315 -73 33 -195 46 -195 20z"/>
<path d="M3640 5415 l0 -975 1520 0 1520 0 0 975 0 975 -1520 0 -1520 0 0
-975z m2868 825 c3 -20 3 -20 -1347 -20 -1325 0 -1351 0 -1351 19 0 11 5 21
10 23 6 2 612 2 1348 1 1333 -3 1337 -3 1340 -23z m-2264 -197 c3 -21 6 -78 6
-126 l0 -88 34 35 c58 62 123 43 146 -43 6 -23 9 -103 8 -183 l-3 -143 -40 0
-40 0 3 125 c3 134 -5 183 -31 188 -37 7 -55 -59 -72 -260 -7 -84 -17 -95 -69
-82 l-26 6 6 182 c4 110 2 223 -5 290 -12 123 -8 136 44 136 30 0 33 -3 39
-37z m2138 25 c14 -11 15 -23 8 -68 -4 -30 -11 -76 -14 -101 l-5 -47 54 -7
c53 -6 55 -8 55 -36 0 -29 -1 -29 -56 -29 l-57 0 6 -92 c5 -95 19 -148 36
-148 17 0 34 42 40 100 6 52 8 55 35 58 l29 4 -5 -69 c-6 -87 -31 -140 -75
-161 -30 -14 -36 -14 -69 1 -74 36 -101 172 -84 422 6 83 13 158 16 168 6 20
62 24 86 5z m-2287 -63 c0 -27 -3 -30 -37 -33 l-38 -3 0 -237 c0 -130 -4 -242
-8 -248 -12 -18 -50 -26 -72 -14 -19 10 -20 19 -20 255 l0 245 -45 0 c-43 0
-45 1 -45 28 0 16 3 32 7 36 4 3 63 5 132 4 l126 -3 0 -30z m570 -57 c38 -30
55 -76 55 -151 0 -85 -21 -114 -91 -123 -46 -6 -49 -9 -49 -35 0 -39 17 -79
34 -79 13 0 32 36 38 75 4 23 45 33 53 13 8 -20 -22 -98 -47 -125 -15 -16 -33
-23 -59 -23 -31 0 -43 6 -64 34 -74 97 -49 364 39 417 40 24 57 24 91 -3z
m1004 13 c20 -13 9 -285 -14 -364 -19 -62 -69 -117 -106 -117 -33 0 -77 31
-94 67 -16 32 -16 32 -35 13 -28 -28 -81 -26 -108 3 -37 39 -50 138 -36 275 7
65 22 80 64 67 19 -6 20 -15 20 -135 0 -135 4 -160 25 -160 22 0 37 64 44 183
l6 112 38 3 c25 2 37 -1 38 -10 1 -7 2 -76 3 -153 2 -147 8 -178 35 -173 26 5
39 82 40 235 1 124 3 143 19 152 21 13 43 13 61 2z m241 -19 c46 -46 63 -141
39 -212 -13 -36 -57 -60 -110 -60 -31 0 -31 0 -24 -42 8 -47 27 -74 44 -64 6
4 16 27 22 52 8 30 17 44 28 44 33 0 40 -19 24 -65 -42 -124 -155 -128 -191
-7 -17 55 -15 199 3 259 33 111 106 153 165 95z m277 -7 c41 -46 52 -181 19
-227 -16 -21 -58 -38 -97 -38 -24 0 -29 -4 -29 -24 0 -12 5 -37 11 -55 16 -46
40 -36 57 22 10 36 18 47 33 47 29 0 34 -25 14 -77 -23 -58 -47 -83 -84 -83
-43 0 -58 8 -82 46 -45 73 -44 256 2 350 35 73 109 91 156 39z m-990 -20 c30
-34 40 -74 22 -86 -27 -17 -47 -9 -58 21 -20 59 -91 25 -91 -44 0 -23 14 -43
65 -92 35 -34 67 -73 71 -88 10 -40 -4 -90 -32 -117 -35 -32 -113 -34 -144 -3
-26 25 -36 91 -22 132 8 25 6 38 -15 81 -31 63 -26 124 15 172 53 64 145 76
189 24z m522 -609 c31 -14 36 -30 16 -50 -13 -12 -37 -16 -104 -16 l-88 0 -11
-82 c-7 -46 -12 -127 -12 -182 l0 -99 76 5 c76 5 104 -4 104 -35 -1 -31 -20
-40 -94 -45 l-76 -5 0 -63 0 -63 98 -3 97 -3 3 -32 c3 -29 0 -32 -30 -38 -19
-4 -96 -7 -171 -8 -111 -2 -139 1 -152 14 -31 31 -47 170 -43 374 5 223 25
332 61 340 66 15 290 9 326 -9z m-527 -5 c26 -24 38 -439 17 -603 -15 -112
-23 -123 -88 -122 -29 0 -56 5 -61 10 -5 5 -3 48 6 108 8 54 13 135 12 180
l-3 81 -33 -52 c-38 -60 -104 -123 -128 -123 -18 0 -98 77 -126 120 -9 14 -18
23 -21 20 -6 -6 8 -226 18 -287 7 -40 6 -43 -21 -54 -31 -11 -141 -15 -151 -5
-34 33 -56 494 -31 636 15 88 30 100 121 100 61 0 97 -21 97 -58 0 -60 119
-330 139 -317 5 2 20 29 35 60 22 48 33 93 64 270 5 30 13 41 32 46 27 8 110
1 122 -10z m-893 -26 c62 -34 95 -71 128 -143 33 -71 45 -160 32 -247 -26
-188 -153 -309 -321 -308 -196 2 -315 153 -306 387 3 79 7 100 36 158 39 80
110 147 179 171 75 26 185 18 252 -18z m1708 27 c7 -4 35 -57 64 -117 75 -161
153 -316 187 -370 27 -44 30 -45 35 -23 11 39 8 316 -4 411 -14 105 -13 107
72 107 41 0 60 -5 70 -17 11 -13 14 -71 14 -277 0 -218 -3 -274 -18 -339 -16
-67 -22 -80 -45 -88 -46 -18 -111 -5 -138 27 -24 31 -143 224 -192 314 -17 30
-34 56 -39 57 -14 5 -1 -249 18 -338 7 -32 8 -54 2 -60 -17 -17 -146 -23 -165
-7 -27 21 -42 175 -42 433 1 245 6 280 46 288 40 8 123 7 135 -1z"/>
<path d="M4601 5878 c-7 -18 -15 -59 -18 -91 l-6 -58 34 3 c33 3 34 4 37 53 4
52 -13 125 -27 125 -5 0 -14 -15 -20 -32z"/>
<path d="M5841 5892 c-8 -16 -31 -127 -31 -154 0 -5 14 -8 30 -8 41 0 55 31
46 104 -8 62 -28 89 -45 58z"/>
<path d="M6106 5879 c-8 -19 -17 -60 -21 -91 l-7 -58 35 0 c31 0 35 3 39 30 6
41 -6 128 -20 142 -9 9 -15 3 -26 -23z"/>
<path d="M5054 5616 c-8 -31 11 -66 36 -66 26 0 27 50 2 73 -25 23 -31 21 -38
-7z"/>
<path d="M4130 5188 c-21 -14 -47 -47 -65 -83 -28 -55 -30 -65 -30 -169 1 -94
4 -119 24 -164 62 -138 181 -138 242 0 31 72 38 221 15 302 -33 113 -114 163
-186 114z"/>
<path d="M4727 3785 c116 -101 126 -236 24 -328 -123 -111 -319 -43 -280 98
11 39 57 75 97 75 33 0 27 19 -13 36 -79 32 -146 6 -165 -66 -33 -123 68 -259
200 -268 70 -5 110 14 231 111 l78 62 1 163 0 162 -112 0 -113 0 52 -45z"/>
<path d="M5330 3676 l0 -155 73 -59 c129 -105 166 -126 228 -130 42 -3 65 1
95 16 82 43 134 122 134 207 0 108 -66 150 -170 109 -43 -17 -53 -34 -19 -34
34 0 85 -29 98 -56 40 -88 -28 -174 -136 -174 -46 0 -118 32 -156 68 -35 34
-61 119 -52 172 6 36 59 129 73 130 4 1 23 14 42 30 l34 30 -122 0 -122 0 0
-154z"/>
</g>
</svg>
