<svg width="1136" height="521" viewBox="0 0 1136 521" fill="none" xmlns="http://www.w3.org/2000/svg">
<path d="M0.890625 520.149H317.708C317.795 520.132 317.872 520.138 317.927 520.147C317.932 520.148 317.936 520.148 317.941 520.149H375.829H375.89L375.935 520.16C375.949 520.161 375.968 520.16 375.99 520.159C376.012 520.158 376.032 520.156 376.047 520.155L376.063 520.153L0.890625 520.149ZM0.890625 520.149V1.4632H1134.96V520.149H760.274H760.239L760.205 520.154L0.890625 520.149ZM760.205 520.154L760.204 520.154L760.205 520.154Z" fill="#F16823" stroke="black"/>
<path d="M64 128.5H1090C1096.9 128.5 1102.5 134.096 1102.5 141V191C1102.5 197.904 1096.9 203.5 1090 203.5H64C57.0964 203.5 51.5 197.904 51.5 191V141C51.5 134.096 57.0964 128.5 64 128.5Z" fill="#A14123" stroke="black"/>
</svg>
