<?xml version="1.0" encoding="UTF-8"?><svg id="Layer_2" xmlns="http://www.w3.org/2000/svg" viewBox="0 0 357.52 483.41"><defs><style>.cls-1{fill:none;stroke:#231f20;stroke-miterlimit:10;}.cls-2{fill:#ee316a;}.cls-3{fill:#d15d31;}.cls-4{fill:#f47941;}.cls-5{fill:#ffca0f;}.cls-6{fill:#00b9ad;}.cls-7{fill:#b94928;}.cls-8{fill:#f26a24;}.cls-9{fill:#f9a262;}.cls-10{fill:#fff9c9;}.cls-11{fill:#036090;}.cls-12{fill:#ee2465;}.cls-13{fill:#f8be89;}.cls-14{fill:#231f20;}</style></defs><g id="Layer_2-2"><g><g><path class="cls-12" d="M265.86,76.18c-1.11-2.79-1.77-5.77-1.9-8.77,2.04,3.37,5,6.08,7.91,8.75,2.03,1.86,4.07,3.72,6.1,5.58,1.66,1.52,3.31,3.03,4.97,4.55,.27,.27,.55,.61,.76,1.02,.38,.72,.56,1.62,.05,2.63-.48,.97-1.56,.93-1.79,1.76h-.05c0-.13-.21-.25-.3-.14-4.12-1.43-7.85-3.88-10.73-7.04-2.21-2.44-3.92-5.28-5.02-8.34Z"/><path class="cls-5" d="M258.98,129.5c7.13,8.87,11.85,19.64,13.57,30.52-.8,16.98-14.29,31.3-15.48,48.26h-.06c-1.99-8.47-4.07-16.92-6.26-25.34l-1.6-.25c1.57-5.3,2.61-10.73,3.33-16.22,.56-4.2,.94-8.43,1.23-12.67,4-7.55,4.72-15.83,5.17-24.31h.1Z"/><path class="cls-7" d="M141.7,464.45c6.08,.03,12.02-.64,17.72-1.94,.02,.01,.03,0,.04-.01,49.49-4.89,98.76-12.05,147.6-21.44,.18,.11,.35,.23,.53,.34l.09,.04c-3.59,7.74-8.58,14.82-14.76,20.7-1.43,1.36-2.92,2.66-4.47,3.88h0c-31.51,1.8-63.1,2.3-94.67,1.5-17.37-.43-34.74-1.27-52.08-2.49v-.58Z"/><path class="cls-4" d="M293.14,467.63c.59-.04,1.18,.09,1.77,.03,.15-.01,.29-.04,.44-.08,.83-.21,1.56-.79,2.15-1.42,.22-.24,.43-.48,.64-.73,1.95-.12,3.9-.25,5.85-.4-.22,.73-.91,1.3-.91,2.06s.67,1.32,1.34,1.66,1.43,.58,1.91,1.15c.59,.72,.59,1.8,.23,2.66s-1.02,1.55-1.66,2.23c-.97,1.01-1.94,2.03-3.12,2.77s-2.62,1.17-3.98,.9c-1.37-.27-2.62-1.37-2.78-2.75-.08-.68,.1-1.36,.12-2.05,0-.68-.18-1.44-.77-1.8-.89-.54-2.08,.2-3.09-.11-.84-.26-1.31-1.26-1.12-2.12,.18-.85,.92-1.52,1.75-1.8l.29-.12s.05,.11,.07,.16c.26-.14,.58-.22,.87-.24Z"/><path class="cls-5" d="M290.2,1.18c-4.74-.6-9.72,.52-13.95,2.81-5.59,3.04-9.98,7.95-13.34,13.35-4.64,7.46-7.51,16.48-5.67,25.07l.05,.39c-.77,.31-1.45,.81-1.56,1.6-.03,.25,0,.51-.12,.74-.29,.57-1.14,.4-1.73,.14-.85-.37-1.72-.74-2.57-1.12l.13-.3c-.97-5.32,0-10.85,1.96-15.88,1.96-5.04,4.86-9.64,7.86-14.13,2.13-3.18,4.35-6.36,7.26-8.85,1.94-1.65,4.24-2.97,6.68-3.62,.87-.15,1.75-.29,2.62-.41-.89,.04-1.76,.18-2.62,.41-.71,.12-1.42,.26-2.13,.42,5.19-1.28,10.62-1.63,15.94-.97v.1c.39,.08,.79,.16,1.19,.25Z"/><path class="cls-13" d="M233.04,82.17c.38,.78,.4,1.68,.48,2.54,.27,2.53,1.22,4.94,2.17,7.3,.57,1.43,1.17,2.9,2.26,3.99,.66,.65,1.46,1.14,2.16,1.75,1.37,1.23,2.26,2.99,2.42,4.83l-2.68,.68c-1.38-1.66-2.72-3.36-4.03-5.07-1.7-2.23-3.38-4.55-4.31-7.19-1.17-3.32-1.09-6.92-1-10.43l.09-.3c1.02,.31,1.98,.95,2.44,1.9Z"/><path class="cls-13" d="M282.94,86.29c-1.66-1.52-3.31-3.03-4.97-4.55l2.02-2.21c.05,.04,.1,.08,.16,.12,.54,.38,1.27,.29,1.9,.48,1.62,.49,2.13,2.46,2.68,4.06,.35,1.03,.82,2.01,1.4,2.93l-2.43,.19c-.21-.41-.49-.75-.76-1.02Z"/><path class="cls-5" d="M261.78,121.05c-.68,1.76-1.6,3.33-2.71,4.63-1.13,1.35-2.46,2.41-3.89,3.09-1.88,.88-3.93,1.09-5.9,.64-.97-.22-1.93-.6-2.83-1.15,2.92,.02,5.98-1.59,8.66-3.7,2.68-2.1,5.14-4.73,7.9-6.64,.02-.01,.03-.02,.04-.02l.21-.09c-.17,.16-.35,.33-.53,.5l.87-.51c-.92,.61-1.35,2.02-1.82,3.25Z"/><path class="cls-5" d="M247.92,44.57c-.12,.59,.55,1.24,1.09,.97-2.32,1.03-4.62,2.07-6.94,3.11l-.19-.42c-1.81-1.84-1.97-4.71-1.79-7.29,.87-12.41,7.36-24.31,17.32-31.78,3.58-2.69,7.59-4.78,11.83-6.22-.74,.29-1.46,.62-2.16,.99-3.43,1.84-6.16,4.74-8.55,7.81-4.36,5.59-7.79,11.91-10.1,18.61-.8,2.29-1.47,4.66-1.61,7.09-.12,2.29,.24,4.64,1.35,6.64-.13,.14-.21,.3-.25,.49Z"/><path class="cls-6" d="M70.21,465.56c3.26,1.14,7.01,.42,10.13,1.88,1.09,.51,2.05,1.26,3.16,1.72,1.11,.45,2.48,.56,3.42-.17,1.13-.87,1.24-2.57,2.19-3.62,.63-.68,1.56-1.03,2.19-1.72,.61-.66,.88-1.62,.7-2.5-.17-.8-.69-1.5-1.39-1.9,1.36-.16,2.68-.81,3.21-2.05,.45-1.06,.19-2.33-.48-3.27-.66-.94-1.68-1.58-2.74-2.02-.88-.37-1.84-.63-2.64-1.13l.19-.33c1.39-1.34,2.85-2.6,4.37-3.79l.03-.04c1.95,1.61,3.98,3.13,6.09,4.54,11.73,7.91,25.69,12.72,40.79,13.24,.76,.03,1.52,.04,2.27,.05v.58c17.34,1.22,34.71,2.06,52.08,2.49v.13c-21.64,13.35-48.22,17.37-73.46,14.28-17.86-2.19-35.12-7.74-51.51-15.26l.64-1.41c.25,.11,.5,.21,.76,.3Z"/><path class="cls-5" d="M221.29,108.97c-2.49-11.34-3.06-22.88-1.56-34.17l.05-.04c1.38-1.44,2.83-2.81,4.34-4.12,2.11-1.85,4.34-3.56,6.66-5.13l-.49-.7c1.18-.1,2.38-.52,3.52-.92,1.01-.36,2.09-.71,3.16-.81-.41,.14-.78,.39-1.03,.72-1.86,1.89-3.9,3.6-6.09,5.1-.1,.05-.19,.11-.28,.18-.01,.01-.02,.02-.03,.02-.87,.71-1.24,2.01-1.2,3.18,.04,1.43,.54,2.83,.57,4.27,.03,1.43-.6,3.06-1.98,3.49,1.15-.06,2.31-.11,3.43,.16,.08,.02,.16,.04,.24,.07l-.09,.3c-.09,3.51-.17,7.11,1,10.43,.93,2.64,2.61,4.96,4.31,7.19,1.31,1.71,2.65,3.41,4.03,5.07,2.29,2.77,4.69,5.46,7.22,8.02,.02,.03,.04,.06,.06,.1v.11c-2.98,3.14-6.94,5.35-11.18,6.22-4.24,.88-8.75,.43-12.73-1.26-.74-2.48-1.38-4.98-1.93-7.48Z"/><path class="cls-13" d="M296.56,93.79c-.73,.02-1.29,.47-1.81,1.01l-.66-1.86c.3-.11,.6-.21,.9-.32-2.66-2.59-3.76-6.66-2.77-10.23,.2-.72,.48-1.43,.55-2.17,.01-.06,.01-.13,.01-.2,.45,.25,.88,.5,1.33,.75,.26,.14,.54,.29,.84,.3,.57,.01,1-.49,1.34-.94,.26-.35,.53-.72,.61-1.15,.1-.52-.11-1.07-.45-1.5-.33-.42-.77-.74-1.21-1.05l-1.34-.41c.4-.52,.75-1.07,.98-1.68,.28-.75,.36-1.55,.46-2.34,.4-3.19,1.03-6.35,2.02-9.41,.15-.46,.31-.92,.48-1.37l2.81,.87c-.03,.21-.07,.43-.1,.64,.39,.03,.79,.08,1.17,.16,2.06,1.61,3.9,3.5,5.44,5.62-.58-.56-1.54-.71-2.24-.29-.87,.51-1.19,1.76-.72,2.65,.46,.9,1.61,1.36,2.58,1.09,.32-.09,.64-.25,.97-.23,.52,.04,.89,.49,1.2,.9,.87,1.17,1.72,2.33,2.59,3.5,.11,.2,.24,.4,.38,.6l1.87,1.23c.28,.39,.26,.87,.11,1.34-.11,.34-.3,.68-.49,.97-1.44,2.23-3.35,4.12-5.24,5.99-.86,.85-1.73,1.7-2.59,2.55l-.03,.03c-1.85,1.52-3.71,3.04-5.56,4.56-.43,.35-.88,.71-1.39,.88-.69-.07-1.34-.5-2.04-.49Z"/><path class="cls-13" d="M293.48,76.53c.14-.17,.28-.33,.42-.51l1.34,.41c.44,.31,.88,.63,1.21,1.05,.34,.43,.55,.98,.45,1.5-.08,.43-.35,.8-.61,1.15-.34,.45-.77,.95-1.34,.94-.3-.01-.58-.16-.84-.3-.45-.25-.88-.5-1.33-.75,.03-.69-.16-1.4-.67-1.85-.14-.12-.3-.22-.46-.28,.01,0,.03-.01,.04-.01,.73-.21,1.29-.78,1.79-1.35Z"/><path class="cls-14" d="M284.72,73.29c.16,.28,.33,.57,.51,.84t-.03-.02c.27,.57,.66,1.04,1.12,1.45,.74,.83,1.63,1.5,2.68,1.81h.01c.84,.45,1.75,.77,2.64,.52,.16,.06,.32,.16,.46,.28,.51,.45,.7,1.16,.67,1.85,0,.07,0,.14-.01,.2-.07,.74-.35,1.45-.55,2.17-.99,3.57,.11,7.64,2.77,10.23-.3,.11-.6,.21-.9,.32-.15,.05-.3,.11-.46,.16-3.08-1.05-5.76-3.22-7.5-5.98-.58-.92-1.05-1.9-1.4-2.93-.55-1.6-1.06-3.57-2.68-4.06-.63-.19-1.36-.1-1.9-.48-.06-.04-.11-.08-.16-.12-.73-.67-.56-1.92-.63-2.95-.14-1.9-1.42-3.57-2.99-4.65s-3.42-1.67-5.23-2.25c-1.81-.59-3.65-1.22-5.18-2.35-.48-.35-.92-.74-1.32-1.17-1.2-1.29-2.07-2.89-2.66-4.56-.79-2.23-1.09-4.6-1.32-6.95,.31,2.41,1.94,4.5,3.97,5.85,2.02,1.34,4.4,2.04,6.77,2.56,2.1,.46,4.23,.8,6.29,1.43,.08,.77,.6,1.47,1.2,1.98,.68,.57,1.49,.98,2.19,1.53,1.68,1.35,2.58,3.42,3.64,5.29Z"/><path class="cls-5" d="M82.08,415.57c-2.43,2.99-6.23,4.81-10.08,4.83l-.19,.1c-.9-1.82-1.74-3.67-2.5-5.56-.42-1.02-.81-2.05-1.18-3.09-1.01-2.81-1.87-5.7-2.55-8.64,3.02-2.5,7.34-3.36,11.09-2.2h.04c1.26,5.12,3.07,9.99,5.37,14.56Z"/><path class="cls-13" d="M308.51,67.94c-1.36-2.59-3.93-4.5-6.79-5.05-.35-.28-.71-.54-1.07-.8l-2.81-.87c.53-1.37,1.22-2.66,2.28-3.65,.63-.58,1.41-1.03,2.24-1.26,2.27,.58,4.11,2.38,5.41,4.37,1.38,2.14,2.28,4.56,3.57,6.76,1.19,2.06,2.83,4,5,4.88-.39,1.08-.79,2.16-1.16,3.25-.43,1.24-.83,2.5-1.19,3.76l-.09-.03c.15-.47,.17-.95-.11-1.34l-1.87-1.23c-.14-.2-.27-.4-.38-.6-1.47-2.49-1.67-5.61-3.03-8.19Z"/><path class="cls-13" d="M298.52,48.24c.46,1.03,1.22,2.15,2.35,2.2,.7,.03,1.33-.38,1.9-.81l-.16-.21c-.3,.12-.66,.02-.92-.17-.26-.2-.45-.48-.61-.75-2.15-3.56-2.68-8-5.22-11.29-1.34-1.75-3.19-3.07-5.16-4.07-1.97-.99-4.08-1.69-6-2.42,5.34,2.34,9.71,6.84,11.88,12.25,.7,1.74,1.18,3.56,1.94,5.27Zm-4.16,2.82c-.63-2.2-1.28-4.43-2.44-6.41-2.19-3.69-6.22-6.23-10.41-6.86,.2,.83,.44,1.74,1.13,2.25,.42,.32,.96,.43,1.46,.6,1.58,.52,2.96,1.65,3.79,3.1-.88-.12-1.81,.41-2.16,1.22-.35,.82-.1,1.86,.59,2.42s1.76,.6,2.48,.09c.45-.31,.84-.82,1.38-.79,.41,.02,.72,.36,.99,.67,1.07,1.24,2.12,2.48,3.18,3.72h.01Zm-32.54,35.7c-.62-1.36-1.53-2.93-2.82-2.8-.31,.03-.63,.17-.94,.07-.64-.21-.75-1.21-.83-2.01-.24-2.57-1.43-4.99-3.2-6.47,.15-1.75,.82-3.44,1.85-4.69,.37-.44,.81-.86,1-1.45,.46-1.41-.65-2.86-.73-4.37-.05-1.02,.37-1.97,.78-2.86s.84-1.84,.8-2.85c-.02-.78-.44-1.57-1.01-1.84l.27-.06c-.03-.66-.85-.98-1.51-.93-.42,.02-.86,.12-1.22-.09-.59-.34-.54-1.18-.37-1.83,.18-.65,.37-1.43-.08-1.93,.68-1.45,1.58-2.8,2.65-3.98,1.47-1.63,3.27-2.94,4.7-4.59,1.28-1.46,2.25-3.18,2.65-4.76,.04-.48,.22-.95,.55-1.32-.01,0,0-.01,0-.01,.03-.04,.06-.08,.1-.12-.03,0-.05,.02-.07,.05l-.05-.06c6.68-6.06,14.52-10.83,22.98-13.95,2.93,2.45,6.55,3.99,9.7,6.17,3.2,2.21,5.89,5.08,8.33,8.1,6.52,8.07,11.47,17.64,12.87,27.92l.3,.1c-.59,1.84-1.27,3.65-1.94,5.46-.09-.04-.18-.1-.27-.16-1.19-.81-1.7-2.28-2.17-3.65-.95-2.73-2.06-5.47-3.91-7.69s-4.56-3.88-7.45-3.85l-.02-.1c-.14,.02-.27,.06-.4,.09-.83,.23-1.61,.68-2.24,1.26-1.06,.99-1.75,2.28-2.28,3.65-.17,.45-.33,.91-.48,1.37-.99,3.06-1.62,6.22-2.02,9.41-.1,.79-.18,1.59-.46,2.34-.23,.61-.58,1.16-.98,1.68-.14,.18-.28,.34-.42,.51-.5,.57-1.06,1.14-1.79,1.35-.01,0-.03,.01-.04,.01-.67-.32-1.5-.29-2.25-.43-.13-.02-.26-.06-.39-.09h-.01c-.29-.16-.56-.32-.83-.49-.64-.41-1.3-.82-1.85-1.32-.41-.44-.77-.93-1.08-1.43h-.01c-.18-.27-.35-.56-.51-.84-1.06-1.87-1.96-3.94-3.64-5.29-.7-.55-1.51-.96-2.19-1.53-.6-.51-1.12-1.21-1.2-1.98-2.06-.63-4.19-.97-6.29-1.43-2.37-.52-4.75-1.22-6.77-2.56-2.03-1.35-3.66-3.44-3.97-5.85,.23,2.35,.53,4.72,1.32,6.95,.59,1.67,1.46,3.27,2.66,4.56l-.97,.76s.04,.07,.06,.1c.07,.13,.15,.26,.23,.39,.13,3,.79,5.98,1.9,8.77,1.1,3.06,2.81,5.9,5.02,8.34,2.88,3.16,6.61,5.61,10.73,7.04,.09-.11,.3,.01,.3,.13h.05c.23-.82,1.31-.78,1.79-1.75,.51-1.01,.33-1.91-.05-2.63l2.43-.19c1.74,2.76,4.42,4.93,7.5,5.98,.16-.05,.31-.11,.46-.16l.66,1.86c-.32,.32-.62,.67-.94,.97-1.81,1.69-4.64,1.89-7,1.14-1.11-.36-2.16-.89-3.31-1.04-1.06-.13-2.13,.07-3.19,0s-2.21-.51-2.64-1.48v-.02c-.6-.11-1.22-.08-1.81-.21-1.4-.29-2.56-1.42-3.7-2.44-.47-.43-1.04-.86-1.6-.65-.36,.13-.62,.49-.86,.84-.67,.97-1.34,1.95-2.01,2.92-.22,.32-.46,.66-.79,.78-.76,.27-1.39-.71-1.77-1.54-1.11-2.43-2.21-4.87-3.31-7.3Z"/><path class="cls-6" d="M250.36,163.96c-.49-.88-1.38-1.46-2.31-1.81-1.7-.64-3.63-.6-5.3,.09l-.45,.21-.21-.3c3.84-2.79,6.3-7.02,7.37-11.35,1.29-5.26,.53-15.82-.24-21.15l.06-.24c1.97,.45,4.02,.24,5.9-.64,1.43-.68,2.76-1.74,3.89-3.09-.06,1.27-.12,2.55-.19,3.81-.45,8.48-1.17,16.76-5.17,24.31-.29,4.24-.67,8.47-1.23,12.67l-1.74-.24c.09-.79,0-1.58-.38-2.27Z"/><path class="cls-14" d="M229.85,68.9c2.19-1.5,4.23-3.21,6.09-5.1,.25-.33,.62-.58,1.03-.72-1.07,.1-2.15,.45-3.16,.81-1.14,.4-2.34,.82-3.52,.92-.67,.06-1.33,.01-1.98-.2-2.08-.68-3.36-3.18-2.7-5.26,.46-1.42,1.64-2.5,2.91-3.29-.38-.18-.76-.35-1.14-.52,.56-.11,.78-.89,.5-1.39-.28-.51-.86-.76-1.43-.88-.56-.13-1.15-.16-1.67-.4-1.04-.46-1.63-1.67-1.51-2.79,.11-1.13,.86-2.14,1.82-2.73,2.19-1.34,5.19-.7,7.34-2.1-.49,.18-1.05-.26-1.12-.78s.25-1.03,.67-1.33c.43-.31,.94-.45,1.45-.59,.76-.21,1.53-.42,2.32-.41s1.61,.28,2.12,.88c.47,.55,.62,1.3,.75,2.02,.2,1.12,.41,2.24,.61,3.36,.05,.3,.13,.63,.36,.83,.38,.3,.93,.12,1.36-.08,.37-.17,.75-.33,1.12-.5,2.32-1.04,4.62-2.08,6.94-3.11-.54,.27-1.21-.38-1.09-.97,.04-.19,.12-.35,.25-.49,.26-.31,.69-.49,1.11-.5,.6-.03,1.18,.22,1.74,.46,.1,.04,.19,.08,.29,.12,.85,.38,1.72,.75,2.57,1.12,.59,.26,1.44,.43,1.73-.14,.11-.23,.09-.49,.12-.74,.11-.79,.79-1.29,1.56-1.6,.26-.1,.52-.18,.78-.24,.89-.22,1.9-.41,2.51-1.06l.02,.02c1.19-1.27,2.44-2.49,3.74-3.65l.05,.06s-.03,.04-.03,.07c0,0-.01,.01,0,.01-.33,.37-.51,.84-.55,1.32-.4,1.58-1.37,3.3-2.65,4.76-1.43,1.65-3.23,2.96-4.7,4.59-1.07,1.18-1.97,2.53-2.65,3.98,.45,.5,.26,1.28,.08,1.93-.17,.65-.22,1.49,.37,1.83,.36,.21,.8,.11,1.22,.09,.66-.05,1.48,.27,1.51,.93l-.27,.06c.57,.27,.99,1.06,1.01,1.84,.04,1.01-.39,1.96-.8,2.85s-.83,1.84-.78,2.86c.08,1.51,1.19,2.96,.73,4.37-.19,.59-.63,1.01-1,1.45-1.03,1.25-1.7,2.94-1.85,4.69,1.77,1.48,2.96,3.9,3.2,6.47,.08,.8,.19,1.8,.83,2.01,.31,.1,.63-.04,.94-.07,1.29-.13,2.2,1.44,2.82,2.8,1.1,2.43,2.2,4.87,3.31,7.3,.38,.83,1.01,1.81,1.77,1.54,.33-.12,.57-.46,.79-.78,.67-.97,1.34-1.95,2.01-2.92,.24-.35,.5-.71,.86-.84,.56-.21,1.13,.22,1.6,.65,1.14,1.02,2.3,2.15,3.7,2.44,.59,.13,1.21,.1,1.81,.21v.02c.43,.97,1.58,1.41,2.64,1.48s2.13-.13,3.19,0c1.15,.15,2.2,.68,3.31,1.04,2.36,.75,5.19,.55,7-1.14,.32-.3,.62-.65,.94-.97,.52-.54,1.08-.99,1.81-1.01,.7-.01,1.35,.42,2.04,.49h.02c.74,.07,1.46-.27,2.07-.69,.61-.41,1.18-.91,1.85-1.22,.27-.12,.67-.17,.79,.1,.05,.1,.04,.21,.02,.32-.04,.23-.11,.45-.2,.67-.27,.64-.74,1.2-1.18,1.76-.58,.74-1.14,1.61-1.05,2.55,.08,.77,.58,1.43,.99,2.1,.95,1.55,1.45,3.39,1.41,5.21-.64,.35-1.91,.84-3.16,.76-.68-.03-1.46-.21-2,.22-.42,.34-.53,.92-.69,1.45-.33,1.14-1.05,2.2-2.1,2.79-1.04,.59-2.41,.63-3.4-.03-1.25-.82-1.64-2.43-2.43-3.69-.47-.75-1.22-1.45-2.1-1.39-.62,.05-1.16,.48-1.5,1s-.5,1.13-.66,1.73c-.25,.92-.5,1.83-.75,2.75-.27,1-.57,2.05-1.31,2.77-.94,.93-2.38,1.11-3.7,1.03-1.31-.07-2.63-.36-3.94-.17-1.28,.19-2.5,.86-3.35,1.84-.29,.34-.57,.74-.98,.93-.39,.19-.85,.16-1.29,.13-1.86-.13-3.72-.27-5.58-.4-.5,.19-1.04,.36-1.59,.48-1.36,.29-2.83,.31-4.13-.34-1.31-.66-2.22-1.89-3.08-3.08-.08-.11-.15-.21-.23-.32-.46-.63-.92-1.27-1.37-1.9-.91-1.26-1.86-2.67-1.71-4.21,.07-.7,.36-1.46,.01-2.07-.44-.77-1.53-.74-2.42-.71-2.58,.11-5.19-.63-7.33-2.07-.16-1.84-1.05-3.6-2.42-4.83-.7-.61-1.5-1.1-2.16-1.75-1.09-1.09-1.69-2.56-2.26-3.99-.95-2.36-1.9-4.77-2.17-7.3-.08-.86-.1-1.76-.48-2.54-.46-.95-1.42-1.59-2.44-1.9-.08-.03-.16-.05-.24-.07-1.12-.27-2.28-.22-3.43-.16,1.38-.43,2.01-2.06,1.98-3.49-.03-1.44-.53-2.84-.57-4.27-.04-1.17,.33-2.47,1.2-3.18,.01,0,.02-.01,.03-.02,.1-.06,.19-.12,.28-.18Z"/><path class="cls-6" d="M65.58,403.21c.68,2.94,1.54,5.83,2.55,8.64l-.11,.04c-1.03,.3-2.05,.66-3.05,1.07l-.12,.04c-.54-1.54-1.26-3.05-2.51-3.97t-.02-.02c-1.04-.96-2.1-1.92-3.35-2.59-1.26-.67-2.76-.99-4.12-.58-1.37,.41-2.52,1.68-2.49,3.1,.01,.84,.41,1.73,.05,2.49-.26,.54-.84,.85-1.43,.96s-1.19,.04-1.78,.02c-1.93-.09-3.9,.24-5.58,1.18-1.69,.94-3.05,2.52-3.51,4.39-.47,1.87,.07,4,1.51,5.28,1.39,1.23,3.61,1.48,5.16,.49,.34,1.14,.25,2.39,.71,3.48,.46,1.11,1.43,1.95,2.52,2.44,1.1,.49,2.31,.66,3.51,.73,1.38,.07,2.84-.02,4.05-.71,1.53-.88,2.51-2.65,4.2-3.17,1.73-.54,3.91,.37,5.28-.83,.63-.55,.89-1.43,.87-2.26,0-.83-.26-1.64-.51-2.44-.48-1.49-.96-2.99-1.42-4.49l.2-.06c.86-.61,1.82-1.07,2.82-1.36l.3-.14c.76,1.89,1.6,3.74,2.5,5.56,3.37,6.78,7.67,13.01,12.73,18.52-.04,.08-.08,.15-.12,.23,.07-.04,.15-.08,.23-.11,1.67,1.82,3.43,3.56,5.27,5.22l-.2,.22c-1.54,.9-2.89,2.13-3.94,3.58-.78-1.18-1.75-2.27-2.98-2.98-1.3-.77-2.93-1.06-4.35-.53v.12c-2.27,.02-4.58,.3-6.58,1.34-2.24,1.16-4.04,3.43-4.02,5.95,.01,1.12,.38,2.22,.36,3.33-.03,1.54-.82,3.04-2.07,3.93-.5,.35-1.13,.72-1.16,1.33-.02,.3,.13,.58,.28,.83,.96,1.65,2.45,2.99,4.19,3.78l-.64,1.41c-6.77-3.1-13.4-6.54-19.86-10.21-4.17-3.91-7.91-7.82-11.62-11.77-.96-1.02-1.95-2.63-1-3.68,1.27-1.41,3.79,.66,5.47-.25,.8-.42,1.13-1.44,1.01-2.34s-.6-1.7-1.11-2.45c-2.43-3.64-5.57-6.81-9.17-9.29-.94-.64-1.92-1.25-2.64-2.13-.72-.87-1.14-2.09-.75-3.16,1.79-12.62,4.85-26.1,8.53-39.41l.24,.3c.98,1.23,2.26,2.58,3.82,2.34,1.25-.19,2.09-1.35,3.19-1.97,2.23-1.23,5.02-.05,7.53-.5,2.82-.51,4.9-3.17,5.37-6.01,.49,.18,1.04,.22,1.58,.24,1.33,.06,2.66,.12,3.99,.19l.41,.04c-.17,1.69-.28,3.39-.34,5.11,0,.44-.03,.88-.04,1.31-.12,6.95,.63,13.71,2.16,20.18Z"/><path class="cls-7" d="M307.06,441.06c-27.11-17.54-55.74-32.72-85.48-45.3,30.06-4.41,60.63,.95,90.56,6.44,.46,.08,.92,.17,1.38,.25l.24-.03c.36,2.94,.54,5.9,.56,8.84,0,.84-.01,1.68-.04,2.52-.09,3.2-.41,6.38-.95,9.53-.4-.07-.81-.1-1.21-.12-2.19,.29-4.38,.6-6.57,.92-1.03,.16-2.23,.43-2.69,1.38-.46,.93,.07,2.08,.82,2.79,.76,.72,1.72,1.19,2.46,1.92,1.31,1.29,1.77,3.36,1.13,5.07-.37,.97-1.06,1.91-.91,2.94,.15,.95,1.02,1.57,1.99,1.74-.21,.5-.44,1-.67,1.49l-.09-.04c-.18-.11-.35-.23-.53-.34Z"/><path class="cls-6" d="M316.58,71.67c.21,.12,.43,.21,.66,.27v.02c-.14,.18-.27,.36-.41,.54-.17-.05-.33-.11-.49-.18,.08-.22,.16-.43,.24-.65Z"/><path class="cls-3" d="M313.33,423.31c-.97,5.73-2.65,11.33-4.98,16.64-.97-.17-1.84-.79-1.99-1.74-.15-1.03,.54-1.97,.91-2.94,.64-1.71,.18-3.78-1.13-5.07-.74-.73-1.7-1.2-2.46-1.92-.75-.71-1.28-1.86-.82-2.79,.46-.95,1.66-1.22,2.69-1.38,2.19-.32,4.38-.63,6.57-.92,.4,.02,.81,.05,1.21,.12Z"/><path class="cls-6" d="M340.54,55.94c1.33-1.44,1.5-3.75,.57-5.47-.94-1.72-2.84-2.81-4.79-2.96-1.86-.14-3.69,.5-5.38,1.3-2.3,1.09-4.44,2.49-6.51,3.98-.18-.22-.59-.1-.72,.16-.14,.27-.06,.59,.06,.87,.45,1.13,1.39,2.01,2.46,2.58s2.27,.86,3.47,1.06c1.8,.3,3.63,.42,5.45,.35,1.95-.07,4.06-.43,5.39-1.87Zm-20.14,18.51c-.1,1.47-.18,2.94,.12,4.38,.31,1.51,1.12,2.99,2.46,3.77,.78,.45,1.75,.64,2.59,.3,.89-.36,1.5-1.28,1.59-2.24,.1-.96-.27-1.94-.88-2.68-.81-.99-1.99-1.6-3.12-2.19-.87-.44-1.74-.88-2.61-1.33h-.15Zm2.11-9.43c.54,1.54,1.53,2.91,2.69,4.06,1.29,1.28,2.79,2.33,4.29,3.35,1.62,1.1,3.37,2.23,5.33,2.21,1.04,0,2.12-.39,2.76-1.21,.53-.69,.69-1.61,.56-2.47-.13-.85-.53-1.65-1.03-2.35-1.38-1.96-3.54-3.29-5.83-3.98-2.3-.69-4.73-.78-7.12-.63-.34,.03-.69,.06-.99,.21-.29,.15-.53,.44-.53,.77l-.13,.04Zm11.02-33.5c-2.85,.16-5.49,1.68-7.55,3.68-2.09,2.02-3.65,4.51-5.2,6.98-.23,.38-.48,.8-.44,1.24,.06,.69,.76,1.13,1.42,1.36,2.24,.79,4.73,.45,7.04-.14,1.76-.45,3.52-1.05,5.05-2.04s2.84-2.41,3.46-4.13c.61-1.71,.45-3.75-.64-5.21-.74-.99-1.93-1.64-3.14-1.74Zm-20.11-19.22c-.63-.8-1.81-1.22-2.73-.85v-.03c-1.04-.01-1.91,.73-2.6,1.5-2.44,2.72-3.8,6.27-4.47,9.87-.15,.78-.27,1.59-.06,2.35,.21,.77,.83,1.47,1.62,1.54,.76,.07,1.43-.43,2.02-.92,1.61-1.33,3.19-2.73,4.46-4.38,1.28-1.66,2.24-3.6,2.48-5.68,.14-1.18,.02-2.46-.72-3.4Zm-26.1,11.61c-.24-.19-.47-.4-.7-.61-2.55-2.36-4.3-5.43-6.01-8.45-.8-1.41-1.63-2.97-1.36-4.57s2.26-2.92,3.55-1.94l1.31,.15c2.36,1.48,4.11,3.8,5.27,6.33,.08,.17,.15,.34,.22,.51,.55,2.53,1.25,5.03,1.95,7.52-.38-2.57-.93-5.13-1.95-7.52-.24-1.05-.44-2.09-.61-3.15-.16-1-.29-2.03-.11-3.02,.18-1,.73-1.97,1.63-2.45,1.1-.57,2.51-.26,3.5,.49s1.64,1.86,2.17,2.99c1.74,3.65,2.52,7.68,3.28,11.65-.12-2.22-.23-4.47,.21-6.66,.43-2.18,1.48-4.33,3.28-5.64,2.57-1.87,6.01-1.7,9.18-1.05,10.92,5.14,20.9,12.25,29.19,20.94,4.09,7.67,3.52,16.89,2.84,25.56-.53,6.69-1.06,13.43-2.92,19.87-5.98,6.14-12.16,12.17-19.4,16.73-2.36,1.48-4.91,2.82-7.68,3.12-.89,.1-1.79,.08-2.68,0,0-.02-.03-.04-.04-.07-.32-.59-.25-1.3-.17-1.97,.54-4.52,1.44-8.99,2.72-13.36,.36-1.26,.76-2.52,1.19-3.76,.37-1.09,.77-2.17,1.16-3.25,.16,.07,.32,.13,.49,.18,.14-.18,.27-.36,.4-.54v-.02c-.22-.06-.44-.15-.65-.27,.67-1.81,1.35-3.62,1.94-5.46l-.3-.1c-1.4-10.28-6.35-19.85-12.87-27.92-2.44-3.02-5.13-5.89-8.33-8.1-3.15-2.18-6.77-3.72-9.7-6.17Zm40.86,2.72c.26-.9,.03-1.88-.42-2.7-.79-1.46-2.27-2.57-3.92-2.76-1.2-.14-2.47,.24-3.39,1.02-1.54,.91-2.84,2.19-3.93,3.61-1.18,1.56-2.12,3.29-3.01,5.04-.27,.53-.54,1.08-.63,1.67-.1,.59,.01,1.25,.42,1.69,.4,.44,1.03,.6,1.63,.56,.59-.04,1.16-.25,1.71-.47,3.45-1.39,6.81-3.09,9.72-5.4,.78-.61,1.55-1.32,1.82-2.26Z"/><path class="cls-13" d="M265.96,67.33c1.53,1.13,3.37,1.76,5.18,2.35,1.81,.58,3.66,1.17,5.23,2.25s2.85,2.75,2.99,4.65c.07,1.03-.1,2.28,.63,2.95l-2.02,2.21c-2.03-1.86-4.07-3.72-6.1-5.58-2.91-2.67-5.87-5.38-7.91-8.75-.01-.03-.01-.07-.01-.1-.12-.15-.18-.24-.22-.29-.02-.03-.04-.07-.06-.1l.97-.76c.4,.43,.84,.82,1.32,1.17Z"/><path class="cls-13" d="M242.53,102.58c2.14,1.44,4.75,2.18,7.33,2.07,.89-.03,1.98-.06,2.42,.71,.35,.61,.06,1.37-.01,2.07-.15,1.54,.8,2.95,1.71,4.21,.45,.63,.91,1.27,1.37,1.9-1.81,1.15-3.61,2.32-5.42,3.47,.75,.82,1.12,1.96,1.28,3.06,.27,1.87,.03,3.86-.99,5.44-.7,1.09-1.81,1.96-3.04,2.32-.54,.04-1.08,.1-1.62,.17-1.69,.23-3.36,.61-4.98,1.15,.15,2.25,.3,4.51,.04,6.75-.26,2.23-.95,4.47-2.32,6.25-1.94-4.02-2.43-8.58-2.73-13.04-.05-.71-.1-1.45-.44-2.08-.46-.86-1.36-1.36-2.19-1.85-3.77-2.25-7.13-5.18-9.85-8.62l.13-.11c3.98,1.69,8.49,2.14,12.73,1.26,4.24-.87,8.2-3.08,11.18-6.22v-.11s-.04-.07-.06-.1c-2.53-2.56-4.93-5.25-7.22-8.02l2.68-.68Z"/><path class="cls-4" d="M58.97,406.42c1.25,.67,2.31,1.63,3.35,2.59t.02,.02c1.25,.92,1.97,2.43,2.51,3.97,.15,.41,.28,.82,.41,1.22,.24,.76,.48,1.52,.73,2.28,.46,1.5,.94,3,1.42,4.49,.25,.8,.5,1.61,.51,2.44,.02,.83-.24,1.71-.87,2.26-1.37,1.2-3.55,.29-5.28,.83-1.69,.52-2.67,2.29-4.2,3.17-1.21,.69-2.67,.78-4.05,.71-1.2-.07-2.41-.24-3.51-.73-1.09-.49-2.06-1.33-2.52-2.44-.46-1.09-.37-2.34-.71-3.48-1.55,.99-3.77,.74-5.16-.49-1.44-1.28-1.98-3.41-1.51-5.28,.46-1.87,1.82-3.45,3.51-4.39,1.68-.94,3.65-1.27,5.58-1.18,.59,.02,1.19,.09,1.78-.02s1.17-.42,1.43-.96c.36-.76-.04-1.65-.05-2.49-.03-1.42,1.12-2.69,2.49-3.1,1.36-.41,2.86-.09,4.12,.58Z"/><path class="cls-5" d="M66.36,210.8c.05,.1,.11,.2,.17,.31,1.67,3.01,3.41,5.99,5.53,8.69,2.52,3.19,5.63,6.01,9.37,7.61,3.14,1.36,6.69,1.84,9.55,3.73,2.75,1.82,4.55,4.73,6.43,7.44,1.89,2.71,4.1,5.44,7.22,6.54,2.28,.81,4.79,.65,7.21,.47,.95-.07,1.92-.14,2.81-.5,.66-.27,1.28-.74,1.63-1.35h.22c1.6,2.66,3.33,5.23,5.17,7.71l-.11,.08c-7.5,14.27-18.23,26.55-29.04,38.52-4.69,5.19-9.62,10.49-16.03,13.26-5.94,2.56-12.65,2.71-19.09,2.07-6.54-.66-13.06-2.13-19.1-4.7-3.17-1.33-6.21-2.97-9.04-4.95-8.18-5.72-14.52-14.44-16.13-24.29,23.21-13.95,41.31-36.18,50.3-61.71,.12-.31,.23-.62,.33-.93,.21-.56,.4-1.11,.59-1.67l.15-.07c.57,1.27,1.19,2.52,1.86,3.74Z"/><path class="cls-6" d="M69.01,415.08c-1,.29-1.96,.75-2.82,1.36l-.2,.06c-.25-.76-.49-1.52-.73-2.28-.13-.4-.26-.81-.41-1.22l.12-.04c1-.41,2.02-.77,3.05-1.07l.11-.04c.37,1.04,.76,2.07,1.18,3.09l-.3,.14Z"/><path class="cls-8" d="M324.43,52.79c2.07-1.49,4.21-2.89,6.51-3.98,1.69-.8,3.52-1.44,5.38-1.3,1.95,.15,3.85,1.24,4.79,2.96,.93,1.72,.76,4.03-.57,5.47s-3.44,1.8-5.39,1.87c-1.82,.07-3.65-.05-5.45-.35-1.2-.2-2.4-.49-3.47-1.06s-2.01-1.45-2.46-2.58c-.12-.28-.2-.6-.06-.87,.13-.26,.54-.38,.72-.16Z"/><path class="cls-8" d="M322.64,64.99c0-.33,.24-.62,.53-.77,.3-.15,.65-.18,.99-.21,2.39-.15,4.82-.06,7.12,.63,2.29,.69,4.45,2.02,5.83,3.98,.5,.7,.9,1.5,1.03,2.35,.13,.86-.03,1.78-.56,2.47-.64,.82-1.72,1.2-2.76,1.21-1.96,.02-3.71-1.11-5.33-2.21-1.5-1.02-3-2.07-4.29-3.35-1.16-1.15-2.15-2.52-2.69-4.06l.13-.04Z"/><path class="cls-8" d="M336.67,33.27c1.09,1.46,1.25,3.5,.64,5.21-.62,1.72-1.93,3.14-3.46,4.13s-3.29,1.59-5.05,2.04c-2.31,.59-4.8,.93-7.04,.14-.66-.23-1.36-.67-1.42-1.36-.04-.44,.21-.86,.44-1.24,1.55-2.47,3.11-4.96,5.2-6.98,2.06-2,4.7-3.52,7.55-3.68,1.21,.1,2.4,.75,3.14,1.74Z"/><path class="cls-8" d="M320.45,22.2c.92-.78,2.19-1.16,3.39-1.02,1.65,.19,3.13,1.3,3.92,2.76,.45,.82,.68,1.8,.42,2.7-.27,.94-1.04,1.65-1.82,2.26-2.91,2.31-6.27,4.01-9.72,5.4-.55,.22-1.12,.43-1.71,.47-.6,.04-1.23-.12-1.63-.56-.41-.44-.52-1.1-.42-1.69,.09-.59,.36-1.14,.63-1.67,.89-1.75,1.83-3.48,3.01-5.04,1.09-1.42,2.39-2.7,3.93-3.61Z"/><path class="cls-8" d="M326.28,77.98c.61,.74,.98,1.72,.88,2.68-.09,.96-.7,1.88-1.59,2.24-.84,.34-1.81,.15-2.59-.3-1.34-.78-2.15-2.26-2.46-3.77-.3-1.44-.22-2.91-.12-4.38h.15c.87,.46,1.74,.9,2.61,1.34,1.13,.59,2.31,1.2,3.12,2.19Z"/><path class="cls-4" d="M324.38,419.31c.6,.76,.38,1.89-.05,2.76-1.27,2.55-4.23,4.13-7.06,3.77-.54-1.1-1.66-1.9-2.86-2.28-.35-.11-.71-.19-1.08-.25,.54-3.15,.86-6.33,.95-9.53h.13c1.21-.2,2.35-.78,3.57-.94,1.22-.15,2.68,.31,3.08,1.47,.34,1-.19,2.22,.37,3.12,.63,1,2.22,.95,2.95,1.88Z"/><path class="cls-4" d="M317.27,425.84c.11,.21,.19,.42,.25,.65,.24,.92,.12,2,.77,2.69,.42,.44,1.08,.61,1.46,1.09,.69,.88,.01,2.23-.94,2.81-.96,.57-2.12,.71-3.11,1.24-1.23,.66-2.05,1.85-2.9,2.96-.84,1.11-1.82,2.22-3.16,2.61-.41,.12-.86,.14-1.29,.06,2.33-5.31,4.01-10.91,4.98-16.64,.37,.06,.73,.14,1.08,.25,1.2,.38,2.32,1.18,2.86,2.28Z"/><path class="cls-14" d="M316.58,71.67c-.08,.22-.16,.43-.24,.65-2.17-.88-3.81-2.82-5-4.88-1.29-2.2-2.19-4.62-3.57-6.76-1.3-1.99-3.14-3.79-5.41-4.37,.13-.03,.26-.07,.4-.09l.02,.1c2.89-.03,5.6,1.63,7.45,3.85s2.96,4.96,3.91,7.69c.47,1.37,.98,2.84,2.17,3.65,.09,.06,.18,.12,.27,.16Z"/><path class="cls-8" d="M310.69,11.46c.92-.37,2.1,.05,2.73,.85,.74,.94,.86,2.22,.72,3.4-.24,2.08-1.2,4.02-2.48,5.68-1.27,1.65-2.85,3.05-4.46,4.38-.59,.49-1.26,.99-2.02,.92-.79-.07-1.41-.77-1.62-1.54-.21-.76-.09-1.57,.06-2.35,.67-3.6,2.03-7.15,4.47-9.87,.69-.77,1.56-1.51,2.59-1.5v.03Z"/><path class="cls-6" d="M305.58,88.81c.86-.85,1.73-1.7,2.59-2.55,1.89-1.87,3.8-3.76,5.24-5.99,.19-.29,.38-.63,.49-.97l.09,.03c-1.28,4.37-2.18,8.84-2.72,13.36-.08,.67-.15,1.38,.17,1.97,.01,.03,.03,.05,.04,.07-.95-.08-1.9-.23-2.85-.37-1.75-.27-3.49-.53-5.24-.8l-.24-.1c.09-.22,.16-.44,.2-.67,.02-.11,.03-.22-.02-.32-.12-.27-.52-.22-.79-.1-.67,.31-1.24,.81-1.85,1.22-.61,.42-1.33,.76-2.07,.69h-.02c.51-.17,.96-.53,1.39-.88,1.85-1.52,3.71-3.04,5.56-4.56l.03-.03Z"/><path class="cls-7" d="M313.76,402.42l-.24,.03c-.46-.08-.92-.17-1.38-.25-.37-.27-.74-.53-1.11-.79-34.87-21.75-70.02-42.97-105.19-64.18,0-.01,0-.02-.02-.03,28.46,4.07,56.6,10.35,84.08,18.77l.11-.13c13.57,11.51,21.66,28.79,23.75,46.58Z"/><path class="cls-3" d="M221.58,395.76c-.3,.04-.61,.08-.91,.13l-.54-.08c.41-2.85,.67-5.74,.77-8.68,.64-18.61-5.03-35.95-15.06-49.9,35.17,21.21,70.32,42.43,105.19,64.18,.37,.26,.74,.52,1.11,.79-29.93-5.49-60.5-10.85-90.56-6.44Z"/><path class="cls-9" d="M311.54,76.13c-.87-1.17-1.72-2.33-2.59-3.5-.31-.41-.68-.86-1.2-.9-.33-.02-.65,.14-.97,.23-.97,.27-2.12-.19-2.58-1.09-.47-.89-.15-2.14,.72-2.65,.7-.42,1.66-.27,2.24,.29,.13,.15,.24,.31,.35,.47-.09-.18-.21-.34-.35-.47-1.54-2.12-3.38-4.01-5.44-5.62,2.86,.55,5.43,2.46,6.79,5.05,1.36,2.58,1.56,5.7,3.03,8.19Z"/><path class="cls-6" d="M293.81,1.99c6.3,1.56,12.44,3.75,18.32,6.51-3.17-.65-6.61-.82-9.18,1.05-1.8,1.31-2.85,3.46-3.28,5.64-.44,2.19-.33,4.44-.21,6.66-.76-3.97-1.54-8-3.28-11.65-.53-1.13-1.18-2.24-2.17-2.99s-2.4-1.06-3.5-.49c-.9,.48-1.45,1.45-1.63,2.45-.18,.99-.05,2.02,.11,3.02,.17,1.06,.37,2.1,.61,3.15-.07-.17-.14-.34-.22-.51-1.16-2.53-2.91-4.85-5.27-6.33l-1.31-.15c-1.29-.98-3.28,.34-3.55,1.94s.56,3.16,1.36,4.57c1.71,3.02,3.46,6.09,6.01,8.45,.23,.21,.46,.42,.7,.61-8.46,3.12-16.3,7.89-22.98,13.95-1.3,1.16-2.55,2.38-3.74,3.65l-.02-.02c-.61,.65-1.62,.84-2.51,1.06-.26,.06-.52,.14-.78,.24l-.05-.39c-1.84-8.59,1.03-17.61,5.67-25.07,3.36-5.4,7.75-10.31,13.34-13.35,4.23-2.29,9.21-3.41,13.95-2.81,1.2,.24,2.4,.51,3.6,.81t0,0Z"/><path class="cls-14" d="M302.61,49.42l.16,.21c-.57,.43-1.2,.84-1.9,.81-1.13-.05-1.89-1.17-2.35-2.2-.76-1.71-1.24-3.53-1.94-5.27-2.17-5.41-6.54-9.91-11.88-12.25,1.92,.73,4.03,1.43,6,2.42,1.97,1,3.82,2.32,5.16,4.07,2.54,3.29,3.07,7.73,5.22,11.29,.16,.27,.35,.55,.61,.75,.26,.19,.62,.29,.92,.17Z"/><path class="cls-9" d="M287.72,45.56c-.12,.08-.26,.17-.26,.32,0,.16,.17,.26,.31,.33,.01,.01,.03,.01,.04,.01,.05,0,.07-.06,.07-.1,0-.18-.03-.36-.09-.54,.02,.01,.05,.02,.07,.03,.01,.07,.01,.15,.04,.21,.02,.06,.06,.11,.1,.16l.24,.3c.05-.05,.05-.13,0-.18,.1,.11,.2,.19,.32,.26-.26-.15-.34-.51-.59-.69-.03-.02-.07-.04-.11-.06v-.02c-.02-.08-.06-.16-.14-.19,.03,.06,.05,.12,.07,.18-.02-.01-.05-.02-.07-.02Zm6.64,5.5h-.01c-1.06-1.23-2.11-2.47-3.18-3.71-.27-.31-.58-.65-.99-.67-.54-.03-.93,.48-1.38,.79-.72,.51-1.79,.47-2.48-.09s-.94-1.6-.59-2.42c.35-.81,1.28-1.34,2.16-1.22-.83-1.45-2.21-2.58-3.79-3.1-.5-.17-1.04-.28-1.46-.6-.69-.51-.93-1.42-1.13-2.25,4.19,.63,8.22,3.17,10.41,6.86,1.16,1.98,1.81,4.21,2.44,6.41Z"/><path class="cls-3" d="M199.75,317.66c2.92,.95,5.82,1.93,8.72,2.93,4.33,1.5,8.64,3.05,12.94,4.65,6.53,2.42,13.03,4.96,19.47,7.62,11.32,4.64,22.5,9.64,33.51,14.97,1.98,.96,3.94,1.93,5.91,2.91,3.1,1.53,6.18,3.1,9.25,4.7,.16,.13,.31,.26,.46,.4l-.11,.13c-27.48-8.42-55.62-14.7-84.08-18.77-10.13-14.08-24.7-24.7-41.71-29.68l.09-.36c11.95,3.13,23.81,6.63,35.55,10.5Z"/><path class="cls-8" d="M280.3,350.74c-1.97-.98-3.93-1.95-5.91-2.91-4.61-43.08-12.02-89.1-22.41-132.19-1.93-8-3.96-15.9-6.1-23.66,.86-2.24,1.72-4.47,2.47-6.74,.28-.84,.55-1.69,.8-2.55l1.6,.25c2.19,8.42,4.27,16.87,6.26,25.35,10.96,46.88,18.75,94.51,23.29,142.45Z"/><path class="cls-5" d="M273.07,1.8c.71-.16,1.42-.3,2.13-.42-2.44,.65-4.74,1.97-6.68,3.62-2.91,2.49-5.13,5.67-7.26,8.85-3,4.49-5.9,9.09-7.86,14.13-1.96,5.03-2.93,10.56-1.96,15.88l-.13,.3c-.1-.04-.19-.08-.29-.12-.56-.24-1.14-.49-1.74-.46-.42,.01-.85,.19-1.11,.5-1.11-2-1.47-4.35-1.35-6.64,.14-2.43,.81-4.8,1.61-7.09,2.31-6.7,5.74-13.02,10.1-18.61,2.39-3.07,5.12-5.97,8.55-7.81,.7-.37,1.42-.7,2.16-.99,1.24-.44,2.5-.81,3.78-1.13,.02,0,.03,0,.05,0Z"/><path class="cls-3" d="M221.58,395.76c29.74,12.58,58.37,27.76,85.48,45.3-48.84,9.39-98.11,16.55-147.6,21.44,31.43-7.2,55.99-33.55,60.67-66.69l.54,.08c.3-.05,.61-.09,.91-.13Z"/><path class="cls-5" d="M263.01,117.92c-2.76,1.91-5.22,4.54-7.9,6.64-2.68,2.11-5.74,3.72-8.66,3.7l-.03-.27c.26-.03,.51-.08,.76-.16,1.23-.36,2.34-1.23,3.04-2.32,1.02-1.58,1.26-3.57,.99-5.44-.16-1.1-.53-2.24-1.28-3.06,1.81-1.15,3.61-2.32,5.42-3.47,.08,.11,.15,.21,.23,.32,.86,1.19,1.77,2.42,3.08,3.08,1.3,.65,2.77,.63,4.13,.34l.26,.62s-.02,.01-.04,.02Z"/><path class="cls-6" d="M234.15,165.5c-1.04,.47-1.54,1.75-1.5,2.91,.05,1.21,.54,2.35,.86,3.52,.65,2.39,.59,4.96-.17,7.31,2.18-.21,4.06-1.9,4.83-3.95,.76-2.06,.51-4.4-.36-6.41-.66-1.54-1.89-3.05-3.56-3.15l-.1-.23Zm-14.37-90.74l-.05,.04c-1.5,11.29-.93,22.83,1.56,34.17-.08,10.65-.15,21.31-.23,31.96,0,.28,0,.56,0,.84-1.33-.82-3.03-1.03-4.51-.52-1.49,.51-2.67,1.65-4.01,2.47-2.41,1.47-5.44,1.88-8.15,1.09,1.83,1.05,3.67,2.1,5.67,2.74,2.01,.64,4.21,.84,6.21,.16,2.28-.77,4.11-2.71,4.78-5.02-.01,3,.07,6,.65,8.95,.7,3.52,2.15,7.01,4.78,9.74,1.9,1.97,4.55,3.55,7.49,3.66,1.92,.08,3.81-.49,5.5-1.3,.94-.45,1.81-.99,2.62-1.59l.21,.3,.45-.21c-.2,.26-.32,.6-.33,.93-.02,.72,.36,1.4,.84,1.94,.48,.55,1.05,.99,1.53,1.54,1.53,1.73,1.89,4.41,.86,6.48,2.13-1.12,3.83-3.03,4.68-5.28,.2-.52,.34-1.07,.41-1.62l1.74,.24c-.72,5.49-1.76,10.92-3.33,16.22-.25,.86-.52,1.71-.8,2.55-.75,2.27-1.61,4.5-2.47,6.74-1.07,2.81-2.15,5.63-3.03,8.51-1.57,5.17-2.48,10.68-1.46,15.98,.17,.88,.54,1.89,1.24,2.34,1.39,1.21,1.24,3.51,.83,5.37-2.18,9.86-7.3,18.77-11.65,27.88-4.36,9.11-8.08,18.99-7.33,28.49,2.86,14.81,1.79,30.36-3.05,44.64l-.02,.05c-4.3-1.6-8.61-3.15-12.94-4.65l.07-.2c-10.79-72.21-14.77-148.83-11.74-221.77,.84-.16,1.69-.49,2.19-1.18,.39-.53,.52-1.21,.62-1.86,1.02-6.31,1.2-12.76,.52-19.12l.11-.1s-.05-.04-.06-.06l.2-.2c3.48,.33,7.18,.62,10.31-.94,1.51-.76,2.79-1.9,4.1-2.97,1.31-1.08,2.7-2.12,4.32-2.6,1.62-.49,3.53-.33,4.79,.79l.22,.26c-1.51,1.31-2.96,2.68-4.34,4.12Zm1.21,51.74c-1.87-1.53-4.47-2.08-6.79-1.45-3.1,.84-5.4,3.54-8.46,4.5,2.74,.84,5.57,1.7,8.43,1.47s5.81-1.8,6.8-4.5l.02-.02Zm3.34,36.95c.66-1.94,.38-4.27-1.01-5.78h-.21c-1.08-.58-2.5-.08-3.28,.86s-1.05,2.21-1.13,3.43-.01,2.46-.24,3.66c-.39,2.09-1.73,3.99-3.57,5.07,1.93-.71,3.87-1.45,5.58-2.58,1.71-1.14,3.2-2.72,3.86-4.66Z"/><path class="cls-5" d="M242.63,218.81c-.7-.45-1.07-1.46-1.24-2.34-1.02-5.3-.11-10.81,1.46-15.98,.88-2.88,1.96-5.7,3.03-8.51,2.14,7.76,4.17,15.66,6.1,23.66l-.12,.03c-.9,19.33-15.66,35.91-16.81,55.23-.66,11.26,3.38,22.19,5.36,33.3,1.66,9.36,1.86,18.98,.58,28.4l-.11,.26c-6.44-2.66-12.94-5.2-19.47-7.62l.02-.05c4.84-14.28,5.91-29.83,3.05-44.64-.75-9.5,2.97-19.38,7.33-28.49,4.35-9.11,9.47-18.02,11.65-27.88,.41-1.86,.56-4.16-.83-5.37Z"/><path class="cls-11" d="M250.36,163.96c.38,.69,.47,1.48,.38,2.27-.07,.55-.21,1.1-.41,1.62-.85,2.25-2.55,4.16-4.68,5.28,1.03-2.07,.67-4.75-.86-6.48-.48-.55-1.05-.99-1.53-1.54-.48-.54-.86-1.22-.84-1.94,.01-.33,.13-.67,.33-.93,1.67-.69,3.6-.73,5.3-.09,.93,.35,1.82,.93,2.31,1.81Z"/><path class="cls-6" d="M223.09,116.56c2.72,3.44,6.08,6.37,9.85,8.62,.83,.49,1.73,.99,2.19,1.85,.34,.63,.39,1.37,.44,2.08,.3,4.46,.79,9.02,2.73,13.04,1.37-1.78,2.06-4.02,2.32-6.25,.26-2.24,.11-4.5-.04-6.75,1.62-.54,3.29-.92,4.98-1.15,.29,.03,.58,.03,.86-.01l.03,.27c.9,.55,1.86,.93,2.83,1.15l-.06,.24c.77,5.33,1.53,15.89,.24,21.15-1.07,4.33-3.53,8.56-7.37,11.35-.81,.6-1.68,1.14-2.62,1.59-1.69,.81-3.58,1.38-5.5,1.3-2.94-.11-5.59-1.69-7.49-3.66-2.63-2.73-4.08-6.22-4.78-9.74-.58-2.95-.66-5.95-.65-8.95v-.36c.18-.06,.36-.12,.54-.19-.17-.14-.35-.26-.53-.37,0-.28,0-.56,0-.84,.08-10.65,.15-21.31,.23-31.96,.55,2.5,1.19,5,1.93,7.48l-.13,.11Z"/><path class="cls-11" d="M237.81,168.88c.87,2.01,1.12,4.35,.36,6.41-.77,2.05-2.65,3.74-4.83,3.95,.76-2.35,.82-4.92,.17-7.31-.32-1.17-.81-2.31-.86-3.52-.04-1.16,.46-2.44,1.5-2.91l.1,.23c1.67,.1,2.9,1.61,3.56,3.15Z"/><path class="cls-11" d="M223.32,157.67c1.39,1.51,1.67,3.84,1.01,5.78s-2.15,3.52-3.86,4.66c-1.71,1.13-3.65,1.87-5.58,2.58,1.84-1.08,3.18-2.98,3.57-5.07,.23-1.2,.16-2.44,.24-3.66s.35-2.49,1.13-3.43,2.2-1.44,3.28-.86h.21Z"/><path class="cls-11" d="M221.05,142.33v.36c-.67,2.31-2.5,4.25-4.78,5.02-2,.68-4.2,.48-6.21-.16-2-.64-3.84-1.69-5.67-2.74,2.71,.79,5.74,.38,8.15-1.09,1.34-.82,2.52-1.96,4.01-2.47,1.48-.51,3.18-.3,4.51,.52,0,.18,0,.37,0,.56Z"/><path class="cls-11" d="M220.99,126.5l-.02,.02c-.99,2.7-3.94,4.27-6.8,4.5s-5.69-.63-8.43-1.47c3.06-.96,5.36-3.66,8.46-4.5,2.32-.63,4.92-.08,6.79,1.45Z"/><path class="cls-3" d="M205.78,337.19s.04,.03,.06,.04c10.03,13.95,15.7,31.29,15.06,49.9-.1,2.94-.36,5.83-.77,8.68-4.68,33.14-29.24,59.49-60.67,66.69,0,.01-.02,.02-.04,.01-5.7,1.3-11.64,1.97-17.72,1.94-.75-.01-1.51-.02-2.27-.05-15.1-.52-29.06-5.33-40.79-13.24,4.13-.68,7.82-3.67,9.32-7.59,11.77,7.1,25.74,10.65,40.38,9.33,37.13-3.35,64.47-36.71,61.07-74.53-3.02-33.54-29.23-59.33-61.03-62.39,.73-3.71,1.49-7.42,2.27-11.12,4.62,.49,9.12,1.39,13.46,2.66,17.01,4.98,31.58,15.6,41.71,29.68-.01-.01-.03-.01-.04-.01Z"/><path class="cls-10" d="M132.24,394.03c-.27,2.42,2.97,5.59,2.97,5.59,0,0,4.25,2.55,6.68,2.98,4.52,.81,8.27,.91,12.45-.99,4.18-1.89,8.79-5.75,11.37-9.54,1.62-2.37,2.87-5.24,2.29-8.05-.23-1.09-.82-2.21-1.86-2.62-1.03-.41-2.47,.28-2.46,1.4-.53,3.63-2.13,7.03-4.51,9.82s-5.56,4.95-9.11,5.86c-2.27,.59-4.75,.65-6.9-.27-2.96-1.25-5.16-3.04-6.53-5.93,2.82-25.59,6.74-51.05,11.75-76.3,31.8,3.06,58.01,28.85,61.03,62.39,3.4,37.82-23.94,71.18-61.07,74.53-14.64,1.32-28.61-2.23-40.38-9.33-5.41-3.26-10.35-7.27-14.67-11.91-4.44-4.75-8.23-10.16-11.21-16.09-2.3-4.57-4.11-9.44-5.37-14.57-.84-3.41-1.44-6.92-1.76-10.53-.26-2.92-.34-5.82-.24-8.68,.18-5.73,1.07-11.31,2.58-16.63,7.48-26.39,30.22-46.65,58.73-49.21,2.89-.26,5.76-.33,8.59-.21-5.01,25.94-9.14,52.06-12.37,78.29Z"/><path class="cls-8" d="M208.54,320.39l-.07,.2c-2.9-1-5.8-1.98-8.72-2.93-7.18-58.02-10.49-117.66-9.66-176.56,.2-14.48,.65-28.92,1.35-43.27,1.67,.81,3.55,1.13,5.36,.79-3.03,72.94,.95,149.56,11.74,221.77Z"/><path class="cls-2" d="M191.42,77.95l.07,.17c-1.34,.59-2.22,1.94-2.6,3.35-.38,1.42-.33,2.91-.27,4.37,.08,1.66,.17,3.34,.65,4.93,.49,1.59,1.41,3.1,2.82,3.98,1.01,.62,2.33,.87,3.39,.34,1.53-.77,1.92-2.74,2.03-4.44,.22-3.21,.1-6.43-.35-9.61-.16-1.08-.4-2.25-1.21-2.98-.75-.68-1.85-.84-2.84-.66-.59,.1-1.15,.31-1.69,.55Zm.02,19.88c-.95-.46-1.83-1.07-2.58-1.81-2.06-2.04-3.21-4.89-3.47-7.78-.27-2.88,.3-5.8,1.28-8.53,.47-1.32,1.1-2.66,2.07-3.63,.32-.32,.67-.6,1.07-.83,1.63-.93,3.63-.77,5.49-.59,1.74,.17,3.66,.43,4.88,1.64,.01,.02,.03,.04,.06,.06l-.11,.1c.68,6.36,.5,12.81-.52,19.12-.1,.65-.23,1.33-.62,1.86-.5,.69-1.35,1.02-2.19,1.18-1.81,.34-3.69,.02-5.36-.79Z"/><path class="cls-2" d="M197.16,81.04c.45,3.18,.57,6.4,.35,9.61-.11,1.7-.5,3.67-2.03,4.44-1.06,.53-2.38,.28-3.39-.34-1.41-.88-2.33-2.39-2.82-3.98-.48-1.59-.57-3.27-.65-4.93-.06-1.46-.11-2.95,.27-4.37,.38-1.41,1.26-2.76,2.6-3.35l-.07-.17c.54-.24,1.1-.45,1.69-.55,.99-.18,2.09-.02,2.84,.66,.81,.73,1.05,1.9,1.21,2.98Z"/><path class="cls-5" d="M137.52,219.59h-.01c-3.25-3.56-6.68-7.24-11.22-8.87-2.98-1.08-5.48-1.44-8.32-2.07l.08-.37c-.49-2.68-1.43-5.27-2.76-7.64-.56-.99-1.18-1.95-1.78-2.92-.11-.19-.23-.38-.35-.58-.02-.03-.03-.06-.05-.09-.66-1.42-.55-3.16-.1-4.7,.52-1.79,1.43-3.45,1.86-5.26,.49-2.1,.34-4.29-.18-6.39l.22-.05c5.66-3.4,10.78-7.7,15.11-12.69l.03-.03c.62,.52,1.25,1.04,1.88,1.55,1.56,1.26,3.41,2.52,5.4,2.26,1.66-.22,3.03-1.5,3.8-2.99,.6-1.17,.9-2.48,1.13-3.79l.23,.04c4.49-14.01,11.31-27.27,20.1-39.07l7.66-14.77c1.8-9.32,.88-19.75-5.15-27.09-5.1-6.21-13.27-9.25-21.36-9.15v-.54c3.9-.96,7.33-3.24,10.78-5.29,3.46-2.06,7.21-3.96,11.23-4.04,3.52-.07,6.9,1.26,10.14,2.62,4.71,1.97,9.58,4.18,12.68,8.23l.17,.18c-.97,.97-1.6,2.31-2.07,3.63-.98,2.73-1.55,5.65-1.28,8.53,.26,2.89,1.41,5.74,3.47,7.78,.75,.74,1.63,1.35,2.58,1.81-.7,14.35-1.15,28.79-1.35,43.27h-.18c-6.74,27.93-33.85,60.58-50.12,84.27-2.71-1.03-5.43-2.02-8.15-2.99h0c.28-.01,.57-.01,.85,.01,.87,.06,1.74,.2,2.6,.11,.87-.08,1.76-.42,2.25-1.13,.36-.51,.43-1.23,.18-1.78Z"/><path class="cls-6" d="M155.05,231.43c-5.05-2.11-10.14-4.13-15.26-6.06,16.27-23.69,43.38-56.34,50.12-84.27h.18c-.83,58.9,2.48,118.54,9.66,176.56-11.74-3.87-23.6-7.37-35.55-10.5l-.09,.36c-4.34-1.27-8.84-2.17-13.46-2.66,2.83-13.39,5.96-26.71,9.4-39.95l.17-.3c.26,.16,.53,.28,.83,.35,1.38,.33,2.77-.43,3.98-1.18-.02-4.29-.06-8.58-.09-12.87-.11-.42-.23-.83-.36-1.25,4.2-11.67,8.41-23.34,11.62-35.32,.29-1.07,.53-2.34-.18-3.19-.96-1.16-3.14-.89-3.78-2.24-3.52,10.86-7.05,21.71-10.58,32.57l-.26,.13c-1.75-3.55-3.89-6.98-6.35-10.18Z"/><path class="cls-7" d="M176.02,211.15c.71,.85,.47,2.12,.18,3.19-3.21,11.98-7.42,23.65-11.62,35.32-.81-2.72-1.88-5.42-3.18-8.05l.26-.13c3.53-10.86,7.06-21.71,10.58-32.57,.64,1.35,2.82,1.08,3.78,2.24Z"/><path class="cls-6" d="M142.26,164.96c-.23,1.31-.53,2.62-1.13,3.79-.77,1.49-2.14,2.77-3.8,2.99-1.99,.26-3.84-1-5.4-2.26-.63-.51-1.26-1.03-1.88-1.55-3.93-3.34-7.65-6.92-11.83-9.93-4.83-3.49-10.47-6.22-16.43-6.29l-2.8-2.13c-3.22-1.57-6.85-2.29-10.43-2.07-1.25,.08-2.52,.27-3.75,.14-.22-.02-.43-.05-.65-.1-1.45-.29-2.88-1.29-3.12-2.75l-.07-.04c5.27-9.54,10.54-19.06,15.81-28.6,4.82-8.72,9.7-17.52,16.29-25.01,6.58-7.49,15.11-13.65,24.88-15.63,1.9-.39,3.85-.59,5.79-.6,8.09-.1,16.26,2.94,21.36,9.15,6.03,7.34,6.95,17.77,5.15,27.09l-7.66,14.77c-8.79,11.8-15.61,25.06-20.1,39.07l-.23-.04Z"/><path class="cls-7" d="M136.63,392.28c1.37,2.89,3.57,4.68,6.53,5.93,2.15,.92,4.63,.86,6.9,.27,3.55-.91,6.73-3.07,9.11-5.86s3.98-6.19,4.51-9.82c-.01-1.12,1.43-1.81,2.46-1.4,1.04,.41,1.63,1.53,1.86,2.62,.58,2.81-.67,5.68-2.29,8.05-2.58,3.79-7.19,7.65-11.37,9.54-4.18,1.9-7.93,1.8-12.45,.99-2.43-.43-6.68-2.98-6.68-2.98,0,0-3.24-3.17-2.97-5.59,3.23-26.23,7.36-52.35,12.37-78.29,1.27,.04,2.52,.12,3.77,.24-5.01,25.25-8.93,50.71-11.75,76.3Z"/><path class="cls-13" d="M155.95,256.22c-.6-2.01-1.22-4.02-2.27-5.82-1.03-1.78-2.44-3.3-3.86-4.77-1.93-2.02-3.92-3.99-5.97-5.9l-.09,.1c3.45,5.84,7.41,11.37,11.84,16.5l.35-.11Zm-.72,10.22c-.42,.45-.9,.83-1.47,1.06-1.21,.49-2.63,.17-3.7-.57-.51-.35-.95-.77-1.33-1.25-3.06,.36-6.34,.18-8.93-1.45v.02c-2.59,.56-5.33-.2-7.59-1.59-2.26-1.38-4.1-3.33-5.83-5.33-1.64-1.9-3.22-3.86-4.71-5.88-1.84-2.48-3.57-5.05-5.17-7.7h-.22c.12-.21,.21-.43,.26-.66,.22-.93-.32-2.05-1.25-2.25l-.06,.05c-.64-.71-1.23-1.46-1.69-2.29-.69-1.26-1.08-2.75-.76-4.15,.4-1.81,1.87-3.16,3.28-4.37,2.36-2.02,4.78-4,7.52-5.46,2.48-1.34,5.25-2.23,8.06-2.25h0c2.72,.98,5.44,1.97,8.15,3,5.12,1.93,10.21,3.95,15.26,6.06,2.46,3.2,4.6,6.63,6.35,10.18,1.3,2.63,2.37,5.33,3.18,8.05,.13,.42,.25,.83,.36,1.25,.03,4.29,.07,8.58,.09,12.87-1.21,.75-2.6,1.51-3.98,1.18-.3-.07-.57-.19-.83-.35-.77-.46-1.37-1.25-1.84-2.04-.05-.08-.09-.16-.14-.25l-.2,.11-1.62,2.43c-.37,.55-.75,1.1-1.19,1.58Z"/><path class="cls-7" d="M160.22,264.61l-.17,.3c-3.44,13.24-6.57,26.56-9.4,39.95-1.27-.14-2.55-.25-3.83-.32,2.59-12.75,5.39-25.45,8.41-38.1,.44-.48,.82-1.03,1.19-1.58l1.62-2.43,.2-.11c.05,.09,.09,.17,.14,.25,.47,.79,1.07,1.58,1.84,2.04Z"/><path class="cls-2" d="M155.95,256.22l-.35,.11c-4.43-5.13-8.39-10.66-11.84-16.5l.09-.1c2.05,1.91,4.04,3.88,5.97,5.9,1.42,1.47,2.83,2.99,3.86,4.77,1.05,1.8,1.67,3.81,2.27,5.82Z"/><path class="cls-6" d="M65.42,366.52c-.45,1.95-.82,3.93-1.11,5.93l-.13-.02c-2.32-.22-4.62-.65-6.86-1.28-.47-1.38-1.17-2.69-1.99-3.89l-.11,.04c-.29-.77-.64-1.52-1.13-2.17-.68-.9-1.7-1.6-2.83-1.62-1.02-.01-1.98,.53-3,.59-2.27,.14-3.9-2-5.77-3.31l.03-.04c-.02-3.94-.05-7.88-.07-11.82-6.96,6.41-13.83,13.55-20.33,21.01-5.13-2.28-10.27-4.57-15.41-6.85-.75-.34-1.62-.82-1.69-1.64-.05-.58,.33-1.1,.69-1.56,2.1-2.68,4.21-5.37,6.31-8.05-2.52,.01-6-.24-9.48-.5-.54-.03-1.12-.09-1.55-.43-1.26-1.03,.14-2.99,1.44-3.97,15.64-11.75,28.07-27.72,35.65-45.75l.22-.51c6.04,2.57,12.56,4.04,19.1,4.7,6.44,.64,13.15,.49,19.09-2.07,6.41-2.77,11.34-8.07,16.03-13.26,10.81-11.97,21.54-24.25,29.04-38.52l.11-.08c1.49,2.02,3.07,3.98,4.71,5.88,1.73,2,3.57,3.95,5.83,5.33,2.26,1.39,5,2.15,7.58,1.59v-.02c2.6,1.63,5.88,1.81,8.94,1.45,.38,.48,.82,.9,1.33,1.25,1.07,.74,2.49,1.06,3.7,.57,.57-.23,1.05-.61,1.47-1.06-3.02,12.65-5.82,25.35-8.41,38.1-.63-.04-1.26-.07-1.89-.09-38.35-1.32-71.24,25.43-79.51,62.07Z"/><path class="cls-7" d="M150.65,304.86c-.78,3.7-1.54,7.41-2.27,11.12-1.25-.12-2.5-.2-3.77-.24,.72-3.74,1.46-7.48,2.21-11.2,1.28,.07,2.56,.18,3.83,.32Z"/><path class="cls-7" d="M144.93,304.45c.63,.02,1.26,.05,1.89,.09-.75,3.72-1.49,7.46-2.21,11.2-2.83-.12-5.7-.05-8.59,.21-28.51,2.56-51.25,22.82-58.73,49.21l-.13-.04c-3.95-.8-8.47-.26-11.74,1.4,8.27-36.64,41.16-63.39,79.51-62.07Z"/><path class="cls-5" d="M117.97,208.65c2.84,.63,5.34,.99,8.32,2.07,4.54,1.63,7.97,5.31,11.22,8.87h.01c.25,.55,.18,1.27-.18,1.78-.49,.71-1.38,1.05-2.25,1.13-.86,.09-1.73-.05-2.6-.11-.28-.02-.57-.02-.85-.02-2.81,.02-5.58,.91-8.06,2.25-2.74,1.46-5.16,3.44-7.52,5.46-1.41,1.21-2.88,2.56-3.28,4.37-.32,1.4,.07,2.89,.76,4.15,.46,.83,1.05,1.58,1.69,2.29l.06-.05c.93,.2,1.47,1.32,1.25,2.25-.05,.23-.14,.45-.26,.65-.35,.61-.97,1.08-1.63,1.35-.89,.36-1.86,.43-2.81,.5-2.42,.18-4.93,.34-7.21-.47-3.12-1.1-5.33-3.83-7.22-6.54-1.88-2.71-3.68-5.62-6.43-7.44-2.86-1.89-6.41-2.37-9.55-3.73-3.74-1.6-6.85-4.42-9.37-7.61-2.12-2.7-3.86-5.68-5.53-8.69-.06-.11-.12-.21-.17-.31-.67-1.22-1.29-2.47-1.86-3.74-3.35-7.36-5.18-15.38-6.98-23.29-.2-.86-1.18-1.51-1.03-2.39,.32-1.96,2.23-3.2,4.18-3.75,3.81-4.31,5.71-9.93,8.63-14.89,3.69-6.25,9.11-11.46,15.49-14.91l.02-.18c1.23,.13,2.5-.06,3.75-.14,3.58-.22,7.21,.5,10.43,2.07l2.8,2.13c5.96,.07,11.6,2.8,16.43,6.29,4.18,3.01,7.9,6.59,11.83,9.93l-.03,.03c-4.33,4.99-9.45,9.29-15.11,12.69l-.22,.05c.52,2.1,.67,4.29,.18,6.39-.43,1.81-1.34,3.47-1.86,5.26-.45,1.54-.56,3.28,.1,4.7,.02,.03,.03,.06,.05,.09,.1,.2,.22,.4,.35,.58,.6,.97,1.22,1.93,1.78,2.92,1.33,2.37,2.27,4.96,2.76,7.64l-.08,.37Z"/><path class="cls-5" d="M84.65,439.14s-.08-.08-.11-.12c1.7-3.39,4.85-6.03,8.49-7.11l.26-.25c4.32,4.64,9.26,8.65,14.67,11.91-1.5,3.92-5.19,6.91-9.32,7.59-2.11-1.41-4.14-2.93-6.09-4.54-.89-.73-1.77-1.49-2.63-2.26-1.84-1.66-3.6-3.4-5.27-5.22Z"/><path class="cls-4" d="M90.61,459.25c.7,.4,1.22,1.1,1.39,1.9,.18,.88-.09,1.84-.7,2.5-.63,.69-1.56,1.04-2.19,1.72-.95,1.05-1.06,2.75-2.19,3.62-.94,.73-2.31,.62-3.42,.17-1.11-.46-2.07-1.21-3.16-1.72-3.12-1.46-6.87-.74-10.13-1.88-.26-.09-.51-.19-.76-.3-1.74-.79-3.23-2.13-4.19-3.78-.15-.25-.3-.53-.28-.83,.03-.61,.66-.98,1.16-1.33,1.25-.89,2.04-2.39,2.07-3.93,.02-1.11-.35-2.21-.36-3.33-.02-2.52,1.78-4.79,4.02-5.95,2-1.04,4.31-1.32,6.58-1.34v-.12c1.42-.53,3.05-.24,4.35,.53,1.23,.71,2.2,1.8,2.98,2.98,.06,.07,.11,.15,.16,.23,.46,.72,.89,1.48,1.53,2.04,.15,.13,.32,.25,.49,.35,.8,.5,1.76,.76,2.64,1.13,1.06,.44,2.08,1.08,2.74,2.02,.67,.94,.93,2.21,.48,3.27-.53,1.24-1.85,1.89-3.21,2.05Z"/><path class="cls-7" d="M93.29,431.66l-.26,.25c-3.64,1.08-6.79,3.72-8.49,7.11-5.06-5.51-9.36-11.74-12.73-18.52l.19-.1c3.85-.02,7.65-1.84,10.08-4.83,2.98,5.93,6.77,11.34,11.21,16.09Z"/><path class="cls-4" d="M89.72,444.58l.2-.22c.86,.77,1.74,1.53,2.63,2.26l-.03,.04c-1.52,1.19-2.98,2.45-4.37,3.79l-.19,.33c-.17-.1-.34-.22-.49-.35-.64-.56-1.07-1.32-1.53-2.04-.05-.08-.1-.16-.16-.23,1.05-1.45,2.4-2.68,3.94-3.58Z"/><path class="cls-5" d="M77.16,365.12l.13,.04c-1.51,5.32-2.4,10.9-2.58,16.63h-.31c-2.58,.77-6.65,1.24-10.77,1.25h-.21c.01-.44,.03-.88,.04-1.32,.06-1.72,.17-3.42,.34-5.11,.13-1.4,.3-2.78,.51-4.16,.29-2,.66-3.98,1.11-5.93,3.27-1.66,7.79-2.2,11.74-1.4Z"/><path class="cls-7" d="M76.71,401h-.04c-3.75-1.15-8.07-.29-11.09,2.21-1.53-6.47-2.28-13.23-2.16-20.18h.21c4.12,0,8.19-.47,10.77-1.25h.31c-.1,2.87-.02,5.77,.24,8.69,.32,3.61,.92,7.12,1.76,10.53Z"/><path class="cls-4" d="M64.18,372.43l.13,.02c-.21,1.38-.38,2.76-.51,4.16l-.41-.04c-1.33-.07-2.66-.13-3.99-.19-.54-.02-1.09-.06-1.58-.24l.06-.42c.17-1.55-.06-3.1-.56-4.57,2.24,.63,4.54,1.06,6.86,1.28Z"/><path class="cls-4" d="M57.32,371.15c.5,1.47,.73,3.02,.56,4.57l-.06,.42c-.47,2.84-2.55,5.5-5.37,6.01-2.51,.45-5.3-.73-7.53,.5-1.1,.62-1.94,1.78-3.19,1.97-1.56,.24-2.84-1.11-3.82-2.34l-.24-.3c-.86-1.09-1.71-2.2-2.26-3.46-.61-1.39-.84-3-.29-4.41,.56-1.45,1.85-2.48,2.73-3.76,1.15-1.69,1.57-3.87,1.12-5.87-.3-1.36-.9-3,.1-3.97,.88-.85,2.36-.44,3.37,.25,.02,.01,.03,.02,.05,.03,1.87,1.31,3.5,3.45,5.77,3.31,1.02-.06,1.98-.6,3-.59,1.13,.02,2.15,.72,2.83,1.62,.49,.65,.84,1.4,1.13,2.17l.11-.04c.82,1.2,1.52,2.51,1.99,3.89Z"/></g><g><path class="cls-1" d="M302.36,49.24c.09,.06,.17,.12,.25,.18-.3,.12-.66,.02-.92-.17-.26-.2-.45-.48-.61-.75-2.15-3.56-2.68-8-5.22-11.29-1.34-1.75-3.19-3.07-5.16-4.07-1.97-.99-4.08-1.69-6-2.42,5.34,2.34,9.71,6.84,11.88,12.25,.7,1.74,1.18,3.56,1.94,5.27,.46,1.03,1.22,2.15,2.35,2.2,.7,.03,1.33-.38,1.9-.81,.09-.07,.18-.14,.26-.21"/><path class="cls-1" d="M302.78,56.32c2.89-.03,5.6,1.63,7.45,3.85s2.96,4.96,3.91,7.69c.47,1.37,.98,2.84,2.17,3.65,.09,.06,.18,.12,.27,.16,.21,.12,.43,.21,.66,.27,.21,.07,.43,.1,.65,.12"/><path class="cls-1" d="M301.85,56.2c.17,.03,.34,.07,.51,.11,2.27,.58,4.11,2.38,5.41,4.37,1.38,2.14,2.28,4.56,3.57,6.76,1.19,2.06,2.83,4,5,4.88,.16,.07,.32,.13,.49,.18,.14-.18,.27-.36,.4-.54"/><path class="cls-1" d="M294.36,51.06c-.63-2.2-1.28-4.43-2.44-6.41-2.19-3.69-6.22-6.23-10.41-6.86,.2,.83,.44,1.74,1.13,2.25,.42,.32,.96,.43,1.46,.6,1.58,.52,2.96,1.65,3.79,3.1-.88-.12-1.81,.41-2.16,1.22-.35,.82-.1,1.86,.59,2.42s1.76,.6,2.48,.09c.45-.31,.84-.82,1.38-.79,.41,.02,.72,.36,.99,.67,1.07,1.24,2.12,2.48,3.18,3.72,.02,.02,.04,.03,.05,.05"/><path class="cls-1" d="M307.16,68.51c-.58-.56-1.54-.71-2.24-.29-.87,.51-1.19,1.76-.72,2.65,.46,.9,1.61,1.36,2.58,1.09,.32-.09,.64-.25,.97-.23,.52,.04,.89,.49,1.2,.9,.87,1.17,1.72,2.33,2.59,3.5,.07,.1,.15,.2,.22,.3"/><path class="cls-1" d="M307.16,68.51c.13,.15,.24,.31,.35,.47-.09-.18-.21-.34-.35-.47Z"/><path class="cls-1" d="M311.92,76.73c-.14-.2-.27-.4-.38-.6-1.47-2.49-1.67-5.61-3.03-8.19-1.36-2.59-3.93-4.5-6.79-5.05-.38-.08-.78-.13-1.17-.16,.03-.21,.07-.43,.1-.64,.36,.26,.72,.52,1.07,.8,2.06,1.61,3.9,3.5,5.44,5.62"/><path class="cls-1" d="M314.13,43.17c3.28,2.13,5.29,5.87,5.93,9.73,.65,3.86,.05,7.83-1.02,11.59-.16,.58-.34,1.15-.52,1.72-.59,1.84-1.27,3.65-1.94,5.46-.08,.22-.16,.43-.24,.65-.39,1.08-.79,2.16-1.16,3.25-.43,1.24-.83,2.5-1.19,3.76-1.28,4.37-2.18,8.84-2.72,13.36-.08,.67-.15,1.38,.17,1.97,.01,.03,.03,.05,.04,.07,.47,.76,1.49,1.03,2.36,.88,.91-.15,1.7-.68,2.47-1.19"/><path class="cls-1" d="M313.79,77.96c.28,.39,.26,.87,.11,1.34-.11,.34-.3,.68-.49,.97-1.44,2.23-3.35,4.12-5.24,5.99-.86,.85-1.73,1.7-2.59,2.55"/><path class="cls-1" d="M303.39,93.56c1.75,.27,3.49,.53,5.24,.8,.95,.14,1.9,.29,2.85,.37,.89,.07,1.79,.09,2.68,0,2.77-.3,5.32-1.64,7.68-3.12,7.24-4.56,13.42-10.59,19.4-16.73,.2-.2,.4-.4,.59-.6"/><path class="cls-1" d="M293.81,1.99c6.3,1.56,12.44,3.75,18.32,6.51,10.92,5.14,20.9,12.25,29.19,20.94,4.09,7.67,3.52,16.89,2.84,25.56-.53,6.69-1.06,13.43-2.92,19.87-.04,.15-.08,.31-.13,.46"/><path class="cls-1" d="M289,.93c.4,.08,.8,.16,1.2,.25,1.2,.24,2.4,.51,3.6,.81"/><path class="cls-1" d="M317.49,65.39c.24,.24,.48,.48,.73,.72-1.4-10.28-6.35-19.85-12.87-27.92-2.44-3.02-5.13-5.89-8.33-8.1-3.15-2.18-6.77-3.72-9.7-6.17-.24-.19-.47-.4-.7-.61-2.55-2.36-4.3-5.43-6.01-8.45-.8-1.41-1.63-2.97-1.36-4.57s2.26-2.92,3.55-1.94"/><path class="cls-1" d="M273.07,1.8c5.19-1.28,10.62-1.63,15.94-.97,1.26,.15,2.52,.36,3.76,.63"/><path class="cls-1" d="M241.88,48.23c-1.81-1.84-1.97-4.71-1.79-7.29,.87-12.41,7.36-24.31,17.32-31.78,3.58-2.69,7.59-4.78,11.83-6.22,1.24-.44,2.5-.81,3.78-1.13"/><path class="cls-1" d="M248.37,44.45c-.07-.12-.15-.24-.2-.37-1.11-2-1.47-4.35-1.35-6.64,.14-2.43,.81-4.8,1.61-7.09,2.31-6.7,5.74-13.02,10.1-18.61,2.39-3.07,5.12-5.97,8.55-7.81,.7-.37,1.42-.7,2.16-.99,1.22-.47,2.49-.84,3.78-1.13,.02,0,.03,0,.05,0,.71-.16,1.42-.3,2.13-.42,.87-.15,1.75-.29,2.62-.41,.5-.07,.99-.13,1.49-.2"/><path class="cls-1" d="M251.44,43.86c-.97-5.32,0-10.85,1.96-15.88,1.96-5.04,4.86-9.64,7.86-14.13,2.13-3.18,4.35-6.36,7.26-8.85,1.94-1.65,4.24-2.97,6.68-3.62,.86-.23,1.73-.37,2.62-.41,.38-.03,.77-.03,1.16-.01"/><path class="cls-1" d="M257.24,42.41c-1.84-8.59,1.03-17.61,5.67-25.07,3.36-5.4,7.75-10.31,13.34-13.35,4.23-2.29,9.21-3.41,13.95-2.81,1.22,.14,2.43,.41,3.6,.81t0,0c.29,.09,.57,.19,.85,.3"/><path class="cls-1" d="M289.6,15.34c-.24-1.05-.44-2.09-.61-3.15-.16-1-.29-2.03-.11-3.02,.18-1,.73-1.97,1.63-2.45,1.1-.57,2.51-.26,3.5,.49s1.64,1.86,2.17,2.99c1.74,3.65,2.52,7.68,3.28,11.65-.12-2.22-.23-4.47,.21-6.66,.43-2.18,1.48-4.33,3.28-5.64,2.57-1.87,6.01-1.7,9.18-1.05l1.08,.24"/><path class="cls-1" d="M289.6,15.34c1.02,2.39,1.57,4.95,1.95,7.52-.7-2.49-1.4-4.99-1.95-7.52Z"/><path class="cls-1" d="M284.11,8.5c2.36,1.48,4.11,3.8,5.27,6.33,.08,.17,.15,.34,.22,.51"/><path class="cls-1" d="M310.68,11.43c-1.03-.01-1.9,.73-2.59,1.5-2.44,2.72-3.8,6.27-4.47,9.87-.15,.78-.27,1.59-.06,2.35,.21,.77,.83,1.47,1.62,1.54,.76,.07,1.43-.43,2.02-.92,1.61-1.33,3.19-2.73,4.46-4.38,1.28-1.66,2.24-3.6,2.48-5.68,.14-1.18,.02-2.46-.72-3.4-.63-.8-1.81-1.22-2.73-.85-.15,.05-.29,.13-.42,.23"/><path class="cls-1" d="M320.45,22.2c.14-.09,.29-.17,.44-.25"/><path class="cls-1" d="M320.45,22.2c.92-.78,2.19-1.16,3.39-1.02,1.65,.19,3.13,1.3,3.92,2.76,.45,.82,.68,1.8,.42,2.7-.27,.94-1.04,1.65-1.82,2.26-2.91,2.31-6.27,4.01-9.72,5.4-.55,.22-1.12,.43-1.71,.47-.6,.04-1.23-.12-1.63-.56-.41-.44-.52-1.1-.42-1.69,.09-.59,.36-1.14,.63-1.67,.89-1.75,1.83-3.48,3.01-5.04,1.09-1.42,2.39-2.7,3.93-3.61Z"/><path class="cls-1" d="M319.58,23.21c.23-.39,.53-.73,.87-1.01"/><path class="cls-1" d="M333.53,31.53s.09-.01,.14-.01"/><path class="cls-1" d="M333.53,31.53c1.21,.1,2.4,.75,3.14,1.74,1.09,1.46,1.25,3.5,.64,5.21-.62,1.72-1.93,3.14-3.46,4.13s-3.29,1.59-5.05,2.04c-2.31,.59-4.8,.93-7.04,.14-.66-.23-1.36-.67-1.42-1.36-.04-.44,.21-.86,.44-1.24,1.55-2.47,3.11-4.96,5.2-6.98,2.06-2,4.7-3.52,7.55-3.68Z"/><path class="cls-1" d="M331.8,31.77c.55-.22,1.14-.3,1.73-.24"/><path class="cls-1" d="M324.43,52.79s.02,.01,.02,.02"/><path class="cls-1" d="M324.43,52.79c2.07-1.49,4.21-2.89,6.51-3.98,1.69-.8,3.52-1.44,5.38-1.3,1.95,.15,3.85,1.24,4.79,2.96,.93,1.72,.76,4.03-.57,5.47s-3.44,1.8-5.39,1.87c-1.82,.07-3.65-.05-5.45-.35-1.2-.2-2.4-.49-3.47-1.06s-2.01-1.45-2.46-2.58c-.12-.28-.2-.6-.06-.87,.13-.26,.54-.38,.72-.16Z"/><path class="cls-1" d="M323.76,53.27c.22-.16,.44-.32,.67-.48"/><path class="cls-1" d="M322.64,65.01v-.02c0-.33,.24-.62,.53-.77,.3-.15,.65-.18,.99-.21,2.39-.15,4.82-.06,7.12,.63,2.29,.69,4.45,2.02,5.83,3.98,.5,.7,.9,1.5,1.03,2.35,.13,.86-.03,1.78-.56,2.47-.64,.82-1.72,1.2-2.76,1.21-1.96,.02-3.71-1.11-5.33-2.21-1.5-1.02-3-2.07-4.29-3.35-1.16-1.15-2.15-2.52-2.69-4.06-.07-.17-.12-.35-.17-.52"/><path class="cls-1" d="M320.42,74.2c-.01,.08-.01,.17-.02,.25-.1,1.47-.18,2.94,.12,4.38,.31,1.51,1.12,2.99,2.46,3.77,.78,.45,1.75,.64,2.59,.3,.89-.36,1.5-1.28,1.59-2.24,.1-.96-.27-1.94-.88-2.68-.81-.99-1.99-1.6-3.12-2.19-.87-.44-1.74-.88-2.61-1.33"/><path class="cls-1" d="M229.57,69.08c.1-.06,.19-.12,.28-.18,2.19-1.5,4.23-3.21,6.09-5.1l.16-.16"/><path class="cls-1" d="M229.15,69.37c.13-.09,.26-.17,.39-.27"/><path class="cls-1" d="M235.65,64.32c.07-.19,.16-.36,.29-.52,.25-.33,.62-.58,1.03-.72,.34-.11,.71-.14,1.06-.06"/><path class="cls-1" d="M306.47,88.08c-.3,.24-.59,.49-.89,.73l-.03,.03c-1.85,1.52-3.71,3.04-5.56,4.56-.43,.35-.88,.71-1.39,.88-.15,.05-.3,.09-.46,.1"/><path class="cls-1" d="M230.9,65.42s-.08,.05-.12,.09c-2.32,1.57-4.55,3.28-6.66,5.13-1.51,1.31-2.96,2.68-4.34,4.12,0-.24,.01-.49,.02-.73"/><path class="cls-1" d="M219.73,74.8c-1.5,11.29-.93,22.83,1.56,34.17,.55,2.5,1.19,5,1.93,7.48,3.98,1.69,8.49,2.14,12.73,1.26,4.24-.87,8.2-3.08,11.18-6.22"/><path class="cls-1" d="M230.51,80.57c-.09,3.51-.17,7.11,1,10.43,.93,2.64,2.61,4.96,4.31,7.19,1.31,1.71,2.65,3.41,4.03,5.07,2.29,2.77,4.69,5.46,7.22,8.02,.02,.03,.04,.06,.06,.1"/><path class="cls-1" d="M263.01,117.92c-2.76,1.91-5.22,4.54-7.9,6.64-2.68,2.11-5.74,3.72-8.66,3.7,.9,.55,1.86,.93,2.83,1.15,1.97,.45,4.02,.24,5.9-.64,1.43-.68,2.76-1.74,3.89-3.09,1.11-1.3,2.03-2.87,2.71-4.63,.47-1.23,.9-2.64,1.82-3.25l-.87,.51c.18-.17,.36-.34,.53-.5l-.21,.09s-.02,.01-.04,.02c-.17,.07-.34,.14-.52,.21"/><path class="cls-1" d="M249.69,116.76c.09,.08,.17,.16,.24,.25,.75,.82,1.12,1.96,1.28,3.06,.27,1.87,.03,3.86-.99,5.44-.7,1.09-1.81,1.96-3.04,2.32-.25,.08-.5,.13-.76,.16-.28,.04-.57,.04-.86,.01-.03,.01-.06,0-.09,0"/><path class="cls-1" d="M255.62,113.36l-.27,.18c-1.81,1.15-3.61,2.32-5.42,3.47-.02,.02-.05,.04-.07,.05"/><path class="cls-1" d="M221.3,107.09c0,.63-.01,1.25-.01,1.88-.08,10.65-.15,21.31-.23,31.96,0,.28,0,.56,0,.84,0,.18,0,.37,0,.56v.36c-.01,3,.07,6,.65,8.95,.7,3.52,2.15,7.01,4.78,9.74,1.9,1.97,4.55,3.55,7.49,3.66,1.92,.08,3.81-.49,5.5-1.3,.94-.45,1.81-.99,2.62-1.59,3.84-2.79,6.3-7.02,7.37-11.35,1.29-5.26,.53-15.82-.24-21.15"/><path class="cls-1" d="M200.41,76.56c-.06-.07-.12-.14-.17-.2-.03-.02-.05-.04-.06-.06-1.22-1.21-3.14-1.47-4.88-1.64-1.86-.18-3.86-.34-5.49,.59-.4,.23-.75,.51-1.07,.83-.97,.97-1.6,2.31-2.07,3.63-.98,2.73-1.55,5.65-1.28,8.53,.26,2.89,1.41,5.74,3.47,7.78,.75,.74,1.63,1.35,2.58,1.81,1.67,.81,3.55,1.13,5.36,.79,.84-.16,1.69-.49,2.19-1.18,.39-.53,.52-1.21,.62-1.86,1.02-6.31,1.2-12.76,.52-19.12"/><path class="cls-1" d="M190.32,78.5c.36-.19,.73-.38,1.1-.55,.54-.24,1.1-.45,1.69-.55,.99-.18,2.09-.02,2.84,.66,.81,.73,1.05,1.9,1.21,2.98,.45,3.18,.57,6.4,.35,9.61-.11,1.7-.5,3.67-2.03,4.44-1.06,.53-2.38,.28-3.39-.34-1.41-.88-2.33-2.39-2.82-3.98-.48-1.59-.57-3.27-.65-4.93-.06-1.46-.11-2.95,.27-4.37,.38-1.41,1.26-2.76,2.6-3.35"/><path class="cls-1" d="M200.38,76.1c3.48,.33,7.18,.62,10.31-.94,1.51-.76,2.79-1.9,4.1-2.97,1.31-1.08,2.7-2.12,4.32-2.6,1.62-.49,3.53-.33,4.79,.79"/><path class="cls-1" d="M188.57,75.9c-3.1-4.05-7.97-6.26-12.68-8.23-3.24-1.36-6.62-2.69-10.14-2.62-4.02,.08-7.77,1.98-11.23,4.04-3.45,2.05-6.88,4.33-10.79,5.29"/><path class="cls-1" d="M199.78,317.93l-.03-.27c-7.18-58.02-10.49-117.66-9.66-176.56,.2-14.48,.65-28.92,1.35-43.27,.01-.18,.02-.37,.03-.55"/><path class="cls-1" d="M208.54,320.39c-10.79-72.21-14.77-148.83-11.74-221.77"/><path class="cls-1" d="M245.71,191.34c.06,.21,.12,.43,.17,.64,2.14,7.76,4.17,15.66,6.1,23.66,10.39,43.09,17.8,89.11,22.41,132.19"/><path class="cls-1" d="M250.75,182.94c2.19,8.42,4.27,16.87,6.26,25.35,10.96,46.88,18.75,94.51,23.29,142.45"/><path class="cls-1" d="M164.16,307.15s.03,.01,.04,.01c11.95,3.13,23.81,6.63,35.55,10.5,2.92,.95,5.82,1.93,8.72,2.93,4.33,1.5,8.64,3.05,12.94,4.65,6.53,2.42,13.03,4.96,19.47,7.62,11.32,4.64,22.5,9.64,33.51,14.97,1.98,.96,3.94,1.93,5.91,2.91,3.1,1.53,6.18,3.1,9.25,4.7,.16,.08,.31,.16,.47,.24"/><path class="cls-1" d="M221.12,126.6s-.08-.07-.13-.1c-1.87-1.53-4.47-2.08-6.79-1.45-3.1,.84-5.4,3.54-8.46,4.5,2.74,.84,5.57,1.7,8.43,1.47s5.81-1.8,6.8-4.5"/><path class="cls-1" d="M159.42,462.51c-5.7,1.3-11.64,1.97-17.72,1.94-.75-.01-1.51-.02-2.27-.05-15.1-.52-29.06-5.33-40.79-13.24-2.11-1.41-4.14-2.93-6.09-4.54-.89-.73-1.77-1.49-2.63-2.26-1.84-1.66-3.6-3.4-5.27-5.22-.04-.04-.08-.08-.11-.12-5.06-5.51-9.36-11.74-12.73-18.52-.9-1.82-1.74-3.67-2.5-5.56-.42-1.02-.81-2.05-1.18-3.09-1.01-2.81-1.87-5.7-2.55-8.64-1.53-6.47-2.28-13.23-2.16-20.18,.01-.43,.03-.87,.04-1.31,.06-1.72,.17-3.42,.34-5.11,.13-1.4,.3-2.78,.51-4.16,.29-2,.66-3.98,1.11-5.93,8.27-36.64,41.16-63.39,79.51-62.07,.63,.02,1.26,.05,1.89,.09,1.28,.07,2.56,.18,3.83,.32,4.62,.49,9.12,1.39,13.46,2.66,17.01,4.98,31.58,15.6,41.71,29.68,.01,.01,.02,.02,.02,.03,10.03,13.95,15.7,31.29,15.06,49.9-.1,2.94-.36,5.83-.77,8.68-4.68,33.14-29.24,59.49-60.67,66.69"/><path class="cls-1" d="M65.47,403.3s.07-.06,.11-.09c3.02-2.5,7.34-3.36,11.09-2.2"/><path class="cls-1" d="M64.97,366.75c.15-.08,.3-.16,.45-.23,3.27-1.66,7.79-2.2,11.74-1.4"/><path class="cls-1" d="M72,420.4c3.85-.02,7.65-1.84,10.08-4.83,.02-.02,.03-.04,.05-.06"/><path class="cls-1" d="M63.63,383.04c4.12-.01,8.19-.48,10.77-1.26"/><path class="cls-1" d="M62.32,409.01c-1.04-.96-2.1-1.92-3.35-2.59-1.26-.67-2.76-.99-4.12-.58-1.37,.41-2.52,1.68-2.49,3.1,.01,.84,.41,1.73,.05,2.49-.26,.54-.84,.85-1.43,.96s-1.19,.04-1.78,.02c-1.93-.09-3.9,.24-5.58,1.18-1.69,.94-3.05,2.52-3.51,4.39-.47,1.87,.07,4,1.51,5.28,1.39,1.23,3.61,1.48,5.16,.49,.06-.05,.12-.09,.18-.13"/><path class="cls-1" d="M43.82,420.97c1.27,.28,2.38,1.23,2.85,2.45,.04,.11,.08,.22,.11,.33,.34,1.14,.25,2.39,.71,3.48,.46,1.11,1.43,1.95,2.52,2.44,1.1,.49,2.31,.66,3.51,.73,1.38,.07,2.84-.02,4.05-.71,1.53-.88,2.51-2.65,4.2-3.17,1.73-.54,3.91,.37,5.28-.83,.63-.55,.89-1.43,.87-2.26,0-.83-.26-1.64-.51-2.44-.48-1.49-.96-2.99-1.42-4.49-.25-.76-.49-1.52-.73-2.28-.13-.4-.26-.81-.41-1.22-.54-1.54-1.26-3.05-2.51-3.97t-.02-.02c-.16-.13-.33-.24-.51-.34"/><path class="cls-1" d="M64.97,412.96c1-.41,2.02-.77,3.05-1.07"/><path class="cls-1" d="M66.19,416.44c.86-.61,1.82-1.07,2.82-1.36"/><path class="cls-1" d="M141.7,465.03c17.34,1.22,34.71,2.06,52.08,2.49,31.57,.8,63.16,.3,94.67-1.49,1.07-.06,2.15-.13,3.21-.19,.92-.05,1.84-.11,2.76-.17,1.24-.08,2.48-.15,3.72-.24,1.95-.12,3.9-.25,5.85-.4,1.06-.07,2.12-.14,3.18-.22"/><path class="cls-1" d="M289.55,355.44c.16,.13,.31,.26,.46,.4,13.57,11.51,21.66,28.79,23.75,46.58,.36,2.94,.54,5.9,.56,8.84,0,.84-.01,1.68-.04,2.52-.09,3.2-.41,6.38-.95,9.53-.97,5.73-2.65,11.33-4.98,16.64-.21,.5-.44,1-.67,1.49-3.59,7.74-8.58,14.82-14.76,20.7-1.43,1.36-2.92,2.66-4.47,3.88"/><path class="cls-1" d="M142.1,464.14c5.78-.51,11.55-1.05,17.32-1.63,.02,.01,.03,0,.04-.01,49.49-4.89,98.76-12.05,147.6-21.44l.3-.06"/><path class="cls-1" d="M220.9,395.47c.23,.1,.45,.19,.68,.29,29.74,12.58,58.37,27.76,85.48,45.3,.18,.11,.35,.23,.53,.34"/><path class="cls-1" d="M204.1,336.18c.56,.34,1.12,.68,1.68,1.01,.02,.01,.04,.03,.06,.04,35.17,21.21,70.32,42.43,105.19,64.18,.37,.26,.74,.52,1.11,.79,.39,.27,.78,.55,1.18,.83"/><path class="cls-1" d="M220.67,395.89c.3-.05,.61-.09,.91-.13,30.06-4.41,60.63,.95,90.56,6.44,.46,.08,.92,.17,1.38,.25"/><path class="cls-1" d="M204.67,337.03c.37,.05,.74,.1,1.11,.16,0,0,.03,0,.04,.01,28.46,4.07,56.6,10.35,84.08,18.77"/><path class="cls-1" d="M259.15,124.23c-.03,.48-.05,.97-.08,1.45-.06,1.27-.12,2.55-.19,3.81-.45,8.48-1.17,16.76-5.17,24.31"/><path class="cls-1" d="M254.31,143.08c-.18,3.56-.36,7.14-.6,10.72-.29,4.24-.67,8.47-1.23,12.67-.72,5.49-1.76,10.92-3.33,16.22-.25,.86-.52,1.71-.8,2.55-.75,2.27-1.61,4.5-2.47,6.74-1.07,2.81-2.15,5.63-3.03,8.51-1.57,5.17-2.48,10.68-1.46,15.98,.17,.88,.54,1.89,1.24,2.34,.21,.14,.45,.23,.72,.25"/><path class="cls-1" d="M258.98,129.5c7.13,8.87,11.85,19.64,13.57,30.52-.8,16.98-14.29,31.3-15.48,48.26"/><path class="cls-1" d="M251.86,215.67c-.9,19.33-15.66,35.91-16.81,55.23-.66,11.26,3.38,22.19,5.36,33.3,1.66,9.36,1.86,18.98,.58,28.4"/><path class="cls-1" d="M242.4,218.62c.08,.06,.16,.12,.23,.19,1.39,1.21,1.24,3.51,.83,5.37-2.18,9.86-7.3,18.77-11.65,27.88-4.36,9.11-8.08,18.99-7.33,28.49,2.86,14.81,1.79,30.36-3.05,44.64"/><path class="cls-1" d="M189.91,141.1c-6.74,27.93-33.85,60.58-50.12,84.27"/><path class="cls-1" d="M222.85,116.26l.24,.3c2.72,3.44,6.08,6.37,9.85,8.62,.83,.49,1.73,.99,2.19,1.85,.34,.63,.39,1.37,.44,2.08,.3,4.46,.79,9.02,2.73,13.04,1.37-1.78,2.06-4.02,2.32-6.25,.26-2.24,.11-4.5-.04-6.75,1.62-.54,3.29-.92,4.98-1.15,.54-.07,1.08-.13,1.62-.17,.26-.02,.53-.04,.79-.05"/><path class="cls-1" d="M121.56,251.53c-7.5,14.27-18.23,26.55-29.04,38.52-4.69,5.19-9.62,10.49-16.03,13.26-5.94,2.56-12.65,2.71-19.09,2.07-6.54-.66-13.06-2.13-19.1-4.7-3.17-1.33-6.21-2.97-9.04-4.95-8.18-5.72-14.52-14.44-16.13-24.29,0-.04,0-.08-.02-.12"/><path class="cls-1" d="M63.43,209.73c-8.99,25.53-27.09,47.76-50.3,61.71,0,.01,0,.01,0,.01"/><path class="cls-1" d="M63.9,208.38c-.05,.14-.1,.28-.14,.42"/><path class="cls-1" d="M64.35,207.13c-.19,.56-.38,1.11-.59,1.67-.1,.31-.21,.62-.33,.93-9.14,25.01-27.03,46.74-49.86,60.47"/><path class="cls-1" d="M76.71,401c-.84-3.41-1.44-6.92-1.76-10.53-.26-2.92-.34-5.82-.24-8.68,.18-5.73,1.07-11.31,2.58-16.63,7.48-26.39,30.22-46.65,58.73-49.21,2.89-.26,5.76-.33,8.59-.21,1.27,.04,2.52,.12,3.77,.24,31.8,3.06,58.01,28.85,61.03,62.39,3.4,37.82-23.94,71.18-61.07,74.53-14.64,1.32-28.61-2.23-40.38-9.33-5.41-3.26-10.35-7.27-14.67-11.91-4.44-4.75-8.23-10.16-11.21-16.09-2.3-4.57-4.11-9.44-5.37-14.57Z"/><path class="cls-1" d="M55.33,367.26c.82,1.2,1.52,2.51,1.99,3.89,.5,1.47,.73,3.02,.56,4.57l-.06,.42c-.47,2.84-2.55,5.5-5.37,6.01-2.51,.45-5.3-.73-7.53,.5-1.1,.62-1.94,1.78-3.19,1.97-1.56,.24-2.84-1.11-3.82-2.34l-.24-.3c-.86-1.09-1.71-2.2-2.26-3.46-.61-1.39-.84-3-.29-4.41,.56-1.45,1.85-2.48,2.73-3.76,1.15-1.69,1.57-3.87,1.12-5.87-.3-1.36-.9-3,.1-3.97,.88-.85,2.36-.44,3.37,.25,.02,.01,.03,.02,.05,.03,1.87,1.31,3.5,3.45,5.77,3.31,1.02-.06,1.98-.6,3-.59,1.13,.02,2.15,.72,2.83,1.62,.49,.65,.84,1.4,1.13,2.17,.11,.29,.22,.58,.32,.87"/><path class="cls-1" d="M64.18,372.43c-2.32-.22-4.62-.65-6.86-1.28l-.21-.06"/><path class="cls-1" d="M63.39,376.57c-1.33-.07-2.66-.13-3.99-.19-.54-.02-1.09-.06-1.58-.24-.1-.04-.2-.09-.3-.14"/><path class="cls-1" d="M93.03,431.91c-3.64,1.08-6.79,3.72-8.49,7.11-.04,.08-.08,.15-.12,.23,.07-.04,.15-.08,.23-.11,.06-.03,.11-.05,.17-.08"/><path class="cls-1" d="M108.02,443.43c-.02,.05-.04,.1-.06,.14-1.5,3.92-5.19,6.91-9.32,7.59-.16,.04-.33,.06-.49,.08"/><path class="cls-1" d="M85.78,448.16c.04-.06,.09-.12,.12-.19"/><path class="cls-1" d="M89.88,444.99c-.05-.14-.11-.27-.16-.41-1.54,.9-2.89,2.13-3.94,3.58-.01,0-.01,.02-.02,.03"/><path class="cls-1" d="M92.52,446.66c-1.52,1.19-2.98,2.45-4.37,3.79"/><path class="cls-1" d="M78.45,444.65c1.42-.53,3.05-.24,4.35,.53,1.23,.71,2.2,1.8,2.98,2.98,.06,.07,.11,.15,.16,.23,.46,.72,.89,1.48,1.53,2.04,.15,.13,.32,.25,.49,.35,.8,.5,1.76,.76,2.64,1.13,1.06,.44,2.08,1.08,2.74,2.02,.67,.94,.93,2.21,.48,3.27-.53,1.24-1.85,1.89-3.21,2.05-.29,.04-.58,.06-.86,.05-.8-.02-1.59-.16-2.38-.13-.8,.04-1.63,.28-2.14,.89-.52,.6-.57,1.63,.04,2.14"/><path class="cls-1" d="M79.24,444.77c-.26,0-.53-.01-.79,0-2.27,.02-4.58,.3-6.58,1.34-2.24,1.16-4.04,3.43-4.02,5.95,.01,1.12,.38,2.22,.36,3.33-.03,1.54-.82,3.04-2.07,3.93-.5,.35-1.13,.72-1.16,1.33-.02,.3,.13,.58,.28,.83,.96,1.65,2.45,2.99,4.19,3.78,.25,.11,.5,.21,.76,.3,3.26,1.14,7.01,.42,10.13,1.88,1.09,.51,2.05,1.26,3.16,1.72,1.11,.45,2.48,.56,3.42-.17,1.13-.87,1.24-2.57,2.19-3.62,.63-.68,1.56-1.03,2.19-1.72,.61-.66,.88-1.62,.7-2.5-.17-.8-.69-1.5-1.39-1.9-.08-.05-.16-.09-.25-.13"/><path class="cls-1" d="M313.25,423.04c-.38,.05-.75,.1-1.13,.15-2.19,.29-4.38,.6-6.57,.92-1.03,.16-2.23,.43-2.69,1.38-.46,.93,.07,2.08,.82,2.79,.76,.72,1.72,1.19,2.46,1.92,1.31,1.29,1.77,3.36,1.13,5.07-.37,.97-1.06,1.91-.91,2.94,.15,.95,1.02,1.57,1.99,1.74,.43,.08,.88,.06,1.29-.06,1.34-.39,2.32-1.5,3.16-2.61,.85-1.11,1.67-2.3,2.9-2.96,.99-.53,2.15-.67,3.11-1.24,.95-.58,1.63-1.93,.94-2.81-.38-.48-1.04-.65-1.46-1.09-.65-.69-.53-1.77-.77-2.69-.06-.23-.14-.44-.25-.65-.54-1.1-1.66-1.9-2.86-2.28-.35-.11-.71-.19-1.08-.25-.4-.07-.81-.1-1.21-.12-.71-.04-1.43-.02-2.13,0"/><path class="cls-1" d="M314.41,413.79c1.21-.21,2.35-.79,3.57-.95,1.22-.15,2.68,.31,3.08,1.47,.34,1-.19,2.22,.37,3.12,.63,1,2.22,.95,2.95,1.88,.6,.76,.38,1.89-.05,2.76-1.27,2.55-4.23,4.13-7.06,3.77-.03,0-.05-.01-.08-.01"/><path class="cls-1" d="M291.42,464.03c.03,.61,.11,1.22,.24,1.81,.12,.64,.31,1.26,.54,1.87,.02,.05,.05,.11,.07,.16,.03,.09,.07,.18,.11,.27"/><path class="cls-1" d="M293.17,462.39c.33,1.12,.75,2.22,1.25,3.28,.27,.59,.56,1.17,.88,1.74"/><path class="cls-1" d="M291.91,467.83c-.83,.28-1.57,.95-1.75,1.8-.19,.86,.28,1.86,1.12,2.12,1.01,.31,2.2-.43,3.09,.11,.59,.36,.78,1.12,.77,1.8-.02,.69-.2,1.37-.12,2.05,.16,1.38,1.41,2.48,2.78,2.75,1.36,.27,2.8-.16,3.98-.9s2.15-1.76,3.12-2.77c.64-.68,1.3-1.37,1.66-2.23s.36-1.94-.23-2.66c-.48-.57-1.24-.81-1.91-1.15s-1.34-.91-1.34-1.66,.69-1.33,.91-2.06c.02-.05,.04-.11,.05-.17,.2-1-.73-1.97-1.75-2.09-1.01-.12-2,.41-2.76,1.1-.51,.47-.94,1.02-1.39,1.56-.21,.25-.42,.49-.64,.73-.59,.63-1.32,1.21-2.15,1.42-.15,.04-.29,.07-.44,.08-.59,.06-1.18-.07-1.77-.03-.29,.02-.61,.1-.87,.24s-.46,.35-.56,.63"/><path class="cls-1" d="M220.6,142.49c.15-.05,.3-.11,.45-.16,.18-.06,.36-.12,.54-.19-.17-.14-.35-.26-.53-.37-1.33-.82-3.03-1.03-4.51-.52-1.49,.51-2.67,1.65-4.01,2.47-2.41,1.47-5.44,1.88-8.15,1.09,1.83,1.05,3.67,2.1,5.67,2.74,2.01,.64,4.21,.84,6.21,.16,2.28-.77,4.11-2.71,4.78-5.02,.04-.13,.07-.25,.1-.38"/><path class="cls-1" d="M223.11,157.67c-1.08-.58-2.5-.08-3.28,.86s-1.05,2.21-1.13,3.43-.01,2.46-.24,3.66c-.39,2.09-1.73,3.99-3.57,5.07,1.93-.71,3.87-1.45,5.58-2.58,1.71-1.14,3.2-2.72,3.86-4.66s.38-4.27-1.01-5.78"/><path class="cls-1" d="M234.3,165.43c-.05,.02-.1,.04-.15,.07-1.04,.47-1.54,1.75-1.5,2.91,.05,1.21,.54,2.35,.86,3.52,.65,2.39,.59,4.96-.17,7.31,2.18-.21,4.06-1.9,4.83-3.95,.76-2.06,.51-4.4-.36-6.41-.66-1.54-1.89-3.05-3.56-3.15"/><path class="cls-1" d="M243.71,161.69c-.39,.01-.73,.23-.96,.55-.2,.26-.32,.6-.33,.93-.02,.72,.36,1.4,.84,1.94,.48,.55,1.05,.99,1.53,1.54,1.53,1.73,1.89,4.41,.86,6.48,2.13-1.12,3.83-3.03,4.68-5.28,.2-.52,.34-1.07,.41-1.62,.09-.79,0-1.58-.38-2.27-.49-.88-1.38-1.46-2.31-1.81-1.7-.64-3.63-.6-5.3,.09l-.45,.21"/><path class="cls-1" d="M80.93,144.83s.03-.05,.04-.07c5.27-9.54,10.54-19.06,15.81-28.6,4.82-8.72,9.7-17.52,16.29-25.01,6.58-7.49,15.11-13.65,24.88-15.63,1.9-.39,3.85-.59,5.79-.6,8.09-.1,16.26,2.94,21.36,9.15,6.03,7.34,6.95,17.77,5.15,27.09"/><path class="cls-1" d="M162.59,125.93c-8.79,11.8-15.61,25.06-20.1,39.07"/><path class="cls-1" d="M81.04,144.8c.24,1.46,1.67,2.46,3.12,2.75,.22,.05,.43,.08,.65,.1,1.23,.13,2.5-.06,3.75-.14,3.58-.22,7.21,.5,10.43,2.07"/><path class="cls-1" d="M101.79,151.71c5.96,.07,11.6,2.8,16.43,6.29,4.18,3.01,7.9,6.59,11.83,9.93,.62,.52,1.25,1.04,1.88,1.55,1.56,1.26,3.41,2.52,5.4,2.26,1.66-.22,3.03-1.5,3.8-2.99,.6-1.17,.9-2.48,1.13-3.79,.06-.34,.12-.69,.17-1.03"/><path class="cls-1" d="M84.79,147.83c-6.38,3.45-11.8,8.66-15.49,14.91-2.92,4.96-4.82,10.58-8.63,14.89-.04,.06-.09,.11-.14,.17"/><path class="cls-1" d="M66.36,210.8c-.67-1.22-1.29-2.47-1.86-3.74-3.35-7.36-5.18-15.38-6.98-23.29-.2-.86-1.18-1.51-1.03-2.39,.32-1.96,2.23-3.2,4.18-3.75,.21-.06,.43-.11,.64-.15,2.15-.45,4.45-.39,6.43-1.33,4.13-1.98,5.35-7.46,9.1-10.07"/><path class="cls-1" d="M65.62,209.46c.25,.44,.49,.89,.74,1.34,.05,.1,.11,.2,.17,.31,1.67,3.01,3.41,5.99,5.53,8.69,2.52,3.19,5.63,6.01,9.37,7.61,3.14,1.36,6.69,1.84,9.55,3.73,2.75,1.82,4.55,4.73,6.43,7.44,1.89,2.71,4.1,5.44,7.22,6.54,2.28,.81,4.79,.65,7.21,.47,.95-.07,1.92-.14,2.81-.5,.66-.27,1.28-.74,1.63-1.35,.12-.2,.21-.42,.26-.65,.22-.93-.32-2.05-1.25-2.25"/><path class="cls-1" d="M137.51,219.59c-3.25-3.56-6.68-7.24-11.22-8.87-2.98-1.08-5.48-1.44-8.32-2.07-.71-.16-1.45-.33-2.22-.54-3.01-.82-5.81-2.41-8.06-4.58"/><path class="cls-1" d="M113.11,197.05c-.41-.69-.8-1.41-1.13-2.15-.76-1.73-1.18-3.6-1.96-5.32-1.82-4.06-5.53-7.06-9.64-8.75"/><path class="cls-1" d="M118.05,208.28c-.49-2.68-1.43-5.27-2.76-7.64-.56-.99-1.18-1.95-1.78-2.92-.11-.19-.23-.38-.35-.58"/><path class="cls-1" d="M113.51,197.72c-.13-.18-.25-.38-.35-.58-.02-.03-.03-.06-.05-.09-.66-1.42-.55-3.16-.1-4.7,.52-1.79,1.43-3.45,1.86-5.26,.49-2.1,.34-4.29-.18-6.39-.06-.24-.12-.48-.19-.72-.65-2.3-1.7-4.47-2.74-6.63"/><path class="cls-1" d="M114.91,180.65c5.66-3.4,10.78-7.7,15.11-12.69"/><path class="cls-1" d="M137.06,219.04c.21,.14,.36,.33,.46,.55,.25,.55,.18,1.27-.18,1.78-.49,.71-1.38,1.05-2.25,1.13-.86,.09-1.73-.05-2.6-.11-.28-.02-.57-.02-.85-.02-2.81,.02-5.58,.91-8.06,2.25-2.74,1.46-5.16,3.44-7.52,5.46-1.41,1.21-2.88,2.56-3.28,4.37-.32,1.4,.07,2.89,.76,4.15,.46,.83,1.05,1.58,1.69,2.29,.31,.37,.64,.73,.97,1.09"/><path class="cls-1" d="M131.64,222.38c2.72,.97,5.44,1.96,8.15,2.99,5.12,1.93,10.21,3.95,15.26,6.06,.25,.1,.49,.21,.74,.31"/><path class="cls-1" d="M154.85,231.17c.07,.09,.13,.17,.2,.26,2.46,3.2,4.6,6.63,6.35,10.18,1.3,2.63,2.37,5.33,3.18,8.05,.13,.42,.25,.83,.36,1.25,.03,4.29,.07,8.58,.09,12.87,0,.23,0,.45,0,.68"/><path class="cls-1" d="M144.84,239.66c-.45-.28-.56-.86-.84-1.3-.29-.44-1.06-.66-1.25-.17-.13,.33,.16,.67,.42,.91,.23,.21,.46,.42,.68,.63,2.05,1.91,4.04,3.88,5.97,5.9,1.42,1.47,2.83,2.99,3.86,4.77,1.05,1.8,1.67,3.81,2.27,5.82,.63,2.1,1.24,4.2,2.29,6.1,.05,.09,.09,.17,.14,.25,.47,.79,1.07,1.58,1.84,2.04,.26,.16,.53,.28,.83,.35,1.38,.33,2.77-.43,3.98-1.18,.03-.02,.05-.03,.08-.05"/><path class="cls-1" d="M134.45,243.66c2.67,4.35,5.35,8.71,8.48,12.74,1.02,1.31,2.1,2.6,2.93,4.05,.64,1.13,1.12,2.34,1.74,3.49,.32,.61,.69,1.21,1.13,1.74,.38,.48,.82,.9,1.33,1.25,1.07,.74,2.49,1.06,3.7,.57,.57-.23,1.05-.61,1.47-1.06,.44-.48,.82-1.03,1.19-1.58l1.62-2.43"/><path class="cls-1" d="M127.72,248.08c2.48,3.66,4.96,7.32,7.44,10.99,1.27,1.88,2.59,3.8,4.48,5.06,.05,.03,.1,.07,.16,.1,2.59,1.63,5.87,1.81,8.93,1.45,.06,0,.13-.01,.19-.02"/><path class="cls-1" d="M116.5,243.75c1.6,2.65,3.33,5.22,5.17,7.7,1.49,2.02,3.07,3.98,4.71,5.88,1.73,2,3.57,3.95,5.83,5.33,2.26,1.39,5,2.15,7.58,1.59"/><path class="cls-1" d="M143.76,239.83c3.45,5.84,7.41,11.37,11.84,16.5"/><path class="cls-1" d="M160.05,264.91c-3.44,13.24-6.57,26.56-9.4,39.95-.78,3.7-1.54,7.41-2.27,11.12-5.01,25.25-8.93,50.71-11.75,76.3,0,.08-.02,.17-.03,.25"/><path class="cls-1" d="M155.57,265c-.11,.48-.23,.96-.34,1.44-3.02,12.65-5.82,25.35-8.41,38.1-.75,3.72-1.49,7.46-2.21,11.2-5.01,25.94-9.14,52.06-12.37,78.29-.01,.05-.01,.11-.02,.16"/><path class="cls-1" d="M136.6,392.23s.02,.03,.03,.05c1.37,2.89,3.57,4.68,6.53,5.93,2.15,.92,4.63,.86,6.9,.27,3.55-.91,6.73-3.07,9.11-5.86s3.98-6.19,4.51-9.82c-.01-1.12,1.43-1.81,2.46-1.4,1.04,.41,1.63,1.53,1.86,2.62,.58,2.81-.67,5.68-2.29,8.05-2.58,3.79-7.19,7.65-11.37,9.54-4.18,1.9-7.93,1.8-12.45,.99-2.43-.43-6.68-2.98-6.68-2.98,0,0-3.24-3.17-2.97-5.59,0-.05,0-.09,0-.14"/><path class="cls-1" d="M164.58,249.67h0c4.2-11.68,8.41-23.35,11.62-35.33,.29-1.07,.53-2.34-.18-3.19-.96-1.16-3.14-.89-3.78-2.24-3.52,10.86-7.05,21.71-10.58,32.57"/><path class="cls-1" d="M38.08,301.19c-7.58,18.03-20.01,34-35.65,45.75-1.3,.98-2.7,2.94-1.44,3.97,.43,.34,1.01,.4,1.55,.43,3.48,.26,6.96,.51,9.48,.5-2.1,2.68-4.21,5.37-6.31,8.05-.36,.46-.74,.98-.69,1.56,.07,.82,.94,1.3,1.69,1.64,5.14,2.28,10.28,4.57,15.41,6.85,6.5-7.46,13.37-14.6,20.33-21.01,.02,3.94,.05,7.88,.07,11.82"/><path class="cls-1" d="M37.79,381.53l-.12,.45c-3.68,13.31-6.74,26.79-8.53,39.41-.39,1.07,.03,2.29,.75,3.16,.72,.88,1.7,1.49,2.64,2.13,3.6,2.48,6.74,5.65,9.17,9.29,.51,.75,.99,1.55,1.11,2.45s-.21,1.92-1.01,2.34c-1.68,.91-4.2-1.16-5.47,.25-.95,1.05,.04,2.66,1,3.68,3.71,3.95,7.45,7.86,11.62,11.77,6.46,3.67,13.09,7.11,19.86,10.21,16.39,7.52,33.65,13.07,51.51,15.26,25.24,3.09,51.82-.93,73.46-14.28"/><path class="cls-1" d="M287.86,45.61s-.05-.02-.07-.03-.05-.02-.07-.02t-.02,0"/><path class="cls-1" d="M287.86,45.61c.01,.07,.01,.15,.04,.21,.02,.06,.06,.11,.1,.16l.24,.3c.05-.05,.05-.13,0-.18,.1,.11,.2,.19,.32,.26-.26-.15-.34-.51-.59-.69-.03-.02-.07-.04-.11-.06Z"/><path class="cls-1" d="M287.75,45.54s-.02,.01-.03,.02c-.12,.08-.26,.17-.26,.32,0,.16,.17,.26,.31,.33,.01,.01,.03,.01,.04,.01,.05,0,.07-.06,.07-.1,0-.18-.03-.36-.09-.54-.02-.06-.04-.12-.07-.18,.08,.03,.12,.11,.14,.19v.02"/><path class="cls-1" d="M306,69.81c.04,.13,.07,.27,.11,.4-.09,.06-.2,.08-.3,.04"/><path class="cls-1" d="M256.55,46.15c1.28-1.6,2.62-3.15,4.05-4.63,1.19-1.27,2.44-2.49,3.74-3.65,6.68-6.06,14.52-10.83,22.98-13.95,.21-.08,.43-.15,.64-.23"/><path class="cls-1" d="M264.36,38.01s0,.04,.01,.06"/><path class="cls-1" d="M264.36,38s.06-.08,.1-.12c-.03,0-.05,.02-.07,.05-.02,.02-.03,.04-.03,.07"/><path class="cls-1" d="M264.36,38s-.01,.01,0,.01"/><path class="cls-1" d="M256.99,57.44c-.03-.66-.85-.98-1.51-.93-.42,.02-.86,.12-1.22-.09-.59-.34-.54-1.18-.37-1.83,.18-.65,.37-1.43-.08-1.93,.68-1.45,1.58-2.8,2.65-3.98,1.47-1.63,3.27-2.94,4.7-4.59,1.28-1.46,2.25-3.18,2.65-4.76,.04-.48,.22-.95,.55-1.32"/><path class="cls-1" d="M260.82,41.19c-.07,.11-.15,.21-.24,.31-.61,.65-1.62,.84-2.51,1.06-.26,.06-.52,.14-.78,.24-.77,.31-1.45,.81-1.56,1.6-.03,.25,0,.51-.12,.74-.29,.57-1.14,.4-1.73,.14-.85-.37-1.72-.74-2.57-1.12-.1-.04-.19-.08-.29-.12-.56-.24-1.14-.49-1.74-.46-.42,.01-.85,.19-1.11,.5-.13,.14-.21,.3-.25,.49-.12,.59,.55,1.24,1.09,.97-2.32,1.03-4.62,2.07-6.94,3.11-.37,.17-.75,.33-1.12,.5-.43,.2-.98,.38-1.36,.08-.23-.2-.31-.53-.36-.83-.2-1.12-.41-2.24-.61-3.36-.13-.72-.28-1.47-.75-2.02-.51-.6-1.33-.87-2.12-.88s-1.56,.2-2.32,.41c-.51,.14-1.02,.28-1.45,.59-.42,.3-.74,.81-.67,1.33s.63,.96,1.12,.78c-2.15,1.4-5.15,.76-7.34,2.1-.96,.59-1.71,1.6-1.82,2.73-.12,1.12,.47,2.33,1.51,2.79,.52,.24,1.11,.27,1.67,.4,.57,.12,1.15,.37,1.43,.88,.28,.5,.06,1.28-.5,1.39,.38,.17,.76,.34,1.14,.52-1.27,.79-2.45,1.87-2.91,3.29-.66,2.08,.62,4.58,2.7,5.26,.65,.21,1.31,.26,1.98,.2,1.18-.1,2.38-.52,3.52-.92,1.01-.36,2.09-.71,3.16-.81,.8-.08,1.59-.01,2.33,.29"/><path class="cls-1" d="M230.23,68.72c-.13,.05-.26,.11-.38,.18-.1,.05-.19,.11-.28,.18-.01,.01-.02,.02-.03,.02-.87,.71-1.24,2.01-1.2,3.18,.04,1.43,.54,2.83,.57,4.27,.03,1.43-.6,3.06-1.98,3.49,1.15-.06,2.31-.11,3.43,.16,.08,.02,.16,.04,.24,.07,1.02,.31,1.98,.95,2.44,1.9,.38,.78,.4,1.68,.48,2.54,.27,2.53,1.22,4.94,2.17,7.3,.57,1.43,1.17,2.9,2.26,3.99,.66,.65,1.46,1.14,2.16,1.75,1.37,1.23,2.26,2.99,2.42,4.83,2.14,1.44,4.75,2.18,7.33,2.07,.89-.03,1.98-.06,2.42,.71,.35,.61,.06,1.37-.01,2.07-.15,1.54,.8,2.95,1.71,4.21,.45,.63,.91,1.27,1.37,1.9,.08,.11,.15,.21,.23,.32,.86,1.19,1.77,2.42,3.08,3.08,1.3,.65,2.77,.63,4.13,.34,.55-.12,1.09-.29,1.59-.48,1.86,.13,3.72,.27,5.58,.4,.44,.03,.9,.06,1.29-.13,.41-.19,.69-.59,.98-.93,.85-.98,2.07-1.65,3.35-1.84,1.31-.19,2.63,.1,3.94,.17,1.32,.08,2.76-.1,3.7-1.03,.74-.72,1.04-1.77,1.31-2.77,.25-.92,.5-1.83,.75-2.75,.16-.6,.32-1.21,.66-1.73s.88-.95,1.5-1c.88-.06,1.63,.64,2.1,1.39,.79,1.26,1.18,2.87,2.43,3.69,.99,.66,2.36,.62,3.4,.03,1.05-.59,1.77-1.65,2.1-2.79,.16-.53,.27-1.11,.69-1.45,.54-.43,1.32-.25,2-.22,1.25,.08,2.52-.41,3.16-.76,.04-1.82-.46-3.66-1.41-5.21-.41-.67-.91-1.33-.99-2.1-.09-.94,.47-1.81,1.05-2.55,.44-.56,.91-1.12,1.18-1.76,.09-.22,.16-.44,.2-.67,.02-.11,.03-.22-.02-.32-.12-.27-.52-.22-.79-.1-.67,.31-1.24,.81-1.85,1.22-.61,.42-1.33,.76-2.07,.69h-.02c-.69-.07-1.34-.5-2.04-.49-.73,.02-1.29,.47-1.81,1.01-.32,.32-.62,.67-.94,.97-1.81,1.69-4.64,1.89-7,1.14-1.11-.36-2.16-.89-3.31-1.04-1.06-.13-2.13,.07-3.19,0s-2.21-.51-2.64-1.48"/><path class="cls-1" d="M256.15,57.41c.2-.03,.39,0,.57,.09,.57,.27,.99,1.06,1.01,1.84,.04,1.01-.39,1.96-.8,2.85s-.83,1.84-.78,2.86c.08,1.51,1.19,2.96,.73,4.37-.19,.59-.63,1.01-1,1.45-1.03,1.25-1.7,2.94-1.85,4.69,1.77,1.48,2.96,3.9,3.2,6.47,.08,.8,.19,1.8,.83,2.01,.31,.1,.63-.04,.94-.07,1.29-.13,2.2,1.44,2.82,2.8,1.1,2.43,2.2,4.87,3.31,7.3,.38,.83,1.01,1.81,1.77,1.54,.33-.12,.57-.46,.79-.78,.67-.97,1.34-1.95,2.01-2.92,.24-.35,.5-.71,.86-.84,.56-.21,1.13,.22,1.6,.65,1.14,1.02,2.3,2.15,3.7,2.44,.59,.13,1.21,.1,1.81,.21,.04,0,.07,.01,.11,.02,.63,.15,1.28,.55,1.53,1.26"/><path class="cls-1" d="M285.23,74.13c-.18-.27-.35-.56-.51-.84-1.06-1.87-1.96-3.94-3.64-5.29-.7-.55-1.51-.96-2.19-1.53-.6-.51-1.12-1.21-1.2-1.98-.02-.1-.02-.2-.02-.3"/><path class="cls-1" d="M289,77.37c-1.05-.31-1.94-.98-2.68-1.81-.41-.44-.77-.93-1.08-1.43"/><path class="cls-1" d="M278.48,64.75c-.13-.05-.26-.09-.39-.13-.13-.05-.27-.09-.4-.13-2.06-.63-4.19-.97-6.29-1.43-2.37-.52-4.75-1.22-6.77-2.56-2.03-1.35-3.66-3.44-3.97-5.85,.23,2.35,.53,4.72,1.32,6.95,.59,1.67,1.46,3.27,2.66,4.56,.4,.43,.84,.82,1.32,1.17,1.53,1.13,3.37,1.76,5.18,2.35,1.81,.58,3.66,1.17,5.23,2.25s2.85,2.75,2.99,4.65c.07,1.03-.1,2.28,.63,2.95,.05,.04,.1,.08,.16,.12,.54,.38,1.27,.29,1.9,.48,1.62,.49,2.13,2.46,2.68,4.06,.35,1.03,.82,2.01,1.4,2.93,1.74,2.76,4.42,4.93,7.5,5.98,.16-.05,.31-.11,.46-.16,.3-.11,.6-.21,.9-.32-2.66-2.59-3.76-6.66-2.77-10.23,.2-.72,.48-1.43,.55-2.17,.01-.06,.01-.13,.01-.2,.03-.69-.16-1.4-.67-1.85-.14-.12-.3-.22-.46-.28-.67-.32-1.5-.29-2.25-.43-.13-.02-.26-.06-.39-.09"/><path class="cls-1" d="M265.04,73.37c.22,.95,.49,1.89,.82,2.81,1.1,3.06,2.81,5.9,5.02,8.34,2.88,3.16,6.61,5.61,10.73,7.04,.09-.11,.3,.01,.3,.13,0,.02-.01,.04-.02,.06"/><path class="cls-1" d="M263.67,66.92s.04,.07,.06,.1c.04,.05,.1,.14,.22,.29,0,.03,0,.07,.01,.1,.13,3,.79,5.98,1.9,8.77,1.3,3.27,3.21,6.3,5.64,8.84,.07,.14,.3-.1,.16-.16"/><path class="cls-1" d="M281.91,92.06c0-.14,.02-.26,.05-.36,.23-.83,1.31-.79,1.79-1.76,.51-1.01,.33-1.91-.05-2.63-.21-.41-.49-.75-.76-1.02-1.66-1.52-3.31-3.03-4.97-4.55-2.03-1.86-4.07-3.72-6.1-5.58-2.91-2.67-5.87-5.38-7.91-8.75-.08-.13-.16-.26-.23-.39"/><path class="cls-1" d="M265.04,73.33c2.34,4.25,5.69,7.94,9.69,10.68"/><path class="cls-1" d="M276.1,84.99c1.2,.95,2.4,1.91,3.6,2.87"/><path class="cls-1" d="M305.44,56.58c-.82-.46-1.76-.55-2.68-.36-.14,.02-.27,.06-.4,.09-.83,.23-1.61,.68-2.24,1.26-1.06,.99-1.75,2.28-2.28,3.65-.17,.45-.33,.91-.48,1.37-.99,3.06-1.62,6.22-2.02,9.41-.1,.79-.18,1.59-.46,2.34-.23,.61-.58,1.16-.98,1.68-.14,.18-.28,.34-.42,.51-.5,.57-1.06,1.14-1.79,1.35-.01,0-.03,.01-.04,.01-.89,.25-1.8-.07-2.64-.52h-.01c-.29-.16-.56-.32-.83-.49-.64-.41-1.3-.82-1.85-1.32-.46-.41-.85-.88-1.12-1.45t.03,.02h.01s.08-.03,.08-.07c0-.06-.09-.09-.12-.04"/><path class="cls-1" d="M295.24,76.43c.44,.31,.88,.63,1.21,1.05,.34,.43,.55,.98,.45,1.5-.08,.43-.35,.8-.61,1.15-.34,.45-.77,.95-1.34,.94-.3-.01-.58-.16-.84-.3-.45-.25-.88-.5-1.33-.75-.01,0-.03,0-.04-.02"/><path class="cls-1" d="M279.92,66.58c-.82,.03-1.56-.65-1.76-1.44-.05-.17-.07-.34-.07-.52,0-.64,.25-1.28,.64-1.79,.51-.65,1.21-1.11,1.95-1.48,.5-.26,1.04-.48,1.61-.51,.56-.04,1.16,.13,1.54,.56,.3,.33,.43,.8,.72,1.14,.3,.35,.9,.52,1.18,.16"/><path class="cls-1" d="M296.81,50.75c.2,3.08-.95,6.08-2.2,8.9-.83,1.87-1.73,3.73-2.99,5.34s-2.92,2.97-4.88,3.55c.14,.03,.28,.06,.42,.1"/></g></g><path d="M286.88,46.36s.06,.02,.09,.03l-.36-.15c.06,.02,.11,.05,.16,.09l-.32-.24c.05,.04,.1,.09,.14,.14l-.24-.32s.07,.1,.09,.16l-.15-.36c.02,.05,.03,.1,.04,.16l-.05-.38s0,.1,0,.15l.05-.38c0,.06-.02,.12-.05,.18l.15-.36c-.02,.06-.06,.11-.09,.16l.24-.32s-.08,.09-.13,.13l.32-.24s-.09,.06-.14,.08l.36-.15s-.06,.02-.1,.03l.38-.05s-.05,0-.08,0l.38,.05s-.05,0-.07-.02l.36,.15s-.02-.01-.04-.02l.32,.24s-.02-.02-.03-.03l.24,.32s0-.01-.01-.02l.15,.36s0-.01,0-.02l.05,.38s0-.02,0-.03l-.05,.38s0-.02,0-.03l-.15,.36s0-.02,.01-.02l-.24,.32s.01-.01,.02-.02l-.32,.24s.02-.01,.03-.02l-.36,.15s.04-.01,.05-.01l-.38,.05s.05,0,.08,0l-.38-.05c.11,.02,.22,.06,.33,.1,.22,.07,.46,.12,.7,.11,.6-.02,1.17-.33,1.47-.85,.14-.25,.22-.54,.22-.83,0-.24-.07-.63-.22-.82-.1-.19-.23-.33-.4-.44-.15-.13-.32-.22-.52-.27-.19-.06-.38-.07-.57-.02-.2,0-.38,.07-.55,.17l-.32,.24c-.19,.19-.32,.42-.39,.68l-.05,.38c0,.26,.07,.51,.2,.74,0,0,.01,.02,.02,.03l-.15-.36s0,.03,.01,.04l-.05-.38s0,.02,0,.03l.05-.38s0,.03-.01,.04l.15-.36s-.01,.03-.02,.04l.24-.32s-.03,.03-.05,.05l.32-.24s-.03,.02-.04,.02l.36-.15s-.04,.01-.07,.01l.38-.05s-.06,0-.09,0l.38,.05c-.15-.02-.29-.08-.43-.13-.03,0-.05-.02-.08-.02-.14-.03-.29-.05-.43-.06-.03,0-.05,0-.08,0-.1,0-.3,.03-.4,.05-.01,0-.03,0-.04,.01-.09,.03-.29,.11-.37,.15,0,0-.01,0-.02,.01-.24,.14-.44,.34-.58,.59-.07,.13-.13,.26-.16,.41,.12-.52-.05,.28-.05,.39,0,.07,.02,.14,.03,.2,0,.07,.01,.14,.03,.2,.02,.06,.12,.32,.15,.37,.04,.06,.1,.14,.13,.18,.16,.21,.2,.27,.47,.43,0,0,.02,0,.02,.01,.08,.05,.28,.12,.37,.15,.08,.03,.17,.03,.26,.04,.26,.03,.38,.04,.68-.03,.08-.02,.18-.07,.25-.1,.09-.03,.18-.07,.26-.11,.35-.21,.55-.43,.78-.77,.1-.14,.16-.35,.22-.49,.02-.05,.04-.1,.04-.16,.03-.16,.07-.35,.05-.53-.01-.15-.03-.3-.06-.44,0-.03-.01-.06-.02-.09-.06-.16-.12-.36-.22-.51s-.21-.32-.35-.44c-.11-.11-.25-.2-.38-.29-.02-.02-.05-.03-.08-.05-.08-.05-.18-.08-.26-.11-.09-.04-.17-.08-.27-.1-.19-.06-.38-.07-.57-.02-.2,0-.38,.07-.55,.17-.19,.1-.33,.23-.44,.4-.13,.15-.22,.32-.27,.52l-.05,.38c0,.26,.07,.51,.2,.74l.24,.32c.19,.19,.42,.32,.68,.39h0Z"/><path d="M305.49,68.11c-.35,.09-.63,.26-.89,.51-.12,.12-.22,.27-.32,.41-.01,.02-.03,.04-.04,.06-.07,.13-.12,.28-.17,.41-.02,.04-.03,.08-.04,.12-.03,.17-.06,.34-.06,.51,0,.35,.09,.66,.25,.97,.01,.02,.02,.04,.04,.06,.08,.12,.17,.25,.27,.35,.12,.13,.27,.23,.42,.32,.31,.19,.62,.24,.97,.27,.04,0,.08,0,.13,0,.14-.01,.35-.03,.51-.07,.08-.02,.16-.06,.23-.09s.16-.06,.23-.1c.15-.08,.3-.2,.42-.32,.02-.02,.03-.03,.05-.05,.05-.06,.1-.13,.14-.18,.04-.06,.1-.13,.15-.19,.1-.15,.16-.33,.21-.5,.07-.27,.07-.56,.1-.83l-.05,.38s.01-.09,.03-.13l-2.51,.68s.09,.08,.13,.13l-.24-.32s.05,.08,.07,.12l-.15-.36s.02,.06,.02,.09l-.05-.38s0,.04,0,.06l.05-.38s0,.04-.01,.06l.15-.36s-.01,.03-.02,.04l.24-.32s-.02,.02-.03,.03l.32-.24s-.04,.03-.06,.04l.36-.15s-.04,.01-.06,.02l.38-.05s-.04,0-.06,0l.38,.05s-.03,0-.04-.01l.36,.15s-.02-.01-.04-.02l.32,.24s-.01-.01-.02-.02l.24,.32s-.01-.02-.01-.03l.15,.36s0-.01,0-.02c-.04-.2-.13-.37-.27-.52-.11-.17-.26-.31-.44-.4-.17-.11-.35-.16-.55-.17-.19-.04-.38-.03-.57,.02l-.36,.15c-.24,.14-.43,.33-.56,.56l-.15,.36c-.07,.25-.07,.51,0,.76,.02,.07,.06,.15,.08,.2,0,.02,.05,.14,.08,.2,.04,.06,.08,.12,.13,.17,.04,.06,.08,.11,.13,.17,0,0,.01,0,.01,.01,.19,.21,.31,.25,.54,.34s.17,.08,.41,.11,.41,.04,.67-.03c0,0,.01,0,.02,0l.36-.15s.02,0,.03-.02c0,0,.01,0,.02-.01,.06-.04,.11-.09,.17-.13,.06-.04,.11-.08,.17-.13,0,0,.01-.01,.02-.02,.04-.05,.09-.11,.13-.16,.04-.06,.09-.11,.13-.17,.07-.12,.13-.26,.17-.4s.06-.3,.06-.45c0-.08-.02-.16-.03-.23,0-.06-.01-.16-.03-.23,0-.02-.01-.04-.02-.05-.04-.12-.1-.26-.15-.38-.02-.03-.04-.06-.06-.09-.12-.16-.23-.33-.38-.46-.19-.19-.42-.32-.68-.39-.25-.07-.51-.07-.76,0-.52,.14-.93,.55-1.07,1.07-.07,.27-.07,.56-.1,.83l.05-.38c0,.07-.02,.14-.05,.21l.15-.36s-.03,.07-.06,.1l.24-.32s-.06,.06-.09,.09l.32-.24s-.09,.06-.13,.08l.36-.15c-.05,.02-.11,.04-.16,.04l.38-.05c-.05,0-.1,0-.16,0l.38,.05s-.09-.02-.14-.04l.36,.15s-.08-.04-.11-.06l.32,.24s-.06-.06-.09-.09l.24,.32s-.04-.06-.06-.1l.15,.36s-.03-.09-.04-.14l.05,.38s0-.1,0-.14l-.05,.38c0-.06,.02-.11,.04-.17l-.15,.36s.05-.09,.08-.14l-.24,.32s.06-.07,.1-.1l-.32,.24s.07-.05,.11-.06l-.36,.15s.04-.01,.05-.02c.2-.04,.37-.13,.52-.27,.17-.11,.31-.26,.4-.44,.11-.17,.16-.35,.17-.55,.04-.19,.03-.38-.02-.57l-.15-.36c-.14-.24-.33-.43-.56-.56l-.36-.15c-.25-.07-.51-.07-.76,0h0Z"/></g></svg>