<svg width="24" height="23" viewBox="0 0 24 23" fill="none" xmlns="http://www.w3.org/2000/svg">
<g clip-path="url(#clip0_36_4755)">
<path d="M23.0252 11.9621C23.0252 5.86595 18.0833 0.92408 11.9872 0.92408C5.89108 0.92408 0.949219 5.86595 0.949219 11.9621C0.949219 17.4714 4.98565 22.0379 10.2625 22.8659V15.1527H7.4599V11.9621H10.2625V9.53025C10.2625 6.76386 11.9104 5.23579 14.4317 5.23579C15.6394 5.23579 16.9025 5.45137 16.9025 5.45137V8.16775H15.5107C14.1395 8.16775 13.7119 9.0186 13.7119 9.89151V11.9621H16.7732L16.2838 15.1527H13.7119V22.8659C18.9887 22.0379 23.0252 17.4714 23.0252 11.9621Z" fill="#E83D69"/>
<path d="M16.2839 15.1527L16.7733 11.9621H13.7119V9.89151C13.7119 9.0186 14.1396 8.16775 15.5107 8.16775H16.9026V5.45138C16.9026 5.45138 15.6394 5.23579 14.4318 5.23579C11.9105 5.23579 10.2626 6.76386 10.2626 9.53025V11.9621H7.45996V15.1527H10.2626V22.8659C10.8245 22.9541 11.4005 23 11.9873 23C12.574 23 13.15 22.9541 13.7119 22.8659V15.1527H16.2839Z" fill="#88D1E2"/>
</g>
<defs>
<clipPath id="clip0_36_4755">
<rect width="22.0759" height="22.0759" fill="white" transform="translate(0.949219 0.924072)"/>
</clipPath>
</defs>
</svg>
