<svg width="1459" height="617" viewBox="0 0 1459 617" fill="none" xmlns="http://www.w3.org/2000/svg">
<path d="M743.781 6.46832C734.85 3.4856 726.749 1 725.919 1C724.88 1 721.349 2.15995 718.026 3.56845C714.703 4.97696 704.941 8.2911 696.425 10.9424C687.91 13.5109 673.371 17.4878 664.232 19.8077C655.093 22.1276 641.178 25.276 633.077 26.8503C624.977 28.5073 609.192 31.0758 597.769 32.7328C586.345 34.3071 570.975 36.1298 563.498 36.8755C556.021 37.6212 540.028 38.7811 527.774 39.5268C514.897 40.1896 490.596 40.7696 470.657 40.7696C450.926 40.8525 416.24 40.1068 391.108 39.1125C366.6 38.2012 338.976 37.4555 329.837 37.4555C320.698 37.4555 307.821 38.0355 301.383 38.6983C294.736 39.3611 283.936 41.0182 277.497 42.3438C270.851 43.6695 261.297 46.2379 256.104 47.9779C250.912 49.8006 243.019 53.2805 238.45 55.7661C233.88 58.2517 227.649 63.2229 224.534 66.8684C221.419 70.514 218.718 75.0709 218.718 77.0594V80.5392C203.349 81.2849 192.964 82.1963 185.487 83.0248C178.009 83.8534 166.378 86.0076 159.524 87.8303C152.67 89.5703 143.324 92.7187 138.547 94.7072C133.977 96.6956 127.746 100.01 124.631 102.081C121.723 104.152 117.361 107.881 115.284 110.366C113 112.852 110.715 117.078 109.884 119.729L109.872 119.775C108.638 124.369 108.616 124.452 101.992 124.452C98.2532 124.452 89.7375 125.031 83.2988 125.694C76.6525 126.357 65.4368 128.097 58.375 129.506C50.2747 131.163 40.0975 134.228 31.7896 137.625C23.0662 141.105 15.7968 145.082 11.6428 148.728C7.9042 151.793 3.75023 156.019 2.71174 158.173C1.25784 160.824 0.842447 245.997 1.05015 416.095L1.60343 641.588V811H1456.6V643.039C1456.31 606.365 1455.83 518.941 1455.36 418.995C1454.53 243.926 1454.94 179.963 1456.6 174.164C1458.68 167.535 1458.47 165.298 1455.77 160.078C1453.9 156.681 1449.54 151.462 1446.01 148.479C1441.65 144.751 1435 141.271 1424.82 137.211C1414.65 133.234 1405.51 130.583 1396.37 128.843C1388.89 127.434 1377.68 125.86 1371.45 125.363C1365.22 124.866 1357.74 124.369 1355.04 124.286C1350.47 124.037 1349.64 123.374 1346.31 116.58C1344.24 112.521 1339.88 107.052 1336.76 104.567C1333.65 102.081 1324.92 97.4413 1317.44 94.3757C1307.27 90.0674 1300 87.9132 1287.33 85.4276C1276.74 83.3562 1265.94 81.9477 1257.21 81.5335C1249.73 81.1192 1242.47 80.5392 1241.22 80.2907C1239.77 79.9593 1238.52 78.4679 1238.52 76.9765C1238.52 75.568 1237.07 72.0882 1235.4 69.354C1233.53 66.6199 1228.96 62.1458 1225.23 59.4116C1221.28 56.6775 1212.35 52.2034 1205.08 49.4692C1197.81 46.7351 1186.59 43.4209 1180.36 42.1781C1174.13 40.9353 1163.75 39.3611 1157.52 38.6983C1151.29 38.0355 1137.79 37.4555 1127.4 37.4555C1117.02 37.4555 1087.73 38.2012 1061.98 39.1954C1025.63 40.5211 1005.9 40.8525 972.665 40.5211C945.664 40.2725 923.232 39.6097 911.394 38.6983C901.216 37.9526 881.9 36.047 868.815 34.3899C855.73 32.8157 835.584 29.6673 824.16 27.5131C812.737 25.276 793.628 20.8848 781.582 17.7364C769.535 14.5051 752.504 9.45104 743.781 6.46832Z" fill="#FFAE01" stroke="black" stroke-width="2"/>
</svg>
