<svg width="1381" height="555" viewBox="0 0 1381 555" fill="none" xmlns="http://www.w3.org/2000/svg">
<path d="M704.016 5.85398C695.563 3.20635 687.897 1 687.11 1C686.128 1 682.786 2.02963 679.64 3.2799C676.495 4.53017 667.256 7.47197 659.196 9.82542C651.136 12.1053 637.376 15.6355 628.726 17.6947C620.077 19.754 606.906 22.5487 599.239 23.9461C591.573 25.417 576.633 27.6969 565.821 29.1678C555.009 30.5651 540.462 32.1831 533.385 32.845C526.308 33.507 511.172 34.5366 499.573 35.1985C487.385 35.7869 464.386 36.3017 445.514 36.3017C426.839 36.3752 394.01 35.7133 370.224 34.8308C347.028 34.0218 320.883 33.3599 312.233 33.3599C303.584 33.3599 291.396 33.8747 285.302 34.463C279.011 35.0514 268.789 36.5223 262.695 37.699C256.404 38.8758 247.362 41.1557 242.447 42.7001C237.533 44.3181 230.063 47.407 225.738 49.6133C221.413 51.8197 215.516 56.2324 212.567 59.4684C209.618 62.7044 207.063 66.7494 207.063 68.5145V71.6033C192.516 72.2652 182.687 73.0742 175.61 73.8097C168.533 74.5452 157.525 76.4573 151.038 78.0753C144.551 79.6198 135.705 82.4145 131.183 84.1796C126.858 85.9446 120.961 88.8865 118.012 90.7251C115.26 92.5637 111.132 95.8732 109.166 98.0796C107.004 100.286 104.842 104.037 104.055 106.39L104.043 106.431C102.876 110.509 102.855 110.582 96.5852 110.582C93.0467 110.582 84.987 111.097 78.893 111.685C72.6024 112.274 61.9872 113.818 55.3034 115.069C47.6368 116.539 38.0044 119.261 30.1412 122.276C21.8849 125.365 15.0046 128.895 11.073 132.131C7.53459 134.852 3.603 138.603 2.6201 140.515C1.24404 142.869 0.850882 218.473 1.04746 369.461L1.57112 569.621V720H1378.68V570.909C1378.4 538.355 1377.95 460.753 1377.5 372.035C1376.71 216.634 1377.1 159.858 1378.68 154.709C1380.64 148.826 1380.45 146.84 1377.89 142.207C1376.12 139.191 1371.99 134.558 1368.65 131.91C1364.52 128.601 1358.23 125.512 1348.6 121.908C1338.97 118.378 1330.32 116.025 1321.67 114.48C1314.59 113.23 1303.98 111.833 1298.08 111.391C1292.18 110.95 1285.11 110.509 1282.55 110.435C1278.23 110.215 1277.44 109.626 1274.29 103.595C1272.33 99.9918 1268.2 95.1378 1265.25 92.9314C1262.3 90.7251 1254.05 86.6066 1246.97 83.8854C1237.34 80.061 1230.46 78.1489 1218.47 75.9425C1208.44 74.1039 1198.22 72.8536 1189.96 72.4859C1182.88 72.1182 1176 71.6033 1174.82 71.3827C1173.45 71.0885 1172.27 69.7647 1172.27 68.4409C1172.27 67.1906 1170.89 64.1017 1169.32 61.6747C1167.55 59.2478 1163.23 55.2763 1159.69 52.8493C1155.95 50.4223 1147.5 46.4509 1140.62 44.0239C1133.74 41.5969 1123.12 38.6551 1117.23 37.5519C1111.33 36.4488 1101.5 35.0514 1095.6 34.463C1089.71 33.8747 1076.93 33.3599 1067.1 33.3599C1057.27 33.3599 1029.55 34.0218 1005.18 34.9043C970.775 36.081 952.1 36.3752 920.647 36.081C895.092 35.8604 873.861 35.272 862.656 34.463C853.024 33.8011 834.742 32.1096 822.357 30.6387C809.973 29.2413 790.904 26.4466 780.093 24.5344C769.281 22.5487 751.195 18.6508 739.794 15.8561C728.392 12.9879 712.273 8.50161 704.016 5.85398Z" fill="#101234" stroke="black" stroke-width="2"/>
</svg>
