<svg width="1512" height="663" viewBox="0 0 1512 663" fill="none" xmlns="http://www.w3.org/2000/svg">
<path d="M767.408 7.08266C758.085 3.76485 749.629 1 748.761 1C747.677 1 743.991 2.29026 740.522 3.85701C737.053 5.42376 726.862 9.11022 717.973 12.0594C709.083 14.9164 693.905 19.3402 684.365 21.9207C674.825 24.5012 660.298 28.0033 651.842 29.7544C643.386 31.5976 626.907 34.4547 614.982 36.2979C603.057 38.049 587.012 40.0765 579.207 40.906C571.401 41.7354 554.706 43.0257 541.913 43.8551C528.47 44.5924 503.102 45.2376 482.287 45.2376C461.689 45.3297 425.48 44.5003 399.244 43.3943C373.659 42.3806 344.822 41.5511 335.282 41.5511C325.742 41.5511 312.299 42.1962 305.577 42.9335C298.639 43.6708 287.364 45.514 280.643 46.9886C273.704 48.4632 263.73 51.3202 258.31 53.2556C252.889 55.2832 244.65 59.154 239.88 61.9188C235.11 64.6837 228.605 70.2133 225.353 74.2685C222.101 78.3236 219.282 83.3925 219.282 85.6043V89.4751C203.237 90.3046 192.396 91.3184 184.59 92.24C176.785 93.1616 164.643 95.5578 157.488 97.5853C150.332 99.5207 140.575 103.023 135.589 105.235C130.818 107.447 124.314 111.133 121.061 113.437C118.026 115.741 113.473 119.888 111.304 122.653C108.919 125.418 106.534 130.118 105.667 133.068L105.654 133.119C104.366 138.229 104.343 138.321 97.4279 138.321C93.5251 138.321 84.6354 138.966 77.9139 139.703C70.9756 140.44 59.2672 142.376 51.8952 143.943C43.4392 145.786 32.8149 149.196 24.142 152.974C15.0355 156.845 7.44672 161.269 3.11027 165.324C-0.792524 168.734 -5.12896 173.434 -6.21307 175.831C-7.73083 178.78 -8.16447 273.522 -7.94765 462.73L-7.37006 713.556V902H1511.54V715.169C1511.24 674.375 1510.74 577.13 1510.24 465.955C1509.37 271.218 1509.81 200.069 1511.54 193.618C1513.71 186.245 1513.49 183.756 1510.67 177.95C1508.72 174.172 1504.17 168.365 1500.48 165.048C1495.93 160.9 1488.99 157.03 1478.37 152.514C1467.74 148.09 1458.2 145.141 1448.66 143.205C1440.86 141.639 1429.15 139.888 1422.64 139.335C1416.14 138.782 1408.33 138.229 1405.52 138.136C1400.75 137.86 1399.88 137.123 1396.41 129.565C1394.24 125.049 1389.69 118.967 1386.44 116.202C1383.18 113.437 1374.08 108.276 1366.27 104.866C1355.65 100.074 1348.06 97.6775 1334.83 94.9127C1323.77 92.6086 1312.5 91.0419 1303.39 90.5811C1295.59 90.1202 1288 89.4751 1286.7 89.1986C1285.18 88.83 1283.88 87.1711 1283.88 85.5122C1283.88 83.9454 1282.36 80.0746 1280.63 77.0333C1278.67 73.992 1273.9 69.0152 1270 65.9739C1265.88 62.9326 1256.56 57.9559 1248.97 54.9145C1241.38 51.8732 1229.67 48.1867 1223.17 46.8043C1216.66 45.4219 1205.82 43.6708 1199.32 42.9335C1192.81 42.1962 1178.72 41.5511 1167.88 41.5511C1157.04 41.5511 1126.47 42.3806 1099.58 43.4865C1061.64 44.9611 1041.04 45.3297 1006.35 44.9611C978.159 44.6846 954.742 43.9473 942.383 42.9335C931.759 42.1041 911.595 39.9843 897.935 38.1411C884.275 36.39 863.243 32.8879 851.318 30.4917C839.393 28.0033 819.445 23.1188 806.87 19.6166C794.294 16.0223 776.515 10.4005 767.408 7.08266Z" fill="#EE2D69" stroke="black" stroke-width="2"/>
</svg>
