<svg width="1512" height="663" viewBox="0 0 1512 663" fill="none" xmlns="http://www.w3.org/2000/svg">
<path d="M767.408 7.08266C758.085 3.76485 749.629 1 748.761 1C747.677 1 743.991 2.29026 740.522 3.85701C737.053 5.42376 726.862 9.11022 717.973 12.0594C709.083 14.9164 693.905 19.3402 684.365 21.9207C674.825 24.5012 660.298 28.0033 651.842 29.7544C643.386 31.5976 626.907 34.4547 614.982 36.2979C603.057 38.049 587.012 40.0765 579.207 40.906C571.401 41.7354 554.706 43.0257 541.913 43.8551C528.47 44.5924 503.102 45.2376 482.287 45.2376C461.689 45.3297 425.48 44.5003 399.244 43.3943C373.659 42.3806 344.822 41.5511 335.282 41.5511C325.742 41.5511 312.299 42.1962 305.577 42.9335C298.639 43.6708 287.364 45.514 280.643 46.9886C273.704 48.4632 263.73 51.3202 258.31 53.2556C252.889 55.2832 244.65 59.154 239.88 61.9188C235.11 64.6837 228.605 70.2133 225.353 74.2685C222.101 78.3236 219.282 83.3925 219.282 85.6043V89.4751C203.237 90.3046 192.396 91.3184 184.59 92.24C176.785 93.1616 164.643 95.5578 157.488 97.5853C150.332 99.5207 140.575 103.023 135.589 105.235C130.818 107.447 124.314 111.133 121.061 113.437C118.026 115.741 113.473 119.888 111.304 122.653C108.919 125.418 106.534 130.118 105.667 133.068L105.654 133.119C104.366 138.229 104.343 138.321 97.4279 138.321C93.5251 138.321 84.6354 138.966 77.9139 139.703C70.9756 140.44 59.2672 142.376 51.8952 143.943C43.4392 145.786 32.8149 149.196 24.142 152.974C15.0355 156.845 7.44672 161.269 3.11027 165.324C-0.792524 168.734 -5.12896 173.434 -6.21307 175.831C-7.73083 178.78 -8.16447 273.522 -7.94765 462.73L-7.37006 713.556V902H1511.54V715.169C1511.24 674.375 1510.74 577.13 1510.24 465.955C1509.37 271.218 1509.81 200.069 1511.54 193.618C1513.71 186.245 1513.49 183.756 1510.67 177.95C1508.72 174.172 1504.17 168.365 1500.48 165.048C1495.93 160.9 1488.99 157.03 1478.37 152.514C1467.74 148.09 1458.2 145.141 1448.66 143.205C1440.86 141.639 1429.15 139.888 1422.64 139.335C1416.14 138.782 1408.33 138.229 1405.52 138.136C1400.75 137.86 1399.88 137.123 1396.41 129.565C1394.24 125.049 1389.69 118.967 1386.44 116.202C1383.18 113.437 1374.08 108.276 1366.27 104.866C1355.65 100.074 1348.06 97.6775 1334.83 94.9127C1323.77 92.6086 1312.5 91.0419 1303.39 90.5811C1295.59 90.1202 1288 89.4751 1286.7 89.1986C1285.18 88.83 1283.88 87.1711 1283.88 85.5122C1283.88 83.9454 1282.36 80.0746 1280.63 77.0333C1278.67 73.992 1273.9 69.0152 1270 65.9739C1265.88 62.9326 1256.56 57.9559 1248.97 54.9145C1241.38 51.8732 1229.67 48.1867 1223.17 46.8043C1216.66 45.4219 1205.82 43.6708 1199.32 42.9335C1192.81 42.1962 1178.72 41.5511 1167.88 41.5511C1157.04 41.5511 1126.47 42.3806 1099.58 43.4865C1061.64 44.9611 1041.04 45.3297 1006.35 44.9611C978.159 44.6846 954.742 43.9473 942.383 42.9335C931.759 42.1041 911.595 39.9843 897.935 38.1411C884.275 36.39 863.243 32.8879 851.318 30.4917C839.393 28.0033 819.445 23.1188 806.87 19.6166C794.294 16.0223 776.515 10.4005 767.408 7.08266Z" fill="#EE2D69" stroke="black" stroke-width="2"/>
<path d="M763.781 52.4683C754.85 49.4856 746.749 47 745.919 47C744.88 47 741.349 48.1599 738.026 49.5685C734.703 50.977 724.941 54.2911 716.425 56.9424C707.91 59.5109 693.371 63.4878 684.232 65.8077C675.093 68.1276 661.178 71.276 653.077 72.8503C644.977 74.5073 629.192 77.0758 617.769 78.7328C606.345 80.3071 590.975 82.1298 583.498 82.8755C576.021 83.6212 560.028 84.7811 547.774 85.5268C534.897 86.1896 510.596 86.7696 490.657 86.7696C470.926 86.8525 436.24 86.1068 411.108 85.1125C386.6 84.2012 358.976 83.4555 349.837 83.4555C340.698 83.4555 327.821 84.0355 321.383 84.6983C314.736 85.3611 303.936 87.0182 297.497 88.3438C290.851 89.6695 281.297 92.2379 276.104 93.9779C270.912 95.8006 263.019 99.2805 258.45 101.766C253.88 104.252 247.649 109.223 244.534 112.868C241.419 116.514 238.718 121.071 238.718 123.059V126.539C223.349 127.285 212.964 128.196 205.487 129.025C198.009 129.853 186.378 132.008 179.524 133.83C172.67 135.57 163.324 138.719 158.547 140.707C153.977 142.696 147.746 146.01 144.631 148.081C141.723 150.152 137.361 153.881 135.284 156.366C133 158.852 130.715 163.078 129.884 165.729L129.872 165.775C128.638 170.369 128.616 170.452 121.992 170.452C118.253 170.452 109.738 171.031 103.299 171.694C96.6525 172.357 85.4368 174.097 78.375 175.506C70.2747 177.163 60.0975 180.228 51.7896 183.625C43.0662 187.105 35.7968 191.082 31.6428 194.728C27.9042 197.793 23.7502 202.019 22.7117 204.173C21.2578 206.824 20.8424 291.997 21.0501 462.095L21.6034 687.588V857H1476.6V689.039C1476.31 652.365 1475.83 564.941 1475.36 464.995C1474.53 289.926 1474.94 225.963 1476.6 220.164C1478.68 213.535 1478.47 211.298 1475.77 206.078C1473.9 202.681 1469.54 197.462 1466.01 194.479C1461.65 190.751 1455 187.271 1444.82 183.211C1434.65 179.234 1425.51 176.583 1416.37 174.843C1408.89 173.434 1397.68 171.86 1391.45 171.363C1385.22 170.866 1377.74 170.369 1375.04 170.286C1370.47 170.037 1369.64 169.374 1366.31 162.58C1364.24 158.521 1359.88 153.052 1356.76 150.567C1353.65 148.081 1344.92 143.441 1337.44 140.376C1327.27 136.067 1320 133.913 1307.33 131.428C1296.74 129.356 1285.94 127.948 1277.21 127.533C1269.73 127.119 1262.47 126.539 1261.22 126.291C1259.77 125.959 1258.52 124.468 1258.52 122.977C1258.52 121.568 1257.07 118.088 1255.4 115.354C1253.53 112.62 1248.96 108.146 1245.23 105.412C1241.28 102.677 1232.35 98.2034 1225.08 95.4692C1217.81 92.7351 1206.59 89.4209 1200.36 88.1781C1194.13 86.9353 1183.75 85.3611 1177.52 84.6983C1171.29 84.0355 1157.79 83.4555 1147.4 83.4555C1137.02 83.4555 1107.73 84.2012 1081.98 85.1954C1045.63 86.5211 1025.9 86.8525 992.665 86.5211C965.664 86.2725 943.232 85.6097 931.394 84.6983C921.216 83.9526 901.9 82.047 888.815 80.3899C875.73 78.8157 855.584 75.6673 844.16 73.5131C832.737 71.276 813.628 66.8848 801.582 63.7364C789.535 60.5051 772.504 55.451 763.781 52.4683Z" fill="#FFAE01" stroke="black" stroke-width="2"/>
<path d="M761.016 113.854C752.563 111.206 744.897 109 744.11 109C743.128 109 739.786 110.03 736.64 111.28C733.495 112.53 724.256 115.472 716.196 117.825C708.136 120.105 694.376 123.635 685.726 125.695C677.077 127.754 663.906 130.549 656.239 131.946C648.573 133.417 633.633 135.697 622.821 137.168C612.009 138.565 597.462 140.183 590.385 140.845C583.308 141.507 568.172 142.537 556.573 143.198C544.385 143.787 521.386 144.302 502.514 144.302C483.839 144.375 451.01 143.713 427.224 142.831C404.028 142.022 377.883 141.36 369.233 141.36C360.584 141.36 348.396 141.875 342.302 142.463C336.011 143.051 325.789 144.522 319.695 145.699C313.404 146.876 304.362 149.156 299.447 150.7C294.533 152.318 287.063 155.407 282.738 157.613C278.413 159.82 272.516 164.232 269.567 167.468C266.618 170.704 264.063 174.749 264.063 176.514V179.603C249.516 180.265 239.687 181.074 232.61 181.81C225.533 182.545 214.525 184.457 208.038 186.075C201.551 187.62 192.705 190.414 188.183 192.18C183.858 193.945 177.961 196.886 175.012 198.725C172.26 200.564 168.132 203.873 166.166 206.08C164.004 208.286 161.842 212.037 161.055 214.39L161.043 214.431C159.876 218.509 159.855 218.582 153.585 218.582C150.047 218.582 141.987 219.097 135.893 219.685C129.602 220.274 118.987 221.818 112.303 223.069C104.637 224.539 95.0044 227.261 87.1412 230.276C78.8849 233.365 72.0046 236.895 68.073 240.131C64.5346 242.852 60.603 246.603 59.6201 248.515C58.244 250.869 57.8509 326.473 58.0475 477.461L58.5711 677.621V828H1435.68V678.909C1435.4 646.355 1434.95 568.753 1434.5 480.035C1433.71 324.634 1434.1 267.858 1435.68 262.709C1437.64 256.826 1437.45 254.84 1434.89 250.207C1433.12 247.191 1428.99 242.558 1425.65 239.91C1421.52 236.601 1415.23 233.512 1405.6 229.908C1395.97 226.378 1387.32 224.025 1378.67 222.48C1371.59 221.23 1360.98 219.833 1355.08 219.391C1349.18 218.95 1342.11 218.509 1339.55 218.435C1335.23 218.215 1334.44 217.626 1331.29 211.595C1329.33 207.992 1325.2 203.138 1322.25 200.931C1319.3 198.725 1311.05 194.607 1303.97 191.885C1294.34 188.061 1287.46 186.149 1275.47 183.943C1265.44 182.104 1255.22 180.854 1246.96 180.486C1239.88 180.118 1233 179.603 1231.82 179.383C1230.45 179.089 1229.27 177.765 1229.27 176.441C1229.27 175.191 1227.89 172.102 1226.32 169.675C1224.55 167.248 1220.23 163.276 1216.69 160.849C1212.95 158.422 1204.5 154.451 1197.62 152.024C1190.74 149.597 1180.12 146.655 1174.23 145.552C1168.33 144.449 1158.5 143.051 1152.6 142.463C1146.71 141.875 1133.93 141.36 1124.1 141.36C1114.27 141.36 1086.55 142.022 1062.18 142.904C1027.77 144.081 1009.1 144.375 977.647 144.081C952.092 143.86 930.861 143.272 919.656 142.463C910.024 141.801 891.742 140.11 879.357 138.639C866.973 137.241 847.904 134.447 837.093 132.534C826.281 130.549 808.195 126.651 796.794 123.856C785.392 120.988 769.273 116.502 761.016 113.854Z" fill="#101234" stroke="black" stroke-width="2"/>
</svg>
