<svg width="24" height="23" viewBox="0 0 24 23" fill="none" xmlns="http://www.w3.org/2000/svg">
<rect x="5.11426" y="5.75317" width="13.7975" height="13.1076" fill="#88D1E2"/>
<path fill-rule="evenodd" clip-rule="evenodd" d="M0.974609 11.962C0.974609 5.86594 5.91648 0.924072 12.0126 0.924072C18.1087 0.924072 23.0506 5.86594 23.0506 11.962C23.0506 18.0582 18.1087 23 12.0126 23C5.91648 23 0.974609 18.0582 0.974609 11.962ZM12.0131 6.07513C10.4143 6.07513 10.2137 6.08212 9.58574 6.11069C8.95902 6.13939 8.53123 6.23861 8.15692 6.38419C7.76973 6.53456 7.44128 6.7357 7.11406 7.06304C6.7866 7.39025 6.58546 7.7187 6.43461 8.10577C6.28866 8.4802 6.18932 8.90811 6.16111 9.53459C6.13302 10.1625 6.12566 10.3633 6.12566 11.9621C6.12566 13.5609 6.13278 13.7609 6.16123 14.3889C6.19005 15.0156 6.28927 15.4434 6.43473 15.8177C6.58522 16.2049 6.78636 16.5333 7.1137 16.8606C7.44079 17.188 7.76924 17.3897 8.15618 17.54C8.53074 17.6856 8.95865 17.7848 9.58525 17.8135C10.2132 17.8421 10.4137 17.8491 12.0124 17.8491C13.6113 17.8491 13.8114 17.8421 14.4393 17.8135C15.066 17.7848 15.4943 17.6856 15.8689 17.54C16.2559 17.3897 16.5839 17.188 16.911 16.8606C17.2384 16.5333 17.4396 16.2049 17.5904 15.8178C17.7352 15.4434 17.8345 15.0155 17.8639 14.389C17.8921 13.7611 17.8995 13.5609 17.8995 11.9621C17.8995 10.3633 17.8921 10.1627 17.8639 9.53471C17.8345 8.90799 17.7352 8.4802 17.5904 8.10589C17.4396 7.7187 17.2384 7.39025 16.911 7.06304C16.5835 6.73557 16.2561 6.53443 15.8685 6.38419C15.4932 6.23861 15.0652 6.13939 14.4384 6.11069C13.8105 6.08212 13.6106 6.07513 12.0113 6.07513H12.0131Z" fill="#E83D69"/>
<path fill-rule="evenodd" clip-rule="evenodd" d="M11.485 7.13601C11.6418 7.13577 11.8167 7.13601 12.0131 7.13601C13.585 7.13601 13.7713 7.14165 14.392 7.16986C14.9659 7.19611 15.2775 7.29202 15.485 7.37259C15.7597 7.47929 15.9556 7.60685 16.1615 7.81289C16.3675 8.01893 16.4951 8.21517 16.602 8.48989C16.6826 8.69716 16.7786 9.00868 16.8048 9.58266C16.833 10.2032 16.8391 10.3897 16.8391 11.9608C16.8391 13.5318 16.833 13.7183 16.8048 14.3389C16.7785 14.9128 16.6826 15.2244 16.602 15.4316C16.4953 15.7064 16.3675 15.902 16.1615 16.1079C15.9555 16.3139 15.7598 16.4415 15.485 16.5482C15.2777 16.6291 14.9659 16.7248 14.392 16.751C13.7714 16.7793 13.585 16.7854 12.0131 16.7854C10.4412 16.7854 10.2549 16.7793 9.63431 16.751C9.06032 16.7246 8.74881 16.6286 8.54117 16.5481C8.26644 16.4414 8.07021 16.3138 7.86416 16.1078C7.65812 15.9017 7.53057 15.706 7.42362 15.4311C7.34304 15.2239 7.24701 14.9123 7.22089 14.3384C7.19268 13.7178 7.18704 13.5314 7.18704 11.9593C7.18704 10.3872 7.19268 10.2018 7.22089 9.58119C7.24713 9.00721 7.34304 8.69569 7.42362 8.48818C7.53032 8.21345 7.65812 8.01722 7.86416 7.81117C8.07021 7.60513 8.26644 7.47758 8.54117 7.37063C8.74868 7.28968 9.06032 7.19402 9.63431 7.16765C10.1774 7.14312 10.3878 7.13576 11.485 7.13454V7.13601ZM15.1556 8.11349C14.7655 8.11349 14.4491 8.42955 14.4491 8.81969C14.4491 9.2097 14.7655 9.52612 15.1556 9.52612C15.5456 9.52612 15.862 9.2097 15.862 8.81969C15.862 8.42967 15.5456 8.11349 15.1556 8.11349ZM12.0131 8.9389C10.3436 8.9389 8.98993 10.2925 8.98993 11.9621C8.98993 13.6317 10.3436 14.9847 12.0131 14.9847C13.6827 14.9847 15.0359 13.6317 15.0359 11.9621C15.0359 10.2925 13.6827 8.9389 12.0131 8.9389Z" fill="#E83D69"/>
<path fill-rule="evenodd" clip-rule="evenodd" d="M12.0131 9.99978C13.0968 9.99978 13.9755 10.8783 13.9755 11.9621C13.9755 13.0458 13.0968 13.9244 12.0131 13.9244C10.9293 13.9244 10.0508 13.0458 10.0508 11.9621C10.0508 10.8783 10.9293 9.99978 12.0131 9.99978Z" fill="#E83D69"/>
</svg>
