<svg width="24" height="24" viewBox="0 0 24 24" fill="none" xmlns="http://www.w3.org/2000/svg">
<path fill-rule="evenodd" clip-rule="evenodd" d="M9.6494 9.4982H7.14795V16.7548H9.6494V9.4982Z" fill="#E83D69"/>
<path fill-rule="evenodd" clip-rule="evenodd" d="M9.81411 7.25344C9.79788 6.54193 9.2709 6 8.41518 6C7.55945 6 7 6.54193 7 7.25344C7 7.95021 7.54291 8.50774 8.3827 8.50774H8.39869C9.2709 8.50774 9.81411 7.95021 9.81411 7.25344Z" fill="#E83D69"/>
<path fill-rule="evenodd" clip-rule="evenodd" d="M18.6707 12.5946C18.6707 10.3657 17.4367 9.32834 15.7906 9.32834C14.4625 9.32834 13.8679 10.0327 13.5359 10.5268V9.49893H11.0342C11.0672 10.1799 11.0342 16.7556 11.0342 16.7556H13.5359V12.7029C13.5359 12.486 13.5522 12.2696 13.6183 12.1144C13.7991 11.6811 14.2107 11.2325 14.9018 11.2325C15.8073 11.2325 16.1693 11.8979 16.1693 12.8731V16.7554H18.6706L18.6707 12.5946Z" fill="#E83D69"/>
<circle cx="12" cy="12" r="11.5" stroke="#E83D69"/>
</svg>
