<svg width="23" height="23" viewBox="0 0 23 23" fill="none" xmlns="http://www.w3.org/2000/svg">
<rect x="4.37305" y="5.75317" width="15.1772" height="13.7975" fill="#AA1111"/>
<path fill-rule="evenodd" clip-rule="evenodd" d="M0.923828 11.962C0.923828 5.86594 5.8657 0.924072 11.9618 0.924072C18.0579 0.924072 22.9998 5.86594 22.9998 11.962C22.9998 18.0582 18.0579 23 11.9618 23C5.8657 23 0.923828 18.0582 0.923828 11.962Z" fill="#E83D69"/>
<path fill-rule="evenodd" clip-rule="evenodd" d="M9.09324 9.25137H6.5918V16.508H9.09324V9.25137Z" fill="#88D1E2"/>
<path fill-rule="evenodd" clip-rule="evenodd" d="M9.25747 7.00661C9.24124 6.2951 8.71426 5.75317 7.85853 5.75317C7.00281 5.75317 6.44336 6.2951 6.44336 7.00661C6.44336 7.70338 6.98627 8.26092 7.82606 8.26092H7.84205C8.71426 8.26092 9.25747 7.70338 9.25747 7.00661Z" fill="#88D1E2"/>
<path fill-rule="evenodd" clip-rule="evenodd" d="M18.1141 12.3478C18.1141 10.1189 16.8801 9.08151 15.234 9.08151C13.9059 9.08151 13.3113 9.78585 12.9793 10.2799V9.25211H10.4775C10.5105 9.93303 10.4775 16.5087 10.4775 16.5087H12.9793V12.456C12.9793 12.2392 12.9955 12.0228 13.0617 11.8675C13.2424 11.4343 13.6541 10.9857 14.3452 10.9857C15.2507 10.9857 15.6127 11.6511 15.6127 12.6262V16.5086H18.114L18.1141 12.3478Z" fill="#88D1E2"/>
</svg>
