<svg width="633" height="102" viewBox="0 0 633 102" fill="none" xmlns="http://www.w3.org/2000/svg">
<path d="M105.085 50.8976C104.854 50.8976 104.623 50.9053 104.399 50.9207C104.484 50.9053 104.561 50.8976 104.646 50.8899C104.646 50.8822 104.661 50.8899 104.661 50.8899C104.8 50.8976 104.946 50.8976 105.085 50.8976Z" fill="white"/>
<path d="M489.559 50.8976C489.513 50.9053 489.475 50.9053 489.429 50.9207V50.8976H489.559Z" fill="white"/>
<path d="M496.493 50.8976C496.339 50.913 496.193 50.9361 496.039 50.9668C496.177 50.9361 496.308 50.913 496.446 50.8976H496.493Z" fill="white"/>
<path d="M490.176 50.8514L490.222 50.8976H489.429V50.7589C489.668 50.7898 489.906 50.8129 490.153 50.8283C490.292 50.836 490.438 50.836 490.577 50.836C490.446 50.836 490.307 50.836 490.176 50.8514Z" fill="white"/>
<path d="M496.993 50.8514C496.824 50.8668 496.662 50.8822 496.493 50.8975H496.447C496.447 50.8975 496.478 50.8898 496.493 50.8898C496.655 50.8745 496.824 50.8591 496.993 50.8514Z" fill="white"/>
<path d="M497.51 50.836C497.341 50.836 497.164 50.8437 496.995 50.8514C497.126 50.836 497.256 50.8283 497.395 50.8283C497.433 50.836 497.472 50.836 497.51 50.836Z" fill="white"/>
<path d="M590.592 58.4945C590.592 58.5637 590.607 58.6406 590.607 58.7097C590.599 58.7789 590.599 58.8481 590.599 58.9173C590.599 58.7789 590.599 58.6329 590.599 58.4945H590.592Z" fill="#FBB03B"/>
<path d="M598.69 50.836C598.173 50.836 597.673 50.8823 597.187 50.9747C597.187 50.9747 597.187 50.9747 597.18 50.9747C597.149 50.9747 597.126 50.9824 597.103 50.9901V50.836L597.203 50.705C597.28 50.7205 597.365 50.7359 597.442 50.7436C597.573 50.7667 597.711 50.7821 597.85 50.7975C598.127 50.8206 598.405 50.836 598.69 50.836Z" fill="#FBB03B"/>
<path d="M231.42 3.40552L231.404 3.41322L221.064 7.84346L221.018 7.82805L204.407 3.41322H204.391L204.376 3.40552H231.42Z" fill="#D05C32"/>
<path d="M490.846 51.7144C490.8 51.722 490.762 51.722 490.716 51.7374V51.7144H490.846Z" fill="white"/>
<path d="M497.78 51.7144C497.626 51.7297 497.48 51.7528 497.326 51.7835C497.465 51.7528 497.595 51.7297 497.734 51.7144H497.78Z" fill="white"/>
<path d="M491.463 51.6681L491.509 51.7143H490.716V51.5756C490.955 51.6064 491.194 51.6296 491.44 51.645C491.579 51.6527 491.725 51.6527 491.864 51.6527C491.733 51.6527 491.594 51.6527 491.463 51.6681Z" fill="white"/>
<path d="M498.28 51.6681C498.111 51.6835 497.95 51.6988 497.78 51.7142H497.734C497.734 51.7142 497.765 51.7065 497.78 51.7065C497.942 51.6912 498.111 51.6758 498.28 51.6681Z" fill="white"/>
<path d="M498.796 51.6527C498.627 51.6527 498.45 51.6604 498.281 51.668C498.412 51.6527 498.543 51.645 498.681 51.645C498.719 51.6527 498.758 51.6527 498.796 51.6527Z" fill="white"/>
<path d="M531.974 4.22992V25.1175L527.536 14.6776L531.974 4.22992Z" fill="#D05C32"/>
<path d="M532.66 78.3805V99.0832L528.261 88.7357L532.66 78.3805Z" fill="#D05C32"/>
<path d="M528.584 40.8583V61.4763L524.146 51.7143L528.584 40.8583Z" fill="#D05C32"/>
<path d="M531.974 4.22992L527.536 14.6776H483.781L472.979 4.22992H531.974Z" fill="#F6971B"/>
<path d="M501.61 25.2182V25.226L501.502 25.1175H501.51L501.61 25.2182Z" fill="#FFD104"/>
<path d="M531.975 25.1175H494.676V25.2177L483.781 14.6776H527.537L531.975 25.1175Z" fill="#FFD104"/>
<path d="M494.683 40.8583L490.792 44.7724L490.723 44.8494L490.6 44.965H490.592V44.9804L486.208 49.3875C486.524 49.6957 486.871 49.9808 487.24 50.235C488.242 50.9285 489.429 51.3985 490.715 51.5757C490.954 51.6065 491.193 51.6296 491.44 51.645C491.578 51.6527 491.725 51.6527 491.863 51.6527C491.732 51.6527 491.594 51.6527 491.463 51.6681L491.509 51.7143H497.734C497.734 51.7143 497.765 51.7066 497.781 51.7066C497.942 51.6912 498.112 51.6758 498.281 51.6681C498.412 51.6527 498.543 51.645 498.682 51.645C498.721 51.6527 498.759 51.6527 498.798 51.6527C498.628 51.6527 498.451 51.6604 498.281 51.6681C498.112 51.6835 497.95 51.6989 497.781 51.7143H524.146L528.584 40.8583H494.683ZM495.87 51.1288C495.808 51.1057 495.739 51.0749 495.677 51.044C495.747 51.0749 495.816 51.098 495.885 51.1288H495.87ZM496.409 51.306C496.309 51.2752 496.209 51.2444 496.109 51.2058C496.301 51.2675 496.502 51.3291 496.702 51.383C496.602 51.3599 496.502 51.3368 496.409 51.306Z" fill="#F6971B"/>
<path d="M491.509 51.7143H490.847C491.047 51.6912 491.255 51.6758 491.463 51.6681L491.509 51.7143Z" fill="#F6971B"/>
<path d="M495.885 51.1286H495.87C495.808 51.1056 495.739 51.0748 495.678 51.0441C495.747 51.0748 495.816 51.0979 495.885 51.1286Z" fill="#F6971B"/>
<path d="M496.7 51.3826C496.6 51.3595 496.5 51.3365 496.408 51.3057C496.308 51.275 496.208 51.2442 496.108 51.2058C496.301 51.2673 496.5 51.3288 496.7 51.3826Z" fill="#F6971B"/>
<path d="M498.28 51.6681C498.111 51.6835 497.95 51.6988 497.78 51.7142H497.734C497.734 51.7142 497.765 51.7065 497.78 51.7065C497.942 51.6912 498.111 51.6758 498.28 51.6681Z" fill="#F6971B"/>
<path d="M498.796 51.6527C498.627 51.6527 498.45 51.6604 498.281 51.668C498.412 51.6527 498.543 51.645 498.681 51.645C498.719 51.6527 498.758 51.6527 498.796 51.6527Z" fill="#F6971B"/>
<path d="M494.684 40.8583L490.793 44.7724L490.723 44.8494L490.6 44.965H490.592V44.9804L486.208 49.3875C484.791 48.0161 483.889 46.1207 483.789 43.9865V14.6853L494.684 25.2254V40.8583H494.691H494.684Z" fill="#F26923"/>
<path d="M528.584 61.4763H494.675L490.923 57.855H490.915L490.715 57.6547L490.345 57.3003L486.531 53.6097C486.755 53.4171 486.994 53.2322 487.24 53.0704C488.249 52.3693 489.428 51.8993 490.715 51.7375C490.761 51.7221 490.8 51.7221 490.846 51.7144H497.734C497.595 51.7298 497.464 51.7529 497.326 51.7837C497.48 51.7529 497.626 51.7298 497.78 51.7144H524.146L528.584 61.4763Z" fill="#FFD104"/>
<path d="M497.78 51.7144C497.626 51.7297 497.48 51.7528 497.326 51.7835C497.465 51.7528 497.595 51.7297 497.734 51.7144H497.78Z" fill="#FFD104"/>
<path d="M494.676 61.484V78.2958L483.858 88.7357H483.773V59.319C483.897 57.0152 484.929 54.9966 486.532 53.6097L490.346 57.3003L490.715 57.6547L490.916 57.8551H490.923L494.676 61.484Z" fill="#F26923"/>
<path d="M483.859 88.7357L483.851 88.7444V88.7357H483.859Z" fill="#F26923"/>
<path d="M532.66 78.2881V78.3805L528.261 88.728L483.858 88.7357L494.676 78.2958L494.691 78.2881H532.66Z" fill="#F6971B"/>
<path d="M532.661 99.0755V99.1834H473.064L483.843 88.7434H483.851V88.7357H483.859L528.261 88.728L532.661 99.0755Z" fill="#FFD104"/>
<path d="M483.842 88.7434L473.063 99.1834H472.971V60.8676L472.955 60.9061C472.732 60.0817 472.185 59.5116 472.185 59.5116C468.417 55.6438 464.842 60.675 464.842 60.675C464.473 56.3757 465.759 53.5635 469.273 51.8453C470.536 51.2212 471.831 51.098 472.971 51.1981V4.23761H472.979L483.781 14.6853V43.9865C483.781 43.8478 483.781 43.7014 483.781 43.5627C483.781 45.6584 483.01 47.5461 481.747 48.9637C480.275 50.6203 478.125 51.6527 475.691 51.6527C480.229 51.6527 483.781 55.2046 483.781 59.7427C483.781 59.6271 483.781 59.5193 483.781 59.4037V88.7434H483.842Z" fill="#FFD104"/>
<path d="M465.884 76.0305L465.783 76.0537" stroke="#FBB03B" stroke-miterlimit="10"/>
<path d="M298.027 3.40552L297.996 3.41322L281.439 7.84346L281.4 7.82805L270.991 3.41322L270.976 3.40552H298.027Z" fill="#D05C32"/>
<path d="M263.093 98.3667H239.316L251.205 93.9365L263.093 98.3667Z" fill="#D05C32"/>
<path d="M559.157 6.04053L559.149 6.03283L557.315 3.41321" stroke="white" stroke-width="0.73" stroke-miterlimit="10"/>
<path d="M623.9 3.41321L622.082 6.00971L622.074 6.01742" stroke="white" stroke-width="0.73" stroke-miterlimit="10"/>
<path d="M590.607 98.3744V98.3127V98.305V95.8934V95.8857" stroke="white" stroke-width="0.73" stroke-miterlimit="10"/>
<path d="M310.439 71.9171V71.9085" stroke="white" stroke-width="0.73" stroke-miterlimit="10"/>
<path d="M393.111 72.4005C393.034 72.239 392.965 72.0776 392.896 71.9085" stroke="white" stroke-width="0.73" stroke-miterlimit="10"/>
<path d="M154.118 60.3283C154.118 60.3283 151.291 56.3449 148.008 58.1864V77.4714L137.168 87.919H137.152V58.98C137.152 54.4419 140.704 50.8977 145.242 50.8977C140.704 50.8977 137.152 47.3458 137.152 42.8077V13.8686H137.16L148.008 24.3085V50.9516C148.563 51.0518 149.126 51.229 149.688 51.4986C153.201 53.2168 154.488 56.0213 154.118 60.3283Z" fill="#F6971B"/>
<path d="M137.17 87.919L137.161 87.9277H137.152V87.919H137.17Z" fill="#F26923"/>
<path d="M148.008 77.4714V77.4791L137.167 87.919L148.008 77.4714Z" fill="#F26923"/>
<path d="M210.4 50.8822H208.043C207.873 50.8822 207.704 50.8745 207.534 50.8668H207.465C207.241 50.8514 207.018 50.8206 206.794 50.7898C206.663 50.7744 206.525 50.7513 206.394 50.7204C206.286 50.6973 206.178 50.6742 206.078 50.6511C205.893 50.6049 205.716 50.5586 205.546 50.5047C205.315 50.4277 205.084 50.3506 204.868 50.2582C204.498 50.1041 204.152 49.9268 203.82 49.7265C203.597 49.5955 203.381 49.4492 203.173 49.2951C202.973 49.141 202.772 48.9792 202.58 48.8097C202.487 48.7172 202.395 48.6325 202.302 48.54C201.933 48.1779 201.609 47.7772 201.324 47.3535C201.247 47.2456 201.178 47.1377 201.116 47.0222C200.977 46.7987 200.854 46.5753 200.746 46.3364C200.692 46.2363 200.646 46.1284 200.6 46.0205C200.546 45.8819 200.492 45.7432 200.446 45.6122C200.399 45.4966 200.361 45.3887 200.33 45.2732C200.307 45.1961 200.284 45.1191 200.261 45.042C200.238 44.9496 200.214 44.8571 200.191 44.7647C200.13 44.495 200.076 44.233 200.037 43.9557C200.022 43.8401 200.006 43.7245 199.999 43.6012C199.976 43.3393 199.96 43.0696 199.96 42.7999C199.96 43.6552 199.837 44.4796 199.598 45.2501C197.21 26.6739 182.994 13.8609 164.287 13.8609H137.151L126.303 3.41321H164.287C190.453 3.41321 210.392 24.0312 210.4 50.8822Z" fill="#F6971B"/>
<path d="M137.151 87.919H137.167L137.159 87.9267H137.151L126.311 98.3667L137.151 87.919Z" fill="#F6971B"/>
<path d="M210.4 50.8822V51.1288C210.015 51.0055 209.629 50.9285 209.252 50.8822H210.4Z" fill="#F6971B"/>
<path d="M249.264 48.1239C247.793 49.8344 245.604 50.8977 243.116 50.8977H239.317L239.302 50.8745L204.392 3.42093H204.407L221.018 7.83576L249.264 48.1239Z" fill="#FFD104"/>
<path d="M251.206 93.9365V93.9442L239.341 98.3667L239.317 98.3744V98.3667L251.206 93.9365Z" fill="#FFD104"/>
<path d="M269.627 60.3283C269.627 60.3283 266.545 55.9982 263.094 58.456V98.3667L251.205 93.9365V58.98C251.205 54.4419 254.749 50.8977 259.287 50.8977H263.094V50.8823C263.787 50.967 264.496 51.1596 265.197 51.4986C268.71 53.2168 269.997 56.0213 269.627 60.3283Z" fill="#F6971B"/>
<path d="M263.094 98.3667V98.3744L263.07 98.3667L251.205 93.9442V93.9365L263.094 98.3667Z" fill="#F6971B"/>
<path d="M298.027 3.42093L263.101 50.8823V50.8977H259.287C256.799 50.8977 254.618 49.8344 253.146 48.1239L281.4 7.83576L281.438 7.85117L297.996 3.42093H298.027Z" fill="#F6971B"/>
<path d="M251.205 29.0007V42.7999C251.205 44.8571 250.481 46.7063 249.263 48.1162L221.018 7.82804L221.064 7.84345L231.404 3.41321H231.442L251.205 29.0007Z" fill="#F6971B"/>
<path d="M281.4 7.82804L253.147 48.1162C251.929 46.7063 251.205 44.8571 251.205 42.7999V29.0161L270.975 3.41321H270.991L281.4 7.82804Z" fill="#F26923"/>
<path d="M590.607 58.4945C590.607 58.3173 590.631 58.1401 590.661 57.9706C590.631 58.2094 590.615 58.4637 590.607 58.7102V58.4945Z" fill="white"/>
<path d="M598.69 50.836C598.173 50.836 597.673 50.8823 597.187 50.9747C597.187 50.9747 597.187 50.9747 597.18 50.9747C597.149 50.9747 597.126 50.9824 597.103 50.9901V50.836L597.203 50.705C597.28 50.7205 597.365 50.7359 597.442 50.7436C597.573 50.7667 597.711 50.7821 597.85 50.7975C598.127 50.8206 598.405 50.836 598.69 50.836Z" fill="white"/>
<path d="M565.413 3.35156L559.15 6.03282L555.074 7.7818L555.027 7.76639L538.416 3.35156H565.413Z" fill="#D05C32"/>
<path d="M632.005 3.35156L622.081 6.0097L615.448 7.7818L615.409 7.76639L605 3.35156H632.005Z" fill="#D05C32"/>
<path d="M597.103 98.3051H573.326L585.215 93.8748L590.608 95.8858L597.103 98.3051Z" fill="#D05C32"/>
<path d="M583.273 48.0623C581.801 49.7727 579.613 50.836 577.125 50.836H573.326L538.4 3.35925H538.416L555.027 7.77408L583.273 48.0623Z" fill="#FFD104"/>
<path d="M585.215 93.8747V93.8824L573.349 98.305L573.326 98.3127V98.305L585.215 93.8747Z" fill="#FFD104"/>
<path d="M590.601 58.9173C590.601 58.7789 590.601 58.6329 590.601 58.4945C590.601 58.5637 590.616 58.6406 590.616 58.7097C590.608 58.7789 590.608 58.8481 590.608 58.9173H590.601Z" fill="#F6971B"/>
<path d="M590.662 57.9706C590.632 58.2094 590.616 58.4637 590.608 58.7102V58.4945C590.608 58.3173 590.632 58.1401 590.662 57.9706Z" fill="#F6971B"/>
<path d="M597.103 98.305V98.3127L597.08 98.305L590.608 95.8934L585.215 93.8824V93.8747L590.608 95.8857L597.103 98.305Z" fill="#F6971B"/>
<path d="M632.036 3.35925L597.203 50.705L597.103 50.836H593.297C592.457 50.836 591.648 50.7127 590.893 50.4816C590.878 50.4816 590.862 50.4816 590.855 50.4739C590.631 50.4045 590.408 50.3275 590.192 50.2427C590.177 50.235 590.153 50.2273 590.13 50.2119C589.306 49.8729 588.559 49.4029 587.911 48.825C587.642 48.5862 587.387 48.3319 587.156 48.0623L587.888 47.0144L590.593 43.1697V43.1543L590.608 43.1389L615.402 7.77408L615.44 7.78949L622.067 6.01739L631.998 3.35925H632.029H632.036Z" fill="#F6971B"/>
<path d="M585.215 28.9468V42.746C585.215 42.8924 585.215 43.0388 585.207 43.1852C585.107 45.0651 584.406 46.7525 583.273 48.0623L555.027 7.77408L555.074 7.78949L559.157 6.04051L565.413 3.35925H565.452L585.215 28.9468Z" fill="#F6971B"/>
<path d="M615.409 7.77408L590.615 43.1312V43.1543H590.6V43.1697L587.895 47.0144L587.163 48.0623C586.038 46.7602 585.337 45.0805 585.237 43.216C585.229 43.0619 585.222 42.9078 585.222 42.746V28.9622L604.992 3.35925H605.007L615.417 7.77408H615.409Z" fill="#F26923"/>
<path d="M11.9339 51.7758C11.8801 51.7451 11.8263 51.722 11.7725 51.699C11.8263 51.7143 11.8801 51.7451 11.9339 51.7758Z" fill="#FFD104"/>
<path d="M107.234 50.8976V50.9899C107.065 50.9515 106.888 50.9207 106.719 50.8976H107.234Z" fill="#FFD104"/>
<path d="M107.234 50.8976H105.085C104.946 50.8976 104.8 50.8976 104.661 50.8899C104.661 50.8899 104.653 50.8822 104.645 50.8899C100.323 50.6665 97.0023 47.1994 97.0023 42.8076C97.0023 43.8016 96.8328 44.7415 96.5169 45.6122C94.0514 24.9095 77.1857 10.3475 56.5755 10.3475C35.9652 10.3475 19.2767 24.74 16.6648 45.2578C16.426 44.4873 16.3027 43.6629 16.3027 42.8076C16.3027 43.8016 16.1332 44.7415 15.8173 45.6122C15.7788 45.7355 15.7325 45.851 15.6863 45.9589C15.5784 46.2209 15.4629 46.4751 15.3319 46.714C15.2163 46.9297 15.093 47.13 14.9621 47.3303C14.7694 47.6231 14.5537 47.9082 14.3149 48.1702C14.2378 48.2626 14.1608 48.3474 14.076 48.4321C13.999 48.5169 13.9142 48.6016 13.8295 48.6787C13.7447 48.7634 13.6522 48.8405 13.5675 48.9175C12.6814 49.6957 11.6182 50.2736 10.4394 50.5972C10.3238 50.6357 10.2082 50.6588 10.0849 50.6896L9.8538 50.7358C9.73823 50.759 9.63036 50.7821 9.51479 50.7975L9.35299 50.8206C9.35299 50.8206 9.34529 50.8129 9.33758 50.8206C8.34367 50.6049 7.13402 50.5124 5.89355 50.8052C5.92437 34.2631 13.5059 19.9553 25.2864 10.8175C25.9259 10.3244 26.5808 9.84668 27.2434 9.3844C29.2313 7.98983 31.3193 6.74166 33.5074 5.63988C35.6956 4.54581 37.9685 3.59812 40.3261 2.81994C41.505 2.4347 42.6992 2.08799 43.9088 1.7798C44.9259 1.52554 45.9429 1.3021 46.983 1.10948C47.4993 1.00932 48.0232 0.924569 48.5394 0.839816C49.0633 0.762769 49.595 0.685721 50.1189 0.624083C50.6428 0.562445 51.1744 0.500807 51.7138 0.454578C52.5074 0.377531 53.3163 0.323597 54.1254 0.285073C54.9421 0.254254 55.7588 0.23114 56.5755 0.23114C57.3922 0.23114 58.2089 0.254254 59.0179 0.285073C59.8269 0.323597 60.6359 0.377531 61.4372 0.454578C61.9688 0.500807 62.4927 0.562445 63.0243 0.624083C63.556 0.685721 64.0799 0.762769 64.6038 0.839816C65.1277 0.924569 65.6517 1.00932 66.1679 1.10948C67.2003 1.3021 68.2251 1.52554 69.2344 1.7798C70.444 2.08799 71.646 2.4347 72.8171 2.81994C75.1748 3.59812 77.4477 4.54581 79.6358 5.63988C81.8163 6.74166 83.9119 7.98983 85.8998 9.3844C86.5624 9.84668 87.2096 10.3244 87.8491 10.8175C99.6528 19.9707 107.234 34.317 107.234 50.8976Z" fill="#F6971B"/>
<path d="M126.304 98.3666H126.312L126.304 98.3753V98.3666Z" fill="#FFD104"/>
<path d="M137.152 87.919V87.9267L126.312 98.3667L137.152 87.919Z" fill="#FFD104"/>
<path d="M373.966 75.8072L373.865 75.8303" stroke="#FBB03B" stroke-miterlimit="10"/>
<path d="M307.357 72.177C307.28 72.0156 307.211 71.8542 307.142 71.6851" stroke="white" stroke-width="0.73" stroke-miterlimit="10"/>
<path d="M500.324 24.4015V24.4093L500.216 24.3008H500.224L500.324 24.4015Z" fill="#FFD104"/>
<path d="M490.222 50.8976H489.56C489.76 50.8745 489.968 50.8591 490.176 50.8514L490.222 50.8976Z" fill="#F6971B"/>
<path d="M494.598 50.3119H494.583C494.521 50.2888 494.452 50.2581 494.391 50.2273C494.46 50.2581 494.529 50.2811 494.598 50.3119Z" fill="#F6971B"/>
<path d="M495.414 50.5659C495.314 50.5428 495.214 50.5198 495.122 50.489C495.022 50.4583 494.922 50.4275 494.822 50.3891C495.014 50.4506 495.214 50.5121 495.414 50.5659Z" fill="#F6971B"/>
<path d="M496.993 50.8514C496.824 50.8668 496.662 50.8822 496.493 50.8975H496.447C496.447 50.8975 496.478 50.8898 496.493 50.8898C496.655 50.8745 496.824 50.8591 496.993 50.8514Z" fill="#F6971B"/>
<path d="M497.51 50.836C497.341 50.836 497.164 50.8437 496.995 50.8514C497.126 50.836 497.256 50.8283 497.395 50.8283C497.433 50.836 497.472 50.836 497.51 50.836Z" fill="#F6971B"/>
<path d="M496.493 50.8976C496.339 50.913 496.193 50.9361 496.039 50.9668C496.177 50.9361 496.308 50.913 496.446 50.8976H496.493Z" fill="#FFD104"/>
<path d="M482.572 87.919L482.563 87.9277V87.919H482.572Z" fill="#F26923"/>
<path d="M113.136 60.3285C113.136 60.3285 110.108 56.0831 106.702 58.3946C105.1 69.6435 99.93 79.521 92.3948 86.9792C90.6766 88.682 88.8352 90.2614 86.8858 91.7022C86.5622 91.9411 86.2309 92.1799 85.8996 92.4111C85.237 92.8734 84.559 93.3202 83.8733 93.7517C83.1876 94.1832 82.4941 94.5992 81.7853 94.9999C81.0765 95.4005 80.3599 95.7781 79.6357 96.1479C79.2658 96.3328 78.9037 96.51 78.5339 96.6872C77.0546 97.3806 75.5444 98.0124 73.9881 98.5672C73.2176 98.8445 72.4317 99.1065 71.6381 99.3454C71.2375 99.4686 70.8445 99.5842 70.4439 99.6921C69.6426 99.9155 68.8336 100.116 68.0169 100.301C64.334 101.133 60.5047 101.564 56.5753 101.564C52.6459 101.564 48.8089 101.133 45.1338 100.301C44.317 100.116 43.508 99.9155 42.7068 99.6921C42.3061 99.5842 41.9055 99.4686 41.5048 99.3454C40.7112 99.1065 39.933 98.8445 39.1549 98.5672C37.5985 98.0124 36.0807 97.3806 34.609 96.6872C34.2392 96.51 33.8694 96.3328 33.5073 96.1479C32.7753 95.7781 32.0588 95.4005 31.3499 94.9999C30.6488 94.5992 29.9477 94.1832 29.2619 93.7517C28.5762 93.3202 27.9059 92.8734 27.2433 92.4111C26.912 92.1799 26.5807 91.9411 26.2571 91.7022C24.3078 90.2614 22.4586 88.682 20.7405 86.9792C13.1436 79.4594 7.94288 69.4817 6.38652 58.1249C3.01954 55.9676 0.0609075 60.1281 0.0609075 60.1281C-0.308921 55.8289 0.985479 53.0166 4.49114 51.2985C4.96113 51.0673 5.42342 50.9132 5.89341 50.8054C7.13388 50.5126 8.34352 50.605 9.33744 50.8208C9.18334 50.8439 9.02925 50.8593 8.86745 50.8747C8.65172 50.8901 8.43598 50.8978 8.21254 50.8978C8.37434 50.8978 8.53614 50.9055 8.69024 50.9132C8.85204 50.9209 9.00613 50.9363 9.16023 50.9518C9.2758 50.9595 9.39137 50.9749 9.49924 50.998C9.5917 51.0134 9.69186 51.0288 9.78431 51.0442C9.88448 51.0596 9.98464 51.0827 10.0848 51.1059C10.1927 51.129 10.3005 51.1598 10.4007 51.1829C10.5009 51.2137 10.5933 51.2368 10.6858 51.2677C10.8013 51.3062 10.9092 51.3447 11.0171 51.3832C11.279 51.468 11.5256 51.5758 11.7721 51.6914C11.8261 51.7222 11.88 51.7453 11.9339 51.7762C11.9879 51.7993 12.0495 51.8301 12.0957 51.8609C12.2113 51.9226 12.3192 51.9842 12.427 52.0458C13.0203 52.4003 13.5674 52.8317 14.045 53.3248C14.1606 53.4481 14.2839 53.5791 14.3918 53.7101C14.8849 54.2879 15.2932 54.9351 15.6091 55.644C15.6553 55.7518 15.7016 55.8674 15.7478 55.983C15.8326 56.1987 15.9096 56.4298 15.9866 56.6687C16.0252 56.8382 16.0714 57.0077 16.1099 57.1772C16.1562 57.3852 16.1947 57.5933 16.2178 57.809C16.2486 57.9939 16.2717 58.1865 16.2794 58.3791C16.2948 58.5795 16.3025 58.7798 16.3025 58.9801C16.3025 58.1249 16.4258 57.3005 16.6647 56.5377C19.2766 77.0478 36.073 91.4403 56.5753 91.4403C77.0777 91.4403 94.0513 76.8783 96.5168 56.1833C96.8327 57.0462 97.0022 57.9939 97.0022 58.9801C97.0022 54.6886 100.169 51.2831 104.353 50.9286C104.368 50.9286 104.383 50.9286 104.399 50.9286C104.622 50.9132 104.853 50.9055 105.084 50.9055H106.718C106.887 50.9286 107.065 50.9595 107.234 50.998C107.72 51.1059 108.213 51.2676 108.698 51.5065C112.211 53.2247 113.498 56.0369 113.136 60.3362V60.3285Z" fill="#FFD104"/>
<path d="M11.7802 51.6759V51.6913C11.5259 51.5757 11.2794 51.4678 11.0174 51.3831C10.9096 51.3446 10.8017 51.306 10.6861 51.2675C10.5937 51.2367 10.5012 51.2136 10.401 51.1827C10.3009 51.1596 10.193 51.1288 10.0851 51.1057C9.98499 51.0826 9.88482 51.0595 9.78466 51.0441C9.6922 51.0287 9.59204 51.0132 9.49959 50.9978C9.39172 50.9747 9.27615 50.9593 9.16058 50.9516C9.00648 50.9362 8.85239 50.9208 8.69059 50.9131C8.53649 50.9054 8.37469 50.8977 8.21289 50.8977C8.43633 50.8977 8.65206 50.89 8.8678 50.8746C9.0296 50.8591 9.18369 50.8437 9.33779 50.8206C9.34549 50.8129 9.34549 50.8206 9.3532 50.8206C10.794 51.1288 11.7802 51.6759 11.7802 51.6759Z" fill="#FFD104"/>
<path d="M28.1679 50.8129V50.8977H24.3926C25.4481 50.628 26.7888 50.4739 28.1679 50.8129Z" fill="#F6971B"/>
<path d="M87.7639 50.8976H85.6143C86.3693 50.7821 87.0936 50.8052 87.7639 50.8976Z" fill="#F6971B"/>
<path d="M106.718 50.8976H105.084C104.853 50.8976 104.622 50.9053 104.398 50.9207C104.483 50.9053 104.56 50.8976 104.645 50.8899C104.645 50.8822 104.66 50.8899 104.66 50.8899C105.308 50.8052 106.001 50.7897 106.718 50.8976Z" fill="#FFD104"/>
<path d="M199.599 56.5221C197.21 75.106 182.995 87.919 164.288 87.919H137.167L148.008 77.4791H164.288C176.677 77.4714 185.876 70.3753 188.642 58.6486C185.091 55.7902 181.862 60.3283 181.862 60.3283C181.492 56.0213 182.779 53.2168 186.293 51.4986C187.387 50.9593 188.496 50.7975 189.513 50.8283V50.8822H191.871C195.546 50.8822 198.582 53.2168 199.599 56.5221Z" fill="#EE931F"/>
<path d="M190.3 50.8822H189.514V50.8283C189.783 50.8283 190.045 50.8514 190.3 50.8822Z" fill="#F26923"/>
<path d="M215.787 60.3283C215.787 60.3283 213.09 56.5299 209.908 58.0631C206.718 81.3315 188.081 98.3667 164.288 98.3667H126.312L137.152 87.9268H164.288C182.995 87.919 197.211 75.106 199.599 56.5299C199.838 57.2926 199.961 58.117 199.961 58.9723C199.961 58.7642 199.961 58.5639 199.984 58.3636V58.3174C199.984 58.3174 199.984 58.2942 199.992 58.2788C199.992 58.1324 200.015 57.9861 200.038 57.8474C200.061 57.6625 200.092 57.4929 200.123 57.3234C200.123 57.3157 200.131 57.3003 200.131 57.2926C200.162 57.1308 200.2 56.9767 200.239 56.8226C200.27 56.6917 200.308 56.5607 200.354 56.4374C200.377 56.3449 200.408 56.2525 200.447 56.1677C200.755 55.2817 201.225 54.4804 201.803 53.7793C201.895 53.6637 201.995 53.5481 202.103 53.4325C202.203 53.3247 202.311 53.2168 202.419 53.1089C202.435 53.0935 202.442 53.0858 202.458 53.0781C202.558 52.978 202.666 52.8932 202.766 52.8007C202.804 52.7699 202.835 52.7391 202.874 52.7083C202.989 52.6081 203.113 52.5157 203.244 52.4232C203.367 52.3308 203.498 52.246 203.629 52.1613C203.775 52.0688 203.929 51.9763 204.083 51.8916C204.191 51.8299 204.299 51.7683 204.407 51.7144C204.499 51.6682 204.607 51.6219 204.731 51.568C204.823 51.5295 204.931 51.4909 205.046 51.4447C205.131 51.4139 205.224 51.3831 205.316 51.3445C205.416 51.3137 205.516 51.2829 205.617 51.2521L205.778 51.2059C205.94 51.1596 206.117 51.1134 206.295 51.0672L206.41 51.0441C206.934 50.9362 207.481 50.8823 208.044 50.8823H209.253C209.631 50.9285 210.016 51.0055 210.401 51.1288C210.717 51.2213 211.041 51.3445 211.357 51.4986C214.87 53.2168 216.157 56.0213 215.787 60.3283Z" fill="#FFD104"/>
<path d="M204.075 51.8758C204.075 51.8758 204.19 51.8066 204.406 51.7144C204.298 51.7682 204.191 51.8297 204.083 51.8911V51.8758H204.075Z" fill="#F26923"/>
<path d="M205.94 51.1517C206.055 51.121 206.17 51.0902 206.293 51.0672C206.117 51.1133 205.94 51.1594 205.778 51.2055C205.832 51.1902 205.886 51.1748 205.94 51.1517Z" fill="#F26923"/>
<path d="M209.253 50.8823H208.044C207.481 50.8823 206.934 50.9362 206.41 51.0441C206.741 50.967 207.096 50.9054 207.466 50.8668H207.489C208.044 50.8052 208.645 50.7975 209.253 50.8823Z" fill="#F26923"/>
<path d="M129.07 50.8977C133.608 50.8977 137.152 54.4418 137.152 58.9799V87.919L126.312 98.3667H126.304V58.1864C123.022 56.3449 120.194 60.3283 120.194 60.3283C119.824 56.0213 121.111 53.2168 124.624 51.4986C125.187 51.2213 125.749 51.044 126.304 50.9516V3.42093L137.152 13.8686V42.8077C137.152 47.3458 133.608 50.8977 129.07 50.8977Z" fill="#FFD104"/>
<path d="M251.205 58.98V93.9365L239.317 98.3667V58.4946C235.842 55.952 232.729 60.3283 232.729 60.3283C232.359 56.0214 233.646 53.2168 237.159 51.4987C237.876 51.1519 238.6 50.9593 239.301 50.8746L239.317 50.8977H243.115C247.653 50.8977 251.205 54.4419 251.205 58.98Z" fill="#FFD104"/>
<path d="M241.281 50.8977H239.316L239.301 50.8746C239.994 50.7898 240.665 50.8129 241.281 50.8977Z" fill="#FFD104"/>
<path d="M263.101 50.8822V50.8977H261.067C261.699 50.8052 262.393 50.7898 263.101 50.8822Z" fill="#F26923"/>
<path d="M393.874 71.9171V71.9085" stroke="white" stroke-width="0.73" stroke-miterlimit="10"/>
<path d="M463.572 75.8072L463.472 75.8303" stroke="#FBB03B" stroke-miterlimit="10"/>
<path d="M390.799 72.177C390.722 72.0156 390.653 71.8542 390.584 71.6851" stroke="white" stroke-width="0.73" stroke-miterlimit="10"/>
<path d="M336.736 43.216C336.582 43.7399 336.474 44.2638 336.428 44.7801H336.39C336.39 44.7801 336.397 44.4488 336.482 43.9402V43.9248C336.482 43.9248 336.498 43.8786 336.505 43.8632C336.59 43.6552 336.667 43.4394 336.729 43.216H336.736Z" fill="white"/>
<path d="M368.927 21.9894L349.148 32.9918L355.975 24.1236L368.927 21.9894Z" fill="#D05C32"/>
<path d="M320.57 30.1405L320.486 30.1102" stroke="#FBB03B" stroke-miterlimit="10"/>
<path d="M312.959 66.1222L304.26 76.5082L292.749 77.2556L301.972 72.1782L312.959 66.1222Z" fill="#F26923"/>
<path d="M337.406 40.7736L337.182 41.5286C337.182 41.5286 337.167 41.5518 337.167 41.5672C336.782 42.4532 336.589 43.293 336.489 43.894C336.489 43.9017 336.489 43.9171 336.489 43.9248V43.9402C336.489 43.9402 336.489 43.9479 336.489 43.9556C336.489 43.9711 336.481 43.9865 336.473 44.0019C336.473 44.0173 336.473 44.025 336.458 44.0404C336.42 44.1252 336.381 44.2176 336.335 44.3024C336.289 44.4333 336.219 44.5643 336.15 44.6876C336.088 44.8263 336.011 44.965 335.926 45.1037C335.618 45.6276 335.256 46.1053 334.848 46.529C334.748 46.6369 334.647 46.7371 334.547 46.8295L334.516 46.8603C334.516 46.8603 334.509 46.868 334.501 46.868C334.455 46.922 334.401 46.9682 334.355 47.0067C334.224 47.1223 334.093 47.2379 333.954 47.338C333.808 47.4536 333.661 47.5615 333.507 47.6616C333.345 47.7695 333.184 47.8697 333.022 47.9621C333.022 47.9621 333.017 47.9647 333.006 47.9698C332.837 48.0623 332.667 48.1547 332.498 48.2318C332.321 48.3165 332.143 48.3936 331.958 48.4629C331.781 48.5323 331.596 48.6016 331.411 48.6556C330.672 48.879 329.901 49.0023 329.108 49.0023C329.031 49.0023 328.954 49.0023 328.884 49.0023C328.36 48.9946 327.829 48.9329 327.289 48.8174C327.089 48.7711 326.889 48.7249 326.688 48.6633C326.935 48.7326 327.174 48.8174 327.405 48.9175C314.661 44.8571 307.619 39.7643 307.619 29.3782C307.619 28.1609 307.735 26.9975 307.966 25.8803L320.502 30.1256C320.91 33.9086 323.969 36.7748 337.421 40.7813L337.406 40.7736Z" fill="#F6971B"/>
<path d="M337.167 41.5672L336.489 43.894C336.589 43.293 336.782 42.4532 337.167 41.5672Z" fill="#F6971B"/>
<path d="M371.862 71.4154C371.862 72.941 371.754 74.4126 371.554 75.8302L357.485 78.8967C358.51 76.6855 359.034 74.22 359.034 71.5464C359.034 61.7228 352.67 57.1 343.108 53.6482C342.638 53.4787 342.16 53.3092 341.675 53.1474C341.845 53.186 342.006 53.2322 342.176 53.2784C338.616 52.2229 336.374 49.0716 336.382 45.5737C336.382 45.3117 336.397 45.0497 336.428 44.7801C336.474 44.2638 336.582 43.7399 336.736 43.216C336.667 43.4394 336.598 43.6552 336.513 43.8632C336.513 43.8786 336.513 43.9017 336.49 43.9171V43.894L337.168 41.5672C337.168 41.5672 337.168 41.5441 337.183 41.5287C337.283 41.2898 337.407 41.051 337.538 40.8121C338.038 39.903 338.763 39.0092 339.803 38.3312C343.085 36.2047 346.159 36.5437 349.657 39.0708C349.657 39.0708 345.042 39.433 344.703 42.9232C358.464 47.1762 371.862 53.3555 371.862 71.4154Z" fill="#FFD104"/>
<path d="M337.537 40.8121C337.406 41.051 337.283 41.2898 337.183 41.5287L337.406 40.7736C337.452 40.789 337.491 40.7967 337.537 40.8121Z" fill="#F6971B"/>
<path d="M371.553 75.8302V75.8379L357.484 78.9044V78.8967L371.553 75.8302Z" fill="#F6971B"/>
<path d="M332.113 58.718L332.021 59.0647C331.967 59.2496 331.913 59.4345 331.867 59.6271L331.636 60.5055C330.249 60.1125 328.77 59.7196 327.175 59.3035C312.189 55.3356 297.488 48.54 296.995 30.5802L307.928 25.8649H307.944C307.712 26.9898 307.597 28.1532 307.597 29.3705C307.597 39.7565 314.639 44.8494 327.383 48.9098C331.274 50.4508 333.315 54.6113 332.098 58.718H332.113Z" fill="#FFD104"/>
<path d="M331.867 59.6271C331.805 59.9199 331.751 60.2204 331.728 60.5286L331.636 60.5055L331.867 59.6271Z" fill="#FBB03B"/>
<path d="M333.647 55.952C333.308 56.3912 332.484 57.5315 332.021 59.0647L332.114 58.718C332.438 57.6316 332.954 56.6609 333.624 55.8441C333.624 55.8827 333.639 55.9135 333.647 55.952Z" fill="#FBB03B"/>
<path d="M357.485 78.8967L357.077 78.9969L347.762 74.6283L347.769 74.6206L357.077 78.9892L357.493 78.8967H357.485Z" fill="#FBB03B"/>
<path d="M307.936 25.8572H307.951C309.816 16.5652 319.131 10.8483 330.318 10.8483C341.505 10.8483 350.404 15.5867 355.975 24.1236L368.927 21.9894C361.461 7.65083 348.278 0 331.42 0C313.691 0 296.987 10.856 296.987 29.6479C296.987 29.9638 296.995 30.272 296.995 30.5725L307.936 25.8572Z" fill="#F6971B"/>
<path d="M330.318 10.8483C319.131 10.8483 309.816 16.5652 307.951 25.8648L320.487 30.1102C320.448 29.7789 320.433 29.4399 320.433 29.0931C320.433 25.1945 324.093 21.712 331.42 21.712C340.797 21.712 345.635 26.0343 349.149 32.9917L355.975 24.1236C350.404 15.5867 341.983 10.8483 330.318 10.8483Z" fill="#F26923"/>
<path d="M357.484 78.8968C357.299 79.3128 357.091 79.7135 356.868 80.1064C356.768 80.2836 356.668 80.4608 356.552 80.638C356.444 80.8075 356.329 80.9848 356.213 81.1543C356.097 81.3238 355.982 81.4933 355.859 81.6628C355.735 81.8323 355.604 82.0018 355.466 82.1713C355.196 82.518 354.911 82.8493 354.603 83.1729C354.433 83.3578 354.256 83.5427 354.079 83.7122C353.825 83.9588 353.563 84.1976 353.293 84.4365L353.154 84.5521C352.885 84.7832 352.607 85.0066 352.322 85.2224C352.114 85.3765 351.898 85.5383 351.675 85.6924C351.39 85.885 351.097 86.0776 350.797 86.2625C350.465 86.4705 350.119 86.6709 349.756 86.8635C349.602 86.9482 349.448 87.033 349.294 87.11C349.009 87.2564 348.724 87.4028 348.424 87.5338C348.416 87.5415 348.408 87.5492 348.4 87.5492C348.108 87.6879 347.807 87.8189 347.499 87.9421C347.191 88.0731 346.867 88.1964 346.544 88.3197C346.374 88.3813 346.205 88.443 346.035 88.5046L345.711 88.6202C345.503 88.6972 345.288 88.7589 345.072 88.8282C344.879 88.8898 344.679 88.9515 344.479 89.0054C344.178 89.0979 343.862 89.1826 343.546 89.2597C343.531 89.2597 343.523 89.2674 343.508 89.2674C343.454 89.2828 343.392 89.2982 343.331 89.3136C343.023 89.3906 342.714 89.46 342.391 89.5293C342.16 89.5833 341.928 89.6372 341.69 89.6834C341.451 89.7297 341.212 89.7759 340.973 89.8144C340.488 89.8992 339.995 89.9762 339.494 90.0456C339.17 90.0918 338.847 90.1303 338.508 90.1688C337.86 90.2459 337.19 90.3075 336.512 90.3537C336.327 90.3537 336.134 90.3769 335.942 90.3846C335.749 90.3923 335.557 90.4077 335.364 90.4077C335.325 90.4077 335.279 90.4077 335.241 90.4077C335.179 90.4154 335.11 90.4154 335.048 90.4154C334.925 90.4308 334.794 90.4385 334.663 90.4308C334.624 90.4385 334.594 90.4385 334.555 90.4385C334.062 90.4539 333.553 90.4616 333.045 90.4616C318.991 90.4616 309.638 84.9989 304.268 76.5006L312.966 66.1146C316.641 74.1814 322.936 79.6133 334.509 79.6133C342.745 79.6133 346.413 77.3327 347.761 74.6206C347.769 74.6206 347.769 74.6129 347.769 74.6129L357.076 78.9815L357.492 78.8891L357.484 78.8968Z" fill="#FFD104"/>
<path d="M371.561 75.8302C369.257 91.9332 354.241 101.333 333.777 101.333C312.219 101.333 298.466 91.5942 292.749 77.2556L304.26 76.5083C309.63 85.0066 318.984 90.4693 333.037 90.4693C333.546 90.4693 334.054 90.4616 334.547 90.4462C334.586 90.4462 334.617 90.4462 334.655 90.4385C334.786 90.4462 334.917 90.4385 335.04 90.423C335.102 90.423 335.171 90.423 335.233 90.4153C335.272 90.4153 335.318 90.4153 335.356 90.4153C335.549 90.4153 335.742 90.4076 335.934 90.3922C336.127 90.3845 336.319 90.3691 336.504 90.3614C337.182 90.3152 337.853 90.2535 338.5 90.1765C338.831 90.1457 339.163 90.0994 339.486 90.0532C339.987 89.9839 340.48 89.9068 340.965 89.8221C341.204 89.7836 341.443 89.7373 341.682 89.6911C341.921 89.6449 342.152 89.5909 342.383 89.537C342.707 89.4754 343.015 89.3983 343.323 89.3213C343.385 89.3059 343.446 89.2905 343.5 89.275C343.516 89.275 343.523 89.2673 343.539 89.2673C343.855 89.1903 344.171 89.1055 344.471 89.0131C344.671 88.9591 344.872 88.8975 345.064 88.8359C345.396 88.7357 345.712 88.6201 346.027 88.5123C346.197 88.4506 346.366 88.389 346.536 88.3274C346.86 88.2041 347.183 88.0808 347.491 87.9498C347.8 87.8265 348.1 87.6956 348.393 87.5569C348.393 87.5569 348.408 87.5492 348.416 87.5415C348.716 87.4105 349.001 87.2641 349.287 87.1177C349.441 87.0484 349.595 86.9636 349.749 86.8712C350.111 86.6785 350.458 86.4782 350.789 86.2702C351.089 86.0853 351.382 85.8927 351.667 85.7C351.891 85.5459 352.106 85.3841 352.315 85.23C352.6 85.0143 352.877 84.7909 353.147 84.5597L353.285 84.4442C353.555 84.213 353.817 83.9742 354.071 83.7199C354.248 83.5504 354.426 83.3655 354.595 83.1806C354.903 82.857 355.188 82.5257 355.458 82.179C355.597 82.0095 355.728 81.8399 355.851 81.6704C355.982 81.5009 356.098 81.3314 356.205 81.1619C356.329 80.9924 356.444 80.8229 356.544 80.6457C356.66 80.4685 356.76 80.2913 356.86 80.1141C357.084 79.7211 357.292 79.3205 357.477 78.9121L371.546 75.8379H371.553L371.561 75.8302Z" fill="#F6971B"/>
<path d="M420.471 47.3304C420.316 47.4382 420.17 47.5461 420.008 47.654C419.846 47.7618 419.685 47.862 419.515 47.9621C419.176 48.1625 418.829 48.3243 418.467 48.4552C418.282 48.5246 418.097 48.5939 417.913 48.6479C417.111 48.9021 416.264 49.0177 415.393 48.9946H415.385C414.515 48.4244 413.544 47.9698 412.496 47.654C412.928 47.7849 413.367 47.8928 413.798 47.9544C416.364 48.4321 418.883 48.0007 421.018 46.8527L420.925 46.9451C420.802 47.053 420.671 47.1609 420.548 47.261C420.517 47.2841 420.494 47.3072 420.471 47.3304Z" fill="white"/>
<path d="M455.45 21.9894L435.672 32.9918L442.498 24.1236L455.45 21.9894Z" fill="#D05C32"/>
<path d="M390.778 76.5083L379.267 77.2556L388.489 72.1782C389.144 73.696 389.907 75.1445 390.778 76.5083Z" fill="#D05C32"/>
<path d="M399.483 66.1222L390.777 76.5082C389.906 75.1445 389.143 73.696 388.488 72.1782L399.483 66.1222Z" fill="#D05C32"/>
<path d="M418.638 58.718L418.545 59.0493C418.545 59.0493 418.53 59.0878 418.53 59.1032L418.376 59.6657L418.152 60.5055C416.766 60.1125 415.286 59.7196 413.699 59.3035C398.713 55.3356 384.013 48.54 383.52 30.5802L394.46 25.8649H394.476C394.245 26.9898 394.129 28.1532 394.129 29.3705C394.129 39.7565 401.171 44.8494 413.915 48.9098C417.806 50.4508 419.848 54.6113 418.63 58.718H418.638Z" fill="#FFD104"/>
<path d="M445.558 71.5464C445.558 74.22 445.034 76.6855 444.01 78.8968L443.594 78.9892L434.278 74.6206C434.756 73.6652 434.941 72.6713 434.941 71.6928C434.941 67.5323 432.113 65.1207 425.218 62.686C422.852 65.4828 426.073 69.027 426.073 69.027C421.789 68.4722 419.316 66.6077 418.391 62.8092C418.199 62.0156 418.168 61.2452 418.253 60.5286C418.276 60.2358 418.322 59.9508 418.384 59.6734L418.538 59.1032C418.538 59.1032 418.538 59.0647 418.553 59.0493C419.015 57.5238 419.832 56.3912 420.171 55.9597C420.171 55.9597 420.156 55.8904 420.148 55.8518C420.942 54.8733 421.943 54.1106 423.068 53.6252C424.617 52.924 426.404 52.7314 428.199 53.1475C428.446 53.2322 428.692 53.317 428.939 53.4017C429.17 53.4865 429.401 53.5635 429.632 53.6483C439.194 57.1 445.558 61.7229 445.558 71.5464Z" fill="#F6971B"/>
<path d="M418.376 59.6734C418.314 59.9508 418.268 60.2358 418.245 60.5286L418.152 60.5055L418.376 59.6734Z" fill="#FBB03B"/>
<path d="M420.163 55.952C419.824 56.3911 419.007 57.5237 418.545 59.0493L418.637 58.718C418.961 57.6316 419.477 56.6685 420.14 55.8518C420.14 55.8903 420.155 55.9212 420.163 55.952Z" fill="#FBB03B"/>
<path d="M444.009 78.8967V78.9045H444.002L443.593 78.9969L434.278 74.6283V74.6206L443.593 78.9892L444.009 78.8967Z" fill="#FBB03B"/>
<path d="M394.46 25.8572H394.476C396.34 16.5652 405.655 10.8483 416.843 10.8483C428.03 10.8483 436.929 15.5867 442.499 24.1236L455.451 21.9894C447.985 7.65083 434.802 0 417.944 0C400.216 0 383.512 10.856 383.512 29.6479C383.512 29.9638 383.519 30.272 383.519 30.5725L394.46 25.8572Z" fill="#F6971B"/>
<path d="M444.01 78.8967H444.002C443.902 79.1279 443.801 79.3436 443.686 79.5593C443.301 80.2913 442.861 80.9924 442.376 81.6627L441.983 82.1712C441.714 82.518 441.428 82.8493 441.12 83.1729C440.774 83.535 440.419 83.8894 440.042 84.2361C439.895 84.3594 439.749 84.4904 439.595 84.6136C439.448 84.7369 439.294 84.8602 439.14 84.9835C438.986 85.1068 438.832 85.2223 438.678 85.3379C438.516 85.4612 438.362 85.5767 438.192 85.6923C437.923 85.8772 437.645 86.0621 437.36 86.2394C436.49 86.7787 435.55 87.2718 434.548 87.7187C434.217 87.8651 433.878 88.0114 433.531 88.1424C433.184 88.2811 432.83 88.4121 432.468 88.5354C432.152 88.6509 431.828 88.7511 431.497 88.8513C430.688 89.1055 429.84 89.329 428.962 89.5216C428.6 89.6063 428.23 89.6757 427.86 89.745C427.814 89.7527 427.76 89.7681 427.706 89.7758C427.367 89.8375 427.021 89.8991 426.674 89.953C425.849 90.0763 425.002 90.1842 424.131 90.2612C423.815 90.2921 423.507 90.3229 423.184 90.3383C423.099 90.346 423.006 90.3537 422.914 90.3614C422.621 90.3845 422.313 90.3999 422.012 90.4076C421.211 90.4539 420.394 90.4693 419.555 90.4693C405.501 90.4693 396.148 85.0066 390.777 76.5082L399.484 66.1222C403.151 74.1891 409.446 79.621 421.019 79.621C429.255 79.621 432.922 77.3404 434.278 74.6283L443.593 78.9892L444.01 78.8967Z" fill="#FFD104"/>
<path d="M458.079 75.8302C455.767 91.9332 440.758 101.333 420.294 101.333C398.744 101.333 384.984 91.5942 379.267 77.2556L390.778 76.5083C396.148 85.0066 405.501 90.4693 419.555 90.4693C420.418 90.4693 421.258 90.4462 422.082 90.4076C422.12 90.4076 422.151 90.3999 422.19 90.3999C422.436 90.3845 422.683 90.3768 422.914 90.3614C423.037 90.3614 423.161 90.346 423.284 90.3306C423.569 90.3152 423.854 90.2921 424.131 90.2612C424.563 90.2227 424.994 90.1765 425.418 90.1226C425.78 90.0763 426.127 90.0378 426.474 89.9839C426.497 89.9762 426.528 89.9762 426.551 89.9685C426.666 89.9531 426.774 89.9376 426.882 89.9145C427.159 89.876 427.437 89.8221 427.706 89.7758C427.76 89.7681 427.814 89.7604 427.861 89.745C428.045 89.7142 428.23 89.6757 428.415 89.6372C428.623 89.5909 428.831 89.5524 429.032 89.5062C429.448 89.4137 429.856 89.3136 430.257 89.2057C430.68 89.0978 431.097 88.9823 431.497 88.8513C431.667 88.805 431.828 88.7511 431.99 88.6972C432.152 88.651 432.314 88.597 432.468 88.5354C432.83 88.4121 433.185 88.2811 433.531 88.1424C433.693 88.0885 433.847 88.0192 434.001 87.9498C434.186 87.8728 434.371 87.7957 434.548 87.7187C434.795 87.6031 435.049 87.4952 435.288 87.372C435.465 87.2872 435.642 87.2025 435.812 87.11C436.02 87.0021 436.228 86.8943 436.428 86.7864C436.467 86.7633 436.498 86.7479 436.536 86.7248C436.798 86.5707 437.045 86.4243 437.299 86.2702C437.553 86.1084 437.8 85.9543 438.039 85.7925C438.254 85.6461 438.47 85.492 438.678 85.3379C438.832 85.23 438.986 85.1145 439.14 84.9835C439.294 84.8679 439.448 84.7446 439.595 84.6137C439.749 84.4904 439.895 84.3671 440.042 84.2361C440.227 84.0666 440.412 83.8971 440.589 83.7122C440.774 83.5427 440.951 83.3578 441.12 83.1729C441.429 82.8493 441.714 82.518 441.983 82.1713C442.122 82.0017 442.253 81.8322 442.376 81.6627C442.507 81.4932 442.623 81.3237 442.731 81.1542C442.854 80.9847 442.97 80.8152 443.07 80.638C443.293 80.2836 443.501 79.9215 443.686 79.5593C443.802 79.3436 443.902 79.1279 444.002 78.9044H444.01L458.079 75.8302Z" fill="#F6971B"/>
<path d="M359.033 71.5464C359.033 74.2199 358.509 76.6854 357.484 78.8967L357.068 78.9892L347.761 74.6206C348.231 73.6652 348.416 72.6713 348.416 71.6928C348.416 67.5322 345.588 65.1206 338.7 62.6859C336.327 65.475 339.548 69.0269 339.548 69.0269C335.271 68.4722 332.798 66.6076 331.874 62.8092C331.681 62.0156 331.65 61.2451 331.735 60.5286C331.758 60.2204 331.812 59.9199 331.874 59.6271C331.92 59.4345 331.974 59.2496 332.028 59.0647C332.49 57.5314 333.314 56.3911 333.653 55.9596C333.653 55.9134 333.638 55.8826 333.63 55.8441C335.518 53.5326 338.577 52.4232 341.674 53.1474H341.682C342.167 53.3092 342.645 53.4787 343.115 53.6482C352.677 57.0999 359.041 61.7228 359.041 71.5464H359.033Z" fill="#F6971B"/>
<path d="M458.387 71.4154C458.387 72.941 458.279 74.4126 458.078 75.8302L444.01 78.8967C445.034 76.6855 445.558 74.22 445.558 71.5464C445.558 61.7228 439.194 57.1 429.632 53.6482C429.401 53.5635 429.17 53.4864 428.939 53.4017C428.692 53.3169 428.446 53.2322 428.199 53.1474C428.369 53.186 428.531 53.2322 428.7 53.2784C427.229 52.8392 425.98 52.0457 425.033 51.0132C424.347 50.289 423.823 49.4492 423.469 48.5323C423.099 47.6077 422.906 46.5984 422.906 45.5659C422.906 44.7955 423.029 44.0019 423.261 43.216C423.207 43.3932 423.145 43.5704 423.076 43.7476C423.045 43.8324 423.014 43.9171 422.976 44.0019L423.923 40.7736C424.023 40.8044 424.124 40.8275 424.224 40.8583H424.231C424.732 39.9338 425.464 39.0169 426.527 38.3312C429.81 36.2047 432.884 36.5437 436.382 39.0708C436.382 39.0708 431.705 39.4407 431.42 42.9849C445.111 47.2302 458.387 53.4402 458.387 71.4154Z" fill="#FFD104"/>
<path d="M336.736 43.216C336.582 43.7399 336.474 44.2638 336.428 44.7801H336.39C336.39 44.7801 336.397 44.4488 336.482 43.9402V43.9248C336.482 43.9248 336.498 43.8786 336.505 43.8632C336.59 43.6552 336.667 43.4394 336.729 43.216H336.736Z" fill="#FFD104"/>
<path d="M337.167 41.5672L336.489 43.894C336.589 43.293 336.782 42.4532 337.167 41.5672Z" fill="#FFD104"/>
<path d="M585.214 58.9183V93.8748L573.326 98.305V58.5716C569.866 56.0598 566.761 60.413 566.761 60.413C566.399 56.1138 567.686 53.3015 571.199 51.5834C571.908 51.2366 572.624 51.044 573.326 50.967V50.836H577.124C581.662 50.836 585.214 54.3802 585.214 58.9183Z" fill="#FFD104"/>
<path d="M599.23 51.5834C598.552 51.2521 597.858 51.0594 597.188 50.9747H597.18C597.18 50.9747 597.126 50.9824 597.103 50.9901V50.836H593.297C592.349 50.836 591.448 50.9901 590.608 51.2752C589.599 51.6219 588.682 52.1535 587.912 52.8469C586.247 54.3108 585.215 56.4682 585.215 58.9183V93.8748L590.608 95.8857L597.103 98.305V58.5716C600.563 56.0598 603.668 60.413 603.668 60.413C604.03 56.1138 602.743 53.3015 599.23 51.5834ZM590.608 58.7103C590.6 58.7796 590.6 58.8489 590.6 58.9183C590.6 58.7796 590.6 58.6332 590.6 58.4945C590.6 58.5639 590.616 58.6409 590.616 58.7103V58.4945C590.616 58.3173 590.639 58.1401 590.67 57.9706C590.639 58.2094 590.624 58.4637 590.616 58.7103H590.608Z" fill="#F6971B"/>
<path d="M597.179 50.9747C597.179 50.9747 597.125 50.9823 597.103 50.9899V50.967C597.103 50.967 597.156 50.967 597.179 50.967V50.9747Z" fill="#F26923"/>
<path d="M199.599 45.2501C198.582 48.5554 195.546 50.8822 191.871 50.8822H189.513V50.8283C189.482 34.5944 179.189 24.3008 164.288 24.3008H148.007L137.159 13.8609H164.288C182.995 13.8609 197.21 26.6739 199.599 45.2501Z" fill="#F26923"/>
<path d="M148.008 77.4714V77.4791L137.167 87.919L148.008 77.4714Z" fill="#F6971B"/>
<path d="M423.923 40.7736L422.976 44.0019C422.898 44.1945 422.814 44.3871 422.721 44.5643C422.536 44.9342 422.328 45.2809 422.105 45.6122C421.989 45.774 421.866 45.9358 421.743 46.0899C421.519 46.3595 421.288 46.6061 421.034 46.8526C421.034 46.8526 421.029 46.8552 421.019 46.8603C421.019 46.8603 420.957 46.922 420.926 46.9528C420.803 47.0607 420.672 47.1685 420.549 47.2687C420.518 47.2918 420.495 47.3149 420.471 47.338C420.317 47.4459 420.171 47.5538 420.009 47.6616C419.847 47.7695 419.686 47.8697 419.516 47.9698C419.177 48.1547 418.83 48.3242 418.468 48.4629C418.283 48.5323 418.098 48.6016 417.913 48.6556C417.551 48.7711 417.182 48.8559 416.804 48.9098C416.773 48.9175 416.735 48.9252 416.704 48.9252C416.619 48.9406 416.534 48.9483 416.442 48.956C416.172 48.9869 415.895 49.0023 415.61 49.0023C415.533 49.0023 415.456 49.0023 415.386 49.0023C414.862 48.9946 414.331 48.9329 413.799 48.8174C413.599 48.7711 413.398 48.7249 413.198 48.6633C413.445 48.7326 413.684 48.8174 413.915 48.9175C401.171 44.8571 394.129 39.7643 394.129 29.3782C394.129 28.1609 394.244 26.9975 394.476 25.8803L407.011 30.1256C407.412 33.9086 410.471 36.7748 423.923 40.7813V40.7736Z" fill="#FBB03B"/>
<path d="M458.079 75.8302V75.8379L444.01 78.9044V78.8967L458.079 75.8302Z" fill="#FFD104"/>
<path d="M416.843 10.8483C405.655 10.8483 396.34 16.5652 394.476 25.8648L407.011 30.1102C406.973 29.7789 406.957 29.4399 406.957 29.0931C406.957 25.1945 410.617 21.712 417.944 21.712C427.321 21.712 432.16 26.0343 435.673 32.9917L442.499 24.1236C436.929 15.5867 428.508 10.8483 416.843 10.8483Z" fill="#F26923"/>
<path d="M96.5172 56.1754C94.0517 76.8781 77.1859 91.4401 56.5757 91.4401C35.9655 91.4401 19.277 77.0476 16.665 56.5376C17.0426 55.3048 17.7052 54.203 18.5835 53.3093C18.8763 53.0088 19.1845 52.7314 19.5235 52.4849C20.0628 52.0765 20.6638 51.7375 21.311 51.4832C21.4651 51.4216 21.6192 51.3677 21.7733 51.3137C21.9736 51.2444 22.1816 51.1828 22.3974 51.1365C22.6131 51.0826 22.8288 51.0364 23.0446 51.0055C23.476 50.9362 23.9152 50.8977 24.3621 50.8977H28.1682V50.8129C28.2761 50.8283 28.3763 50.8515 28.4841 50.89C28.8463 50.9901 29.2007 51.1211 29.5628 51.2983C33.0762 53.0165 34.3629 55.8287 33.993 60.128C33.993 60.128 31.6893 56.892 28.8309 57.6008C28.854 57.7318 28.8848 57.8628 28.9156 57.9861C28.9233 58.0323 28.931 58.0708 28.9464 58.117C28.9772 58.2788 29.0081 58.4329 29.0543 58.5947C29.0851 58.7488 29.1236 58.8952 29.1699 59.0493C29.193 59.1726 29.2315 59.2959 29.2623 59.4191C29.3163 59.6195 29.3702 59.8198 29.4318 60.0201C29.7015 60.9601 30.0174 61.8693 30.3718 62.7476C30.5028 63.0635 30.6338 63.3794 30.7802 63.6876C30.8033 63.7569 30.8341 63.8186 30.8649 63.8802C30.9034 63.9881 30.9574 64.0959 31.0113 64.2038C31.0113 64.2115 31.019 64.2192 31.0267 64.2269C31.0498 64.2809 31.0806 64.3425 31.1115 64.3964C31.2424 64.6969 31.3965 64.9974 31.5506 65.2902C31.5506 65.2979 31.5506 65.3056 31.566 65.3133L31.6354 65.452C31.828 65.8141 32.0283 66.1762 32.2364 66.5229C32.4598 66.9005 32.6909 67.2703 32.9298 67.6324C32.9529 67.6709 32.9837 67.7172 33.0068 67.7557C33.5076 68.4954 34.0393 69.2042 34.594 69.8899C34.8791 70.2366 35.1719 70.5833 35.4878 70.9146C35.7806 71.246 36.0964 71.5696 36.42 71.8855C37.0595 72.5249 37.7299 73.1259 38.431 73.6884C38.7392 73.9349 39.0474 74.1738 39.3633 74.4049C39.6792 74.636 40.0028 74.8595 40.3264 75.0829C40.65 75.3064 40.9813 75.5144 41.3203 75.7224C41.6053 75.8996 41.8904 76.0614 42.1832 76.2232C42.2371 76.254 42.2988 76.2849 42.3527 76.3157C42.6994 76.5083 43.0461 76.6855 43.4006 76.8627H43.4083C43.7627 77.0399 44.1248 77.2094 44.4869 77.3712H44.4946C44.5332 77.3866 44.5717 77.4021 44.6102 77.4252C44.9338 77.5639 45.2574 77.7025 45.5964 77.8335H45.6041C45.9046 77.9491 46.2128 78.0647 46.521 78.1725C46.5903 78.2034 46.6597 78.2265 46.729 78.2496C47.1143 78.3806 47.4995 78.5115 47.8924 78.6194C48.2854 78.735 48.6783 78.8428 49.0713 78.9353C49.4565 79.0355 49.8417 79.1279 50.2347 79.205C50.2655 79.2127 50.304 79.2204 50.3348 79.2204L50.4504 79.2435C50.4504 79.2435 50.4889 79.2512 50.5121 79.2589C50.8357 79.3282 51.167 79.3899 51.4983 79.4361C51.9066 79.5132 52.3227 79.5671 52.7387 79.6133C53.1548 79.675 53.5785 79.7135 54.0023 79.7443C54.4184 79.7828 54.8421 79.8059 55.2736 79.8214H55.2813C55.7128 79.8445 56.1442 79.8522 56.5757 79.8522C57.0072 79.8522 57.4386 79.8445 57.8701 79.8214C58.3016 79.8059 58.7253 79.7828 59.1414 79.7443C59.5651 79.7135 59.9889 79.675 60.405 79.6133C60.821 79.5671 61.2371 79.5132 61.6454 79.4361C62.0538 79.3745 62.4621 79.2974 62.8628 79.2127C63.117 79.1587 63.3713 79.1048 63.6179 79.0432C63.8259 79.0046 64.0262 78.9507 64.2265 78.8968C64.5193 78.8197 64.8121 78.7427 65.1049 78.6579C65.1511 78.6502 65.205 78.6348 65.2513 78.6194C65.4439 78.5578 65.6365 78.5038 65.8291 78.4345C66.0217 78.3806 66.2144 78.3112 66.407 78.2496C66.4532 78.2342 66.5071 78.2188 66.5534 78.1956C66.5534 78.1956 66.5611 78.1956 66.5688 78.1879C66.8616 78.0878 67.1543 77.9799 67.4471 77.872C67.8555 77.7102 68.2561 77.5484 68.6491 77.3712C69.0112 77.2094 69.3733 77.0399 69.7277 76.8627C70.0359 76.7086 70.3441 76.5545 70.6523 76.385C71.0838 76.1539 71.5152 75.8996 71.9313 75.6454C72.2087 75.4759 72.4783 75.2987 72.748 75.1214C72.7942 75.0906 72.8404 75.0598 72.879 75.029C73.1795 74.8287 73.4799 74.6206 73.7727 74.4049C74.0886 74.1738 74.3968 73.9349 74.705 73.6884C75.4061 73.1259 76.0765 72.5249 76.7159 71.8932C77.0318 71.5773 77.3323 71.2691 77.6174 70.9455L77.6328 70.9301H77.6405C77.6405 70.9301 77.6559 70.9146 77.6559 70.9069C77.9102 70.6373 78.1413 70.3676 78.3725 70.0825C78.3879 70.0671 78.4033 70.044 78.4187 70.0286C78.4418 70.0055 78.4572 69.9901 78.4726 69.967C78.5112 69.9284 78.542 69.8822 78.5805 69.8437C78.8579 69.5047 79.1198 69.1657 79.3741 68.8112C79.6437 68.4491 79.9057 68.0716 80.16 67.6941C80.4142 67.3088 80.6608 66.9236 80.8919 66.5229C80.9073 66.5075 80.9227 66.4844 80.9305 66.4613C81.1539 66.0838 81.3696 65.7062 81.5699 65.3133C81.5777 65.3056 81.5776 65.2979 81.5776 65.2902C81.7703 64.9358 81.9475 64.5659 82.1247 64.1961C82.1247 64.1884 82.1324 64.1807 82.1324 64.173C82.1324 64.1653 82.1324 64.1653 82.1324 64.1576C82.1632 64.1113 82.1863 64.0574 82.2017 64.0112L82.2248 63.965C82.4021 63.5951 82.5639 63.2099 82.718 62.8247C82.7334 62.8015 82.7411 62.7784 82.7488 62.7476C82.8643 62.4625 82.9799 62.1697 83.0878 61.8693C83.0878 61.8616 83.0878 61.8538 83.0878 61.8461C83.2033 61.5225 83.3189 61.1989 83.4191 60.8753C83.4422 60.806 83.4653 60.729 83.4884 60.6596C83.5578 60.4516 83.6271 60.2359 83.681 60.0201C83.7196 59.9045 83.7504 59.789 83.7812 59.6734C83.8351 59.4731 83.8891 59.2805 83.943 59.0724C83.9815 58.9183 84.0201 58.7565 84.0586 58.5947C84.1202 58.3636 84.1741 58.1247 84.2204 57.8859C84.2204 57.8551 84.2358 57.8166 84.2435 57.7857C81.4313 57.1694 79.1815 60.3283 79.1815 60.3283C78.8116 56.0213 80.0983 53.2168 83.6117 51.4987C84.0586 51.2829 84.4977 51.1288 84.9446 51.0287C85.1604 50.967 85.3761 50.9285 85.5918 50.8977H88.8895C92.4337 50.8977 95.3769 53.0627 96.4941 56.1754H96.5172Z" fill="#F6971B"/>
<path d="M85.615 50.8976C85.3992 50.9285 85.1835 50.967 84.9678 51.0209V50.8976H85.615Z" fill="#F6971B"/>
<path d="M96.5172 45.6122C95.4 48.7326 92.4568 50.8977 88.9126 50.8977H84.9677C84.9677 42.1913 81.8319 34.9565 76.7237 29.8945C76.0842 29.2627 75.4138 28.6617 74.7127 28.0993C69.8202 24.1544 63.51 21.9432 56.5757 21.9432C53.54 21.9432 50.6276 22.3669 47.9001 23.1682C47.5149 23.2838 47.122 23.4071 46.7444 23.5381H46.7367C46.3053 23.6844 45.8738 23.8462 45.45 24.0157C44.171 24.5243 42.946 25.1175 41.7826 25.7955C41.5899 25.9034 41.3973 26.019 41.2047 26.1423C40.8195 26.3811 40.4419 26.62 40.0721 26.8742H40.0644C39.6946 27.1362 39.3324 27.3981 38.978 27.6678C38.978 27.6678 38.9703 27.6755 38.9626 27.6755C38.6159 27.9452 38.2692 28.2225 37.9302 28.5076C37.9225 28.5153 37.9148 28.523 37.9071 28.523C37.5758 28.8158 37.2522 29.1009 36.9286 29.4014C36.7668 29.5555 36.605 29.7096 36.4432 29.8714C35.6419 30.6573 34.8945 31.5048 34.1934 32.3908C34.1317 32.4679 34.0778 32.5449 34.0085 32.622C33.9314 32.7375 33.8467 32.8531 33.7619 32.961C31.7278 35.7039 30.1792 38.9013 29.2315 42.4686C29.1159 42.8924 29.0158 43.3239 28.9233 43.7553C28.6922 44.7878 28.515 45.851 28.3917 46.9374C28.2992 47.7002 28.2376 48.4861 28.2068 49.2797C28.1837 49.7882 28.1682 50.2967 28.1682 50.8129V50.8977H24.3621C24.131 50.8977 23.9075 50.8899 23.6841 50.8668C23.5531 50.8591 23.4144 50.8437 23.2757 50.8206C23.2603 50.8206 23.2526 50.8206 23.2372 50.8129C23.1293 50.8052 23.0292 50.7821 22.9213 50.7667C22.5284 50.705 22.1431 50.6049 21.7733 50.4816C21.6654 50.4431 21.5499 50.4045 21.442 50.3583C21.3726 50.3352 21.2956 50.3121 21.2263 50.2736C21.1492 50.2505 21.0799 50.2196 21.0105 50.1811C20.9258 50.1503 20.841 50.1118 20.764 50.0655C20.502 49.9423 20.2555 49.8036 20.0166 49.6495C19.8471 49.5416 19.6853 49.4338 19.5235 49.3105C19.354 49.1872 19.1922 49.0562 19.0381 48.9175C18.8994 48.7943 18.7607 48.671 18.6375 48.54C18.5989 48.5092 18.5604 48.4707 18.5373 48.4321C18.4294 48.3243 18.3293 48.2164 18.2368 48.1008C17.6512 47.4305 17.189 46.6677 16.8654 45.8279C16.7883 45.643 16.7267 45.4504 16.665 45.2578C19.277 24.74 36.0733 10.3475 56.5757 10.3475C77.0781 10.3475 94.0517 24.9095 96.5172 45.6122Z" fill="#F26923"/>
</svg>
