<svg width="847" height="136" viewBox="0 0 847 136" fill="none" xmlns="http://www.w3.org/2000/svg">
<path d="M140.715 68.1547C140.406 68.1547 140.096 68.165 139.797 68.1857C139.91 68.165 140.014 68.1547 140.127 68.1444C140.127 68.1341 140.148 68.1444 140.148 68.1444C140.333 68.1547 140.529 68.1547 140.715 68.1547Z" fill="white"/>
<path d="M655.547 68.1548C655.485 68.165 655.434 68.165 655.372 68.1856V68.1548H655.547Z" fill="white"/>
<path d="M664.831 68.1548C664.625 68.1753 664.429 68.2062 664.224 68.2474C664.409 68.2062 664.584 68.1753 664.769 68.1548H664.831Z" fill="white"/>
<path d="M656.373 68.0928L656.435 68.1547H655.372V67.969C655.692 68.0103 656.012 68.0412 656.342 68.0619C656.528 68.0722 656.724 68.0722 656.909 68.0722C656.734 68.0722 656.548 68.0722 656.373 68.0928Z" fill="white"/>
<path d="M665.501 68.0928C665.275 68.1134 665.059 68.134 664.832 68.1546H664.771C664.771 68.1546 664.812 68.1443 664.832 68.1443C665.048 68.1237 665.275 68.1031 665.501 68.0928Z" fill="white"/>
<path d="M666.194 68.0722C665.967 68.0722 665.73 68.0825 665.504 68.0928C665.679 68.0722 665.854 68.0619 666.039 68.0619C666.091 68.0722 666.142 68.0722 666.194 68.0722Z" fill="white"/>
<path d="M790.835 78.3274C790.835 78.42 790.856 78.5229 790.856 78.6156C790.845 78.7082 790.845 78.8008 790.845 78.8935C790.845 78.7082 790.845 78.5126 790.845 78.3274H790.835Z" fill="#FBB03B"/>
<path d="M801.679 68.0722C800.988 68.0722 800.317 68.1342 799.667 68.258C799.667 68.258 799.667 68.258 799.657 68.258C799.616 68.258 799.585 68.2683 799.554 68.2786V68.0722L799.688 67.8969C799.791 67.9175 799.904 67.9381 800.008 67.9484C800.183 67.9794 800.369 68 800.555 68.0207C800.926 68.0516 801.297 68.0722 801.679 68.0722Z" fill="#FBB03B"/>
<path d="M309.884 4.56018L309.863 4.5705L296.018 10.5028L295.956 10.4822L273.712 4.5705H273.692L273.671 4.56018H309.884Z" fill="#D05C32"/>
<path d="M657.271 69.2484C657.209 69.2587 657.157 69.2587 657.096 69.2793V69.2484H657.271Z" fill="white"/>
<path d="M666.555 69.2484C666.349 69.269 666.153 69.2998 665.947 69.341C666.133 69.2998 666.308 69.269 666.493 69.2484H666.555Z" fill="white"/>
<path d="M658.096 69.1864L658.158 69.2483H657.096V69.0626C657.416 69.1039 657.735 69.1348 658.066 69.1555C658.251 69.1658 658.447 69.1658 658.633 69.1658C658.458 69.1658 658.272 69.1658 658.096 69.1864Z" fill="white"/>
<path d="M667.225 69.1864C666.998 69.207 666.782 69.2276 666.556 69.2482H666.494C666.494 69.2482 666.535 69.2379 666.556 69.2379C666.772 69.2173 666.998 69.1967 667.225 69.1864Z" fill="white"/>
<path d="M667.916 69.1658C667.69 69.1658 667.453 69.1761 667.227 69.1864C667.402 69.1658 667.577 69.1555 667.762 69.1555C667.813 69.1658 667.865 69.1658 667.916 69.1658Z" fill="white"/>
<path d="M712.343 5.66409V33.6337L706.4 19.6541L712.343 5.66409Z" fill="#D05C32"/>
<path d="M713.261 104.956V132.678L707.37 118.822L713.261 104.956Z" fill="#D05C32"/>
<path d="M707.804 54.7116V82.3201L701.861 69.2484L707.804 54.7116Z" fill="#D05C32"/>
<path d="M712.343 5.66409L706.4 19.6541H647.809L633.345 5.66409H712.343Z" fill="#F6971B"/>
<path d="M671.684 33.7686V33.779L671.539 33.6338H671.549L671.684 33.7686Z" fill="#FFD104"/>
<path d="M712.343 33.6337H662.398V33.7678L647.81 19.6541H706.4L712.343 33.6337Z" fill="#FFD104"/>
<path d="M662.408 54.7116L657.198 59.9527L657.105 60.0558L656.94 60.2106H656.93V60.2312L651.06 66.1326C651.483 66.5453 651.947 66.927 652.442 67.2675C653.783 68.196 655.372 68.8254 657.095 69.0627C657.415 69.1039 657.735 69.1349 658.065 69.1555C658.251 69.1658 658.447 69.1658 658.632 69.1658C658.457 69.1658 658.271 69.1658 658.096 69.1865L658.158 69.2484H666.494C666.494 69.2484 666.535 69.2381 666.556 69.2381C666.773 69.2174 666.999 69.1968 667.226 69.1865C667.402 69.1658 667.577 69.1555 667.763 69.1555C667.815 69.1658 667.866 69.1658 667.918 69.1658C667.691 69.1658 667.453 69.1762 667.226 69.1865C666.999 69.2071 666.783 69.2277 666.556 69.2484H701.861L707.804 54.7116H662.408ZM663.997 68.4643C663.915 68.4333 663.822 68.3921 663.739 68.3508C663.832 68.3921 663.925 68.423 664.018 68.4643H663.997ZM664.719 68.7016C664.585 68.6603 664.451 68.619 664.317 68.5674C664.575 68.65 664.843 68.7325 665.111 68.8047C664.977 68.7738 664.843 68.7428 664.719 68.7016Z" fill="#F6971B"/>
<path d="M658.158 69.2483H657.271C657.539 69.2174 657.817 69.1967 658.096 69.1864L658.158 69.2483Z" fill="#F6971B"/>
<path d="M664.018 68.4641H663.998C663.915 68.4332 663.823 68.392 663.74 68.3508C663.833 68.392 663.925 68.4229 664.018 68.4641Z" fill="#F6971B"/>
<path d="M665.109 68.8042C664.975 68.7733 664.841 68.7424 664.718 68.7012C664.584 68.66 664.45 68.6189 664.316 68.5674C664.574 68.6498 664.841 68.7321 665.109 68.8042Z" fill="#F6971B"/>
<path d="M667.225 69.1864C666.998 69.207 666.782 69.2276 666.556 69.2482H666.494C666.494 69.2482 666.535 69.2379 666.556 69.2379C666.772 69.2173 666.998 69.1967 667.225 69.1864Z" fill="#F6971B"/>
<path d="M667.916 69.1658C667.69 69.1658 667.453 69.1761 667.227 69.1864C667.402 69.1658 667.577 69.1555 667.762 69.1555C667.813 69.1658 667.865 69.1658 667.916 69.1658Z" fill="#F6971B"/>
<path d="M662.409 54.7116L657.199 59.9527L657.106 60.0558L656.941 60.2106H656.93V60.2312L651.06 66.1326C649.162 64.2962 647.954 61.7582 647.82 58.9003V19.6644L662.409 33.7782V54.7116H662.419H662.409Z" fill="#F26923"/>
<path d="M707.803 82.3201H662.397L657.373 77.4711H657.363L657.094 77.2029L656.599 76.7283L651.492 71.7864C651.791 71.5285 652.111 71.2808 652.441 71.0642C653.793 70.1253 655.371 69.496 657.094 69.2793C657.156 69.2587 657.208 69.2587 657.27 69.2484H666.493C666.308 69.269 666.132 69.3 665.946 69.3412C666.153 69.3 666.349 69.269 666.555 69.2484H701.86L707.803 82.3201Z" fill="#FFD104"/>
<path d="M666.555 69.2484C666.349 69.269 666.153 69.2998 665.947 69.341C666.133 69.2998 666.308 69.269 666.493 69.2484H666.555Z" fill="#FFD104"/>
<path d="M662.397 82.3305V104.842L647.912 118.822H647.799V79.4314C647.964 76.3466 649.346 73.6435 651.492 71.7864L656.599 76.7283L657.095 77.2029L657.363 77.4711H657.373L662.397 82.3305Z" fill="#F26923"/>
<path d="M647.914 118.822L647.902 118.834V118.822H647.914Z" fill="#F26923"/>
<path d="M713.262 104.832V104.956L707.371 118.812L647.913 118.822L662.398 104.842L662.419 104.832H713.262Z" fill="#F6971B"/>
<path d="M713.263 132.668V132.812H633.46L647.894 118.832H647.904V118.822H647.914L707.372 118.812L713.263 132.668Z" fill="#FFD104"/>
<path d="M647.892 118.832L633.458 132.812H633.335V81.5051L633.314 81.5567C633.015 80.4527 632.282 79.6893 632.282 79.6893C627.237 74.5101 622.45 81.2471 622.45 81.2471C621.955 75.4902 623.678 71.7245 628.382 69.4238C630.074 68.5881 631.808 68.423 633.335 68.5571V5.67441H633.345L647.809 19.6644V58.9003C647.809 58.7146 647.809 58.5186 647.809 58.3329C647.809 61.1391 646.778 63.6668 645.086 65.5652C643.115 67.7833 640.237 69.1658 636.977 69.1658C643.053 69.1658 647.809 73.922 647.809 79.9988C647.809 79.844 647.809 79.6996 647.809 79.5448V118.832H647.892Z" fill="#FFD104"/>
<path d="M623.844 101.809L623.709 101.84" stroke="#FBB03B" stroke-miterlimit="10"/>
<path d="M399.075 4.56018L399.034 4.5705L376.862 10.5028L376.811 10.4822L362.872 4.5705L362.852 4.56018H399.075Z" fill="#D05C32"/>
<path d="M352.297 131.718H320.458L336.377 125.786L352.297 131.718Z" fill="#D05C32"/>
<path d="M748.742 8.0886L748.732 8.07828L746.276 4.57047" stroke="white" stroke-width="0.73" stroke-miterlimit="10"/>
<path d="M835.437 4.57047L833.003 8.04733L832.992 8.05764" stroke="white" stroke-width="0.73" stroke-miterlimit="10"/>
<path d="M790.855 131.729V131.646V131.636V128.407V128.396" stroke="white" stroke-width="0.73" stroke-miterlimit="10"/>
<path d="M415.695 96.301V96.2895" stroke="white" stroke-width="0.73" stroke-miterlimit="10"/>
<path d="M526.397 96.9482C526.294 96.7321 526.201 96.5159 526.108 96.2895" stroke="white" stroke-width="0.73" stroke-miterlimit="10"/>
<path d="M206.373 80.7829C206.373 80.7829 202.586 75.449 198.191 77.9148V103.738L183.675 117.728H183.654V78.9774C183.654 72.9007 188.41 68.1548 194.487 68.1548C188.41 68.1548 183.654 63.3986 183.654 57.3218V18.5708H183.665L198.191 32.5505V68.227C198.934 68.3611 199.687 68.5984 200.44 68.9595C205.145 71.2602 206.868 75.0157 206.373 80.7829Z" fill="#F6971B"/>
<path d="M183.677 117.728L183.666 117.74H183.654V117.728H183.677Z" fill="#F26923"/>
<path d="M198.19 103.738V103.749L183.674 117.728L198.19 103.738Z" fill="#F26923"/>
<path d="M281.738 68.1342H278.581C278.354 68.1342 278.127 68.1238 277.9 68.1135H277.807C277.508 68.0929 277.209 68.0516 276.91 68.0103C276.734 67.9897 276.549 67.9588 276.373 67.9175C276.229 67.8865 276.084 67.8556 275.95 67.8246C275.703 67.7627 275.465 67.7008 275.238 67.6286C274.929 67.5254 274.619 67.4223 274.33 67.2985C273.835 67.0921 273.371 66.8548 272.927 66.5866C272.628 66.4112 272.339 66.2152 272.061 66.0088C271.792 65.8025 271.524 65.5858 271.266 65.3588C271.142 65.235 271.019 65.1216 270.895 64.9978C270.4 64.5128 269.966 63.9764 269.585 63.4089C269.481 63.2645 269.389 63.12 269.306 62.9653C269.12 62.6661 268.955 62.3669 268.811 62.0471C268.739 61.9129 268.677 61.7685 268.615 61.6241C268.543 61.4384 268.47 61.2526 268.408 61.0773C268.347 60.9225 268.295 60.7781 268.254 60.6233C268.223 60.5201 268.192 60.417 268.161 60.3138C268.13 60.19 268.099 60.0662 268.068 59.9424C267.985 59.5813 267.913 59.2305 267.862 58.8591C267.841 58.7043 267.82 58.5496 267.81 58.3845C267.779 58.0337 267.758 57.6726 267.758 57.3115C267.758 58.4567 267.593 59.5606 267.274 60.5924C264.075 35.7178 245.04 18.5605 219.99 18.5605H183.653L169.127 4.5705H219.99C255.027 4.5705 281.728 32.1791 281.738 68.1342Z" fill="#F6971B"/>
<path d="M183.654 117.728H183.674L183.664 117.739H183.654L169.138 131.718L183.654 117.728Z" fill="#F6971B"/>
<path d="M281.737 68.1341V68.4643C281.222 68.2992 280.706 68.196 280.2 68.1341H281.737Z" fill="#F6971B"/>
<path d="M333.778 64.4406C331.808 66.731 328.878 68.1548 325.545 68.1548H320.459L320.438 68.1238L273.691 4.58081H273.712L295.956 10.4925L333.778 64.4406Z" fill="#FFD104"/>
<path d="M336.378 125.786V125.796L320.49 131.718L320.459 131.729V131.718L336.378 125.786Z" fill="#FFD104"/>
<path d="M361.045 80.7829C361.045 80.7829 356.918 74.9847 352.296 78.2759V131.718L336.377 125.786V78.9774C336.377 72.9007 341.123 68.1548 347.2 68.1548H352.296V68.1342C353.225 68.2476 354.174 68.5056 355.113 68.9595C359.817 71.2602 361.54 75.0157 361.045 80.7829Z" fill="#F6971B"/>
<path d="M352.296 131.718V131.729L352.265 131.718L336.377 125.796V125.786L352.296 131.718Z" fill="#F6971B"/>
<path d="M399.074 4.58081L352.306 68.1341V68.1548H347.199C343.867 68.1548 340.947 66.731 338.977 64.4406L376.809 10.4925L376.861 10.5131L399.032 4.58081H399.074Z" fill="#F6971B"/>
<path d="M336.377 38.8335V57.3115C336.377 60.0661 335.408 62.5422 333.778 64.4303L295.955 10.4822L296.017 10.5028L309.863 4.57047H309.914L336.377 38.8335Z" fill="#F6971B"/>
<path d="M376.811 10.4822L338.978 64.4303C337.348 62.5422 336.378 60.0661 336.378 57.3115V38.8542L362.852 4.57047H362.872L376.811 10.4822Z" fill="#F26923"/>
<path d="M790.855 78.3274C790.855 78.0901 790.886 77.8528 790.928 77.6258C790.886 77.9456 790.866 78.2861 790.855 78.6162V78.3274Z" fill="white"/>
<path d="M801.679 68.0722C800.988 68.0722 800.317 68.1342 799.667 68.258C799.667 68.258 799.667 68.258 799.657 68.258C799.616 68.258 799.585 68.2683 799.554 68.2786V68.0722L799.688 67.8969C799.791 67.9175 799.904 67.9381 800.008 67.9484C800.183 67.9794 800.369 68 800.555 68.0207C800.926 68.0516 801.297 68.0722 801.679 68.0722Z" fill="white"/>
<path d="M757.12 4.48792L748.732 8.07827L743.274 10.4202L743.212 10.3996L720.969 4.48792H757.12Z" fill="#D05C32"/>
<path d="M846.29 4.48792L833.002 8.04731L824.119 10.4202L824.067 10.3996L810.129 4.48792H846.29Z" fill="#D05C32"/>
<path d="M799.554 131.636H767.716L783.635 125.704L790.857 128.396L799.554 131.636Z" fill="#D05C32"/>
<path d="M781.034 64.358C779.064 66.6484 776.133 68.0722 772.801 68.0722H767.715L720.947 4.49823H720.968L743.212 10.4099L781.034 64.358Z" fill="#FFD104"/>
<path d="M783.634 125.703V125.714L767.746 131.636L767.715 131.646V131.636L783.634 125.703Z" fill="#FFD104"/>
<path d="M790.847 78.8935C790.847 78.7082 790.847 78.5126 790.847 78.3274C790.847 78.42 790.867 78.5229 790.867 78.6156C790.857 78.7082 790.857 78.8008 790.857 78.8935H790.847Z" fill="#F6971B"/>
<path d="M790.93 77.6258C790.888 77.9456 790.868 78.2861 790.857 78.6162V78.3274C790.857 78.0901 790.888 77.8528 790.93 77.6258Z" fill="#F6971B"/>
<path d="M799.554 131.636V131.646L799.523 131.636L790.857 128.407L783.635 125.714V125.703L790.857 128.396L799.554 131.636Z" fill="#F6971B"/>
<path d="M846.331 4.49823L799.688 67.8968L799.554 68.0722H794.457C793.333 68.0722 792.249 67.9071 791.238 67.5976C791.218 67.5976 791.197 67.5976 791.187 67.5873C790.887 67.4944 790.588 67.3913 790.299 67.2778C790.279 67.2675 790.248 67.2571 790.217 67.2365C789.113 66.7825 788.112 66.1532 787.245 65.3794C786.884 65.0596 786.544 64.7191 786.234 64.358L787.215 62.9549L790.836 57.8067V57.786L790.856 57.7654L824.057 10.4099L824.108 10.4306L832.981 8.05763L846.28 4.49823H846.321H846.331Z" fill="#F6971B"/>
<path d="M783.634 38.7613V57.2392C783.634 57.4353 783.634 57.6313 783.624 57.8273C783.49 60.3447 782.551 62.6041 781.034 64.358L743.212 10.4099L743.274 10.4306L748.742 8.08858L757.119 4.49823H757.171L783.634 38.7613Z" fill="#F6971B"/>
<path d="M824.067 10.4099L790.867 57.7551V57.786H790.846V57.8067L787.225 62.9549L786.244 64.358C784.738 62.6144 783.799 60.3653 783.665 57.8686C783.655 57.6622 783.645 57.4559 783.645 57.2392V38.7819L810.118 4.49823H810.139L824.077 10.4099H824.067Z" fill="#F26923"/>
<path d="M15.9798 69.3307C15.9078 69.2895 15.8357 69.2587 15.7637 69.2278C15.8357 69.2484 15.9078 69.2895 15.9798 69.3307Z" fill="#FFD104"/>
<path d="M143.592 68.1548V68.2783C143.366 68.2268 143.129 68.1856 142.902 68.1548H143.592Z" fill="#FFD104"/>
<path d="M143.592 68.1547H140.714C140.528 68.1547 140.332 68.1548 140.146 68.1444C140.146 68.1444 140.136 68.1341 140.126 68.1444C134.338 67.8452 129.891 63.2025 129.891 57.3218C129.891 58.6527 129.664 59.9114 129.241 61.0772C125.94 33.3552 103.356 13.8559 75.7575 13.8559C48.1592 13.8559 25.8124 33.1282 22.3149 60.6026C21.9951 59.5709 21.83 58.467 21.83 57.3218C21.83 58.6527 21.603 59.9114 21.18 61.0772C21.1284 61.2423 21.0665 61.3971 21.0046 61.5415C20.8602 61.8923 20.7054 62.2327 20.53 62.5526C20.3753 62.8414 20.2102 63.1097 20.0348 63.3779C19.7769 63.77 19.488 64.1517 19.1682 64.5025C19.065 64.6263 18.9619 64.7398 18.8484 64.8533C18.7452 64.9668 18.6317 65.0803 18.5182 65.1834C18.4047 65.2969 18.2809 65.4001 18.1674 65.5033C16.981 66.5453 15.5572 67.3191 13.9787 67.7524C13.8239 67.804 13.6692 67.8349 13.5041 67.8762L13.1946 67.9381C13.0398 67.969 12.8954 68 12.7406 68.0206L12.524 68.0516C12.524 68.0516 12.5137 68.0413 12.5033 68.0516C11.1724 67.7627 9.55265 67.6389 7.8916 68.0309C7.93287 45.8801 18.0849 26.7213 33.8597 14.4852C34.7161 13.8249 35.593 13.1852 36.4803 12.5662C39.1421 10.6988 41.938 9.02746 44.8681 7.55211C47.7981 6.08708 50.8417 4.81808 53.9987 3.77605C55.5772 3.2602 57.1764 2.79593 58.7962 2.38325C60.158 2.04278 61.5199 1.74359 62.9127 1.48566C63.6039 1.35154 64.3055 1.23805 64.9967 1.12456C65.6983 1.02139 66.4102 0.918218 67.1118 0.835681C67.8133 0.753145 68.5252 0.670608 69.2474 0.608705C70.3101 0.505534 71.3933 0.433314 72.4766 0.381729C73.5703 0.340461 74.6639 0.309509 75.7575 0.309509C76.8511 0.309509 77.9447 0.340461 79.028 0.381729C80.1113 0.433314 81.1946 0.505534 82.2676 0.608705C82.9794 0.670608 83.681 0.753145 84.3929 0.835681C85.1048 0.918218 85.8063 1.02139 86.5079 1.12456C87.2095 1.23805 87.911 1.35154 88.6023 1.48566C89.9848 1.74359 91.3569 2.04278 92.7085 2.38325C94.3283 2.79593 95.9377 3.2602 97.5059 3.77605C100.663 4.81808 103.706 6.08708 106.637 7.55211C109.556 9.02746 112.363 10.6988 115.024 12.5662C115.912 13.1852 116.778 13.8249 117.635 14.4852C133.44 26.7419 143.592 45.9524 143.592 68.1547Z" fill="#F6971B"/>
<path d="M169.128 131.718H169.14L169.128 131.73V131.718Z" fill="#FFD104"/>
<path d="M183.654 117.728V117.739L169.138 131.718L183.654 117.728Z" fill="#FFD104"/>
<path d="M500.761 101.51L500.626 101.541" stroke="#FBB03B" stroke-miterlimit="10"/>
<path d="M411.568 96.6491C411.465 96.4329 411.372 96.2167 411.279 95.9903" stroke="white" stroke-width="0.73" stroke-miterlimit="10"/>
<path d="M669.962 32.675V32.6854L669.816 32.5401H669.827L669.962 32.675Z" fill="#FFD104"/>
<path d="M656.434 68.1547H655.547C655.815 68.1238 656.094 68.1032 656.372 68.0928L656.434 68.1547Z" fill="#F6971B"/>
<path d="M662.295 67.3704H662.274C662.192 67.3395 662.099 67.2983 662.017 67.2572C662.109 67.2983 662.202 67.3292 662.295 67.3704Z" fill="#F6971B"/>
<path d="M663.387 67.7105C663.254 67.6796 663.12 67.6488 662.996 67.6076C662.862 67.5664 662.729 67.5253 662.595 67.4738C662.852 67.5561 663.12 67.6385 663.387 67.7105Z" fill="#F6971B"/>
<path d="M665.501 68.0928C665.275 68.1134 665.059 68.134 664.832 68.1546H664.771C664.771 68.1546 664.812 68.1443 664.832 68.1443C665.048 68.1237 665.275 68.1031 665.501 68.0928Z" fill="#F6971B"/>
<path d="M666.194 68.0722C665.967 68.0722 665.73 68.0825 665.504 68.0928C665.679 68.0722 665.854 68.0619 666.039 68.0619C666.091 68.0722 666.142 68.0722 666.194 68.0722Z" fill="#F6971B"/>
<path d="M664.831 68.1548C664.625 68.1753 664.429 68.2062 664.224 68.2474C664.409 68.2062 664.584 68.1753 664.769 68.1548H664.831Z" fill="#FFD104"/>
<path d="M646.19 117.728L646.179 117.74V117.728H646.19Z" fill="#F26923"/>
<path d="M151.495 80.7831C151.495 80.7831 147.441 75.0984 142.881 78.1935C140.735 93.2565 133.812 106.483 123.722 116.47C121.421 118.75 118.955 120.865 116.345 122.794C115.912 123.114 115.468 123.434 115.024 123.744C114.137 124.363 113.229 124.961 112.311 125.539C111.393 126.116 110.464 126.674 109.515 127.21C108.566 127.747 107.606 128.252 106.637 128.747C106.141 128.995 105.656 129.232 105.161 129.47C103.18 130.398 101.158 131.244 99.0741 131.987C98.0424 132.358 96.9901 132.709 95.9274 133.029C95.3909 133.194 94.8648 133.349 94.3283 133.493C93.2553 133.792 92.172 134.061 91.0784 134.308C86.1468 135.422 81.0192 136 75.7575 136C70.4958 136 65.3578 135.422 60.4366 134.308C59.343 134.061 58.2597 133.792 57.1867 133.493C56.6502 133.349 56.1137 133.194 55.5772 133.029C54.5146 132.709 53.4725 132.358 52.4305 131.987C50.3465 131.244 48.314 130.398 46.3434 129.47C45.8482 129.232 45.353 128.995 44.8681 128.747C43.888 128.252 42.9285 127.747 41.9793 127.21C41.0404 126.674 40.1016 126.116 39.1834 125.539C38.2651 124.961 37.3676 124.363 36.4803 123.744C36.0366 123.434 35.593 123.114 35.1597 122.794C32.5495 120.865 30.0734 118.75 27.7727 116.47C17.6 106.4 10.636 93.0398 8.5519 77.8324C4.04332 74.9437 0.0815585 80.5149 0.0815585 80.5149C-0.413662 74.7579 1.31961 70.9922 6.01389 68.6915C6.64323 68.382 7.26226 68.1756 7.8916 68.0312C9.55266 67.6391 11.1724 67.7629 12.5033 68.0518C12.297 68.0828 12.0907 68.1034 11.874 68.124C11.5851 68.1447 11.2962 68.155 10.997 68.155C11.2137 68.155 11.4304 68.1653 11.6367 68.1756C11.8534 68.186 12.0597 68.2066 12.2661 68.2272C12.4208 68.2375 12.5756 68.2582 12.72 68.2891C12.8438 68.3098 12.9779 68.3304 13.1017 68.351C13.2359 68.3717 13.37 68.4026 13.5041 68.4336C13.6485 68.4645 13.793 68.5058 13.9271 68.5367C14.0612 68.578 14.185 68.609 14.3088 68.6502C14.4636 68.7018 14.608 68.7534 14.7525 68.805C15.1033 68.9185 15.4334 69.0629 15.7635 69.2177C15.8358 69.2589 15.908 69.2899 15.9802 69.3311C16.0524 69.3621 16.135 69.4034 16.1969 69.4446C16.3516 69.5272 16.4961 69.6097 16.6405 69.6922C17.4349 70.1668 18.1674 70.7446 18.8071 71.4049C18.9618 71.57 19.1269 71.7453 19.2714 71.9207C19.9317 72.6945 20.4785 73.5612 20.9015 74.5103C20.9634 74.6548 21.0253 74.8095 21.0872 74.9643C21.2007 75.2532 21.3038 75.5627 21.407 75.8825C21.4586 76.1095 21.5205 76.3365 21.5721 76.5634C21.634 76.842 21.6856 77.1206 21.7165 77.4094C21.7578 77.657 21.7887 77.915 21.7991 78.1729C21.8197 78.4411 21.83 78.7094 21.83 78.9776C21.83 77.8324 21.9951 76.7285 22.3149 75.7071C25.8124 103.171 48.3037 122.444 75.7575 122.444C103.211 122.444 125.94 102.944 129.241 75.2325C129.664 76.388 129.891 77.6571 129.891 78.9776C129.891 73.231 134.132 68.6709 139.734 68.1963C139.754 68.1963 139.775 68.1963 139.796 68.1963C140.095 68.1756 140.404 68.1653 140.714 68.1653H142.901C143.128 68.1963 143.365 68.2375 143.592 68.2891C144.242 68.4336 144.903 68.6502 145.553 68.97C150.257 71.2708 151.98 75.0365 151.495 80.7934V80.7831Z" fill="#FFD104"/>
<path d="M15.7739 69.1968V69.2175C15.4334 69.0627 15.1033 68.9183 14.7525 68.8048C14.6081 68.7532 14.4636 68.7016 14.3089 68.65C14.1851 68.6088 14.0612 68.5778 13.9271 68.5365C13.793 68.5056 13.6486 68.4643 13.5041 68.4334C13.37 68.4024 13.2359 68.3715 13.1018 68.3508C12.978 68.3302 12.8438 68.3096 12.72 68.2889C12.5756 68.258 12.4208 68.2373 12.2661 68.227C12.0597 68.2064 11.8534 68.1858 11.6367 68.1754C11.4304 68.1651 11.2137 68.1548 10.9971 68.1548C11.2963 68.1548 11.5851 68.1445 11.874 68.1238C12.0907 68.1032 12.297 68.0826 12.5034 68.0516C12.5137 68.0413 12.5137 68.0516 12.524 68.0516C14.4533 68.4643 15.7739 69.1968 15.7739 69.1968Z" fill="#FFD104"/>
<path d="M37.7185 68.0413V68.1548H32.6631C34.0765 67.7937 35.8717 67.5873 37.7185 68.0413Z" fill="#F6971B"/>
<path d="M117.52 68.1548H114.642C115.653 68 116.622 68.0309 117.52 68.1548Z" fill="#F6971B"/>
<path d="M142.9 68.1547H140.713C140.404 68.1547 140.094 68.165 139.795 68.1857C139.908 68.165 140.012 68.1547 140.125 68.1444C140.125 68.1341 140.146 68.1444 140.146 68.1444C141.012 68.0309 141.941 68.0103 142.9 68.1547Z" fill="#FFD104"/>
<path d="M267.273 75.6863C264.075 100.571 245.04 117.728 219.99 117.728H183.674L198.19 103.749H219.99C236.58 103.738 248.899 94.2364 252.602 78.5338C247.846 74.7061 243.523 80.7829 243.523 80.7829C243.028 75.0157 244.751 71.2602 249.456 68.9595C250.921 68.2373 252.406 68.0207 253.768 68.0619V68.1342H256.925C261.846 68.1342 265.911 71.2602 267.273 75.6863Z" fill="#EE931F"/>
<path d="M254.822 68.1341H253.77V68.0619C254.131 68.0619 254.481 68.0929 254.822 68.1341Z" fill="#F26923"/>
<path d="M288.95 80.7829C288.95 80.7829 285.339 75.6966 281.078 77.7497C276.807 108.907 251.85 131.718 219.991 131.718H169.138L183.654 117.739H219.991C245.041 117.728 264.076 100.571 267.274 75.6966C267.594 76.718 267.759 77.8219 267.759 78.9671C267.759 78.6885 267.759 78.4203 267.79 78.1521V78.0902C267.79 78.0902 267.79 78.0592 267.8 78.0386C267.8 77.8425 267.831 77.6465 267.862 77.4608C267.893 77.2132 267.934 76.9862 267.975 76.7592C267.975 76.7489 267.986 76.7283 267.986 76.718C268.027 76.5013 268.079 76.295 268.13 76.0886C268.172 75.9132 268.223 75.7379 268.285 75.5728C268.316 75.449 268.357 75.3252 268.409 75.2117C268.822 74.0252 269.451 72.9522 270.225 72.0134C270.348 71.8586 270.483 71.7039 270.627 71.5491C270.761 71.4047 270.906 71.2602 271.05 71.1158C271.071 71.0952 271.081 71.0848 271.102 71.0745C271.236 70.9404 271.38 70.8269 271.514 70.7031C271.566 70.6618 271.607 70.6206 271.659 70.5793C271.813 70.4452 271.979 70.3214 272.154 70.1976C272.319 70.0738 272.494 69.9603 272.67 69.8468C272.866 69.723 273.072 69.5992 273.278 69.4857C273.423 69.4032 273.567 69.3206 273.712 69.2484C273.836 69.1865 273.98 69.1246 274.145 69.0524C274.269 69.0008 274.413 68.9492 274.568 68.8873C274.682 68.846 274.805 68.8048 274.929 68.7532C275.063 68.7119 275.197 68.6706 275.332 68.6294L275.548 68.5675C275.765 68.5056 276.002 68.4437 276.24 68.3818L276.394 68.3508C277.096 68.2064 277.828 68.1342 278.581 68.1342H280.201C280.707 68.1961 281.223 68.2992 281.738 68.4643C282.161 68.5881 282.595 68.7532 283.018 68.9595C287.722 71.2602 289.445 75.0157 288.95 80.7829Z" fill="#FFD104"/>
<path d="M273.268 69.4645C273.268 69.4645 273.422 69.3719 273.71 69.2484C273.566 69.3204 273.422 69.4028 273.278 69.4851V69.4645H273.268Z" fill="#F26923"/>
<path d="M275.765 68.495C275.919 68.4538 276.074 68.4126 276.238 68.3818C276.002 68.4435 275.765 68.5053 275.549 68.567C275.621 68.5464 275.693 68.5259 275.765 68.495Z" fill="#F26923"/>
<path d="M280.202 68.1341H278.582C277.829 68.1341 277.096 68.2064 276.395 68.3508C276.838 68.2476 277.313 68.1651 277.808 68.1135H277.839C278.582 68.031 279.386 68.0207 280.202 68.1341Z" fill="#F26923"/>
<path d="M172.831 68.1548C178.908 68.1548 183.654 72.9006 183.654 78.9774V117.728L169.138 131.718H169.128V77.9147C164.733 75.449 160.946 80.7829 160.946 80.7829C160.451 75.0156 162.174 71.2602 166.878 68.9595C167.632 68.5881 168.385 68.3508 169.128 68.227V4.58081L183.654 18.5708V57.3218C183.654 63.3986 178.908 68.1548 172.831 68.1548Z" fill="#FFD104"/>
<path d="M336.378 78.9775V125.786L320.459 131.718V78.3275C315.806 74.9228 311.638 80.783 311.638 80.783C311.142 75.0157 312.865 71.2603 317.57 68.9596C318.529 68.4953 319.499 68.2374 320.438 68.1239L320.459 68.1548H325.545C331.622 68.1548 336.378 72.9007 336.378 78.9775Z" fill="#FFD104"/>
<path d="M323.088 68.1548H320.457L320.437 68.1239C321.365 68.0104 322.263 68.0413 323.088 68.1548Z" fill="#FFD104"/>
<path d="M352.308 68.1341V68.1548H349.584C350.43 68.031 351.359 68.0103 352.308 68.1341Z" fill="#F26923"/>
<path d="M527.419 96.301V96.2895" stroke="white" stroke-width="0.73" stroke-miterlimit="10"/>
<path d="M620.749 101.51L620.614 101.541" stroke="#FBB03B" stroke-miterlimit="10"/>
<path d="M523.302 96.6491C523.199 96.4329 523.106 96.2167 523.014 95.9903" stroke="white" stroke-width="0.73" stroke-miterlimit="10"/>
<path d="M450.909 57.8686C450.702 58.5702 450.558 59.2717 450.496 59.963H450.444C450.444 59.963 450.455 59.5194 450.568 58.8384V58.8178C450.568 58.8178 450.589 58.7559 450.599 58.7353C450.713 58.4567 450.816 58.1678 450.898 57.8686H450.909Z" fill="white"/>
<path d="M494.013 29.445L467.529 44.1778L476.67 32.3028L494.013 29.445Z" fill="#D05C32"/>
<path d="M429.26 40.3598L429.148 40.3192" stroke="#FBB03B" stroke-miterlimit="10"/>
<path d="M419.069 88.5413L407.421 102.449L392.007 103.45L404.356 96.6505L419.069 88.5413Z" fill="#F26923"/>
<path d="M451.805 54.5981L451.506 55.6091C451.506 55.6091 451.485 55.6401 451.485 55.6607C450.969 56.8472 450.711 57.9718 450.577 58.7765C450.577 58.7868 450.577 58.8074 450.577 58.8178V58.8384C450.577 58.8384 450.577 58.8487 450.577 58.859C450.577 58.8797 450.567 58.9003 450.556 58.9209C450.556 58.9416 450.556 58.9519 450.536 58.9725C450.484 59.086 450.433 59.2098 450.371 59.3233C450.309 59.4987 450.216 59.6741 450.123 59.8392C450.041 60.0249 449.937 60.2106 449.824 60.3963C449.411 61.0978 448.926 61.7375 448.38 62.3049C448.245 62.4494 448.111 62.5835 447.977 62.7073L447.936 62.7486C447.936 62.7486 447.926 62.7589 447.915 62.7589C447.853 62.8311 447.781 62.893 447.719 62.9446C447.544 63.0994 447.368 63.2541 447.183 63.3882C446.987 63.543 446.791 63.6874 446.584 63.8216C446.368 63.966 446.151 64.1001 445.934 64.2239C445.934 64.2239 445.928 64.2274 445.914 64.2342C445.687 64.358 445.46 64.4818 445.233 64.585C444.996 64.6985 444.758 64.8017 444.511 64.8945C444.273 64.9874 444.026 65.0802 443.778 65.1525C442.788 65.4517 441.756 65.6167 440.693 65.6167C440.59 65.6167 440.487 65.6167 440.394 65.6167C439.693 65.6064 438.981 65.5239 438.258 65.3691C437.99 65.3072 437.722 65.2453 437.454 65.1628C437.784 65.2556 438.104 65.3691 438.413 65.5032C421.349 60.0661 411.919 53.2465 411.919 39.3391C411.919 37.709 412.074 36.1511 412.383 34.6551L429.169 40.3398C429.716 45.4055 433.812 49.2435 451.825 54.6084L451.805 54.5981Z" fill="#F6971B"/>
<path d="M451.486 55.6607L450.578 58.7765C450.712 57.9718 450.97 56.8472 451.486 55.6607Z" fill="#F6971B"/>
<path d="M497.944 95.6292C497.944 97.672 497.799 99.6425 497.531 101.541L478.692 105.647C480.064 102.686 480.766 99.3846 480.766 95.8046C480.766 82.6503 472.244 76.46 459.44 71.838C458.811 71.611 458.171 71.384 457.521 71.1674C457.748 71.2189 457.965 71.2808 458.192 71.3427C453.426 69.9293 450.423 65.7096 450.434 61.0256C450.434 60.6749 450.454 60.3241 450.496 59.963C450.557 59.2717 450.702 58.5702 450.908 57.8686C450.815 58.1678 450.723 58.4567 450.609 58.7352C450.609 58.7559 450.609 58.7868 450.578 58.8075V58.7765L451.486 55.6608C451.486 55.6608 451.486 55.6298 451.507 55.6092C451.641 55.2893 451.806 54.9695 451.981 54.6497C452.652 53.4323 453.622 52.2355 455.014 51.3276C459.409 48.48 463.526 48.934 468.21 52.318C468.21 52.318 462.03 52.8029 461.576 57.4766C480.002 63.1716 497.944 71.4459 497.944 95.6292Z" fill="#FFD104"/>
<path d="M451.98 54.6497C451.805 54.9695 451.64 55.2893 451.506 55.6092L451.805 54.5981C451.867 54.6187 451.919 54.629 451.98 54.6497Z" fill="#F6971B"/>
<path d="M497.53 101.541V101.551L478.691 105.657V105.647L497.53 101.541Z" fill="#F6971B"/>
<path d="M444.719 78.6266L444.595 79.0909C444.523 79.3385 444.45 79.5861 444.389 79.844L444.079 81.0202C442.222 80.494 440.241 79.9678 438.105 79.4107C418.039 74.0974 398.354 64.9977 397.693 40.9486L412.333 34.6345H412.354C412.044 36.1408 411.89 37.6987 411.89 39.3288C411.89 53.2362 421.32 60.0558 438.384 65.4929C443.594 67.5564 446.328 73.1276 444.698 78.6266H444.719Z" fill="#FFD104"/>
<path d="M444.389 79.844C444.306 80.2361 444.234 80.6384 444.203 81.0511L444.079 81.0202L444.389 79.844Z" fill="#FBB03B"/>
<path d="M446.773 74.9228C446.319 75.5109 445.215 77.0378 444.596 79.0909L444.72 78.6267C445.153 77.172 445.844 75.872 446.742 74.7784C446.742 74.83 446.762 74.8712 446.773 74.9228Z" fill="#FBB03B"/>
<path d="M478.693 105.647L478.146 105.781L465.673 99.9314L465.683 99.9211L478.146 105.771L478.703 105.647H478.693Z" fill="#FBB03B"/>
<path d="M412.343 34.6242H412.364C414.861 22.1818 427.334 14.5265 442.314 14.5265C457.295 14.5265 469.211 20.8715 476.67 32.3028L494.013 29.445C484.016 10.2449 466.364 0 443.79 0C420.05 0 397.683 14.5368 397.683 39.7002C397.683 40.1232 397.693 40.5359 397.693 40.9382L412.343 34.6242Z" fill="#F6971B"/>
<path d="M442.314 14.5264C427.333 14.5264 414.86 22.1817 412.363 34.6345L429.149 40.3192C429.098 39.8755 429.077 39.4216 429.077 38.9573C429.077 33.7369 433.978 29.0735 443.789 29.0735C456.345 29.0735 462.824 34.8614 467.529 44.1778L476.67 32.3028C469.21 20.8714 457.934 14.5264 442.314 14.5264Z" fill="#F26923"/>
<path d="M478.691 105.647C478.443 106.204 478.165 106.741 477.865 107.267C477.731 107.504 477.597 107.741 477.442 107.979C477.298 108.206 477.143 108.443 476.989 108.67C476.834 108.897 476.679 109.124 476.514 109.351C476.349 109.578 476.173 109.805 475.988 110.032C475.627 110.496 475.245 110.94 474.832 111.373C474.605 111.621 474.368 111.868 474.131 112.095C473.79 112.425 473.439 112.745 473.078 113.065L472.893 113.22C472.532 113.529 472.16 113.829 471.778 114.117C471.5 114.324 471.211 114.54 470.912 114.747C470.53 115.005 470.138 115.263 469.736 115.51C469.292 115.789 468.828 116.057 468.343 116.315C468.136 116.428 467.93 116.542 467.724 116.645C467.342 116.841 466.96 117.037 466.558 117.213C466.548 117.223 466.537 117.233 466.527 117.233C466.135 117.419 465.733 117.594 465.32 117.759C464.907 117.935 464.474 118.1 464.041 118.265C463.814 118.347 463.587 118.43 463.36 118.513L462.926 118.667C462.648 118.77 462.359 118.853 462.07 118.946C461.812 119.028 461.544 119.111 461.276 119.183C460.873 119.307 460.45 119.42 460.027 119.524C460.007 119.524 459.996 119.534 459.976 119.534C459.903 119.555 459.821 119.575 459.738 119.596C459.326 119.699 458.913 119.792 458.48 119.885C458.17 119.957 457.861 120.029 457.541 120.091C457.221 120.153 456.901 120.215 456.581 120.266C455.931 120.38 455.271 120.483 454.6 120.576C454.167 120.638 453.734 120.689 453.28 120.741C452.413 120.844 451.516 120.927 450.608 120.989C450.36 120.989 450.102 121.02 449.844 121.03C449.586 121.04 449.328 121.061 449.07 121.061C449.019 121.061 448.957 121.061 448.905 121.061C448.823 121.071 448.73 121.071 448.647 121.071C448.482 121.092 448.307 121.102 448.132 121.092C448.08 121.102 448.039 121.102 447.987 121.102C447.327 121.123 446.646 121.133 445.965 121.133C427.147 121.133 414.622 113.818 407.431 102.439L419.079 88.5311C424 99.3331 432.429 106.607 447.925 106.607C458.954 106.607 463.865 103.553 465.671 99.9211C465.681 99.9211 465.681 99.9108 465.681 99.9108L478.144 105.761L478.701 105.637L478.691 105.647Z" fill="#FFD104"/>
<path d="M497.54 101.541C494.456 123.104 474.348 135.69 446.945 135.69C418.078 135.69 399.662 122.65 392.007 103.45L407.421 102.449C414.612 113.829 427.137 121.143 445.955 121.143C446.636 121.143 447.317 121.133 447.977 121.112C448.029 121.112 448.07 121.112 448.122 121.102C448.297 121.112 448.472 121.102 448.637 121.081C448.72 121.081 448.813 121.081 448.895 121.071C448.947 121.071 449.009 121.071 449.06 121.071C449.318 121.071 449.576 121.061 449.834 121.04C450.092 121.03 450.35 121.009 450.598 120.999C451.506 120.937 452.403 120.854 453.27 120.751C453.713 120.71 454.157 120.648 454.59 120.586C455.261 120.493 455.921 120.39 456.571 120.277C456.891 120.225 457.211 120.163 457.531 120.101C457.851 120.039 458.16 119.967 458.47 119.895C458.903 119.812 459.316 119.709 459.728 119.606C459.811 119.585 459.893 119.565 459.966 119.544C459.986 119.544 459.997 119.534 460.017 119.534C460.44 119.431 460.863 119.317 461.266 119.193C461.534 119.121 461.802 119.039 462.06 118.956C462.504 118.822 462.927 118.667 463.35 118.523C463.577 118.44 463.804 118.358 464.031 118.275C464.464 118.11 464.897 117.945 465.31 117.77C465.723 117.605 466.125 117.429 466.517 117.243C466.517 117.243 466.538 117.233 466.548 117.223C466.95 117.047 467.332 116.851 467.714 116.655C467.92 116.563 468.126 116.449 468.333 116.325C468.818 116.067 469.282 115.799 469.726 115.521C470.128 115.273 470.52 115.015 470.902 114.757C471.201 114.551 471.49 114.334 471.768 114.128C472.15 113.839 472.521 113.54 472.883 113.23L473.068 113.075C473.429 112.766 473.78 112.446 474.121 112.106C474.358 111.879 474.595 111.631 474.822 111.383C475.235 110.95 475.617 110.506 475.978 110.042C476.163 109.815 476.339 109.588 476.504 109.361C476.679 109.134 476.834 108.907 476.978 108.68C477.144 108.453 477.298 108.226 477.432 107.989C477.587 107.752 477.721 107.514 477.855 107.277C478.155 106.751 478.433 106.215 478.681 105.668L497.52 101.551H497.53L497.54 101.541Z" fill="#F6971B"/>
<path d="M563.034 63.378C562.827 63.5224 562.631 63.6668 562.415 63.8113C562.198 63.9557 561.981 64.0898 561.754 64.224C561.3 64.4922 560.836 64.7089 560.351 64.8843C560.104 64.9771 559.856 65.07 559.608 65.1422C558.535 65.4826 557.401 65.6374 556.235 65.6064H556.224C555.059 64.843 553.759 64.2343 552.355 63.8113C552.933 63.9867 553.521 64.1311 554.099 64.2136C557.535 64.8533 560.908 64.2755 563.766 62.7383L563.642 62.8621C563.477 63.0065 563.302 63.151 563.137 63.2851C563.096 63.3161 563.065 63.347 563.034 63.378Z" fill="white"/>
<path d="M609.873 29.445L583.389 44.1778L592.53 32.3028L609.873 29.445Z" fill="#D05C32"/>
<path d="M523.273 102.449L507.859 103.45L520.209 96.6506C521.086 98.683 522.107 100.623 523.273 102.449Z" fill="#D05C32"/>
<path d="M534.93 88.5413L523.271 102.449C522.105 100.623 521.084 98.683 520.207 96.6505L534.93 88.5413Z" fill="#D05C32"/>
<path d="M560.579 78.6266L560.455 79.0702C560.455 79.0702 560.435 79.1218 560.435 79.1425L560.228 79.8956L559.929 81.0202C558.072 80.494 556.091 79.9678 553.966 79.4107C533.899 74.0974 514.214 64.9977 513.554 40.9486L528.204 34.6345H528.225C527.915 36.1408 527.76 37.6987 527.76 39.3288C527.76 53.2362 537.19 60.0558 554.255 65.4929C559.465 67.5564 562.199 73.1276 560.569 78.6266H560.579Z" fill="#FFD104"/>
<path d="M596.627 95.8046C596.627 99.3847 595.926 102.686 594.554 105.647L593.997 105.771L581.523 99.9211C582.163 98.6418 582.41 97.3109 582.41 96.0007C582.41 90.4294 578.624 87.2002 569.39 83.94C566.223 87.6851 570.535 92.4309 570.535 92.4309C564.799 91.6881 561.487 89.1914 560.249 84.105C559.991 83.0424 559.95 82.0107 560.064 81.0512C560.095 80.6591 560.156 80.2774 560.239 79.906L560.445 79.1425C560.445 79.1425 560.445 79.0909 560.466 79.0703C561.085 77.0275 562.179 75.5109 562.633 74.9331C562.633 74.9331 562.612 74.8403 562.602 74.7887C563.664 73.4784 565.005 72.457 566.512 71.8071C568.585 70.8682 570.979 70.6103 573.383 71.1674C573.713 71.2809 574.043 71.3944 574.373 71.5079C574.683 71.6213 574.992 71.7245 575.302 71.838C588.105 76.4601 596.627 82.6503 596.627 95.8046Z" fill="#F6971B"/>
<path d="M560.228 79.906C560.145 80.2774 560.084 80.6591 560.053 81.0512L559.929 81.0202L560.228 79.906Z" fill="#FBB03B"/>
<path d="M562.622 74.9228C562.168 75.5109 561.074 77.0275 560.455 79.0702L560.579 78.6266C561.012 77.1719 561.703 75.8823 562.591 74.7887C562.591 74.8402 562.611 74.8815 562.622 74.9228Z" fill="#FBB03B"/>
<path d="M594.553 105.647V105.657H594.543L593.996 105.781L581.522 99.9314V99.9211L593.996 105.771L594.553 105.647Z" fill="#FBB03B"/>
<path d="M528.204 34.6242H528.224C530.721 22.1818 543.194 14.5265 558.175 14.5265C573.155 14.5265 585.071 20.8715 592.531 32.3028L609.874 29.445C599.876 10.2449 582.224 0 559.65 0C535.91 0 513.543 14.5368 513.543 39.7002C513.543 40.1232 513.553 40.5359 513.553 40.9382L528.204 34.6242Z" fill="#F6971B"/>
<path d="M594.553 105.647H594.543C594.409 105.957 594.275 106.245 594.12 106.534C593.604 107.514 593.016 108.453 592.366 109.351L591.84 110.032C591.479 110.496 591.097 110.94 590.684 111.373C590.22 111.858 589.746 112.333 589.24 112.797C589.044 112.962 588.848 113.137 588.642 113.302C588.446 113.467 588.239 113.632 588.033 113.798C587.827 113.963 587.62 114.117 587.414 114.272C587.197 114.437 586.991 114.592 586.764 114.747C586.403 114.994 586.031 115.242 585.65 115.479C584.484 116.201 583.225 116.862 581.884 117.46C581.44 117.656 580.986 117.852 580.522 118.028C580.058 118.213 579.583 118.389 579.098 118.554C578.675 118.709 578.242 118.843 577.798 118.977C576.715 119.317 575.58 119.616 574.404 119.874C573.919 119.988 573.424 120.081 572.929 120.174C572.867 120.184 572.795 120.204 572.722 120.215C572.268 120.297 571.804 120.38 571.34 120.452C570.236 120.617 569.101 120.762 567.935 120.865C567.512 120.906 567.099 120.947 566.666 120.968C566.553 120.978 566.429 120.989 566.305 120.999C565.913 121.03 565.5 121.05 565.098 121.061C564.025 121.123 562.931 121.143 561.807 121.143C542.988 121.143 530.463 113.829 523.272 102.449L534.931 88.5413C539.842 99.3433 548.271 106.617 563.767 106.617C574.796 106.617 579.707 103.563 581.523 99.9314L593.996 105.771L594.553 105.647Z" fill="#FFD104"/>
<path d="M613.393 101.541C610.298 123.104 590.2 135.69 562.798 135.69C533.941 135.69 515.515 122.65 507.859 103.45L523.273 102.449C530.464 113.829 542.989 121.143 561.807 121.143C562.963 121.143 564.088 121.112 565.192 121.061C565.243 121.061 565.284 121.051 565.336 121.051C565.666 121.03 565.996 121.02 566.306 120.999C566.471 120.999 566.636 120.978 566.801 120.958C567.183 120.937 567.564 120.906 567.936 120.865C568.514 120.813 569.091 120.751 569.659 120.679C570.144 120.617 570.608 120.566 571.072 120.493C571.103 120.483 571.144 120.483 571.175 120.473C571.33 120.452 571.475 120.431 571.619 120.401C571.99 120.349 572.362 120.277 572.723 120.215C572.795 120.204 572.867 120.194 572.929 120.174C573.177 120.132 573.425 120.081 573.672 120.029C573.951 119.967 574.229 119.916 574.498 119.854C575.055 119.73 575.601 119.596 576.138 119.451C576.705 119.307 577.262 119.152 577.799 118.977C578.026 118.915 578.243 118.843 578.459 118.77C578.676 118.709 578.893 118.636 579.099 118.554C579.584 118.389 580.058 118.213 580.523 118.028C580.739 117.955 580.946 117.863 581.152 117.77C581.4 117.666 581.647 117.563 581.885 117.46C582.215 117.305 582.555 117.161 582.875 116.996C583.112 116.882 583.35 116.769 583.577 116.645C583.855 116.501 584.134 116.356 584.402 116.212C584.454 116.181 584.495 116.16 584.546 116.129C584.897 115.923 585.227 115.727 585.568 115.521C585.908 115.304 586.238 115.098 586.558 114.881C586.847 114.685 587.136 114.479 587.415 114.272C587.621 114.128 587.827 113.973 588.034 113.798C588.24 113.643 588.446 113.478 588.642 113.302C588.849 113.137 589.045 112.972 589.241 112.797C589.488 112.57 589.736 112.343 589.973 112.095C590.221 111.868 590.458 111.621 590.685 111.373C591.098 110.94 591.479 110.496 591.841 110.032C592.026 109.805 592.202 109.578 592.367 109.351C592.542 109.124 592.697 108.897 592.841 108.67C593.006 108.443 593.161 108.216 593.295 107.979C593.594 107.504 593.873 107.019 594.121 106.534C594.275 106.245 594.41 105.957 594.544 105.657H594.554L613.393 101.541Z" fill="#F6971B"/>
<path d="M480.764 95.8045C480.764 99.3846 480.063 102.686 478.691 105.647L478.134 105.771L465.671 99.9211C466.3 98.6417 466.548 97.3108 466.548 96.0006C466.548 90.4293 462.761 87.2001 453.538 83.9399C450.36 87.6747 454.673 92.4309 454.673 92.4309C448.947 91.688 445.635 89.1913 444.397 84.105C444.139 83.0423 444.098 82.0106 444.211 81.0511C444.242 80.6384 444.314 80.236 444.397 79.844C444.459 79.5861 444.531 79.3385 444.603 79.0908C445.222 77.0377 446.326 75.5108 446.78 74.9331C446.78 74.8711 446.759 74.8299 446.749 74.7783C449.277 71.6832 453.373 70.1975 457.52 71.1673H457.53C458.18 71.384 458.82 71.6109 459.449 71.8379C472.253 76.46 480.775 82.6502 480.775 95.8045H480.764Z" fill="#F6971B"/>
<path d="M613.805 95.6292C613.805 97.672 613.661 99.6425 613.392 101.541L594.553 105.647C595.926 102.686 596.627 99.3846 596.627 95.8046C596.627 82.6503 588.105 76.46 575.302 71.838C574.992 71.7245 574.683 71.6213 574.373 71.5078C574.043 71.3943 573.713 71.2808 573.383 71.1674C573.61 71.2189 573.826 71.2808 574.053 71.3427C572.083 70.7547 570.411 69.692 569.142 68.3095C568.224 67.3397 567.523 66.2151 567.048 64.9874C566.553 63.7494 566.295 62.3978 566.295 61.0153C566.295 59.9836 566.46 58.921 566.769 57.8686C566.697 58.1059 566.615 58.3432 566.522 58.5805C566.481 58.694 566.439 58.8075 566.388 58.921L567.657 54.5981C567.791 54.6394 567.925 54.6703 568.059 54.7116H568.069C568.74 53.4735 569.72 52.2458 571.144 51.3276C575.539 48.48 579.656 48.934 584.34 52.318C584.34 52.318 578.077 52.8132 577.695 57.5591C596.029 63.2438 613.805 71.5594 613.805 95.6292Z" fill="#FFD104"/>
<path d="M450.909 57.8686C450.702 58.5702 450.558 59.2717 450.496 59.963H450.444C450.444 59.963 450.455 59.5194 450.568 58.8384V58.8178C450.568 58.8178 450.589 58.7559 450.599 58.7353C450.713 58.4567 450.816 58.1678 450.898 57.8686H450.909Z" fill="#FFD104"/>
<path d="M451.486 55.6607L450.578 58.7765C450.712 57.9718 450.97 56.8472 451.486 55.6607Z" fill="#FFD104"/>
<path d="M783.634 78.8948V125.704L767.715 131.636V78.4306C763.082 75.0672 758.925 80.8964 758.925 80.8964C758.44 75.1394 760.163 71.3737 764.867 69.073C765.816 68.6087 766.776 68.3508 767.715 68.2476V68.0722H772.801C778.878 68.0722 783.634 72.8181 783.634 78.8948Z" fill="#FFD104"/>
<path d="M802.402 69.073C801.494 68.6293 800.565 68.3714 799.668 68.2579H799.657C799.657 68.2579 799.585 68.2682 799.554 68.2785V68.0722H794.457C793.188 68.0722 791.981 68.2785 790.857 68.6603C789.505 69.1245 788.277 69.8364 787.246 70.765C785.017 72.7252 783.635 75.614 783.635 78.8948V125.704L790.857 128.396L799.554 131.636V78.4306C804.186 75.0672 808.344 80.8964 808.344 80.8964C808.829 75.1394 807.106 71.3737 802.402 69.073ZM790.857 78.6163C790.846 78.7091 790.846 78.802 790.846 78.8948C790.846 78.7091 790.846 78.5131 790.846 78.3274C790.846 78.4202 790.867 78.5234 790.867 78.6163V78.3274C790.867 78.0901 790.898 77.8528 790.939 77.6258C790.898 77.9457 790.877 78.2861 790.867 78.6163H790.857Z" fill="#F6971B"/>
<path d="M799.656 68.2579C799.656 68.2579 799.584 68.2681 799.554 68.2783V68.2477C799.554 68.2477 799.625 68.2477 799.656 68.2477V68.2579Z" fill="#F26923"/>
<path d="M267.274 60.5923C265.912 65.0184 261.847 68.1342 256.926 68.1342H253.769V68.0619C253.727 46.3238 239.944 32.5402 219.991 32.5402H198.191L183.664 18.5605H219.991C245.04 18.5605 264.076 35.7178 267.274 60.5923Z" fill="#F26923"/>
<path d="M198.19 103.738V103.749L183.674 117.728L198.19 103.738Z" fill="#F6971B"/>
<path d="M567.656 54.5981L566.387 58.9209C566.284 59.1789 566.17 59.4368 566.047 59.6741C565.799 60.1693 565.52 60.6336 565.221 61.0772C565.066 61.2939 564.901 61.5105 564.736 61.7169C564.437 62.078 564.128 62.4081 563.787 62.7383C563.787 62.7383 563.78 62.7417 563.766 62.7486C563.766 62.7486 563.684 62.8311 563.643 62.8724C563.478 63.0168 563.302 63.1613 563.137 63.2954C563.096 63.3263 563.065 63.3573 563.034 63.3882C562.828 63.5327 562.632 63.6771 562.415 63.8216C562.198 63.966 561.982 64.1001 561.755 64.2342C561.301 64.4818 560.836 64.7088 560.351 64.8945C560.104 64.9874 559.856 65.0802 559.609 65.1525C559.124 65.3072 558.628 65.4207 558.123 65.4929C558.082 65.5032 558.03 65.5136 557.989 65.5136C557.875 65.5342 557.762 65.5445 557.638 65.5548C557.277 65.5961 556.906 65.6167 556.524 65.6167C556.421 65.6167 556.317 65.6167 556.225 65.6167C555.523 65.6064 554.811 65.5239 554.099 65.3691C553.831 65.3072 553.563 65.2453 553.295 65.1628C553.625 65.2556 553.945 65.3691 554.254 65.5032C537.19 60.0661 527.76 53.2465 527.76 39.3391C527.76 37.709 527.915 36.1511 528.224 34.6551L545.01 40.3398C545.546 45.4055 549.642 49.2435 567.656 54.6084V54.5981Z" fill="#FBB03B"/>
<path d="M613.392 101.541V101.551L594.553 105.657V105.647L613.392 101.541Z" fill="#FFD104"/>
<path d="M558.175 14.5264C543.195 14.5264 530.721 22.1817 528.225 34.6345L545.011 40.3192C544.959 39.8755 544.938 39.4216 544.938 38.9573C544.938 33.7369 549.839 29.0735 559.651 29.0735C572.206 29.0735 578.686 34.8614 583.39 44.1778L592.531 32.3028C585.072 20.8714 573.795 14.5264 558.175 14.5264Z" fill="#F26923"/>
<path d="M129.242 75.222C125.94 102.944 103.356 122.443 75.758 122.443C48.1598 122.443 25.8129 103.171 22.3154 75.7069C22.821 74.0562 23.7082 72.5809 24.8844 71.3841C25.2764 70.9817 25.6891 70.6103 26.1431 70.2801C26.8653 69.7333 27.67 69.2794 28.5366 68.9389C28.743 68.8564 28.9493 68.7842 29.1557 68.7119C29.4239 68.6191 29.7025 68.5365 29.9914 68.4746C30.2802 68.4024 30.5691 68.3405 30.858 68.2992C31.4357 68.2064 32.0238 68.1548 32.6222 68.1548H37.7189V68.0413C37.8633 68.062 37.9974 68.0929 38.1419 68.1445C38.6268 68.2786 39.1013 68.454 39.5863 68.6913C44.2908 70.992 46.0138 74.7578 45.5186 80.5147C45.5186 80.5147 42.4338 76.1815 38.6061 77.1307C38.6371 77.3061 38.6783 77.4815 38.7196 77.6465C38.7299 77.7084 38.7403 77.76 38.7609 77.8219C38.8022 78.0386 38.8434 78.2449 38.9053 78.4616C38.9466 78.6679 38.9982 78.864 39.0601 79.0703C39.091 79.2354 39.1426 79.4005 39.1839 79.5655C39.2561 79.8338 39.3283 80.102 39.4109 80.3703C39.772 81.6289 40.195 82.8464 40.6695 84.0225C40.8449 84.4455 41.0203 84.8685 41.2164 85.2812C41.2473 85.3741 41.2886 85.4566 41.3298 85.5391C41.3814 85.6836 41.4536 85.828 41.5259 85.9724C41.5259 85.9828 41.5362 85.9931 41.5465 86.0034C41.5775 86.0756 41.6187 86.1582 41.66 86.2304C41.8354 86.6327 42.0417 87.0351 42.2481 87.4272C42.2481 87.4375 42.2481 87.4478 42.2687 87.4581L42.3616 87.6438C42.6195 88.1287 42.8877 88.6136 43.1663 89.0779C43.4655 89.5834 43.775 90.0786 44.0948 90.5636C44.1258 90.6151 44.167 90.677 44.198 90.7286C44.8686 91.7191 45.5805 92.6682 46.3233 93.5865C46.7051 94.0507 47.0971 94.515 47.5201 94.9586C47.9122 95.4023 48.3352 95.8356 48.7685 96.2586C49.6248 97.1149 50.5224 97.9196 51.4612 98.6728C51.8739 99.0029 52.2866 99.3228 52.7096 99.6323C53.1326 99.9418 53.5659 100.241 53.9992 100.54C54.4326 100.839 54.8762 101.118 55.3301 101.397C55.7119 101.634 56.0936 101.85 56.4857 102.067C56.5579 102.108 56.6404 102.15 56.7126 102.191C57.1769 102.449 57.6412 102.686 58.1158 102.923H58.1261C58.6007 103.161 59.0856 103.388 59.5705 103.604H59.5808C59.6324 103.625 59.684 103.646 59.7356 103.677C60.1689 103.862 60.6022 104.048 61.0561 104.223H61.0665C61.4688 104.378 61.8815 104.533 62.2942 104.677C62.387 104.719 62.4799 104.75 62.5728 104.781C63.0886 104.956 63.6045 105.131 64.1306 105.276C64.6568 105.43 65.183 105.575 65.7091 105.699C66.225 105.833 66.7409 105.957 67.267 106.06C67.3083 106.07 67.3599 106.08 67.4012 106.08L67.5559 106.111C67.5559 106.111 67.6075 106.122 67.6384 106.132C68.0718 106.225 68.5154 106.307 68.959 106.369C69.5058 106.473 70.063 106.545 70.6201 106.607C71.1772 106.689 71.7447 106.741 72.3121 106.782C72.8692 106.834 73.4367 106.865 74.0144 106.885H74.0247C74.6025 106.916 75.1802 106.926 75.758 106.926C76.3358 106.926 76.9135 106.916 77.4913 106.885C78.069 106.865 78.6365 106.834 79.1936 106.782C79.761 106.741 80.3285 106.689 80.8856 106.607C81.4427 106.545 81.9999 106.473 82.5467 106.369C83.0935 106.287 83.6403 106.184 84.1768 106.07C84.5172 105.998 84.8577 105.926 85.1878 105.843C85.4664 105.792 85.7346 105.719 86.0029 105.647C86.3949 105.544 86.787 105.441 87.179 105.327C87.2409 105.317 87.3132 105.296 87.3751 105.276C87.633 105.193 87.8909 105.121 88.1488 105.028C88.4068 104.956 88.6647 104.863 88.9226 104.781C88.9845 104.76 89.0567 104.739 89.1186 104.708C89.1186 104.708 89.129 104.708 89.1393 104.698C89.5313 104.564 89.9234 104.419 90.3154 104.275C90.8622 104.058 91.3987 103.842 91.9249 103.604C92.4098 103.388 92.8947 103.161 93.3693 102.923C93.782 102.717 94.1947 102.511 94.6073 102.284C95.1851 101.974 95.7629 101.634 96.32 101.293C96.6914 101.066 97.0525 100.829 97.4136 100.592C97.4755 100.551 97.5374 100.509 97.589 100.468C97.9913 100.2 98.3937 99.9212 98.7858 99.6323C99.2088 99.3228 99.6215 99.0029 100.034 98.6728C100.973 97.9196 101.871 97.1149 102.727 96.2689C103.15 95.8459 103.552 95.4332 103.934 94.9999L103.955 94.9793H103.965C103.965 94.9793 103.986 94.9586 103.986 94.9483C104.326 94.5872 104.636 94.2261 104.945 93.8444C104.966 93.8238 104.986 93.7928 105.007 93.7722C105.038 93.7412 105.059 93.7206 105.079 93.6896C105.131 93.638 105.172 93.5761 105.224 93.5246C105.595 93.0706 105.946 92.6167 106.286 92.1421C106.647 91.6572 106.998 91.1516 107.339 90.6461C107.679 90.1302 108.009 89.6144 108.319 89.0779C108.339 89.0573 108.36 89.0263 108.37 88.9954C108.67 88.4898 108.958 87.9843 109.227 87.4581C109.237 87.4478 109.237 87.4375 109.237 87.4272C109.495 86.9526 109.732 86.4573 109.97 85.9621C109.97 85.9518 109.98 85.9415 109.98 85.9312C109.98 85.9209 109.98 85.9209 109.98 85.9105C110.021 85.8486 110.052 85.7764 110.073 85.7145L110.104 85.6526C110.341 85.1574 110.558 84.6415 110.764 84.1257C110.785 84.0947 110.795 84.0638 110.805 84.0225C110.96 83.6408 111.115 83.2487 111.259 82.8464C111.259 82.836 111.259 82.8257 111.259 82.8154C111.414 82.3821 111.569 81.9488 111.703 81.5155C111.734 81.4226 111.765 81.3194 111.796 81.2266C111.888 80.948 111.981 80.6591 112.054 80.3703C112.105 80.2155 112.146 80.0607 112.188 79.906C112.26 79.6377 112.332 79.3798 112.404 79.1013C112.456 78.8949 112.508 78.6783 112.559 78.4616C112.642 78.1521 112.714 77.8322 112.776 77.5124C112.776 77.4711 112.796 77.4196 112.807 77.3783C109.041 76.5529 106.028 80.7829 106.028 80.7829C105.533 75.0157 107.256 71.2603 111.961 68.9595C112.559 68.6707 113.147 68.4643 113.746 68.3302C114.034 68.2477 114.323 68.1961 114.612 68.1548H119.028C123.774 68.1548 127.715 71.0539 129.211 75.222H129.242Z" fill="#F6971B"/>
<path d="M114.643 68.1548C114.354 68.196 114.065 68.2476 113.776 68.3198V68.1548H114.643Z" fill="#F6971B"/>
<path d="M129.242 61.0772C127.746 65.2556 123.805 68.1547 119.059 68.1547H113.777C113.777 56.4964 109.577 46.8087 102.737 40.0303C101.881 39.1843 100.983 38.3796 100.044 37.6265C93.4931 32.3441 85.0434 29.3831 75.758 29.3831C71.6931 29.3831 67.7932 29.9505 64.1409 31.0235C63.6251 31.1783 63.0989 31.3433 62.5934 31.5187H62.5831C62.0053 31.7148 61.4276 31.9314 60.8601 32.1584C59.1475 32.8393 57.5071 33.6337 55.9492 34.5416C55.6912 34.6861 55.4333 34.8408 55.1754 35.0059C54.6595 35.3257 54.154 35.6456 53.6588 35.986H53.6485C53.1532 36.3368 52.6683 36.6876 52.1938 37.0487C52.1938 37.0487 52.1834 37.059 52.1731 37.059C51.7088 37.4201 51.2446 37.7915 50.7906 38.1733C50.7803 38.1836 50.77 38.1939 50.7597 38.1939C50.316 38.5859 49.8827 38.9677 49.4494 39.37C49.2327 39.5764 49.0161 39.7827 48.7994 39.9994C47.7264 41.0517 46.7257 42.1866 45.7868 43.3731C45.7043 43.4763 45.6321 43.5794 45.5392 43.6826C45.436 43.8374 45.3226 43.9921 45.2091 44.1365C42.4854 47.8094 40.4116 52.091 39.1426 56.8678C38.9879 57.4353 38.8537 58.013 38.7299 58.5908C38.4204 59.9733 38.1831 61.397 38.0181 62.8518C37.8942 63.8732 37.8117 64.9255 37.7704 65.9882C37.7395 66.6691 37.7189 67.35 37.7189 68.0413V68.1547H32.6222C32.3127 68.1547 32.0135 68.1444 31.7143 68.1135C31.5389 68.1032 31.3532 68.0825 31.1675 68.0516C31.1469 68.0516 31.1365 68.0516 31.1159 68.0413C30.9715 68.0309 30.8374 68 30.6929 67.9794C30.1667 67.8968 29.6509 67.7627 29.1557 67.5976C29.0112 67.546 28.8565 67.4945 28.712 67.4326C28.6192 67.4016 28.516 67.3707 28.4232 67.3191C28.32 67.2881 28.2271 67.2468 28.1343 67.1953C28.0208 67.154 27.9073 67.1024 27.8041 67.0405C27.4533 66.8754 27.1232 66.6897 26.8034 66.4834C26.5764 66.3389 26.3597 66.1945 26.1431 66.0294C25.9161 65.8644 25.6994 65.689 25.4931 65.5033C25.3074 65.3382 25.1217 65.1731 24.9566 64.9977C24.905 64.9565 24.8534 64.9049 24.8225 64.8533C24.678 64.7088 24.5439 64.5644 24.4201 64.4096C23.636 63.5121 23.017 62.4907 22.5837 61.3661C22.4805 61.1185 22.398 60.8606 22.3154 60.6026C25.8129 33.1282 48.3042 13.8559 75.758 13.8559C103.212 13.8559 125.94 33.3552 129.242 61.0772Z" fill="#F26923"/>
</svg>
