<svg width="543" height="369" viewBox="0 0 543 369" fill="none" xmlns="http://www.w3.org/2000/svg">
<path d="M201.483 145.37C161.678 110.651 112.051 93.6084 62.7319 93.7333C68.5057 141.888 91.6281 188.267 131.428 222.981L131.45 223.001L131.472 223.022L131.474 223.024C171.275 257.729 220.891 274.766 270.224 274.663C264.405 226.486 241.282 180.107 201.483 145.37Z" fill="#B8215A" stroke="black" stroke-width="2"/>
<path d="M218.595 137.806C218.595 190.128 238.552 237.925 271.372 274.172C304.192 237.925 324.149 190.128 324.149 137.806C324.149 85.4841 304.192 37.6874 271.372 1.48456C238.553 37.6874 218.595 85.4841 218.595 137.806Z" fill="#B8215A" stroke="black" stroke-width="2"/>
<path d="M411.83 223.022L411.852 223.001L411.874 222.981C451.674 188.267 474.796 141.888 480.57 93.7333C431.25 93.6084 381.624 110.651 341.819 145.37C302.02 180.107 278.897 226.486 273.078 274.663C322.411 274.766 372.027 257.729 411.828 223.024L411.83 223.022Z" fill="#B8215A" stroke="black" stroke-width="2"/>
<path d="M149.275 190.4C97.8093 177.059 45.7311 183.835 1.7637 205.791C28.9798 246.225 70.892 277.37 122.354 290.71L123.103 290.904V290.926C174.325 304.008 226.112 297.192 269.911 275.341C242.65 234.907 200.737 203.762 149.275 190.4Z" fill="#EE2D69" stroke="black" stroke-width="2"/>
<path d="M378.859 172.55C401.307 125.105 403.73 73.5208 389.499 27.0831C344.208 46.3071 305.626 81.3684 283.176 128.818C260.751 176.262 258.328 227.847 272.536 274.33C317.394 255.254 355.655 220.703 378.2 173.978H378.183L378.859 172.55Z" fill="#EE2D69" stroke="black" stroke-width="2"/>
<path d="M420.949 290.71C472.411 277.37 514.323 246.225 541.539 205.791C497.572 183.835 445.493 177.059 394.028 190.4C342.566 203.762 300.653 234.907 273.392 275.341C317.191 297.192 368.978 304.008 420.2 290.926V290.904L420.949 290.71Z" fill="#EE2D69" stroke="black" stroke-width="2"/>
<path d="M122.051 260.514C70.5892 273.854 28.677 304.999 1.46097 345.433C45.4284 367.39 97.5066 374.166 148.972 360.825C200.434 347.462 242.347 316.317 269.609 275.883C225.809 254.033 174.022 247.217 122.8 260.299V260.32L122.051 260.514Z" fill="#D6DF28" stroke="black" stroke-width="2"/>
<path d="M393.749 360.825C445.214 374.166 497.293 367.39 541.26 345.433C514.044 304.999 472.132 273.854 420.67 260.514L419.92 260.32V260.299C368.699 247.217 316.912 254.033 273.112 275.883C300.374 316.317 342.287 347.462 393.749 360.825Z" fill="#D6DF28" stroke="black" stroke-width="2"/>
<path d="M165.119 173.978H165.102C187.647 220.703 225.908 255.254 270.766 274.33C284.975 227.847 282.551 176.262 260.127 128.818C237.676 81.3684 199.094 46.3071 153.803 27.0831C139.572 73.5208 141.996 125.105 164.443 172.55L165.119 173.978Z" fill="#EE2D69" stroke="black" stroke-width="2"/>
</svg>
