<svg width="319" height="414" viewBox="0 0 319 414" fill="none" xmlns="http://www.w3.org/2000/svg">
<path d="M106.048 60.4955L106.072 60.4805C115.44 54.4807 129.631 42.3273 141.358 31.0948C147.254 25.4474 152.647 19.9182 156.6 15.3787C158.567 13.12 160.257 11.0154 161.484 9.20914C161.734 8.84253 161.975 8.47156 162.203 8.09946C163.833 10.1046 165.939 12.9771 168.557 16.8625L168.561 16.8698L168.566 16.877C174.154 25.1086 182.747 34.6099 191.498 42.8599C200.188 51.0538 209.456 58.4142 216.502 62.0928C218.69 63.2517 220.876 64.6036 222.612 65.8337C223.482 66.4505 224.189 67.0019 224.705 67.4513C224.849 67.5765 224.964 67.6815 225.053 67.7664C225.133 68.1333 225.226 68.6509 225.326 69.3348C225.564 70.9614 225.798 73.2242 226.003 75.9932C226.412 81.5141 226.688 88.7959 226.688 96.5146V124.742V129.167L231.081 129.705L244.779 131.382L244.792 131.383L244.805 131.385C269.502 134.274 294.814 151.479 305.487 172.247C307.495 176.416 309.847 186.11 311.593 197.107C313.321 207.99 314.301 219.151 313.918 225.877C313.57 230.84 310.499 238.807 305.496 247.44C300.578 255.927 294.231 264.307 288.105 270.043C273.782 283.299 258.508 290.42 239.056 293.352C239.054 293.352 239.052 293.352 239.05 293.352L223.967 295.586L219.7 296.219V300.533V326.803C219.7 334.044 219.63 341.126 219.492 346.697C219.422 349.485 219.336 351.865 219.236 353.684C219.185 354.595 219.132 355.335 219.079 355.899C219.061 356.096 219.044 356.254 219.029 356.378C218.987 356.426 218.938 356.48 218.882 356.54C218.369 357.087 217.515 357.839 216.309 358.732C213.917 360.502 210.58 362.5 206.94 364.19L206.903 364.206L206.868 364.224C197.423 368.793 184.639 379.061 172.999 391.265L172.988 391.276L172.978 391.287L158.717 406.422L153.659 400.224M153.659 400.224C153.657 400.222 153.656 400.22 153.654 400.219L153.659 400.224Z" fill="#F6971B" stroke="#FFC809" stroke-width="10"/>
</svg>
