<svg width="319" height="414" viewBox="0 0 319 414" fill="none" xmlns="http://www.w3.org/2000/svg">
<path d="M106.072 60.4805L106.048 60.4955L106.025 60.5103L90.648 70.1182L92.1498 95.896L92.1528 95.9443L94.1067 124.682L94.4271 129.397L89.7382 129.983L76.3614 131.654C66.1799 133.096 55.0326 137.117 45.0945 142.604C35.1116 148.115 26.756 154.877 21.871 161.507C13.6017 172.93 8.13907 187.376 6.00585 201.739C3.86521 216.151 5.14364 229.999 9.80772 240.338C24.4122 272.455 51.0537 291.257 87.9454 294.999L87.9552 295L96.0622 295.839L100.634 296.311L100.547 300.906L99.9878 330.531L99.4827 357.293L114.358 366.408C123.896 372.158 130.343 376.385 136.125 381.351C141.923 386.33 146.901 391.919 153.659 400.224L158.717 406.422L172.978 391.287L172.988 391.276L172.999 391.265C184.639 379.061 197.423 368.793 206.868 364.224L206.904 364.206L206.94 364.19C210.58 362.5 213.917 360.502 216.309 358.732C217.515 357.839 218.369 357.087 218.882 356.54C218.938 356.48 218.987 356.426 219.029 356.378C219.044 356.254 219.061 356.096 219.079 355.899C219.132 355.335 219.185 354.595 219.236 353.684C219.336 351.865 219.422 349.485 219.492 346.697C219.63 341.126 219.7 334.044 219.7 326.803V300.533V296.219L223.967 295.586L239.05 293.352C239.052 293.352 239.054 293.352 239.056 293.352C258.508 290.42 273.782 283.299 288.105 270.043C294.231 264.307 300.578 255.927 305.496 247.44C310.499 238.807 313.57 230.84 313.918 225.877C314.301 219.151 313.321 207.99 311.593 197.107C309.848 186.111 307.496 176.418 305.487 172.248C294.815 151.48 269.502 134.274 244.805 131.385L244.792 131.383L244.779 131.382L231.081 129.705L226.688 129.167V124.742V96.5146C226.688 88.7959 226.412 81.5141 226.003 75.9932C225.798 73.2243 225.564 70.9614 225.326 69.3348C225.226 68.6509 225.133 68.1333 225.053 67.7664C224.964 67.6815 224.849 67.5765 224.705 67.4513C224.189 67.0019 223.482 66.4505 222.612 65.8337C220.876 64.6036 218.69 63.2517 216.502 62.0927C209.456 58.4141 200.188 51.0538 191.498 42.8599C182.747 34.6099 174.154 25.1086 168.566 16.877L168.561 16.8698L168.557 16.8625C165.939 12.9771 163.833 10.1046 162.203 8.09946C161.975 8.47156 161.734 8.84253 161.484 9.20914C160.257 11.0154 158.567 13.12 156.6 15.3787C152.647 19.9182 147.254 25.4474 141.358 31.0948C129.631 42.3273 115.44 54.4807 106.072 60.4805ZM224.927 67.276C224.927 67.2759 224.932 67.2948 224.945 67.3293C224.934 67.2929 224.928 67.276 224.927 67.276Z" fill="#F6971B" stroke="#C0C0C0" stroke-width="10"/>
</svg>
