<svg width="1512" height="222" viewBox="0 0 1512 222" fill="none" xmlns="http://www.w3.org/2000/svg">
<path d="M0.5 2H1512.9C1513.06 2.30777 1513.24 2.70095 1513.39 3.16852C1513.81 4.44969 1514.07 6.30065 1513.32 8.5583C1511.81 13.1163 1505.93 20.0462 1486.7 26.994C1448.33 40.8549 1359.05 54.0005 1155.53 50.5003C951.818 46.9966 662.395 89.2817 424.019 132.407C304.806 153.974 198.316 175.76 121.629 192.154C83.2849 200.351 52.391 207.2 31.082 212C20.4274 214.4 12.169 216.288 6.57357 217.576C3.95814 218.178 1.92454 218.649 0.5 218.98V2Z" fill="#505B5B" stroke="black" stroke-width="4"/>
</svg>
