<?xml version="1.0" standalone="no"?>
<!DOCTYPE svg PUBLIC "-//W3C//DTD SVG 20010904//EN"
 "http://www.w3.org/TR/2001/REC-SVG-20010904/DTD/svg10.dtd">
<svg version="1.0" xmlns="http://www.w3.org/2000/svg"
 width="892.000000pt" height="892.000000pt" viewBox="0 0 892.000000 892.000000"
 preserveAspectRatio="xMidYMid meet">
<metadata>
Created by potrace 1.14, written by Peter Selinger 2001-2017
</metadata>
<g transform="translate(0.000000,892.000000) scale(0.100000,-0.100000)"
fill="#000000" stroke="none">
<path d="M4828 8864 c-1 -27 -3 -43 -8 -54 -4 -11 -18 -87 -26 -139 -33 -231
-125 -485 -228 -631 -51 -73 -74 -89 -138 -94 -29 -2 -53 -5 -53 -6 0 -1 -18
-4 -40 -6 -194 -22 -521 -108 -755 -197 -63 -23 -86 -33 -215 -93 -33 -15 -62
-28 -65 -29 -3 0 -21 -9 -40 -19 -113 -60 -167 -91 -182 -104 -10 -8 -18 -12
-18 -9 0 6 -153 -91 -177 -112 -7 -6 -17 -11 -23 -11 -5 0 -10 -4 -10 -8 0 -5
-10 -14 -22 -20 -13 -5 -34 -19 -48 -30 -14 -11 -74 -60 -135 -108 -97 -77
-425 -392 -425 -408 0 -3 -8 -14 -17 -24 -10 -10 -34 -38 -53 -61 -103 -127
-86 -104 -204 -281 -96 -146 -158 -250 -148 -250 4 0 2 -4 -5 -8 -15 -10 -120
-228 -172 -359 -33 -84 -95 -265 -106 -313 -2 -8 -17 -67 -34 -131 -16 -65
-32 -134 -35 -155 -3 -22 -7 -48 -10 -59 -2 -11 -7 -40 -10 -65 -3 -25 -10
-67 -14 -95 -4 -27 -8 -70 -8 -95 l1 -46 -40 6 c-22 3 -65 0 -95 -6 -30 -7
-56 -13 -58 -13 -20 -1 -103 -55 -137 -88 -93 -92 -133 -212 -114 -340 3 -19
8 -16 44 21 35 38 84 65 133 77 26 6 31 4 22 -6 -23 -27 -46 -122 -45 -185 1
-92 9 -100 53 -52 45 48 88 71 152 81 58 9 74 2 76 -36 3 -50 14 -165 19 -192
22 -133 28 -169 31 -191 1 -14 3 -25 4 -25 1 0 4 -11 6 -25 17 -94 101 -390
131 -460 3 -8 7 -17 7 -20 12 -48 168 -398 184 -410 4 -3 8 -10 9 -15 1 -6 20
-42 43 -80 59 -101 59 -101 127 -203 35 -52 63 -96 63 -98 0 -2 9 -14 19 -26
10 -13 50 -62 88 -110 83 -104 194 -228 281 -311 34 -33 62 -66 62 -74 0 -7 7
-13 15 -13 8 0 15 -4 15 -10 0 -5 7 -10 15 -10 8 0 15 -5 15 -11 0 -5 -5 -7
-12 -3 -7 4 -8 3 -4 -4 4 -6 13 -9 22 -5 9 3 14 0 12 -8 -2 -8 3 -13 10 -11 8
1 11 -2 8 -7 -4 -5 0 -15 9 -23 35 -32 46 -39 53 -34 4 2 14 0 22 -6 12 -8 12
-9 -2 -4 -25 8 -23 3 22 -42 22 -22 40 -37 40 -34 0 3 8 -3 19 -14 21 -22 37
-35 138 -116 40 -32 75 -58 78 -58 6 0 23 -13 56 -43 10 -9 19 -14 19 -10 0 5
4 3 8 -2 15 -21 219 -147 317 -195 39 -19 72 -37 75 -40 10 -11 227 -108 310
-139 47 -18 93 -37 102 -42 10 -5 25 -9 33 -9 8 0 23 -4 33 -9 9 -5 51 -19 92
-31 41 -11 91 -25 110 -31 19 -6 44 -12 55 -14 11 -2 20 -4 20 -5 0 -2 12 -4
95 -20 177 -34 213 -39 221 -34 4 2 10 0 14 -6 3 -5 19 -8 36 -6 16 2 32 0 34
-4 3 -5 13 -7 23 -5 12 2 26 -16 51 -69 33 -71 95 -239 105 -286 3 -14 11 -47
17 -75 6 -27 13 -63 15 -80 3 -16 9 -50 14 -75 8 -40 16 -82 25 -145 2 -11 4
-31 5 -45 2 -24 8 4 24 105 9 63 19 115 32 168 1 4 2 19 4 35 3 38 62 -227 63
-285 1 -13 4 -23 7 -23 3 0 7 -11 8 -25 1 -14 3 -36 4 -50 1 -14 5 -25 9 -25
4 0 5 -19 3 -43 -3 -34 -1 -44 11 -44 11 0 15 14 17 56 1 53 4 80 8 91 4 10
11 46 15 70 10 69 17 106 22 120 3 8 7 26 9 40 4 28 12 65 14 65 2 0 10 36 12
58 1 9 6 17 10 17 4 0 7 3 7 8 -1 4 0 9 1 12 1 3 3 14 5 25 2 10 8 28 14 40 5
11 26 59 47 108 20 48 40 87 44 87 4 0 10 10 14 23 3 12 15 32 26 45 11 12 17
22 13 22 -12 0 67 70 80 71 7 0 21 2 32 5 11 2 36 6 55 8 144 20 148 20 156
29 4 3 15 2 25 -4 13 -7 19 -6 19 1 0 6 6 10 13 9 6 -1 20 1 30 6 10 4 21 5
24 2 3 -4 13 -2 23 3 9 5 32 12 51 16 46 8 64 12 64 14 0 2 43 10 68 12 9 1
17 6 17 11 0 4 6 7 13 6 6 -1 25 3 40 9 16 7 36 12 46 12 9 0 22 5 29 12 7 7
12 9 12 5 0 -6 54 11 105 34 11 5 41 15 66 24 25 8 68 25 95 37 27 12 51 23
54 23 13 4 131 59 180 85 30 16 83 44 118 61 34 18 62 36 62 41 0 4 6 8 14 8
7 0 25 9 40 21 14 11 26 17 26 12 0 -4 4 -3 8 2 8 11 100 75 108 75 3 0 12 6
19 12 35 31 45 38 45 31 0 -4 4 -3 8 3 4 7 43 39 88 71 44 33 92 72 107 87 15
15 27 25 27 22 0 -8 68 55 193 180 107 106 142 144 226 239 9 11 33 40 52 65
18 25 41 52 49 60 8 8 21 27 29 43 8 15 18 27 23 27 4 0 8 6 8 14 0 8 4 16 9
18 14 5 170 255 164 262 -4 3 -1 6 6 6 7 0 9 5 6 10 -3 6 -2 10 3 10 6 0 29
39 52 88 24 48 46 89 49 92 3 3 8 14 9 25 2 11 7 22 12 25 7 5 74 158 75 170
0 3 7 24 17 45 16 40 25 64 27 78 0 4 7 20 15 35 7 15 17 43 21 62 4 19 12 46
18 60 5 14 12 34 14 45 2 11 6 27 10 35 3 8 7 17 8 20 2 10 19 85 21 95 1 6 3
12 4 15 1 3 3 12 5 20 9 41 16 77 20 95 2 11 6 31 9 45 15 76 37 258 41 335 1
28 3 50 5 50 1 0 3 19 4 42 3 51 15 66 75 97 107 53 212 36 298 -51 24 -25 47
-43 50 -39 3 3 7 36 8 73 4 133 -47 238 -158 330 -11 9 -17 9 -26 0 -9 -9 -11
-7 -5 8 4 11 4 17 -1 13 -4 -4 -21 12 -37 35 -53 74 -131 131 -220 161 -12 4
-18 17 -19 41 -1 19 -2 38 -4 43 -5 20 -16 80 -20 107 -2 17 -5 30 -6 30 -1 0
-3 9 -5 20 -5 37 -15 79 -36 160 -11 44 -21 86 -21 93 0 6 -4 12 -8 12 -5 0
-6 6 -3 14 3 8 1 17 -5 21 -6 3 -11 16 -11 29 0 12 -3 26 -7 30 -4 3 -8 13
-10 21 -5 25 -9 39 -21 68 -7 16 -12 33 -12 38 0 5 -5 9 -11 9 -5 0 -8 4 -5 9
3 5 -2 26 -11 47 -9 22 -17 41 -18 44 -1 3 -8 19 -15 35 -7 17 -14 32 -15 35
-1 3 -10 23 -20 45 -10 22 -23 51 -29 65 -6 14 -22 45 -36 70 -13 25 -25 51
-26 57 -1 7 -9 19 -17 28 -9 8 -19 25 -23 38 -4 12 -20 41 -35 64 -16 23 -29
46 -29 52 0 6 -4 11 -10 11 -5 0 -10 5 -10 11 0 23 -258 378 -282 387 -4 2 -8
8 -8 13 0 7 -20 31 -92 106 -11 12 -28 19 -37 16 -11 -3 -12 -2 -4 4 8 6 9 13
2 23 -8 13 -10 13 -19 0 -9 -12 -10 -12 -8 5 2 11 -2 20 -9 20 -6 0 -15 4 -20
9 -5 5 -3 6 5 2 6 -4 12 -2 12 3 0 6 -4 11 -10 11 -5 0 -65 55 -132 123 -114
113 -218 211 -264 247 -161 129 -279 216 -324 240 -14 7 -27 16 -30 20 -3 4
-21 17 -41 28 -76 42 -84 47 -89 52 -14 14 -245 131 -360 183 -135 60 -403
151 -535 182 -16 4 -39 9 -50 12 -11 2 -49 11 -85 18 -36 8 -74 16 -85 18 -18
4 -91 15 -150 23 -11 1 -20 3 -20 4 0 1 -17 3 -38 4 -29 1 -41 7 -52 26 -17
30 -35 71 -36 85 -1 6 -10 22 -21 38 -11 15 -17 27 -14 27 3 0 -2 17 -11 37
-8 21 -17 49 -20 62 -2 14 -7 29 -11 35 -3 6 -7 17 -8 26 -1 8 -5 29 -8 45
-24 116 -27 136 -21 145 3 5 2 10 -2 10 -5 0 -9 10 -10 23 -1 12 -4 34 -7 49
-8 36 -15 80 -22 143 -6 51 -23 86 -25 50 0 -11 -2 -27 -4 -35 -6 -32 -18 -96
-21 -120 -4 -28 -12 -65 -14 -65 -1 0 -9 -52 -12 -82 -1 -10 -18 -20 -18 -10
0 1 -6 36 -14 77 -8 41 -17 95 -21 120 -4 25 -11 68 -16 95 -6 28 -12 66 -15
85 -8 61 -10 69 -17 76 -4 4 -8 -6 -9 -22z m17 -719 c-1 -14 2 -28 6 -31 5 -3
9 -11 9 -17 0 -7 -4 -6 -10 3 -7 12 -11 10 -20 -10 -8 -20 -9 -17 -4 20 4 25
7 50 7 57 0 7 4 10 8 8 4 -3 6 -16 4 -30z m310 -155 c10 -11 14 -20 9 -20 -5
0 -15 9 -22 20 -7 11 -11 20 -9 20 2 0 12 -9 22 -20z m-186 -265 c17 -30 42
-62 56 -71 23 -15 35 -36 18 -32 -36 9 -153 -89 -178 -148 -10 -25 -18 -31
-34 -27 -11 3 -27 15 -35 28 -13 20 -13 22 1 21 15 -1 104 117 101 133 -1 3 6
24 16 46 10 22 19 55 20 72 0 18 2 33 3 33 0 0 15 -25 32 -55z m-479 -94 c0
-14 -29 -21 -36 -9 -4 6 -3 8 4 4 6 -3 13 -2 17 4 8 12 15 13 15 1z m137 -7
c-3 -3 -12 -4 -19 -1 -8 3 -5 6 6 6 11 1 17 -2 13 -5z m44 -21 c13 -16 12 -17
-3 -4 -10 7 -18 15 -18 17 0 8 8 3 21 -13z m94 -73 c10 -11 16 -20 13 -20 -3
0 -13 9 -23 20 -10 11 -16 20 -13 20 3 0 13 -9 23 -20z m72 -140 c-1 -21 -10
-18 -13 5 -1 8 2 15 6 15 5 0 8 -9 7 -20z m-172 -100 c3 -6 -1 -7 -9 -4 -18 7
-21 14 -7 14 6 0 13 -4 16 -10z m348 -7 c-7 -3 -13 -11 -13 -19 0 -19 -16 -18
-24 1 -4 10 2 19 17 24 12 5 24 6 27 3 3 -2 -1 -7 -7 -9z m-456 1 c-3 -3 -12
-4 -19 -1 -8 3 -5 6 6 6 11 1 17 -2 13 -5z m-74 -11 c-7 -2 -19 -2 -25 0 -7 3
-2 5 12 5 14 0 19 -2 13 -5z m433 -71 c-17 -16 -18 -16 -5 5 7 12 15 20 18 17
3 -2 -3 -12 -13 -22z m-110 -92 c1 -8 5 -34 8 -57 l7 -43 -98 -1 c-130 -2
-245 -10 -313 -24 -13 -2 -42 -7 -65 -11 -120 -17 -379 -93 -495 -146 -36 -16
-66 -29 -67 -29 -5 1 -170 -81 -213 -106 -128 -73 -269 -175 -398 -288 -84
-72 -219 -215 -308 -324 -51 -64 -175 -254 -215 -331 -19 -36 -38 -68 -44 -72
-5 -4 -6 -8 -1 -8 5 0 4 -6 -2 -12 -16 -21 -98 -217 -122 -293 -12 -38 -25
-77 -28 -85 -3 -8 -7 -24 -9 -35 -2 -11 -8 -31 -13 -45 -14 -37 -60 -296 -64
-363 -2 -32 -6 -60 -9 -63 -3 -3 -23 6 -44 20 -20 14 -44 26 -51 26 -8 0 -10
5 -6 12 5 7 9 22 11 33 5 37 10 60 13 60 1 0 3 16 4 35 1 20 5 40 8 45 3 6 13
42 22 80 23 94 78 259 88 263 5 2 6 8 3 12 -3 5 -1 17 4 27 9 16 41 89 46 103
1 3 10 23 20 45 10 22 19 44 19 48 1 4 6 11 11 15 6 4 12 16 13 27 2 11 8 22
13 23 5 2 9 8 9 13 0 5 11 27 24 48 14 21 22 42 19 45 -4 3 -2 6 4 6 6 0 16
14 23 30 7 17 17 30 22 30 5 0 7 4 4 8 -3 5 3 18 12 28 10 10 31 40 47 66 17
27 33 48 38 48 4 0 7 5 7 11 0 6 10 23 23 38 12 16 34 43 49 62 72 93 135 162
227 252 143 139 151 147 151 139 0 -4 8 2 18 14 9 11 35 34 57 50 22 16 45 36
52 44 7 8 13 11 13 7 0 -4 12 4 28 18 15 14 35 28 45 31 9 3 17 10 17 15 0 5
7 9 15 9 8 0 15 5 15 10 0 6 6 10 14 10 8 0 16 3 18 8 4 10 124 82 137 82 6 0
11 3 11 8 0 4 20 16 45 27 25 11 45 24 45 29 0 5 3 7 6 4 3 -4 34 9 70 28 35
19 64 31 64 28 0 -4 6 -2 13 4 6 6 44 23 82 38 39 15 75 30 80 34 6 4 18 6 28
5 9 -2 17 0 17 4 0 5 67 29 103 37 4 1 9 3 12 4 3 1 8 3 13 4 4 2 27 8 51 15
23 7 46 10 49 7 3 -3 11 -1 18 4 6 6 23 13 35 15 13 3 35 8 49 11 14 2 36 7
50 9 14 2 34 6 45 8 39 9 101 17 160 23 32 2 61 7 64 10 11 11 74 -2 77 -16z
m534 4 c58 -8 121 -17 140 -20 41 -5 75 -12 75 -14 0 -2 12 -4 55 -13 21 -5
73 -17 130 -31 8 -2 60 -19 115 -37 55 -18 102 -33 105 -34 3 -1 18 -7 35 -14
63 -26 101 -43 140 -62 22 -10 48 -19 57 -19 9 0 18 -5 20 -11 2 -5 11 -11 20
-13 10 -1 20 -5 24 -8 3 -4 -9 -4 -28 0 -60 11 -242 4 -313 -12 -38 -9 -81
-18 -95 -22 -13 -3 -26 -7 -28 -9 -2 -2 -36 10 -75 27 -190 79 -406 139 -587
164 -25 4 -53 6 -62 6 -30 -1 -21 17 50 99 39 44 55 46 222 23z m-430 -39 c0
-7 6 -18 14 -24 8 -6 16 -20 18 -29 4 -15 -1 -17 -41 -12 -46 5 -46 5 -43 40
2 19 6 38 8 42 7 11 44 -3 44 -17z m-1260 -39 c0 -2 -7 -7 -16 -10 -8 -3 -12
-2 -9 4 6 10 25 14 25 6z m2741 -229 c-10 -9 -11 -8 -5 6 3 10 9 15 12 12 3
-3 0 -11 -7 -18z m44 -7 c3 -5 2 -10 -4 -10 -5 0 -13 5 -16 10 -3 6 -2 10 4
10 5 0 13 -4 16 -10z m-1548 -106 c-3 -3 -12 -4 -19 -1 -8 3 -5 6 6 6 11 1 17
-2 13 -5z m2658 -14 c3 -5 1 -10 -4 -10 -6 0 -11 5 -11 10 0 6 2 10 4 10 3 0
8 -4 11 -10z m-4495 -24 c0 -2 -8 -10 -17 -17 -16 -13 -17 -12 -4 4 13 16 21
21 21 13z m4528 -31 c-3 -3 -9 2 -12 12 -6 14 -5 15 5 6 7 -7 10 -15 7 -18z
m30 -40 c-3 -3 -9 2 -12 12 -6 14 -5 15 5 6 7 -7 10 -15 7 -18z m-4634 0 c-4
-8 -11 -15 -16 -15 -6 0 -5 6 2 15 7 8 14 15 16 15 2 0 1 -7 -2 -15z m1541 -5
c-3 -5 -12 -10 -18 -10 -7 0 -6 4 3 10 19 12 23 12 15 0z m3120 -20 c3 -5 1
-10 -4 -10 -6 0 -11 5 -11 10 0 6 2 10 4 10 3 0 8 -4 11 -10z m-3291 -52 c-3
-4 -9 -8 -15 -8 -5 0 -9 4 -9 8 0 5 7 9 15 9 8 0 12 -4 9 -9z m2076 -14 c0 -2
-9 0 -20 6 -11 6 -20 13 -20 16 0 2 9 0 20 -6 11 -6 20 -13 20 -16z m-2744 7
c-3 -4 -20 -14 -38 -22 -18 -7 -43 -23 -56 -34 -13 -11 -27 -20 -30 -20 -7 0
-39 -26 -67 -52 -8 -7 -16 -13 -20 -13 -4 0 -12 -6 -19 -12 -7 -7 -32 -29 -56
-48 -123 -99 -244 -221 -330 -331 -8 -11 -28 -34 -43 -52 -46 -53 -153 -215
-181 -274 -8 -18 -20 -33 -26 -33 -6 0 -8 -4 -5 -10 3 -5 1 -10 -4 -10 -6 0
-10 -3 -9 -7 1 -5 -6 -23 -15 -40 -10 -18 -14 -33 -10 -33 5 0 3 -4 -2 -8 -6
-4 -19 -25 -29 -47 -10 -22 -23 -48 -27 -57 -5 -10 -9 -25 -9 -33 0 -8 -3 -15
-8 -15 -4 0 -16 -28 -26 -62 -11 -35 -23 -67 -26 -73 -6 -10 -28 -79 -31 -100
-1 -5 -5 -20 -10 -33 -12 -30 -21 -73 -21 -94 1 -10 -3 -18 -7 -18 -4 0 -8
-10 -8 -22 -2 -31 -8 -56 -15 -64 -4 -3 -4 -12 -1 -20 3 -8 2 -22 -2 -31 -8
-20 -12 -46 -20 -142 -3 -36 -7 -67 -10 -69 -2 -3 -16 3 -30 12 -14 9 -25 13
-25 9 0 -3 -16 15 -34 42 -19 27 -33 52 -30 57 3 5 7 23 9 41 17 134 76 369
120 472 7 17 25 62 41 100 48 119 197 384 249 441 25 28 45 55 45 59 0 6 27
37 110 129 121 133 362 338 458 387 15 8 29 17 32 20 10 11 203 116 218 118 2
1 1 -3 -2 -8z m634 0 c0 -5 -15 -14 -32 -22 -18 -7 -90 -40 -160 -74 l-127
-62 60 -74 c113 -139 215 -253 337 -376 34 -35 62 -66 62 -68 0 -3 -19 -25
-42 -49 -24 -24 -44 -49 -46 -56 -2 -8 -9 -18 -16 -24 -21 -17 -164 -201 -231
-296 -32 -47 -62 -87 -65 -90 -4 -3 -9 -12 -13 -21 -4 -14 14 -25 94 -58 55
-23 105 -41 112 -41 6 0 1 -6 -12 -13 -13 -6 -23 -16 -22 -21 2 -5 -2 -12 -7
-15 -6 -3 -12 -12 -14 -19 -3 -12 35 -30 182 -88 36 -14 78 -32 95 -39 16 -8
33 -11 37 -9 4 3 8 1 8 -4 0 -5 7 -9 15 -10 8 -1 22 -3 30 -4 8 -1 12 -5 9
-10 -3 -4 -7 -16 -9 -25 -25 -116 -46 -219 -50 -241 -2 -15 -6 -40 -10 -55 -3
-15 -7 -45 -8 -67 -1 -22 -4 -40 -7 -40 -3 0 -5 -10 -6 -22 0 -13 -4 -51 -8
-86 l-8 -63 74 6 c40 3 87 8 103 11 26 5 28 4 13 -8 -11 -8 -20 -40 -26 -93
-6 -44 -9 -81 -7 -83 2 -2 19 1 39 6 22 7 38 7 42 1 3 -5 10 -6 17 -2 6 4 23
8 37 9 14 2 52 5 85 8 33 3 74 8 90 11 17 3 48 7 70 10 103 12 131 17 145 22
8 3 29 7 47 9 18 1 41 8 52 13 17 10 21 3 46 -77 15 -48 30 -94 33 -102 3 -8
6 -19 8 -25 9 -34 86 -241 92 -247 4 -4 26 7 50 23 24 16 41 25 37 20 -3 -6 3
-35 14 -65 10 -30 16 -57 13 -60 -3 -3 0 -6 6 -6 6 0 14 -15 17 -32 12 -54 22
-60 58 -35 18 12 34 25 35 30 2 4 8 7 13 7 10 0 146 87 167 108 7 6 17 12 21
12 4 0 16 8 27 18 11 10 33 27 49 38 36 23 50 34 76 57 10 9 23 17 29 17 5 0
15 9 22 20 7 11 17 20 23 20 6 0 22 13 37 30 l26 29 66 -65 c36 -35 66 -69 66
-74 0 -6 7 -10 14 -10 8 0 21 -12 28 -27 8 -17 23 -29 37 -31 19 -3 21 -6 10
-13 -11 -7 -9 -9 7 -9 12 0 25 -7 28 -16 6 -15 4 -15 -11 -3 -10 7 -7 1 7 -14
13 -15 30 -25 37 -23 7 3 15 0 19 -6 4 -7 3 -8 -4 -4 -21 13 -13 -6 11 -26 12
-11 57 -52 101 -91 43 -40 82 -73 86 -75 5 -2 16 13 25 32 10 20 22 36 27 36
5 0 7 4 4 8 -3 5 5 24 17 43 12 19 47 86 79 149 32 63 56 104 54 90 -3 -14 -5
-27 -6 -30 -1 -3 -3 -9 -4 -15 -2 -15 -35 -121 -61 -195 -35 -97 -78 -196
-125 -280 -23 -41 -44 -83 -47 -92 -3 -10 -9 -18 -14 -18 -5 0 -9 -7 -9 -15 0
-8 -4 -15 -10 -15 -5 0 -10 -5 -10 -11 0 -8 -39 -71 -72 -114 -70 -93 -156
-196 -217 -258 -82 -85 -282 -257 -299 -257 -6 0 -12 -4 -14 -8 -3 -9 -121
-88 -183 -123 -107 -60 -332 -164 -378 -173 -7 -2 -20 -6 -29 -10 -9 -4 -22
-9 -30 -10 -7 -2 -20 -6 -28 -9 -34 -14 -201 -54 -257 -62 -34 -4 -75 -11
-128 -20 -16 -3 -83 -8 -148 -10 -65 -2 -121 -6 -125 -8 -4 -2 -18 -2 -32 0
-14 1 -55 4 -92 6 -84 3 -93 -16 -10 -22 97 -6 474 -5 522 2 25 3 65 9 90 12
36 5 203 38 245 49 266 69 523 186 769 349 10 6 35 24 55 39 20 15 41 31 46
35 87 64 224 190 320 294 81 87 255 317 255 335 0 3 9 17 20 31 11 14 20 21
20 15 0 -6 -5 -14 -10 -17 -6 -3 -19 -25 -30 -48 -23 -48 -54 -104 -90 -162
-25 -41 -35 -54 -58 -80 -7 -8 -10 -15 -7 -15 6 0 -8 -19 -55 -77 -6 -7 -10
-15 -10 -18 0 -3 -8 -13 -17 -23 -10 -10 -30 -33 -45 -51 -71 -88 -255 -265
-343 -330 -33 -25 -61 -48 -63 -53 -2 -4 -10 -8 -18 -8 -8 0 -14 -4 -14 -10 0
-5 -7 -10 -16 -10 -8 0 -12 -4 -9 -10 3 -6 -3 -10 -14 -10 -12 0 -21 -4 -21
-9 0 -5 -13 -14 -30 -21 -16 -7 -30 -17 -30 -23 0 -6 -3 -7 -7 -4 -3 4 -13 1
-22 -7 -19 -16 -229 -123 -251 -128 -8 -2 -17 -6 -20 -9 -5 -6 -112 -47 -140
-54 -8 -2 -17 -4 -20 -5 -3 -1 -8 -2 -12 -1 -5 0 -8 -4 -8 -11 0 -6 -3 -9 -6
-5 -3 3 -23 -1 -44 -8 -21 -7 -51 -16 -67 -19 -15 -3 -54 -11 -85 -19 -32 -8
-58 -12 -58 -10 0 2 -6 1 -12 -3 -7 -5 -19 -9 -28 -10 -8 -1 -40 -5 -70 -8
-30 -4 -84 -11 -120 -15 -36 -5 -85 -8 -108 -7 -23 1 -42 -2 -42 -6 0 -4 -4
-8 -10 -8 -5 0 -7 6 -4 14 3 8 0 17 -5 21 -6 3 -9 11 -6 16 4 5 1 9 -6 9 -6 0
-9 -8 -6 -20 3 -11 1 -20 -5 -20 -5 0 -7 -4 -3 -9 3 -5 0 -13 -6 -17 -8 -4 -9
-3 -5 4 4 7 1 12 -6 13 -7 0 -23 2 -35 3 -13 2 -23 -1 -23 -6 0 -5 -5 -6 -12
-2 -6 4 -34 8 -62 10 -79 5 -169 14 -177 20 -4 2 -10 0 -14 -6 -3 -5 2 -10 13
-10 10 0 22 -3 25 -7 4 -3 26 -8 50 -10 23 -2 60 -6 82 -8 22 -3 65 -7 95 -9
30 -2 58 -4 61 -5 10 -2 5 -61 -5 -61 -5 0 -7 -3 -3 -6 9 -9 -20 -75 -44 -101
-12 -12 -30 -20 -42 -18 -12 2 -60 6 -107 10 -99 7 -142 13 -295 39 -124 22
-416 106 -442 128 -7 6 -13 8 -13 5 0 -14 -371 158 -378 175 -2 5 -8 8 -13 8
-12 0 -113 62 -117 72 -2 4 -8 8 -13 8 -9 0 -123 77 -184 125 -142 112 -233
195 -250 229 -7 13 -19 20 -31 18 -14 -2 -16 -1 -5 7 11 7 9 14 -13 37 -14 16
-29 37 -32 47 -3 9 -10 15 -15 12 -5 -4 -9 1 -9 10 0 8 -7 18 -15 21 -8 4 -12
10 -9 15 3 5 -2 12 -10 15 -8 3 -18 14 -21 25 -4 10 -12 25 -18 31 -28 30
-117 173 -148 241 -13 26 -26 47 -31 47 -4 0 -8 9 -8 20 0 11 -4 20 -9 20 -5
0 -15 17 -22 38 -6 20 -15 42 -19 47 -8 10 -91 212 -95 230 -1 5 -4 17 -7 25
-21 56 -57 185 -65 225 -2 11 -6 27 -9 35 -4 8 -8 24 -10 35 -1 11 -5 34 -9
50 -11 52 -24 131 -31 190 -22 196 -22 203 12 231 16 13 40 27 54 30 14 4 31
12 39 18 12 9 13 8 8 -6 -3 -10 -2 -18 4 -18 6 0 7 -5 4 -10 -8 -12 15 -159
25 -165 4 -2 5 8 3 23 -2 15 -6 52 -9 82 -2 30 -6 63 -8 73 -5 21 16 32 42 22
9 -4 30 -9 45 -10 37 -4 37 -4 42 -61 3 -27 8 -78 11 -114 4 -36 7 -78 8 -95
0 -16 4 -32 7 -35 4 -3 9 -24 12 -48 7 -63 18 -65 13 -1 -2 29 -5 54 -6 54 -8
0 -14 255 -6 262 3 3 24 -13 47 -36 22 -24 42 -41 45 -38 10 10 4 179 -6 207
-1 3 -2 8 -1 13 0 4 -4 7 -10 7 -5 0 -7 5 -4 10 3 6 1 10 -4 10 -6 0 -10 3 -9
8 3 11 -29 67 -46 82 -11 8 -13 17 -7 24 6 6 8 21 7 31 -2 11 -1 25 2 30 4 6
7 19 9 30 3 34 14 87 30 150 8 33 16 69 18 80 2 11 4 21 4 23 1 1 1 5 2 10 0
4 5 13 11 20 6 6 8 12 5 12 -3 0 8 35 25 78 16 42 37 97 46 122 9 25 21 48 25
51 5 3 8 9 8 13 -2 10 51 119 68 139 8 9 11 17 8 17 -9 0 113 194 124 198 5 2
9 8 9 13 0 6 4 15 10 22 5 7 42 53 82 102 60 75 148 168 288 301 14 13 28 24
32 24 4 0 20 12 36 28 16 15 39 34 52 42 12 8 33 23 45 33 13 9 28 17 33 17 6
0 12 3 14 8 6 14 188 126 188 115 0 -3 8 1 18 9 15 14 89 52 102 53 3 1 20 9
38 18 17 10 32 15 32 12 0 -3 10 1 23 9 12 7 40 19 62 26 22 7 45 16 50 20 6
4 22 10 37 14 16 3 29 7 30 7 2 0 39 11 83 24 92 28 95 28 95 16z m3375 -11
c10 -11 16 -20 13 -20 -3 0 -13 9 -23 20 -10 11 -16 20 -13 20 3 0 13 -9 23
-20z m-2480 0 c3 -6 -1 -7 -9 -4 -18 7 -21 14 -7 14 6 0 13 -4 16 -10z m-295
-4 c0 -3 -4 -8 -10 -11 -5 -3 -10 -1 -10 4 0 6 5 11 10 11 6 0 10 -2 10 -4z
m8 -51 c-3 -3 -9 2 -12 12 -6 14 -5 15 5 6 7 -7 10 -15 7 -18z m2803 -2 c13
-16 12 -17 -3 -4 -10 7 -18 15 -18 17 0 8 8 3 21 -13z m-1351 -28 c36 -9 73
-16 83 -16 9 0 17 -5 17 -10 0 -6 4 -8 8 -5 9 5 153 -64 181 -87 12 -10 13 -9
6 3 -14 26 29 -24 48 -55 100 -164 143 -365 112 -532 -7 -35 -10 -63 -8 -63 2
0 1 -6 -4 -12 -4 -7 -9 -22 -10 -32 -5 -32 -55 -138 -93 -196 -45 -71 -150
-176 -220 -223 -58 -38 -159 -80 -225 -93 -22 -4 -94 -8 -160 -8 -104 0 -133
3 -190 18 -5 1 -26 6 -45 10 -46 11 -211 97 -217 113 -3 7 -9 10 -14 7 -5 -3
-9 2 -9 11 0 9 -4 14 -9 11 -4 -3 -19 7 -32 22 l-24 27 28 -24 c15 -14 27 -20
27 -14 0 6 -7 16 -15 23 -8 7 -15 16 -15 21 0 4 -10 25 -22 46 -12 20 -23 42
-25 48 -1 5 -11 36 -23 69 -12 32 -22 78 -23 102 -1 24 -5 44 -8 44 -7 0 -4
157 5 218 10 67 53 182 86 230 17 23 30 47 30 52 0 6 5 10 10 10 6 0 14 8 17
17 10 24 98 107 158 148 99 67 193 106 295 122 19 3 36 6 38 8 11 10 189 2
242 -10z m265 -68 c20 -18 20 -18 -1 -8 -12 6 -29 23 -39 38 -17 27 -17 28 1
8 11 -11 28 -28 39 -38z m1133 18 c-3 -3 -9 2 -12 12 -6 14 -5 15 5 6 7 -7 10
-15 7 -18z m-5008 11 c0 -2 -7 -9 -15 -16 -13 -11 -14 -10 -9 4 5 14 24 23 24
12z m2215 -14 c-3 -3 -11 0 -18 7 -9 10 -8 11 6 5 10 -3 15 -9 12 -12z m172
-9 c-3 -5 -14 -30 -26 -56 -21 -46 -41 -55 -41 -17 0 10 -7 25 -15 34 -18 17
-8 26 38 33 18 3 34 7 36 9 7 7 12 4 8 -3z m-697 -13 c-8 -5 -19 -10 -25 -10
-5 0 -3 5 5 10 8 5 20 10 25 10 6 0 3 -5 -5 -10z m-40 -14 c0 -2 -7 -7 -16
-10 -8 -3 -12 -2 -9 4 6 10 25 14 25 6z m-1700 -10 c0 -2 -7 -7 -16 -10 -8 -3
-12 -2 -9 4 6 10 25 14 25 6z m2325 -14 c-3 -3 -11 0 -18 7 -9 10 -8 11 6 5
10 -3 15 -9 12 -12z m455 14 c0 -2 -7 -7 -16 -10 -8 -3 -12 -2 -9 4 6 10 25
14 25 6z m-1140 -21 c-14 -8 -29 -14 -35 -14 -5 0 1 6 15 14 14 8 30 14 35 14
6 0 -1 -6 -15 -14z m424 -1 c5 -14 4 -15 -9 -4 -17 14 -19 20 -6 20 5 0 12 -7
15 -16z m-2113 -37 c-10 -9 -11 -8 -5 6 3 10 9 15 12 12 3 -3 0 -11 -7 -18z
m1684 -7 c10 -11 16 -20 13 -20 -3 0 -13 9 -23 20 -10 11 -16 20 -13 20 3 0
13 -9 23 -20z m510 -62 l25 -27 -51 -23 c-56 -23 -199 -121 -212 -144 -11 -20
-25 -17 -32 6 -3 11 -13 20 -21 20 -8 0 -14 7 -14 16 0 8 -4 12 -10 9 -5 -3
-10 1 -10 10 0 10 -5 13 -12 9 -6 -4 -8 -3 -4 4 7 12 -19 42 -38 42 -7 0 -28
17 -47 38 l-34 37 37 -34 36 -33 59 26 c32 15 66 31 76 37 10 5 22 7 27 4 6
-4 13 1 16 10 4 8 11 14 18 13 6 -1 21 3 34 10 12 7 22 10 22 6 0 -4 9 1 21
12 12 10 23 18 25 17 12 -8 24 -1 18 10 -3 6 5 -1 20 -18 14 -16 37 -42 51
-57z m2985 67 c7 -9 8 -15 2 -15 -5 0 -12 7 -16 15 -3 8 -4 15 -2 15 2 0 9 -7
16 -15z m-790 -40 c19 -22 20 -26 5 -15 -24 18 -35 32 -35 44 0 5 1 7 3 5 1
-2 13 -17 27 -34z m841 -52 c13 -16 12 -17 -3 -4 -10 7 -18 15 -18 17 0 8 8 3
21 -13z m-791 -13 c0 -5 -2 -10 -4 -10 -3 0 -8 5 -11 10 -3 6 -1 10 4 10 6 0
11 -4 11 -10z m44 -66 c3 -8 2 -12 -4 -9 -6 3 -10 10 -10 16 0 14 7 11 14 -7z
m-1797 -36 c-3 -8 -6 -5 -6 6 -1 11 2 17 5 13 3 -3 4 -12 1 -19z m2601 -3 c-3
-3 -9 2 -12 12 -6 14 -5 15 5 6 7 -7 10 -15 7 -18z m-5468 -49 c0 -2 -8 -10
-17 -17 -16 -13 -17 -12 -4 4 13 16 21 21 21 13z m2442 -46 c-18 -11 -37 -20
-43 -20 -6 0 -7 -4 -4 -10 3 -5 0 -10 -7 -10 -7 0 -30 -16 -52 -35 -21 -19
-45 -35 -54 -35 -11 0 -8 6 9 21 43 38 83 66 124 88 50 27 71 27 27 1z m3086
-35 c-3 -3 -9 2 -12 12 -6 14 -5 15 5 6 7 -7 10 -15 7 -18z m-911 -7 c-3 -8
-6 -5 -6 6 -1 11 2 17 5 13 3 -3 4 -12 1 -19z m189 -63 c14 -27 29 -57 34 -65
28 -47 131 -296 133 -322 1 -10 6 -18 11 -18 5 0 7 -3 3 -6 -3 -4 0 -23 8 -43
13 -34 41 -127 50 -167 35 -161 45 -210 51 -269 3 -27 7 -60 9 -72 3 -21 0
-23 -43 -24 -70 -1 -91 -6 -154 -38 l-58 -30 -2 32 c0 18 -1 38 -1 45 1 6 -3
12 -7 12 -5 0 -8 12 -8 28 0 15 -7 51 -15 80 -9 29 -16 56 -17 60 0 4 -5 25
-11 47 -6 22 -13 47 -14 55 -2 8 -4 16 -5 18 -2 1 -3 6 -4 11 0 5 -4 13 -8 17
-5 4 -8 16 -8 26 0 11 -7 32 -15 47 -18 35 -28 91 -17 91 5 0 9 6 9 13 0 6 10
48 22 92 30 114 38 223 26 340 -4 33 -7 68 -6 77 0 10 -4 20 -10 23 -5 4 -9
12 -9 18 1 17 27 -20 56 -78z m-4876 31 c0 -3 -4 -8 -10 -11 -5 -3 -10 -1 -10
4 0 6 5 11 10 11 6 0 10 -2 10 -4z m4694 -51 c3 -8 1 -15 -4 -15 -6 0 -10 7
-10 15 0 8 2 15 4 15 2 0 6 -7 10 -15z m966 -60 c0 -5 -5 -3 -10 5 -5 8 -10
20 -10 25 0 6 5 3 10 -5 5 -8 10 -19 10 -25z m-3008 -20 c-4 -23 -9 -25 -43
-23 -47 2 -49 11 -9 35 17 9 30 21 30 26 0 5 6 4 14 -2 7 -6 11 -22 8 -36z
m-172 9 c0 -2 -9 0 -20 6 -11 6 -20 13 -20 16 0 2 9 0 20 -6 11 -6 20 -13 20
-16z m-2589 -81 c-12 -20 -14 -14 -5 12 4 9 9 14 11 11 3 -2 0 -13 -6 -23z
m2324 17 c3 -6 -1 -7 -9 -4 -18 7 -21 14 -7 14 6 0 13 -4 16 -10z m-25 -19 c0
-6 -9 -16 -20 -24 -11 -8 -44 -45 -73 -84 -99 -133 -155 -198 -164 -189 -3 3
5 18 18 34 13 16 38 46 54 67 17 22 46 58 65 80 19 23 51 60 70 83 34 41 50
51 50 33z m-2327 -66 c-3 -9 -8 -14 -10 -11 -3 3 -2 9 2 15 9 16 15 13 8 -4z
m2502 -15 c3 -6 -1 -7 -9 -4 -18 7 -21 14 -7 14 6 0 13 -4 16 -10z m615 -14
c0 -3 -4 -8 -10 -11 -5 -3 -10 -1 -10 4 0 6 5 11 10 11 6 0 10 -2 10 -4z
m-638 -103 c-35 -53 -71 -122 -93 -181 -6 -16 -14 -22 -25 -18 -9 3 -21 6 -27
6 -7 0 -18 4 -26 9 -11 7 -4 21 34 67 26 33 51 61 56 62 5 2 9 8 9 14 0 5 16
25 35 44 19 18 35 38 35 44 0 5 9 10 20 10 19 0 17 -6 -18 -57z m268 -17 c0
-2 -8 -10 -17 -17 -16 -13 -17 -12 -4 4 13 16 21 21 21 13z m-80 -102 c-22
-24 -40 -48 -40 -54 0 -5 -4 -10 -9 -10 -17 0 1 38 36 79 19 23 39 38 44 35 6
-3 -8 -26 -31 -50z m545 38 c-3 -3 -11 0 -18 7 -9 10 -8 11 6 5 10 -3 15 -9
12 -12z m-315 -27 c0 -5 -5 -3 -10 5 -5 8 -10 20 -10 25 0 6 5 3 10 -5 5 -8
10 -19 10 -25z m58 -95 c12 -16 22 -34 22 -39 0 -11 -77 -38 -132 -46 -21 -4
-38 -2 -38 3 0 12 55 72 66 72 5 0 15 9 22 20 17 28 35 25 60 -10z m-348 0 c0
-5 -5 -10 -11 -10 -5 0 -7 5 -4 10 3 6 8 10 11 10 2 0 4 -4 4 -10z m47 -66
c-3 -3 -12 -4 -19 -1 -8 3 -5 6 6 6 11 1 17 -2 13 -5z m140 -20 c-3 -3 -12 -4
-19 -1 -8 3 -5 6 6 6 11 1 17 -2 13 -5z m-3306 -87 c-10 -9 -11 -8 -5 6 3 10
9 15 12 12 3 -3 0 -11 -7 -18z m6157 -7 c7 -11 11 -20 9 -20 -2 0 -12 9 -22
20 -10 11 -14 20 -9 20 5 0 15 -9 22 -20z m-58 -74 c0 -2 -8 -10 -17 -17 -16
-13 -17 -12 -4 4 13 16 21 21 21 13z m140 -31 c13 -14 21 -25 18 -25 -2 0 -15
11 -28 25 -13 14 -21 25 -18 25 2 0 15 -11 28 -25z m-3077 8 c-7 -2 -19 -2
-25 0 -7 3 -2 5 12 5 14 0 19 -2 13 -5z m1755 -18 c-3 -3 -9 2 -12 12 -6 14
-5 15 5 6 7 -7 10 -15 7 -18z m-1587 -3 c-7 -2 -18 1 -23 6 -8 8 -4 9 13 5 13
-4 18 -8 10 -11z m-3200 -29 c13 -16 12 -17 -3 -4 -17 13 -22 21 -14 21 2 0
10 -8 17 -17z m4719 12 c0 -2 -10 -9 -22 -15 -22 -11 -22 -10 -4 4 21 17 26
19 26 11z m1190 -5 c-8 -5 -19 -10 -25 -10 -5 0 -3 5 5 10 8 5 20 10 25 10 6
0 3 -5 -5 -10z m270 -22 c0 -5 7 -8 16 -8 8 0 13 -4 10 -8 -7 -11 31 -72 44
-72 5 0 10 -7 10 -15 0 -8 -6 -15 -14 -15 -26 0 -116 -98 -142 -155 -14 -30
-28 -55 -30 -55 -3 0 -3 4 0 9 8 12 -42 44 -55 35 -6 -3 -13 3 -16 15 -3 12
-9 21 -14 21 -5 0 -9 7 -9 15 0 8 -3 15 -7 15 -5 0 -21 17 -37 38 -29 37 -29
37 -3 13 29 -26 57 -36 57 -20 0 6 4 8 9 4 6 -3 13 0 18 8 4 7 21 21 37 31 40
25 74 64 96 107 18 34 18 37 2 54 -16 16 -16 17 6 4 12 -8 22 -17 22 -21z
m197 7 c0 -8 -4 -12 -9 -9 -5 3 -6 10 -3 15 9 13 12 11 12 -6z m-3100 -17 c-3
-8 -6 -5 -6 6 -1 11 2 17 5 13 3 -3 4 -12 1 -19z m437 13 c3 -5 -2 -15 -12
-22 -15 -13 -16 -12 -4 3 10 13 10 17 0 21 -9 4 -9 6 -1 6 6 1 14 -3 17 -8z
m-3664 -23 c0 -5 6 -6 13 -2 9 5 9 4 0 -6 -9 -10 -8 -16 3 -27 23 -24 16 -37
-35 -65 -60 -34 -131 -111 -162 -176 -14 -28 -17 -30 -21 -15 -3 11 -21 27
-41 36 -31 15 -47 34 -47 57 0 4 12 11 26 14 45 12 127 70 182 130 28 32 52
62 52 66 0 5 7 7 15 4 8 -4 15 -10 15 -16z m-367 -30 c-3 -24 -6 -51 -7 -60 0
-23 -2 -23 -60 7 -27 14 -58 25 -68 25 -24 0 -23 15 1 17 14 1 118 40 138 52
1 0 -1 -18 -4 -41z m4967 36 c0 -8 -19 -13 -24 -6 -3 5 1 9 9 9 8 0 15 -2 15
-3z m1193 -6 c-21 -28 -21 -48 0 -75 12 -15 15 -23 7 -17 -20 15 -98 40 -134
43 -17 2 1 12 29 17 15 3 44 13 64 24 43 23 46 24 34 8z m422 -26 c-3 -3 -11
0 -18 7 -9 10 -8 11 6 5 10 -3 15 -9 12 -12z m-1665 -18 c0 -2 -9 0 -20 6 -11
6 -20 13 -20 16 0 2 9 0 20 -6 11 -6 20 -13 20 -16z m-4395 6 c3 -5 2 -10 -4
-10 -5 0 -13 5 -16 10 -3 6 -2 10 4 10 5 0 13 -4 16 -10z m-41 -8 c3 -5 -1 -9
-9 -9 -8 0 -12 4 -9 9 3 4 7 8 9 8 2 0 6 -4 9 -8z m3496 -7 c-7 -8 -17 -15
-23 -15 -6 0 -2 7 9 15 25 19 30 19 14 0z m1637 -7 c-3 -8 -6 -5 -6 6 -1 11 2
17 5 13 3 -3 4 -12 1 -19z m1083 16 c0 -8 -19 -13 -24 -6 -3 5 1 9 9 9 8 0 15
-2 15 -3z m77 0 c-3 -3 -12 -4 -19 -1 -8 3 -5 6 6 6 11 1 17 -2 13 -5z m-6150
-10 c-3 -3 -12 -4 -19 -1 -8 3 -5 6 6 6 11 1 17 -2 13 -5z m2868 -17 c25 -1
45 -6 45 -10 0 -4 6 -7 13 -6 38 5 44 -1 46 -48 1 -27 3 -59 4 -72 2 -25 -11
-32 -83 -45 -14 -3 -37 -7 -52 -10 -68 -14 -85 -17 -117 -22 -31 -4 -33 -3
-27 18 4 13 8 30 10 38 7 45 19 96 25 105 5 10 7 15 9 47 2 19 39 28 65 16 10
-5 38 -10 62 -11z m362 -29 c-3 -8 -6 -5 -6 6 -1 11 2 17 5 13 3 -3 4 -12 1
-19z m660 6 c-3 -3 -12 -4 -19 -1 -8 3 -5 6 6 6 11 1 17 -2 13 -5z m-592 -14
c-3 -5 -12 -10 -18 -10 -7 0 -6 4 3 10 19 12 23 12 15 0z m1025 -45 c19 -19
32 -35 29 -35 -3 0 -20 16 -39 35 -19 19 -32 35 -29 35 3 0 20 -16 39 -35z
m677 3 c-3 -8 -6 -5 -6 6 -1 11 2 17 5 13 3 -3 4 -12 1 -19z m118 12 c-3 -5
-12 -10 -18 -10 -7 0 -6 4 3 10 19 12 23 12 15 0z m-633 -64 l-15 -55 -29 15
c-37 19 -36 34 3 29 21 -3 29 0 26 8 -2 7 -9 13 -15 13 -26 3 -26 6 8 24 19
11 36 19 36 20 1 0 -5 -25 -14 -54z m215 -38 c-3 -7 -5 -2 -5 12 0 14 2 19 5
13 2 -7 2 -19 0 -25z m-1240 -18 c-14 -11 -29 -20 -34 -20 -10 1 39 39 51 40
5 0 -3 -9 -17 -20z m444 12 c13 -6 12 -11 -7 -40 l-22 -32 -7 30 c-10 44 1 57
36 42z m269 -47 c19 -19 32 -35 29 -35 -3 0 -20 16 -39 35 -19 19 -32 35 -29
35 3 0 20 -16 39 -35z m-760 5 c0 -5 -5 -10 -11 -10 -5 0 -7 5 -4 10 3 6 8 10
11 10 2 0 4 -4 4 -10z m-105 -50 c-3 -5 -12 -10 -18 -10 -7 0 -6 4 3 10 19 12
23 12 15 0z m791 -25 c-9 -14 -14 -25 -10 -25 3 0 -6 -15 -20 -32 -60 -76 -92
-108 -105 -108 -8 0 -2 13 17 33 49 50 81 89 103 125 11 17 23 32 26 32 3 0
-2 -11 -11 -25z m611 -37 c-3 -7 -5 -2 -5 12 0 14 2 19 5 13 2 -7 2 -19 0 -25z
m-392 2 c3 -6 -1 -7 -9 -4 -18 7 -21 14 -7 14 6 0 13 -4 16 -10z m860 -18 c-8
-8 -25 10 -19 20 4 6 9 5 15 -3 4 -7 6 -15 4 -17z m68 21 c-7 -2 -21 -2 -30 0
-10 3 -4 5 12 5 17 0 24 -2 18 -5z m-1596 -106 c15 -16 15 -18 0 -30 -8 -6
-42 -32 -74 -56 -32 -25 -63 -50 -68 -55 -6 -6 -18 -15 -27 -21 -9 -5 -29 -20
-44 -31 l-29 -22 -2 37 c-4 67 -4 71 -11 71 -4 0 -8 17 -10 38 -2 33 1 38 30
50 18 8 66 29 106 48 65 30 73 37 67 57 -3 12 6 2 20 -23 15 -25 34 -53 42
-63z m2754 76 c13 -17 13 -17 -6 -3 -11 8 -22 16 -24 17 -2 2 0 3 6 3 6 0 17
-8 24 -17z m-6214 -40 c-3 -10 -5 -4 -5 12 0 17 2 24 5 18 2 -7 2 -21 0 -30z
m4186 -27 c16 16 5 -41 -17 -89 -53 -116 -118 -247 -125 -251 -12 -8 -63 42
-56 54 3 6 1 9 -7 8 -7 -2 -12 3 -10 9 1 7 -1 12 -5 12 -22 -4 -32 3 -27 16 5
11 2 13 -10 9 -25 -9 -8 27 34 73 56 62 97 117 104 141 4 12 11 22 16 22 5 0
11 14 15 31 l7 31 37 -36 c21 -20 40 -33 44 -30z m254 32 c-3 -8 -6 -5 -6 6
-1 11 2 17 5 13 3 -3 4 -12 1 -19z m433 19 c0 -1 -13 -15 -30 -30 -16 -16 -30
-26 -30 -22 0 3 12 17 26 30 25 23 34 29 34 22z m1391 -14 c13 -16 12 -17 -3
-4 -10 7 -18 15 -18 17 0 8 8 3 21 -13z m-341 4 c0 -2 -10 -12 -22 -23 l-23
-19 19 23 c18 21 26 27 26 19z m-5842 -52 c-3 -3 -9 2 -12 12 -6 14 -5 15 5 6
7 -7 10 -15 7 -18z m6217 15 c3 -6 -1 -7 -9 -4 -18 7 -21 14 -7 14 6 0 13 -4
16 -10z m-1778 -32 c-3 -7 -5 -2 -5 12 0 14 2 19 5 13 2 -7 2 -19 0 -25z
m1378 -7 c3 -5 2 -12 -3 -15 -5 -3 -9 1 -9 9 0 17 3 19 12 6z m-2105 -56 l25
-30 -27 24 c-16 14 -28 29 -28 34 0 6 1 8 3 6 1 -2 13 -17 27 -34z m1404 4
c-4 -60 -15 -153 -18 -158 -3 -4 -8 -34 -11 -66 -4 -33 -9 -64 -12 -68 -3 -5
-7 -23 -10 -40 -2 -18 -10 -52 -17 -77 -8 -25 -13 -47 -14 -50 0 -3 -10 -39
-23 -80 -12 -41 -24 -78 -25 -82 -1 -5 -2 -9 -4 -10 -1 -2 -3 -10 -5 -18 -7
-37 -93 -235 -150 -345 -78 -153 -188 -328 -265 -422 -5 -6 -31 -38 -57 -70
-96 -119 -227 -252 -356 -359 -105 -89 -193 -154 -206 -154 -5 0 -11 -4 -13
-9 -4 -12 -178 -122 -178 -113 0 4 -4 3 -8 -3 -18 -25 -372 -195 -406 -195 -6
0 -23 -6 -38 -14 -15 -8 -42 -17 -60 -21 -18 -4 -37 -10 -43 -14 -5 -3 -13 -6
-17 -7 -5 -1 -9 -2 -10 -4 -2 -1 -10 -3 -18 -5 -40 -10 -61 -15 -130 -33 -42
-11 -91 -23 -110 -26 -19 -3 -45 -8 -57 -10 -11 -3 -43 -7 -70 -11 -26 -4 -59
-9 -73 -11 -65 -10 -160 -15 -161 -7 0 4 -3 17 -5 28 -3 11 -5 32 -5 47 0 14
-6 29 -14 32 -15 6 -23 -9 -20 -41 1 -13 -2 -23 -6 -23 -8 0 -5 -33 5 -48 8
-14 -40 -8 -58 7 -25 21 -38 49 -51 113 l-12 57 111 0 c132 1 275 12 341 26
38 8 104 17 130 19 11 0 22 4 25 8 3 3 19 8 35 11 59 11 89 18 97 23 8 5 37
13 68 18 8 2 29 9 45 16 17 7 39 15 49 17 11 2 25 8 32 14 7 6 18 8 24 4 5 -3
10 -1 10 4 0 6 5 11 10 11 6 0 27 7 48 17 20 9 39 17 42 17 3 1 15 7 28 14 12
7 22 9 22 5 0 -4 4 -3 8 3 4 6 39 27 77 46 114 56 312 182 347 221 9 10 19 18
23 17 9 -2 187 154 230 201 6 6 30 32 55 58 25 26 61 67 80 91 19 24 40 48 45
54 6 6 27 34 47 61 21 28 42 55 48 62 5 7 10 17 10 23 0 5 5 10 10 10 6 0 10
7 10 15 0 8 5 15 11 15 5 0 7 5 4 10 -3 6 -2 10 4 10 6 0 13 11 17 25 3 14 10
23 14 20 7 -4 18 21 16 35 -1 3 9 18 22 34 12 16 22 34 22 41 0 7 7 18 15 25
8 7 15 18 15 25 0 7 12 34 27 61 15 27 29 58 30 68 2 11 11 28 20 38 9 10 13
18 10 18 -3 0 6 28 19 63 14 34 27 72 30 84 2 12 9 35 15 50 19 50 48 167 43
175 -3 4 -1 8 3 8 5 0 9 8 10 18 0 9 4 28 7 42 3 14 13 79 22 145 17 118 18
121 57 160 44 44 84 68 98 59 5 -3 9 -1 9 4 0 6 19 9 43 8 32 -1 42 -5 41 -17z
m-839 -89 c-9 -16 -18 -30 -21 -30 -2 0 2 14 11 30 9 17 18 30 21 30 2 0 -2
-13 -11 -30z m-4647 -5 c-3 -3 -9 2 -12 12 -6 14 -5 15 5 6 7 -7 10 -15 7 -18z
m4182 -10 c13 -14 21 -25 18 -25 -2 0 -15 11 -28 25 -13 14 -21 25 -18 25 2 0
15 -11 28 -25z m-285 -5 c3 -5 3 -10 -2 -10 -4 0 -22 -13 -39 -28 -18 -15 -42
-34 -54 -42 -22 -15 -52 -38 -79 -61 -32 -28 -132 -91 -137 -86 -4 4 46 43
145 114 14 10 52 41 85 70 65 55 71 59 81 43z m-3885 -30 c0 -5 -5 -10 -11
-10 -5 0 -7 5 -4 10 3 6 8 10 11 10 2 0 4 -4 4 -10z m3480 -4 c0 -2 -8 -10
-17 -17 -16 -13 -17 -12 -4 4 13 16 21 21 21 13z m-50 -40 c-7 -7 -13 -7 -20
0 -6 6 -3 10 10 10 13 0 16 -4 10 -10z m1154 -21 c-4 -8 -8 -15 -10 -15 -2 0
-4 7 -4 15 0 8 4 15 10 15 5 0 7 -7 4 -15z m-589 -23 c-3 -3 -11 0 -18 7 -9
10 -8 11 6 5 10 -3 15 -9 12 -12z m575 -12 c0 -5 -5 -10 -11 -10 -5 0 -7 5 -4
10 3 6 8 10 11 10 2 0 4 -4 4 -10z m-53 -103 c-12 -26 -25 -47 -29 -47 -4 0 4
23 18 51 32 63 42 60 11 -4z m-987 -17 c0 -5 -5 -10 -11 -10 -5 0 -7 5 -4 10
3 6 8 10 11 10 2 0 4 -4 4 -10z m960 -44 c0 -2 -7 -7 -16 -10 -8 -3 -12 -2 -9
4 6 10 25 14 25 6z m-4433 -78 c-3 -8 -6 -5 -6 6 -1 11 2 17 5 13 3 -3 4 -12
1 -19z m4383 -2 c0 -2 -8 -10 -17 -17 -16 -13 -17 -12 -4 4 13 16 21 21 21 13z
m-4353 -88 c-3 -8 -6 -5 -6 6 -1 11 2 17 5 13 3 -3 4 -12 1 -19z m4293 -12
c-7 -7 -14 -6 -21 1 -9 9 -7 12 9 10 14 -1 18 -5 12 -11z m-3980 -646 c6 -11
8 -20 6 -20 -3 0 -10 9 -16 20 -6 11 -8 20 -6 20 3 0 10 -9 16 -20z m91 -137
c13 -16 12 -17 -3 -4 -17 13 -22 21 -14 21 2 0 10 -8 17 -17z m47 -68 c-3 -3
-9 2 -12 12 -6 14 -5 15 5 6 7 -7 10 -15 7 -18z m41 -49 c-3 -3 -11 5 -18 17
-13 21 -12 21 5 5 10 -10 16 -20 13 -22z m5122 -9 c-10 -9 -11 -8 -5 6 3 10 9
15 12 12 3 -3 0 -11 -7 -18z m-5076 -37 c10 -11 16 -20 13 -20 -3 0 -13 9 -23
20 -10 11 -16 20 -13 20 3 0 13 -9 23 -20z m5048 -5 c-3 -9 -8 -14 -10 -11 -3
3 -2 9 2 15 9 16 15 13 8 -4z m-4959 -93 c19 -27 19 -27 -12 2 -35 32 -38 38
-19 30 6 -3 21 -17 31 -32z m4916 14 c0 -2 -8 -10 -17 -17 -16 -13 -17 -12 -4
4 13 16 21 21 21 13z m-30 -46 c0 -5 -5 -10 -11 -10 -5 0 -7 5 -4 10 3 6 8 10
11 10 2 0 4 -4 4 -10z m-129 -173 c-10 -9 -11 -8 -5 6 3 10 9 15 12 12 3 -3 0
-11 -7 -18z m-108 -131 c-10 -13 -20 -22 -22 -20 -4 4 29 44 36 44 2 0 -4 -11
-14 -24z m-65 -76 c-7 -10 -14 -17 -17 -15 -4 4 18 35 25 35 2 0 -1 -9 -8 -20z
m-209 -212 c-2 -2 -17 -14 -34 -28 l-30 -25 24 28 c14 15 29 27 34 27 6 0 8
-1 6 -2z m-89 -82 c0 -2 -7 -7 -16 -10 -8 -3 -12 -2 -9 4 6 10 25 14 25 6z
m-4510 -26 c0 -5 -2 -10 -4 -10 -3 0 -8 5 -11 10 -3 6 -1 10 4 10 6 0 11 -4
11 -10z m4455 -20 c-3 -5 -12 -10 -18 -10 -7 0 -6 4 3 10 19 12 23 12 15 0z
m-50 -40 c-3 -5 -12 -10 -18 -10 -7 0 -6 4 3 10 19 12 23 12 15 0z m-4314 -17
c13 -16 12 -17 -3 -4 -10 7 -18 15 -18 17 0 8 8 3 21 -13z m4274 -13 c-3 -5
-12 -10 -18 -10 -7 0 -6 4 3 10 19 12 23 12 15 0z m-95 -70 c0 -5 -5 -10 -11
-10 -5 0 -7 5 -4 10 3 6 8 10 11 10 2 0 4 -4 4 -10z m-2017 -117 c4 -7 -4 -12
-22 -15 l-28 -4 16 50 16 49 6 -34 c3 -19 8 -40 12 -46z m1830 -8 c-3 -9 -8
-14 -10 -11 -3 3 -2 9 2 15 9 16 15 13 8 -4z m-63 -40 c-7 -8 -17 -15 -23 -15
-6 0 -2 7 9 15 25 19 30 19 14 0z m-1685 -65 c10 -11 14 -20 9 -20 -5 0 -15 9
-22 20 -7 11 -11 20 -9 20 2 0 12 -9 22 -20z m-1760 0 c3 -6 -1 -7 -9 -4 -18
7 -21 14 -7 14 6 0 13 -4 16 -10z m3275 -30 c0 -5 -5 -10 -11 -10 -5 0 -7 5
-4 10 3 6 8 10 11 10 2 0 4 -4 4 -10z m-1441 -29 c17 -16 27 -31 23 -33 -22
-10 -107 -154 -117 -198 -1 -8 -10 -31 -18 -50 l-14 -35 -8 28 c-4 15 -10 27
-14 27 -3 0 -17 18 -31 40 -14 22 -30 40 -37 40 -7 0 -13 5 -13 11 0 5 5 7 10
4 6 -3 10 -1 10 4 0 6 7 11 16 11 32 0 134 89 134 117 0 7 4 13 9 13 14 0 20
38 7 44 -8 3 -7 5 1 5 7 1 26 -12 42 -28z m1391 5 c0 -2 -7 -7 -16 -10 -8 -3
-12 -2 -9 4 6 10 25 14 25 6z m-1766 -22 c5 -13 4 -14 -7 -6 -8 7 -18 8 -22 4
-5 -4 -5 -1 -1 6 10 17 23 15 30 -4z m1706 -8 c0 -2 -7 -7 -16 -10 -8 -3 -12
-2 -9 4 6 10 25 14 25 6z m-90 -40 c0 -3 -4 -8 -10 -11 -5 -3 -10 -1 -10 4 0
6 5 11 10 11 6 0 10 -2 10 -4z m-120 -50 c0 -2 -7 -7 -16 -10 -8 -3 -12 -2 -9
4 6 10 25 14 25 6z m-1406 -32 c3 -8 2 -12 -4 -9 -6 3 -10 10 -10 16 0 14 7
11 14 -7z m-847 -80 c-3 -3 -12 -4 -19 -1 -8 3 -5 6 6 6 11 1 17 -2 13 -5z
m290 -70 c-3 -3 -12 -4 -19 -1 -8 3 -5 6 6 6 11 1 17 -2 13 -5z m50 -10 c-3
-3 -12 -4 -19 -1 -8 3 -5 6 6 6 11 1 17 -2 13 -5z m153 -18 c0 -3 -4 -8 -10
-11 -5 -3 -10 -1 -10 4 0 6 5 11 10 11 6 0 10 -2 10 -4z m1007 -2 c-3 -3 -12
-4 -19 -1 -8 3 -5 6 6 6 11 1 17 -2 13 -5z m-137 -18 c-7 -7 -13 -7 -20 0 -6
6 -3 10 10 10 13 0 16 -4 10 -10z m-696 -55 c-5 -6 -34 20 -34 30 0 5 8 1 18
-8 10 -10 17 -20 16 -22z m456 -251 c0 -11 -4 -20 -9 -20 -5 0 -7 9 -4 20 3
11 7 20 9 20 2 0 4 -9 4 -20z"/>
<path d="M2395 4120 c3 -5 8 -10 11 -10 2 0 4 5 4 10 0 6 -5 10 -11 10 -5 0
-7 -4 -4 -10z"/>
<path d="M4320 2217 c3 -3 19 -8 35 -11 17 -3 45 -8 63 -11 18 -3 32 -1 32 5
0 5 -12 10 -27 10 -16 0 -46 3 -68 7 -22 3 -38 3 -35 0z"/>
</g>
</svg>
