<?xml version="1.0" encoding="utf-8"?>
<!-- Generator: Adobe Illustrator 27.2.0, SVG Export Plug-In . SVG Version: 6.00 Build 0)  -->
<svg version="1.1" id="Layer_1" xmlns="http://www.w3.org/2000/svg" xmlns:xlink="http://www.w3.org/1999/xlink" x="0px" y="0px"
	 viewBox="0 0 221 223" style="enable-background:new 0 0 221 223;" xml:space="preserve">
<style type="text/css">
	.st0{fill:#F7981D;}
	.st1{fill:#FFD104;}
	.st2{fill:#F6971B;}
	.st3{fill:#FFD203;}
	.st4{fill:none;stroke:#FFD203;stroke-width:5;stroke-miterlimit:10;}
	.st5{fill:none;stroke:#FFD104;stroke-width:5;stroke-miterlimit:10;}
	.st6{fill:none;stroke:#FFD203;stroke-width:6;stroke-miterlimit:10;}
</style>
<g>
	<path class="st0" d="M99.6,34.8c-0.2,0-0.5,0.1-0.7,0.1c-0.4,0.1-0.7,0.1-1.1,0.2c-0.3,0-0.5,0.1-0.8,0.1c-0.3,0.1-0.7,0.1-1,0.2
		c-0.3,0-0.5,0.1-0.8,0.2c-0.3,0.1-0.7,0.1-1,0.2c-0.3,0.1-0.5,0.1-0.8,0.2c-0.3,0.1-0.7,0.2-1,0.2c-0.3,0.1-0.5,0.1-0.8,0.2
		c-0.3,0.1-0.7,0.2-1,0.3c-0.3,0.1-0.5,0.1-0.8,0.2c-0.3,0.1-0.7,0.2-1,0.3c-0.3,0.1-0.5,0.2-0.8,0.2c-0.3,0.1-0.7,0.2-1,0.3
		c-0.3,0.1-0.5,0.2-0.8,0.2c-0.3,0.1-0.6,0.2-1,0.3c-0.3,0.1-0.5,0.2-0.7,0.3c-0.3,0.1-0.6,0.2-1,0.3c-0.2,0.1-0.5,0.2-0.7,0.3
		c-0.3,0.1-0.7,0.2-1,0.4c-0.2,0.1-0.4,0.2-0.6,0.2c-0.8,0.3-1.6,0.7-2.4,1c-0.1,0-0.2,0.1-0.3,0.1c-0.3,0.1-0.7,0.3-1,0.5
		c-0.2,0.1-0.4,0.2-0.7,0.3c-0.3,0.1-0.6,0.3-0.9,0.4c-0.2,0.1-0.5,0.2-0.7,0.3c-0.3,0.1-0.6,0.3-0.9,0.5c-0.2,0.1-0.5,0.3-0.7,0.4
		c-0.3,0.2-0.6,0.3-0.9,0.5c-0.2,0.1-0.5,0.3-0.7,0.4c-0.3,0.2-0.6,0.3-0.8,0.5c-0.2,0.1-0.5,0.3-0.7,0.4c-0.3,0.2-0.6,0.3-0.8,0.5
		c-0.2,0.1-0.5,0.3-0.7,0.4c-0.3,0.2-0.5,0.3-0.8,0.5c-0.2,0.2-0.5,0.3-0.7,0.5c-0.3,0.2-0.5,0.3-0.8,0.5c-0.2,0.2-0.5,0.3-0.7,0.5
		c-0.3,0.2-0.5,0.4-0.8,0.5c-0.2,0.2-0.5,0.3-0.7,0.5c-0.3,0.2-0.5,0.4-0.8,0.6c-0.2,0.2-0.5,0.3-0.7,0.5c-0.2,0.2-0.5,0.4-0.7,0.6
		c-0.2,0.2-0.5,0.4-0.7,0.5c-0.4,0.4-0.9,0.7-1.3,1.1c-0.2,0.2-0.5,0.4-0.7,0.6c-0.2,0.2-0.4,0.4-0.7,0.6c-0.2,0.2-0.5,0.4-0.7,0.6
		c-0.2,0.2-0.4,0.4-0.7,0.6c-0.2,0.2-0.4,0.4-0.7,0.6c-0.2,0.2-0.4,0.4-0.6,0.6c-0.2,0.2-0.4,0.4-0.6,0.6c-0.2,0.2-0.4,0.4-0.6,0.6
		c-0.2,0.2-0.4,0.4-0.6,0.6c-0.2,0.2-0.4,0.4-0.6,0.6c-0.2,0.2-0.4,0.4-0.6,0.7c-0.2,0.2-0.4,0.4-0.6,0.6c-0.2,0.2-0.4,0.5-0.6,0.7
		c-0.2,0.2-0.4,0.4-0.6,0.6c-0.2,0.2-0.4,0.5-0.6,0.7c-0.2,0.2-0.4,0.4-0.6,0.7c-0.2,0.2-0.4,0.5-0.6,0.7c-0.2,0.2-0.4,0.4-0.5,0.7
		c-0.2,0.2-0.4,0.5-0.6,0.7c-0.2,0.2-0.3,0.4-0.5,0.7c-0.2,0.3-0.4,0.5-0.6,0.8c-0.2,0.2-0.3,0.4-0.5,0.6c-0.3,0.3-0.5,0.7-0.7,1.1
		c-0.1,0.2-0.3,0.4-0.4,0.6c-0.3,0.4-0.6,0.8-0.9,1.3c-0.1,0.2-0.3,0.4-0.4,0.6c-0.2,0.3-0.4,0.6-0.6,0.9c-0.1,0.2-0.3,0.4-0.4,0.7
		c-0.2,0.3-0.4,0.6-0.5,0.9c-0.1,0.2-0.3,0.5-0.4,0.7c-0.2,0.3-0.3,0.6-0.5,0.9c-0.1,0.2-0.3,0.5-0.4,0.7c-0.2,0.3-0.3,0.6-0.5,0.9
		c-0.1,0.2-0.3,0.5-0.4,0.7c-0.1,0.3-0.3,0.6-0.4,0.9c-0.1,0.2-0.2,0.5-0.4,0.7c-0.1,0.3-0.3,0.6-0.4,0.9c-0.1,0.2-0.2,0.5-0.3,0.7
		c-0.1,0.3-0.3,0.6-0.4,0.9c-0.1,0.2-0.2,0.5-0.3,0.7c-0.1,0.3-0.3,0.6-0.4,0.9c-0.1,0.2-0.2,0.5-0.3,0.7c-0.1,0.3-0.3,0.7-0.4,1
		c-0.1,0.2-0.2,0.5-0.3,0.7c-0.1,0.4-0.3,0.7-0.4,1.1c-0.1,0.2-0.1,0.4-0.2,0.6c-0.2,0.5-0.4,1-0.5,1.6c0,0.1,0,0.1-0.1,0.2
		c-0.2,0.6-0.4,1.2-0.5,1.7c-0.1,0.2-0.1,0.4-0.2,0.6c-0.1,0.4-0.2,0.8-0.3,1.2c-0.1,0.2-0.1,0.5-0.2,0.7c-0.1,0.4-0.2,0.7-0.3,1.1
		c-0.1,0.3-0.1,0.5-0.2,0.8c-0.1,0.3-0.2,0.7-0.2,1c-0.1,0.3-0.1,0.5-0.2,0.8c-0.1,0.3-0.1,0.7-0.2,1c0,0.2-0.1,0.4-0.1,0.6
		c0.7,3.3,4.3,5.7,7.7,6.3c3.5-33,30.8-59,64.7-61c1.3,0.5,2.9,1.6,3.3,3.8l0.8,4.5v-8.4c0,0,0,0,0,0v-0.9c-0.1-3.6-2.6-6.5-5.9-7.2
		c0.1,0,0.2-0.1,0.4-0.1c-0.6,0-1.3,0.1-1.9,0.2c-0.8,0.1-1.5,0.2-2.3,0.2C100.3,34.7,100,34.7,99.6,34.8L99.6,34.8z"/>
	<path class="st1" d="M109,11.2c-1,5.6-4.9,14.6-7.6,15.1C60.5,30.5,28.1,63,24.6,103.7c4-0.4,7.4-3,9.2-6.5c0,0.1,0,0.1,0,0.2
		c0-0.2,0.1-0.4,0.1-0.6c0.1-0.3,0.1-0.7,0.2-1c0.1-0.3,0.1-0.5,0.2-0.8c0.1-0.3,0.2-0.7,0.2-1c0.1-0.3,0.1-0.5,0.2-0.8
		c0.1-0.4,0.2-0.7,0.3-1.1c0.1-0.2,0.1-0.5,0.2-0.7c0.1-0.4,0.2-0.8,0.3-1.2c0.1-0.2,0.1-0.4,0.2-0.6c0.2-0.6,0.3-1.2,0.5-1.7
		c0-0.1,0-0.1,0.1-0.2c0.2-0.5,0.3-1,0.5-1.6c0.1-0.2,0.1-0.4,0.2-0.6c0.1-0.4,0.3-0.7,0.4-1.1c0.1-0.2,0.2-0.5,0.3-0.7
		c0.1-0.3,0.3-0.7,0.4-1c0.1-0.2,0.2-0.5,0.3-0.7c0.1-0.3,0.3-0.6,0.4-0.9c0.1-0.2,0.2-0.5,0.3-0.7c0.1-0.3,0.3-0.6,0.4-0.9
		c0.1-0.3,0.2-0.5,0.3-0.7c0.1-0.3,0.3-0.6,0.4-0.9c0.1-0.2,0.2-0.5,0.4-0.7c0.1-0.3,0.3-0.6,0.4-0.9c0.1-0.2,0.3-0.5,0.4-0.7
		c0.2-0.3,0.3-0.6,0.5-0.9c0.1-0.2,0.3-0.5,0.4-0.7c0.2-0.3,0.3-0.6,0.5-0.9c0.1-0.2,0.3-0.5,0.4-0.7c0.2-0.3,0.3-0.6,0.5-0.9
		c0.1-0.2,0.3-0.4,0.4-0.7c0.2-0.3,0.4-0.6,0.6-0.9c0.1-0.2,0.2-0.4,0.4-0.6c0.3-0.4,0.6-0.9,0.9-1.3c0.1-0.2,0.3-0.4,0.4-0.6
		c0.2-0.4,0.5-0.7,0.7-1.1c0.1-0.2,0.3-0.4,0.5-0.6c0.2-0.3,0.4-0.5,0.6-0.8c0.2-0.2,0.3-0.4,0.5-0.7c0.2-0.3,0.4-0.5,0.6-0.7
		c0.2-0.2,0.4-0.4,0.5-0.7c0.2-0.2,0.4-0.5,0.6-0.7c0.2-0.2,0.4-0.4,0.6-0.7c0.2-0.2,0.4-0.5,0.6-0.7c0.2-0.2,0.4-0.4,0.6-0.6
		c0.2-0.2,0.4-0.5,0.6-0.7c0.2-0.2,0.4-0.4,0.6-0.6c0.2-0.2,0.4-0.4,0.6-0.7c0.2-0.2,0.4-0.4,0.6-0.6c0.2-0.2,0.4-0.4,0.6-0.6
		c0.2-0.2,0.4-0.4,0.6-0.6c0.2-0.2,0.4-0.4,0.6-0.6c0.2-0.2,0.4-0.4,0.6-0.6c0.2-0.2,0.4-0.4,0.7-0.6c0.2-0.2,0.4-0.4,0.7-0.6
		c0.2-0.2,0.5-0.4,0.7-0.6c0.2-0.2,0.4-0.4,0.7-0.6c0.2-0.2,0.5-0.4,0.7-0.6c0.4-0.4,0.9-0.7,1.3-1.1c0.2-0.2,0.5-0.4,0.7-0.5
		c0.2-0.2,0.5-0.4,0.7-0.6c0.2-0.2,0.5-0.3,0.7-0.5c0.3-0.2,0.5-0.4,0.8-0.6c0.2-0.2,0.5-0.3,0.7-0.5c0.3-0.2,0.5-0.4,0.8-0.5
		c0.2-0.2,0.5-0.3,0.7-0.5c0.3-0.2,0.5-0.4,0.8-0.5c0.2-0.2,0.5-0.3,0.7-0.5c0.3-0.2,0.5-0.3,0.8-0.5c0.2-0.1,0.5-0.3,0.7-0.4
		c0.3-0.2,0.6-0.3,0.8-0.5c0.2-0.1,0.5-0.3,0.7-0.4c0.3-0.2,0.6-0.3,0.8-0.5c0.2-0.1,0.5-0.3,0.7-0.4c0.3-0.2,0.6-0.3,0.9-0.5
		c0.2-0.1,0.5-0.3,0.7-0.4c0.3-0.2,0.6-0.3,0.9-0.5c0.2-0.1,0.5-0.2,0.7-0.3c0.3-0.1,0.6-0.3,0.9-0.4c0.2-0.1,0.4-0.2,0.7-0.3
		c0.3-0.2,0.6-0.3,1-0.5c0.1,0,0.2-0.1,0.3-0.1c0.8-0.4,1.6-0.7,2.4-1c0.2-0.1,0.4-0.2,0.6-0.2c0.3-0.1,0.7-0.3,1-0.4
		c0.2-0.1,0.5-0.2,0.7-0.3c0.3-0.1,0.6-0.2,1-0.3c0.2-0.1,0.5-0.2,0.7-0.3c0.3-0.1,0.6-0.2,1-0.3c0.3-0.1,0.5-0.2,0.8-0.2
		c0.3-0.1,0.6-0.2,1-0.3c0.3-0.1,0.5-0.2,0.8-0.2c0.3-0.1,0.7-0.2,1-0.3c0.3-0.1,0.5-0.1,0.8-0.2c0.3-0.1,0.7-0.2,1-0.3
		c0.3-0.1,0.5-0.1,0.8-0.2c0.3-0.1,0.7-0.2,1-0.2c0.3-0.1,0.5-0.1,0.8-0.2c0.3-0.1,0.7-0.1,1-0.2c0.3-0.1,0.5-0.1,0.8-0.2
		c0.3-0.1,0.7-0.1,1-0.2c0.3,0,0.5-0.1,0.8-0.1c0.4-0.1,0.7-0.1,1.1-0.2c0.2,0,0.5-0.1,0.7-0.1c0.4-0.1,0.8-0.1,1.1-0.2
		c0.5-0.4,1.1-0.5,1.7-0.4c0.2,0,0.4,0.1,0.6,0.1c0.6-0.1,1.3-0.1,1.9-0.2c3.2-1.4,5.8-11.6,5.8-15.1V2L109,11.2L109,11.2z"/>
	<path class="st1" d="M38.9,104.3c0,0.1,0,0.2-0.1,0.2c-2.2,0.8-4.3,3.1-5.4,5.4c-0.1,0.2-0.2,0.5-0.2,0.7h-0.1
		c-0.1,0.3-0.2,0.5-0.2,0.7c0,0.2,0,0.3,0,0.5v0.1c0,1.1,0.1,2.2,0.1,3.4c0.1,2.2,0.4,4.4,0.7,6.6c0,0.1,0,0.2,0,0.3
		c0.1,0.5,0.1,0.9,0.2,1.4c0,0.1,0,0.3,0.1,0.4c0.1,0.4,0.2,0.9,0.2,1.3c0,0.1,0,0.3,0.1,0.4c0.1,0.4,0.2,0.9,0.3,1.3
		c0,0.1,0,0.2,0.1,0.3c0.1,0.5,0.2,0.9,0.3,1.4c0,0,0,0.1,0,0.1c0.5,2.1,1.1,4.2,1.8,6.2c0,0,0,0.1,0,0.1c0.2,0.5,0.3,0.9,0.5,1.4
		c0,0.1,0.1,0.2,0.1,0.3c0.2,0.4,0.3,0.9,0.5,1.3c0,0.1,0.1,0.2,0.1,0.3c0.2,0.4,0.3,0.8,0.5,1.3c0,0.1,0.1,0.2,0.1,0.3
		c0.2,0.4,0.4,0.9,0.6,1.3c0,0.1,0.1,0.1,0.1,0.2c1.1,2.4,2.3,4.8,3.6,7.1c0,0.1,0.1,0.1,0.1,0.2c0.2,0.4,0.5,0.8,0.7,1.2
		c0.1,0.1,0.1,0.2,0.2,0.3c0.2,0.4,0.5,0.8,0.7,1.2c0.1,0.1,0.1,0.2,0.2,0.3c0.3,0.4,0.5,0.8,0.8,1.2c0,0.1,0.1,0.1,0.1,0.2
		c0.7,1.1,1.5,2.2,2.3,3.3c0.8,1.1,1.6,2.1,2.5,3.1c0,0,0,0,0,0c0.3,0.4,0.6,0.8,1,1.1c0,0.1,0.1,0.1,0.1,0.2
		c0.3,0.4,0.6,0.7,0.9,1.1c0.1,0.1,0.1,0.1,0.2,0.2c0.3,0.4,0.6,0.7,1,1.1c0,0,0.1,0.1,0.1,0.1c0.6,0.6,1.1,1.2,1.7,1.7
		c0.6,0.6,1.1,1.1,1.7,1.7c1.2,1.1,2.4,2.2,3.6,3.2c0,0,0,0,0.1,0.1c0.4,0.3,0.8,0.6,1.2,1c0,0,0.1,0.1,0.1,0.1
		c0.4,0.3,0.8,0.6,1.2,0.9c0,0,0.1,0.1,0.1,0.1c1.9,1.4,3.8,2.8,5.9,4c1.2,0.8,2.4,1.5,3.7,2.2c0,0,0,0,0.1,0
		c0.5,0.3,0.9,0.5,1.4,0.7c0,0,0.1,0,0.1,0c0.5,0.2,0.9,0.5,1.4,0.7c1.5,0.7,3,1.4,4.5,2.1c1.5,0.6,3.1,1.2,4.7,1.8c0,0,0,0,0,0
		c0.5,0.2,1,0.4,1.5,0.5c0,0,0.1,0,0.1,0c0.5,0.2,1,0.3,1.6,0.5c0,0,0,0,0,0c3.7,1.1,7.6,1.9,11.6,2.5c1.7,0.2,3.4,0.4,5.2,0.5
		c-0.2-0.1-0.3-0.1-0.5-0.2c3.4-0.7,5.9-3.7,5.9-7.3c0,0.1,0,0.1,0,0.2v-0.9c0,0,0,0-0.1,0v-7.3l-0.8,4.5c-0.2,1.2-0.8,2.1-1.6,2.8
		c-36-1.3-64.9-29.8-66.6-65.3c1.2-1.1,2.8-1.8,4.5-1.8c2.4,0,4.5,1.3,5.7,3.2c0.2-0.7,0.3-1.5,0.3-2.2c0-5.3-4.3-9.6-9.6-9.6
		c-0.2,0-0.4,0-0.7,0c0,0-0.1,0-0.1,0C40.6,103.8,39.7,104,38.9,104.3L38.9,104.3z"/>
	<path class="st0" d="M105.8,188.2c-0.2-0.2-0.5-0.4-0.7-0.5c-1.7-0.1-3.5-0.3-5.2-0.5c-4-0.5-7.8-1.4-11.6-2.5c0,0,0,0,0,0
		c-0.5-0.2-1-0.3-1.6-0.5c0,0-0.1,0-0.1,0c-0.5-0.2-1-0.3-1.5-0.5c0,0,0,0,0,0c-1.6-0.5-3.1-1.1-4.7-1.8c-1.5-0.6-3-1.3-4.5-2.1
		c-0.5-0.2-1-0.5-1.4-0.7c0,0-0.1,0-0.1,0c-0.5-0.2-0.9-0.5-1.4-0.7c0,0,0,0-0.1,0c-1.3-0.7-2.5-1.4-3.7-2.2c-2-1.3-4-2.6-5.9-4
		c0,0-0.1-0.1-0.1-0.1c-0.4-0.3-0.8-0.6-1.2-0.9c0,0-0.1-0.1-0.1-0.1c-0.4-0.3-0.8-0.6-1.2-1c0,0,0,0-0.1-0.1
		c-1.2-1-2.4-2.1-3.6-3.2c-0.6-0.6-1.2-1.1-1.7-1.7c-0.6-0.6-1.1-1.1-1.7-1.7c0,0-0.1-0.1-0.1-0.1c-0.3-0.4-0.7-0.7-1-1.1
		c-0.1-0.1-0.1-0.1-0.2-0.2c-0.3-0.4-0.6-0.7-0.9-1.1c0-0.1-0.1-0.1-0.1-0.2c-0.3-0.4-0.6-0.8-1-1.1c0,0,0,0,0,0
		c-0.8-1-1.7-2.1-2.5-3.1c-0.8-1.1-1.6-2.2-2.3-3.3c0-0.1-0.1-0.1-0.1-0.2c-0.3-0.4-0.5-0.8-0.8-1.2c-0.1-0.1-0.1-0.2-0.2-0.3
		c-0.2-0.4-0.5-0.8-0.7-1.2c-0.1-0.1-0.1-0.2-0.2-0.3c-0.2-0.4-0.5-0.8-0.7-1.2c0-0.1-0.1-0.1-0.1-0.2c-1.3-2.3-2.5-4.7-3.6-7.1
		c0-0.1-0.1-0.1-0.1-0.2c-0.2-0.4-0.4-0.9-0.6-1.3c0-0.1-0.1-0.2-0.1-0.3c-0.2-0.4-0.3-0.8-0.5-1.3c0-0.1-0.1-0.2-0.1-0.3
		c-0.2-0.4-0.3-0.8-0.5-1.3c0-0.1-0.1-0.2-0.1-0.3c-0.2-0.5-0.3-0.9-0.5-1.4c0,0,0-0.1,0-0.1c-0.7-2-1.3-4.1-1.8-6.2
		c0,0,0-0.1,0-0.1c-0.1-0.5-0.2-0.9-0.3-1.4c0-0.1,0-0.2-0.1-0.3c-0.1-0.4-0.2-0.9-0.3-1.3c0-0.1-0.1-0.3-0.1-0.4
		c-0.1-0.4-0.2-0.9-0.2-1.3c0-0.1,0-0.3-0.1-0.4c-0.1-0.5-0.2-0.9-0.2-1.4c0-0.1,0-0.2,0-0.3c-0.3-2.2-0.5-4.4-0.7-6.6
		c-0.1-0.7-0.2-1.3-0.2-2c0-0.5,0-0.9,0.1-1.3c0,0,0,0,0-0.1c0-0.2,0-0.3,0-0.5c0,0.1,0,0.2-0.1,0.2c0,0.1-0.1,0.1-0.1,0.1
		c-0.1,0-0.2,0-0.2-0.1c0,0,0-0.1,0-0.1c-0.1-0.3-0.1-0.6-0.2-0.9c-0.5-1.6-1.5-3.3-2.7-4.5c-1.4-1.2-3-2-4.9-2.3c0,0-0.1,0-0.1,0
		c-0.4-0.1-0.9-0.1-1.3-0.1c-5.3,0-9.6,4.3-9.6,9.6c0,0.8,0.1,1.5,0.3,2.2c1.2-1.9,3.3-3.2,5.7-3.2c1.9,0,3.7,0.8,4.9,2.1
		c0.1,2.7,0.3,5.4,0.7,8.1c0,0.1-0.1,0.2-0.1,0.2c0.1,0,0.1,0,0.2,0c5.3,38.6,36.8,69,76.3,73.1c2.6,0.5,6.6,9.5,7.6,15.1l1.7,9.2
		v-17.3C110.8,199.6,108.6,190.9,105.8,188.2L105.8,188.2z"/>
	<path class="st1" d="M187.1,97.5C181,63.3,152,36.8,116.2,34.2c-3.3,0.8-5.7,3.8-5.7,7.4c0,0,0,0,0-0.1v0.9c0,0,0,0,0,0v9.8
		l0.8-4.5c0.4-2.3,2-4.4,3.3-5.1c33.9,2,61.2,28,64.7,61.1C182.7,103.1,186.3,100.8,187.1,97.5L187.1,97.5z"/>
	<path class="st0" d="M187.1,97.5c0-0.1,0.1-0.2,0.1-0.4c1.8,3.5,5.2,6.2,9.1,6.5c-3.5-40.7-35.8-73.2-76.7-77.5
		c-3.1-1.1-6.5-8.7-7.4-14l-1.6-9.6v16.5c0,3.6,2.2,14.3,5.6,15.1c0,0,0,0-0.1,0C152,36.8,181,63.3,187.1,97.5L187.1,97.5z"/>
	<path d="M-0.8,111.2c0-0.2,0-0.4,0-0.5C-0.8,110.9-0.8,111.1-0.8,111.2z"/>
	<path class="st2" d="M132.8,184.6c0.5-0.2,1-0.3,1.6-0.5c0,0,0.1,0,0.1,0c0.5-0.2,1-0.3,1.5-0.5c0,0,0,0,0,0
		c1.6-0.5,3.1-1.1,4.7-1.8c1.5-0.6,3-1.3,4.5-2.1c0.5-0.2,1-0.5,1.4-0.7c0,0,0.1,0,0.1,0c0.5-0.2,0.9-0.5,1.4-0.7c0,0,0,0,0.1,0
		c1.3-0.7,2.5-1.4,3.7-2.2c2-1.3,4-2.6,5.9-4c0,0,0.1-0.1,0.1-0.1c0.4-0.3,0.8-0.6,1.2-0.9c0,0,0.1-0.1,0.1-0.1
		c0.4-0.3,0.8-0.6,1.2-1c0,0,0,0,0.1-0.1c1.2-1,2.4-2.1,3.6-3.2c0.6-0.6,1.2-1.1,1.7-1.7c0.6-0.6,1.1-1.1,1.7-1.7
		c0,0,0.1-0.1,0.1-0.1c0.3-0.4,0.7-0.7,1-1.1c0.1-0.1,0.1-0.1,0.2-0.2c0.3-0.4,0.6-0.7,0.9-1.1c0-0.1,0.1-0.1,0.1-0.2
		c0.3-0.4,0.6-0.8,1-1.1c0,0,0,0,0,0c0.8-1,1.7-2.1,2.5-3.1c0.8-1.1,1.6-2.2,2.3-3.3c0-0.1,0.1-0.1,0.1-0.2c0.3-0.4,0.5-0.8,0.8-1.2
		c0.1-0.1,0.1-0.2,0.2-0.3c0.2-0.4,0.5-0.8,0.7-1.2c0.1-0.1,0.1-0.2,0.2-0.3c0.2-0.4,0.5-0.8,0.7-1.2c0-0.1,0.1-0.1,0.1-0.2
		c0.5-0.9,1-1.7,1.4-2.6c0.8-1.5,1.5-3,2.1-4.5c0-0.1,0.1-0.1,0.1-0.2c0.2-0.4,0.4-0.9,0.6-1.3c0-0.1,0.1-0.2,0.1-0.3
		c0.2-0.4,0.3-0.8,0.5-1.3c0-0.1,0.1-0.2,0.1-0.3c0.2-0.4,0.3-0.8,0.5-1.3c0-0.1,0.1-0.2,0.1-0.3c0.2-0.5,0.3-0.9,0.5-1.4
		c0,0,0-0.1,0-0.1c0.7-2,1.3-4.1,1.8-6.2c0,0,0-0.1,0-0.1c0.1-0.5,0.2-0.9,0.3-1.4c0-0.1,0-0.2,0.1-0.3c0.1-0.4,0.2-0.9,0.3-1.3
		c0-0.1,0.1-0.3,0.1-0.4c0.1-0.4,0.2-0.9,0.2-1.3c0-0.1,0-0.3,0.1-0.4c0.1-0.5,0.2-0.9,0.2-1.4c0-0.1,0-0.2,0-0.3
		c0.3-2.2,0.5-4.4,0.7-6.6c0-0.4,0-0.8,0.1-1.2c0-0.3,0-0.6,0-0.8c0-0.3,0-0.5,0.1-0.8c0-0.2,0-0.4,0-0.6c0,0,0,0,0,0
		c0-0.2,0-0.4,0-0.5c-0.1-0.2-0.1-0.5-0.2-0.7h-0.1c-0.1-0.2-0.1-0.5-0.2-0.7c-1.1-2.3-3.2-4.8-5.4-5.5c-0.1,0,0,0.3-0.1,0
		c-0.9-0.3-1.8-0.6-2.8-0.6c0,0-0.1,0-0.1,0c-0.2,0-0.5,0-0.7,0c-5.3,0-9.6,4.3-9.6,9.6c0,0.8,0.1,1.5,0.3,2.2
		c1.2-1.9,3.3-3.2,5.7-3.2c1.8,0,3.4,0.7,4.5,1.8c-1.6,35.5-30.6,64-66.6,65.3c-0.7-0.6-1.3-1.5-1.6-2.8l-0.8-4.5v7.3c0,0,0,0-0.1,0
		v0.9c0-0.1,0-0.1,0-0.2c0,3.6,2.6,6.5,5.9,7.3c-0.2,0-0.3,0.1-0.5,0.2c1.7-0.1,3.5-0.3,5.2-0.5
		C125.1,186.6,128.9,185.8,132.8,184.6C132.7,184.7,132.7,184.7,132.8,184.6L132.8,184.6z"/>
	<path class="st1" d="M197.9,103.7c-0.4,0-0.9,0-1.3,0.1c0,0-0.1,0-0.1,0c-1.9,0.3-3.6,1.1-4.9,2.3c-1.2,1.2-2.2,2.9-2.7,4.5
		c-0.1,0.3-0.2,0.6-0.2,0.9c0,0,0,0,0,0.1c0,0.1-0.1,0.1-0.2,0.1c-0.1,0-0.1,0-0.1-0.1c0-0.1,0-0.1-0.1-0.2c0,0.2,0,0.4,0,0.5v0
		c0,0.2,0,0.4,0,0.6c0,0.3-0.1,0.5-0.1,0.8c0,0.3,0,0.6,0,0.8c0,0.4,0,0.8-0.1,1.2c-0.1,2.2-0.4,4.4-0.7,6.6c0,0.1,0,0.2,0,0.3
		c-0.1,0.5-0.1,0.9-0.2,1.4c0,0.1,0,0.3-0.1,0.4c-0.1,0.4-0.2,0.9-0.2,1.3c0,0.1,0,0.3-0.1,0.4c-0.1,0.5-0.2,0.9-0.3,1.3
		c0,0.1,0,0.2-0.1,0.3c-0.1,0.5-0.2,0.9-0.3,1.4c0,0,0,0.1,0,0.1c-0.5,2.1-1.1,4.2-1.8,6.2c0,0,0,0.1,0,0.1
		c-0.2,0.4-0.3,0.9-0.5,1.4c0,0.1-0.1,0.2-0.1,0.3c-0.2,0.4-0.3,0.9-0.5,1.3c0,0.1-0.1,0.2-0.1,0.3c-0.2,0.4-0.3,0.8-0.5,1.3
		c0,0.1-0.1,0.2-0.1,0.3c-0.2,0.4-0.4,0.9-0.5,1.3c0,0.1-0.1,0.1-0.1,0.2c-0.7,1.5-1.4,3-2.1,4.5c-0.5,0.9-0.9,1.8-1.4,2.6
		c0,0.1-0.1,0.1-0.1,0.2c-0.2,0.4-0.5,0.8-0.7,1.2c-0.1,0.1-0.1,0.2-0.2,0.3c-0.2,0.4-0.5,0.8-0.7,1.2c-0.1,0.1-0.1,0.2-0.2,0.3
		c-0.3,0.4-0.5,0.8-0.8,1.2c0,0.1-0.1,0.1-0.1,0.2c-0.7,1.1-1.5,2.2-2.3,3.3c-0.8,1.1-1.6,2.1-2.5,3.1c0,0,0,0,0,0
		c-0.3,0.4-0.6,0.8-1,1.1c0,0.1-0.1,0.1-0.1,0.2c-0.3,0.4-0.6,0.7-0.9,1.1c-0.1,0.1-0.1,0.1-0.2,0.2c-0.3,0.4-0.6,0.7-1,1.1
		c0,0-0.1,0.1-0.1,0.1c-0.6,0.6-1.1,1.2-1.7,1.7c-0.6,0.6-1.1,1.1-1.7,1.7c-1.2,1.1-2.4,2.2-3.6,3.2c0,0,0,0-0.1,0.1
		c-0.4,0.3-0.8,0.6-1.2,1c0,0-0.1,0.1-0.1,0.1c-0.4,0.3-0.8,0.6-1.2,0.9c0,0-0.1,0.1-0.1,0.1c-1.9,1.4-3.8,2.8-5.9,4
		c-1.2,0.8-2.4,1.5-3.7,2.2c0,0,0,0-0.1,0c-0.5,0.3-0.9,0.5-1.4,0.7c0,0-0.1,0-0.1,0c-0.5,0.2-0.9,0.5-1.4,0.7
		c-1.5,0.7-3,1.4-4.5,2.1c-1.5,0.6-3.1,1.2-4.7,1.8c0,0,0,0,0,0c-0.5,0.2-1,0.4-1.5,0.5c0,0-0.1,0-0.1,0c-0.5,0.2-1,0.3-1.6,0.5
		c0,0,0,0,0,0c-3.7,1.1-7.6,1.9-11.6,2.5c0,0,0,0-0.1,0c-1.7,0.2-3.5,0.4-5.2,0.5c-0.3,0.1-0.5,0.3-0.7,0.5c0,0,0.1,0,0.1,0
		c-2.8,2.7-4.9,11.3-4.9,14.4V220l1.7-9.2c1-5.6,4.9-14.6,7.6-15.1c39.4-4.1,71-34.5,76.3-73.1c0.1,0,0.1,0,0.2,0
		c-0.1-0.1-0.1-0.2-0.1-0.2c0.4-2.6,0.6-5.3,0.7-8.1c1.2-1.3,2.9-2.1,4.9-2.1c2.4,0,4.5,1.3,5.7,3.2c0.2-0.7,0.3-1.5,0.3-2.2
		C207.5,107.9,203.2,103.6,197.9,103.7L197.9,103.7z"/>
	<path class="st0" d="M164.9,87c0.7-2.3,1.1-4.7,1.1-7.2c0-13.3-10.8-24-24-24c-1.8,0-3.6,0.2-5.3,0.6c-8.3-4.3-17.7-6.7-27.6-6.7
		c-33.4,0-60.5,27.1-60.5,60.5c0,4.1,0.4,8,1.2,11.8c-0.6-3.2-0.8-6.5-0.8-9.9c0-32.1,26-58.2,58.2-58.2c9.4,0,18.3,2.2,26.2,6.2
		c2.2-1,4.6-1.6,7.1-1.8c0.6,0,1.1-0.1,1.7-0.1c11.8,0,21.5,9.6,21.5,21.5c0,1.2-0.1,2.3-0.3,3.4c-0.4,2.4-1.2,4.7-2.3,6.8
		c2.8,6.8,4.4,14.3,4.4,22.2c0,32.1-26,58.2-58.2,58.2c-3.2,0-6.4-0.3-9.5-0.8v0c3.7,0.7,7.6,1.1,11.5,1.1
		c33.4,0,60.5-27.1,60.5-60.5C169.5,102,167.9,94.2,164.9,87z"/>
	<path class="st3" d="M49.9,122.4c-0.5-2.9-0.7-5.9-0.7-9c0-31.3,25.4-56.7,56.7-56.7c7.5,0,14.7,1.5,21.3,4.2
		c-5.6,4.4-9.2,11.2-9.2,18.9c0,13.3,10.8,24,24,24c7,0,13.4-3,17.7-7.8c1.8,5.5,2.7,11.3,2.7,17.4c0,31.3-25.4,56.7-56.7,56.7
		c-2.8,0-5.6-0.2-8.3-0.6l0,0.1c3.1,0.5,6.3,0.8,9.5,0.8c32.1,0,58.2-26,58.2-58.2c0-7.8-1.6-15.3-4.4-22.2
		c-0.6,1.1-1.3,2.2-2.1,3.2c-3.9,4.9-10,8.1-16.8,8.1c-11.8,0-21.5-9.6-21.5-21.5c0-7.3,3.7-13.8,9.3-17.7c1.1-0.7,2.2-1.3,3.3-1.9
		c-7.9-4-16.8-6.2-26.2-6.2c-32.1,0-58.2,26-58.2,58.2c0,3.4,0.3,6.7,0.8,9.9c0,0.1,0.1,0.3,0.1,0.4L49.9,122.4L49.9,122.4z"/>
	<path class="st4" d="M142.4,100.8c12.3,0,22.2-9.9,22.2-22.2c0-12.3-9.9-22.2-22.2-22.2c-12.3,0-22.2,9.9-22.2,22.2
		C120.2,90.8,130.1,100.8,142.4,100.8z"/>
	<path class="st4" d="M135,100.4c-3.2-1-6.3-2.8-8.9-5.4c-0.4,0.2-0.9,0.5-1.3,0.7c-0.7,1.4-1.3,2.8-1.7,4c-0.8,2.2-0.5,5.9,0.3,9.8
		c3-0.9,5.6-2,7-3.3C131.9,104.7,133.6,102.7,135,100.4L135,100.4z"/>
	<path class="st1" d="M107.1,54c9.4,0,18.3,2.2,26.2,6.2c2.2-1,4.6-1.6,7.1-1.8c0.6,0,1.1-0.1,1.7-0.1c5.7,0,10.9,2.2,14.8,5.9
		l1.7-1.9c-4.3-4.1-10.1-6.6-16.5-6.6c-1.8,0-3.6,0.2-5.3,0.6c-8.3-4.3-17.7-6.7-27.6-6.7c-33.4,0-60.5,27.1-60.5,60.5
		c0,4.1,0.4,8,1.2,11.8c-0.6-3.2-0.8-6.5-0.8-9.9C48.9,80.1,74.9,54,107.1,54z"/>
	<path class="st0" d="M164.3,85.7c0.7-2.3,1.1-3.4,1.1-5.9c0-6.9-2.2-12.4-6.9-16.8l-1.7,1.2c4.1,3.9,6.7,9.4,6.7,15.6
		c0,1.2-0.1,2.3-0.3,3.4c-0.4,2.4-1.2,4.7-2.3,6.8c2.8,6.8,4.4,14.3,4.4,22.2c0,32.1-26,58.2-58.2,58.2c-3.2,0-6.4-0.3-9.5-0.8v0
		c3.7,0.7,7.6,1.1,11.5,1.1c33.4,0,60.5-27.1,60.5-60.5C169.5,102,167.2,92.8,164.3,85.7z"/>
	<path class="st0" d="M120.6,79.8c0-7.3,3.7-13.8,9.3-17.7c1.1-0.7,2.2-1.3,3.3-1.9c-7.9-4-16.8-6.2-26.2-6.2
		c-32.1,0-58.2,26-58.2,58.2c0,3.4,0.3,6.7,0.8,9.9c0,0.1,0.1,0.3,0.1,0.4l0.1-0.1c-0.5-2.9-0.7-5.9-0.7-9
		c0-31.3,25.4-56.7,56.7-56.7c7.5,0,14.7,1.5,21.3,4.2c-5.6,4.4-9.2,11.2-9.2,18.9c0,7.1,3.1,13.5,8.1,17.9l1.7-1.9
		C123.3,91.9,120.6,86.2,120.6,79.8L120.6,79.8z"/>
	<path class="st1" d="M165.2,112.2c0-7.9-1.6-15.3-4.4-22.2c-0.6,1.1-1.3,2.2-2.1,3.2c-3.9,4.9-10,8.1-16.8,8.1
		c-5.5,0-10.4-2-14.2-5.4l-1.7,1.9c4.2,3.8,9.8,6.1,16,6.1c7,0,13.4-3,17.7-7.8c1.8,5.5,2.7,11.4,2.7,17.4
		c0,31.3-25.4,56.7-56.7,56.7c-2.8,0-5.6-0.2-8.3-0.6l0,0.1c3.1,0.5,6.3,0.8,9.5,0.8C139.2,170.4,165.2,144.4,165.2,112.2
		L165.2,112.2z"/>
	<path class="st5" d="M121.7,100.4c0.3-0.8,0.6-1.7,1-2.6c0.2-0.5-0.3-1-0.8-0.8c-0.9,0.4-1.8,0.7-2.7,0.9c-2.7,0.8-7.3,0-11.8-1.2
		c-2.4,7.4-3.6,16.7-3.6,16.7s10.3-0.9,18-3.1C121.3,106.3,120.9,102.6,121.7,100.4z"/>
	<path class="st5" d="M104.7,79.3c2.7-2.7,5.4-4.9,7.6-5.6c2.1-0.6,4.5-1,7.1-1.1c1.1-3.2,3-6.2,5.6-8.7c0.4-0.4,0.8-0.7,1.1-1
		c-2.6-1.6-5.6-2.6-8.1-3.1c-6.8-1.5-24.7,7.6-24.7,7.6S99,74.2,104.7,79.3L104.7,79.3z"/>
	<path class="st5" d="M116.4,84.9c-1.3-0.1-2.5-0.3-3.7-0.6c-2.3-0.5-5.2-2.6-8-5.1C99.3,84.7,94.2,92,94.2,92s6.6,2.8,13.4,4.6
		c1.1-3.4,2.4-6.5,4-8C112.9,87.3,114.6,86,116.4,84.9L116.4,84.9z"/>
	<path class="st5" d="M147,101.1c-0.2,2.7-0.7,5.3-1.5,7.4c-0.7,2.2-3.1,4.8-5.9,7.4c4.8,6,11.5,11.9,11.5,11.9s9.8-17.5,8.7-24.3
		c-0.4-2.6-1.4-5.8-2.9-8.6c-0.4,0.4-0.7,0.8-1.1,1.2C153.2,98.4,150.2,100.1,147,101.1L147,101.1z"/>
	<path class="st5" d="M134.6,101.3c-0.3-0.1-0.6-0.2-0.9-0.3c-1.4,2.2-3.1,4.2-4.7,5.8c-1.4,1.3-4,2.4-7,3.3
		c1.4,7.5,4.4,15.6,4.4,15.6s7.6-4.8,13.2-9.9c-2.4-3-4.3-6-4.7-8.3C134.6,105.7,134.4,103.6,134.6,101.3L134.6,101.3z"/>
	<path class="st5" d="M145.6,108.5c0.7-2.1,1.3-4.7,1.5-7.4c-4.1,1.3-8.4,1.4-12.5,0.3c-0.1,2.2,0.1,4.4,0.4,6.2
		c0.4,2.3,2.3,5.3,4.7,8.3C142.5,113.3,144.8,110.7,145.6,108.5L145.6,108.5z"/>
	<path class="st5" d="M159.8,103.3c-0.3-2.2-0.9-4.8-1.9-7.3c-3.1,2.9-6.9,4.9-11.1,5.7c0.9,2,2,3.9,3.1,5.4
		c1.4,1.9,4.4,3.7,7.9,5.4C159.1,109,160.1,105.6,159.8,103.3L159.8,103.3z"/>
	<path class="st5" d="M117.7,59.6c2.2,0.4,4.8,1.1,7.2,2.3c-3.1,3-5.2,6.7-6.2,10.8c-2-1-3.8-2.1-5.3-3.3c-1.8-1.4-3.5-4.6-5-8.1
		C112,60,115.4,59.2,117.7,59.6L117.7,59.6z"/>
	<path class="st6" d="M141.4,101.8c12.3,0,22.2-9.9,22.2-22.2c0-12.3-9.9-22.2-22.2-22.2c-12.3,0-22.2,9.9-22.2,22.2
		C119.2,91.8,129.1,101.8,141.4,101.8z"/>
</g>
</svg>
