<svg width="221" height="223" viewBox="0 0 221 223" fill="none" xmlns="http://www.w3.org/2000/svg">
<g filter="url(#filter0_d_36_4500)">
<path d="M108.891 32.7769C108.653 32.8101 108.414 32.8432 108.175 32.8764C107.817 32.9294 107.466 32.9891 107.108 33.0487C106.849 33.0885 106.584 33.1283 106.326 33.1747C105.981 33.2344 105.636 33.3007 105.291 33.3603C105.026 33.4067 104.761 33.4598 104.496 33.5128C104.158 33.5791 103.82 33.652 103.482 33.725C103.216 33.778 102.951 33.8377 102.686 33.8973C102.354 33.9703 102.016 34.0498 101.685 34.1294C101.42 34.189 101.155 34.2553 100.889 34.3216C100.558 34.4012 100.226 34.4874 99.8949 34.5736C99.6297 34.6399 99.3711 34.7128 99.1059 34.7857C98.7745 34.8785 98.4496 34.9647 98.1181 35.0575C97.8596 35.1304 97.601 35.21 97.3425 35.2829C97.0176 35.3824 96.6861 35.4752 96.3613 35.5813C96.1027 35.6608 95.8508 35.7404 95.5989 35.8266C95.274 35.9326 94.9492 36.0387 94.6243 36.1448C94.3724 36.231 94.1271 36.3171 93.8818 36.4033C93.5569 36.516 93.2321 36.6287 92.9072 36.7481C92.6686 36.8343 92.4365 36.9271 92.1979 37.0133C91.8664 37.1392 91.5349 37.2586 91.2034 37.3911C91.0112 37.4641 90.8255 37.5436 90.6333 37.6232C89.8245 37.948 89.0223 38.2795 88.2267 38.6309C88.1339 38.6707 88.0411 38.7104 87.9483 38.7502C87.6168 38.8961 87.2919 39.0486 86.9671 39.201C86.7483 39.3005 86.5229 39.3999 86.3041 39.506C85.9992 39.6519 85.6942 39.7977 85.3892 39.9502C85.1506 40.0629 84.9119 40.1822 84.6799 40.2949C84.3882 40.4408 84.0965 40.5933 83.7981 40.7457C83.5595 40.8717 83.3142 40.9977 83.0755 41.1236C82.7904 41.2761 82.5053 41.4286 82.2203 41.5877C81.9816 41.7203 81.7363 41.8529 81.4976 41.9855C81.2126 42.1446 80.9341 42.3037 80.6557 42.4628C80.417 42.602 80.1783 42.7413 79.9397 42.8805C79.6612 43.0462 79.3894 43.212 79.111 43.3777C78.8723 43.5236 78.6336 43.6694 78.4016 43.8153C78.1298 43.981 77.8646 44.1534 77.5928 44.3257C77.3541 44.4782 77.1221 44.6307 76.8834 44.7832C76.6182 44.9556 76.353 45.1279 76.0945 45.3069C75.8624 45.466 75.6304 45.6252 75.3984 45.7843C75.1398 45.9633 74.8813 46.1423 74.6227 46.3213C74.3907 46.487 74.1653 46.6528 73.9332 46.8185C73.6813 47.0041 73.4294 47.1831 73.1775 47.3687C72.9454 47.5411 72.72 47.7135 72.4946 47.8859C72.2493 48.0715 72.004 48.2571 71.7587 48.4427C71.5267 48.6217 71.3013 48.8074 71.0758 48.9864C70.6317 49.3377 70.1941 49.6958 69.7566 50.0604C69.5179 50.2593 69.2792 50.4515 69.0405 50.6571C68.8151 50.8493 68.5964 51.0416 68.3776 51.2338C68.1522 51.4327 67.9268 51.625 67.7014 51.8239C67.4826 52.0228 67.2638 52.2216 67.045 52.4205C66.8263 52.6194 66.6009 52.8249 66.3821 53.0238C66.1633 53.2293 65.9511 53.4349 65.739 53.6338C65.5269 53.8393 65.3081 54.0448 65.0959 54.2503C64.8838 54.4558 64.6783 54.668 64.4661 54.8735C64.254 55.0856 64.0418 55.2978 63.8297 55.5099C63.6241 55.7221 63.4186 55.9342 63.2197 56.1464C63.0142 56.3652 62.8021 56.5839 62.6032 56.8027C62.4043 57.0149 62.2054 57.2336 62.0065 57.4458C61.801 57.6712 61.6021 57.8966 61.3966 58.122C61.2043 58.3408 61.0121 58.5529 60.8198 58.7717C60.6209 59.0038 60.422 59.2358 60.2231 59.4678C60.0375 59.6866 59.8519 59.9054 59.6663 60.1308C59.4674 60.3695 59.2751 60.6081 59.0762 60.8534C58.8972 61.0722 58.7182 61.291 58.5392 61.5164C58.3403 61.7617 58.1481 62.0136 57.9558 62.2655C57.7834 62.4843 57.6177 62.7031 57.452 62.9219C57.2464 63.1937 57.0475 63.4655 56.8487 63.7373C56.6962 63.9428 56.5437 64.1484 56.3978 64.3539C56.1459 64.6986 55.9006 65.0566 55.6553 65.408C55.5227 65.6002 55.3835 65.7925 55.2509 65.9914C54.9592 66.4157 54.6741 66.84 54.3891 67.2709C54.2631 67.4632 54.1371 67.6621 54.0178 67.8543C53.8189 68.1593 53.6267 68.4642 53.4344 68.7758C53.2952 68.9946 53.1626 69.22 53.03 69.4388C52.8576 69.7305 52.6786 70.0156 52.5063 70.3073C52.367 70.5393 52.2344 70.7714 52.1018 71.0034C51.9361 71.2885 51.777 71.5735 51.6113 71.8586C51.4787 72.0973 51.3461 72.336 51.2201 72.5746C51.0676 72.8597 50.9085 73.1448 50.756 73.4365C50.6301 73.6818 50.5041 73.9204 50.3781 74.1657C50.2323 74.4574 50.0798 74.7425 49.9406 75.0342C49.8212 75.2795 49.6953 75.5248 49.5759 75.7767C49.4367 76.0684 49.2909 76.3668 49.1516 76.6585C49.0323 76.9038 48.9196 77.1557 48.8069 77.401C48.6677 77.706 48.5351 78.0043 48.4025 78.3093C48.2964 78.5546 48.1837 78.7998 48.0776 79.0518C47.9451 79.3634 47.8125 79.675 47.6865 79.9932C47.5871 80.2385 47.4876 80.4771 47.3882 80.7224C47.2556 81.0473 47.1296 81.3788 47.0036 81.7103C46.9175 81.9423 46.8247 82.1743 46.7385 82.413C46.6059 82.7776 46.4733 83.1423 46.3407 83.5069C46.2678 83.7124 46.1948 83.9113 46.1219 84.1168C45.9429 84.6339 45.7705 85.1577 45.6048 85.6814C45.5849 85.7345 45.5716 85.7875 45.5518 85.8405C45.3661 86.4173 45.1938 86.9941 45.0214 87.5775C44.9617 87.7764 44.9087 87.9753 44.8557 88.1742C44.7496 88.5587 44.6369 88.9432 44.5308 89.3343C44.4711 89.573 44.4115 89.805 44.3518 90.0437C44.259 90.4017 44.1728 90.7531 44.0866 91.1111C44.0269 91.363 43.9673 91.6149 43.9142 91.8735C43.8347 92.2182 43.7551 92.563 43.6822 92.9077C43.6225 93.1729 43.5695 93.4315 43.5165 93.6966C43.4502 94.0348 43.3772 94.3729 43.3176 94.7176C43.2778 94.9297 43.238 95.1485 43.1982 95.3673C43.9341 98.702 47.534 101.049 50.9218 101.646C54.4686 68.6167 81.7628 42.602 115.607 40.5999C116.913 41.0772 118.531 42.1844 118.922 44.3788L119.757 48.9068V40.4739C119.757 40.4739 119.784 40.4739 119.804 40.4739V39.5524C119.737 35.9989 117.205 33.062 113.864 32.346C113.983 32.3195 114.096 32.2731 114.215 32.22C113.572 32.2664 112.935 32.3195 112.299 32.3791C111.537 32.4521 110.781 32.5316 110.025 32.6244C109.64 32.6708 109.263 32.7239 108.878 32.7769H108.891Z" fill="#F7981D"/>
<path d="M118.306 9.16879C117.311 14.7509 113.373 23.7672 110.735 24.238C69.8033 28.4743 37.4042 61.0391 33.9502 101.738C37.9015 101.38 41.3886 98.7484 43.1654 95.1949C43.1786 95.2546 43.1919 95.3076 43.2052 95.3607C43.245 95.1419 43.2847 94.9298 43.3245 94.711C43.3908 94.3729 43.4571 94.0281 43.5234 93.69C43.5764 93.4248 43.6295 93.1597 43.6891 92.9011C43.7621 92.5564 43.8416 92.2116 43.9212 91.8669C43.9808 91.615 44.0339 91.3564 44.0935 91.1045C44.1797 90.7465 44.2725 90.3885 44.3587 90.0371C44.4184 89.7984 44.4781 89.5598 44.5377 89.3277C44.6438 88.9366 44.7499 88.5521 44.8626 88.1675C44.9223 87.9687 44.9753 87.7698 45.0283 87.5709C45.2007 86.9875 45.3731 86.4107 45.5587 85.8339C45.5786 85.7809 45.5918 85.7278 45.6117 85.6748C45.7775 85.151 45.9498 84.6339 46.1288 84.1102C46.2018 83.9047 46.2747 83.7058 46.3476 83.5003C46.4802 83.1356 46.6062 82.7644 46.7454 82.4064C46.8316 82.1743 46.9244 81.9423 47.0106 81.7036C47.1365 81.3722 47.2625 81.0407 47.3951 80.7158C47.4945 80.4705 47.594 80.2319 47.6934 79.9866C47.8194 79.675 47.952 79.3568 48.0846 79.0452C48.1907 78.7999 48.2967 78.5546 48.4094 78.3026C48.542 77.9977 48.6746 77.6927 48.8138 77.3944C48.9266 77.1424 49.0459 76.8972 49.1586 76.6519C49.2978 76.3535 49.437 76.0618 49.5829 75.7701C49.7022 75.5248 49.8215 75.2729 49.9475 75.0276C50.0934 74.7359 50.2392 74.4442 50.3851 74.1591C50.511 73.9138 50.637 73.6685 50.763 73.4299C50.9154 73.1381 51.0679 72.8531 51.227 72.568C51.3596 72.3293 51.4856 72.0907 51.6182 71.852C51.7773 71.5669 51.943 71.2818 52.1088 70.9968C52.2414 70.7647 52.374 70.5327 52.5132 70.3007C52.6855 70.009 52.8579 69.7239 53.0369 69.4322C53.1695 69.2134 53.3021 68.988 53.4413 68.7692C53.6336 68.4576 53.8325 68.1527 54.0247 67.8477C54.1507 67.6554 54.27 67.4566 54.396 67.2643C54.6744 66.8334 54.9662 66.4091 55.2579 65.9848C55.3904 65.7925 55.5297 65.5936 55.6623 65.4014C55.9075 65.05 56.1528 64.6986 56.4048 64.3473C56.5506 64.1417 56.7097 63.9362 56.8556 63.7307C57.0545 63.4589 57.2534 63.1871 57.4589 62.9152C57.6246 62.6965 57.797 62.4777 57.9627 62.2589C58.155 62.007 58.3473 61.7551 58.5461 61.5098C58.7251 61.2844 58.9041 61.0656 59.0831 60.8468C59.2754 60.6081 59.4743 60.3628 59.6732 60.1242C59.8588 59.9054 60.0445 59.6866 60.2301 59.4612C60.429 59.2292 60.6279 58.9971 60.8267 58.7651C61.019 58.5463 61.2113 58.3275 61.4035 58.1154C61.6024 57.89 61.8079 57.6646 62.0135 57.4392C62.2123 57.2204 62.4112 57.0082 62.6101 56.7961C62.8156 56.5773 63.0212 56.3585 63.2267 56.1398C63.4322 55.9276 63.6311 55.7155 63.8366 55.5033C64.0488 55.2912 64.2609 55.079 64.473 54.8669C64.6852 54.6547 64.8907 54.4492 65.1029 54.2437C65.315 54.0382 65.5338 53.8326 65.7459 53.6271C65.9581 53.4216 66.1768 53.2161 66.389 53.0172C66.6078 52.8117 66.8266 52.6128 67.052 52.4139C67.2707 52.215 67.4895 52.0161 67.7083 51.8172C67.9337 51.6184 68.1591 51.4195 68.3845 51.2272C68.6033 51.0349 68.8287 50.8361 69.0475 50.6504C69.2862 50.4515 69.5248 50.2526 69.7635 50.0538C70.2011 49.6891 70.6386 49.3378 71.0828 48.9798C71.3082 48.8008 71.5402 48.6151 71.7656 48.4361C72.0109 48.2505 72.2562 48.0649 72.5015 47.8792C72.7269 47.7069 72.959 47.5345 73.1844 47.3621C73.4363 47.1765 73.6882 46.9975 73.9402 46.8119C74.1722 46.6461 74.3976 46.4804 74.6297 46.3146C74.8882 46.1356 75.1468 45.9566 75.4053 45.7776C75.6373 45.6185 75.8694 45.4594 76.1014 45.3003C76.3666 45.1213 76.6252 44.9489 76.8904 44.7766C77.1224 44.6241 77.361 44.4716 77.5997 44.3191C77.8649 44.1467 78.1367 43.981 78.4085 43.8086C78.6472 43.6628 78.8792 43.5169 79.1179 43.3711C79.3897 43.2053 79.6682 43.0396 79.9466 42.8739C80.1853 42.7346 80.424 42.5954 80.6626 42.4562C80.9411 42.2971 81.2261 42.1313 81.5046 41.9789C81.7432 41.8463 81.9819 41.7137 82.2272 41.5811C82.5123 41.422 82.7974 41.2695 83.0824 41.117C83.3211 40.991 83.5664 40.8651 83.8051 40.7391C84.0968 40.5866 84.3885 40.4342 84.6868 40.2883C84.9188 40.169 85.1575 40.0563 85.3962 39.9436C85.7011 39.7977 86.0061 39.6452 86.3111 39.4994C86.5298 39.3933 86.7552 39.2939 86.974 39.1944C87.2989 39.0419 87.6237 38.8894 87.9552 38.7436C88.048 38.7038 88.1408 38.664 88.2337 38.6243C89.0292 38.2729 89.8314 37.9414 90.6402 37.6166C90.8325 37.5436 91.0181 37.4641 91.2104 37.3845C91.5418 37.2586 91.8733 37.1326 92.2048 37.0066C92.4435 36.9204 92.6755 36.8276 92.9142 36.7414C93.239 36.6221 93.5639 36.5094 93.8887 36.3967C94.134 36.3105 94.386 36.2243 94.6312 36.1381C94.9561 36.0321 95.281 35.926 95.6058 35.8199C95.8577 35.7404 96.1163 35.6542 96.3682 35.5746C96.6931 35.4752 97.0179 35.3757 97.3494 35.2763C97.608 35.1967 97.8665 35.1238 98.1251 35.0509C98.4499 34.9581 98.7814 34.8653 99.1129 34.7791C99.3714 34.7061 99.6366 34.6399 99.9018 34.5669C100.233 34.4807 100.565 34.3946 100.896 34.315C101.161 34.2487 101.427 34.189 101.692 34.1227C102.023 34.0432 102.361 33.9636 102.693 33.8907C102.958 33.831 103.223 33.778 103.488 33.7183C103.827 33.6454 104.165 33.5725 104.503 33.5062C104.768 33.4531 105.033 33.4067 105.298 33.3537C105.643 33.2874 105.988 33.2277 106.333 33.1681C106.591 33.1217 106.85 33.0819 107.115 33.0421C107.473 32.9824 107.824 32.9228 108.182 32.8697C108.421 32.8366 108.66 32.8034 108.898 32.7703C109.283 32.7173 109.661 32.6642 110.045 32.6178C110.516 32.2664 111.119 32.1338 111.716 32.2598C111.915 32.2996 112.12 32.3327 112.319 32.3725C112.956 32.3128 113.592 32.2598 114.235 32.2134C117.424 30.7814 120.049 20.585 120.009 17.131V0L118.312 9.16879H118.306Z" fill="#FFD104"/>
<path d="M48.1784 102.348C48.2049 102.415 48.1784 102.501 48.0988 102.527C45.911 103.283 43.7829 105.603 42.7222 107.911C42.636 108.143 42.5564 108.381 42.4835 108.62H42.4305C42.3377 108.872 42.2647 109.117 42.2051 109.362C42.2051 109.528 42.2051 109.694 42.2051 109.86V109.919C42.2183 111.046 42.2581 112.16 42.3178 113.274C42.4437 115.508 42.6691 117.722 42.9807 119.904C42.994 119.996 43.0073 120.089 43.0205 120.182C43.0868 120.646 43.1597 121.104 43.2393 121.561C43.2592 121.687 43.2791 121.813 43.3056 121.939C43.3852 122.383 43.4647 122.834 43.5509 123.278C43.5774 123.404 43.5973 123.537 43.6238 123.663C43.71 124.113 43.8028 124.558 43.8956 125.008C43.9221 125.115 43.942 125.227 43.9686 125.333C44.0746 125.804 44.1741 126.268 44.2868 126.739C44.2934 126.779 44.3067 126.812 44.3133 126.851C44.8238 128.966 45.4205 131.048 46.1033 133.097C46.1166 133.136 46.1298 133.176 46.1431 133.216C46.2956 133.667 46.4547 134.118 46.6138 134.568C46.6469 134.668 46.6867 134.767 46.7199 134.867C46.8723 135.298 47.0315 135.722 47.1972 136.146C47.237 136.259 47.2834 136.372 47.3232 136.478C47.4889 136.902 47.6546 137.32 47.827 137.737C47.8668 137.837 47.9132 137.936 47.953 138.036C48.132 138.467 48.3176 138.904 48.5032 139.335C48.5297 139.388 48.5563 139.448 48.5761 139.501C49.6435 141.934 50.8369 144.307 52.1429 146.601C52.176 146.661 52.2092 146.72 52.2423 146.78C52.4744 147.185 52.713 147.596 52.9517 147.993C53.0047 148.08 53.0512 148.166 53.1042 148.252C53.3429 148.65 53.5815 149.041 53.8268 149.432C53.8799 149.518 53.9329 149.598 53.9859 149.684C54.2379 150.082 54.4898 150.473 54.7483 150.864C54.7881 150.924 54.8279 150.983 54.8677 151.036C55.6036 152.15 56.3726 153.244 57.1615 154.318C57.9571 155.392 58.7725 156.44 59.6211 157.467C59.6278 157.48 59.641 157.487 59.6476 157.5C59.9659 157.885 60.2841 158.263 60.6089 158.641C60.6554 158.694 60.7018 158.747 60.7415 158.8C61.0531 159.164 61.3713 159.522 61.6896 159.88C61.7426 159.94 61.7957 160 61.8487 160.059C62.1735 160.417 62.4984 160.775 62.8299 161.127C62.8696 161.173 62.9094 161.213 62.9492 161.259C63.4995 161.843 64.0564 162.419 64.6265 162.99C65.1967 163.56 65.7734 164.117 66.3568 164.667C67.5303 165.767 68.7302 166.835 69.97 167.862C69.9899 167.882 70.0098 167.896 70.0363 167.915C70.4274 168.24 70.8186 168.559 71.2164 168.877C71.2561 168.91 71.3025 168.943 71.3423 168.976C71.7335 169.288 72.1312 169.599 72.529 169.904C72.5688 169.931 72.602 169.964 72.6417 169.991C74.5245 171.423 76.4869 172.755 78.4957 174.015C79.7023 174.77 80.9288 175.5 82.1818 176.189C82.2083 176.202 82.2282 176.216 82.2547 176.229C82.7121 176.481 83.1762 176.726 83.6403 176.972C83.6668 176.985 83.7 177.005 83.7265 177.018C84.1972 177.263 84.6745 177.508 85.1518 177.747C86.6369 178.483 88.1484 179.173 89.6865 179.816C91.2246 180.459 92.7826 181.055 94.367 181.599C94.367 181.599 94.367 181.599 94.3737 181.599C94.8842 181.778 95.4013 181.95 95.9184 182.116C95.9449 182.123 95.978 182.136 96.0046 182.143C96.5217 182.308 97.0388 182.467 97.5559 182.62C97.5691 182.62 97.589 182.627 97.6023 182.633C101.341 183.74 105.2 184.582 109.158 185.126C110.862 185.358 112.579 185.537 114.309 185.663C114.157 185.583 113.997 185.517 113.845 185.477C117.206 184.755 119.745 181.798 119.785 178.218C119.785 178.271 119.785 178.317 119.785 178.37V177.422C119.785 177.422 119.752 177.422 119.732 177.422V170.097L118.897 174.625C118.678 175.858 118.068 176.746 117.345 177.376C81.3597 176.043 52.4015 147.582 50.7772 112.081C51.9639 110.96 53.5616 110.271 55.3251 110.271C57.7449 110.271 59.8598 111.577 61.0133 113.513C61.1857 112.79 61.2918 112.041 61.2918 111.265C61.2918 105.955 56.9892 101.652 51.6788 101.652C51.4534 101.652 51.2346 101.665 51.0159 101.679C50.9695 101.679 50.9297 101.679 50.8833 101.679C49.9153 101.758 49.0005 101.984 48.132 102.328L48.1784 102.348Z" fill="#FFD104"/>
<path d="M115.07 186.207C114.832 185.981 114.593 185.809 114.348 185.683C112.618 185.557 110.894 185.378 109.197 185.146C105.239 184.602 101.38 183.767 97.6412 182.653C97.6279 182.653 97.608 182.646 97.5947 182.64C97.0776 182.487 96.5605 182.328 96.0434 182.163C96.0169 182.156 95.9837 182.143 95.9572 182.136C95.4401 181.97 94.923 181.798 94.4125 181.619C94.4125 181.619 94.4125 181.619 94.4059 181.619C92.8214 181.075 91.2568 180.479 89.7254 179.836C88.1873 179.192 86.6757 178.503 85.1907 177.767C84.7134 177.528 84.236 177.29 83.7653 177.038C83.7388 177.025 83.7057 177.005 83.6791 176.991C83.2151 176.746 82.751 176.501 82.2936 176.249C82.267 176.236 82.2471 176.222 82.2206 176.209C80.9676 175.52 79.7478 174.784 78.5345 174.035C76.5191 172.775 74.5634 171.442 72.6806 170.01C72.6408 169.984 72.6076 169.951 72.5679 169.924C72.1701 169.619 71.7723 169.314 71.3812 168.996C71.3414 168.963 71.295 168.93 71.2552 168.897C70.8574 168.578 70.4663 168.26 70.0751 167.935C70.0552 167.915 70.0354 167.902 70.0088 167.882C68.7691 166.855 67.5625 165.787 66.3957 164.687C65.8123 164.137 65.2355 163.58 64.6654 163.009C64.0952 162.439 63.5383 161.863 62.9881 161.279C62.9483 161.233 62.9085 161.193 62.8687 161.147C62.5372 160.795 62.2124 160.437 61.8875 160.079C61.8345 160.02 61.7814 159.96 61.7284 159.9C61.4102 159.542 61.092 159.184 60.7804 158.82C60.734 158.767 60.6876 158.713 60.6478 158.66C60.3229 158.283 60.0047 157.905 59.6865 157.52C59.6799 157.507 59.6666 157.5 59.66 157.487C58.8114 156.459 57.9893 155.405 57.2004 154.338C56.4048 153.264 55.6424 152.17 54.9065 151.056C54.8668 150.997 54.827 150.937 54.7872 150.884C54.5286 150.493 54.2767 150.095 54.0248 149.704C53.9717 149.618 53.9187 149.538 53.8657 149.452C53.6204 149.061 53.3817 148.67 53.143 148.272C53.09 148.186 53.037 148.099 52.9906 148.013C52.7519 147.609 52.5132 147.204 52.2812 146.8C52.248 146.74 52.2149 146.681 52.1817 146.621C50.8757 144.327 49.6824 141.954 48.615 139.521C48.5885 139.468 48.562 139.408 48.5421 139.355C48.3564 138.924 48.1708 138.493 47.9918 138.056C47.952 137.956 47.9056 137.857 47.8659 137.757C47.6935 137.34 47.5277 136.915 47.362 136.498C47.3156 136.385 47.2758 136.272 47.236 136.166C47.0769 135.742 46.9112 135.318 46.7587 134.887C46.7256 134.787 46.6858 134.688 46.6526 134.588C46.4935 134.137 46.3344 133.687 46.1819 133.236C46.1687 133.196 46.1554 133.156 46.1421 133.116C45.4593 131.075 44.8626 128.986 44.3521 126.871C44.3455 126.832 44.3322 126.798 44.3256 126.759C44.2129 126.295 44.1068 125.824 44.0074 125.353C43.9809 125.247 43.961 125.134 43.9345 125.028C43.8417 124.584 43.7488 124.133 43.6627 123.682C43.6361 123.557 43.6096 123.424 43.5897 123.298C43.5035 122.854 43.424 122.41 43.3444 121.959C43.3246 121.833 43.3047 121.707 43.2781 121.581C43.1986 121.123 43.1257 120.659 43.0594 120.202C43.0461 120.109 43.0328 120.016 43.0196 119.923C42.708 117.742 42.4826 115.528 42.3566 113.294C42.2174 112.644 42.1378 111.981 42.1378 111.292C42.1378 110.834 42.1843 110.383 42.2439 109.946C42.2439 109.926 42.2439 109.906 42.2439 109.886C42.2439 109.72 42.2439 109.555 42.2439 109.389C42.224 109.462 42.2041 109.541 42.1843 109.614C42.171 109.681 42.1246 109.714 42.0782 109.734C41.992 109.767 41.8793 109.734 41.8528 109.614C41.8461 109.575 41.8329 109.541 41.8196 109.502C41.7533 109.223 41.6804 108.938 41.5876 108.646C41.0771 107.042 40.1357 105.358 38.9092 104.118C37.5568 102.912 35.8596 102.083 33.9768 101.798C33.937 101.798 33.9038 101.791 33.864 101.785C33.4265 101.725 32.9757 101.685 32.5182 101.685C27.2079 101.685 22.9053 105.988 22.9053 111.298C22.9053 112.074 23.0047 112.823 23.1837 113.546C24.3373 111.603 26.4521 110.304 28.8719 110.304C30.8012 110.304 32.5315 111.133 33.7381 112.452C33.8442 115.17 34.0828 117.862 34.4408 120.507C34.3944 120.586 34.348 120.666 34.295 120.746C34.3547 120.732 34.4143 120.719 34.4674 120.706C39.7976 159.33 71.3149 189.72 110.761 193.804C113.4 194.275 117.331 203.291 118.332 208.873L120.029 218.042V200.732C120.069 197.59 117.895 188.852 115.097 186.233L115.07 186.207Z" fill="#F7981D"/>
<path d="M196.456 95.5463C190.357 61.2512 161.292 34.7857 125.512 32.2266C122.211 33.0554 119.777 36.0519 119.824 39.6054C119.824 39.5855 119.824 39.5657 119.824 39.5458V40.4673C119.824 40.4673 119.824 40.4673 119.831 40.4673V50.2261L120.666 45.6981C121.084 43.3644 122.714 41.3092 123.994 40.5932C157.851 42.5821 185.166 68.6101 188.706 101.652C192.054 101.089 195.621 98.8081 196.449 95.5463H196.456Z" fill="#FFD104"/>
<path d="M196.457 95.5463C196.483 95.427 196.523 95.3143 196.543 95.1949C198.306 98.7285 201.767 101.347 205.685 101.725C202.231 61.0656 169.892 28.5339 129.02 24.2446C125.97 23.0976 122.556 15.5863 121.641 10.2627L119.997 0.656326V17.131C120.037 20.711 122.225 31.4775 125.586 32.2001C125.559 32.2001 125.539 32.2134 125.513 32.22C161.293 34.7791 190.357 61.2512 196.457 95.5397V95.5463Z" fill="#F7981D"/>
<path d="M8.51953 109.243C8.51953 109.064 8.51953 108.892 8.52616 108.713C8.52616 108.892 8.52616 109.064 8.51953 109.243Z" fill="black"/>
<path d="M142.079 182.64C142.596 182.487 143.114 182.328 143.631 182.162C143.657 182.156 143.69 182.143 143.717 182.136C144.234 181.97 144.751 181.798 145.262 181.619C145.262 181.619 145.262 181.619 145.268 181.619C146.853 181.075 148.417 180.479 149.949 179.836C151.487 179.192 152.998 178.503 154.483 177.767C154.961 177.528 155.438 177.29 155.909 177.038C155.935 177.025 155.968 177.005 155.995 176.991C156.459 176.746 156.923 176.501 157.38 176.249C157.407 176.236 157.427 176.222 157.453 176.209C158.706 175.52 159.926 174.784 161.139 174.035C163.155 172.775 165.111 171.442 166.993 170.01C167.033 169.984 167.066 169.951 167.106 169.924C167.504 169.619 167.902 169.314 168.293 168.996C168.333 168.963 168.379 168.93 168.419 168.897C168.817 168.578 169.208 168.26 169.599 167.935C169.619 167.915 169.639 167.902 169.665 167.882C170.905 166.855 172.112 165.787 173.278 164.687C173.862 164.137 174.439 163.58 175.009 163.009C175.579 162.439 176.136 161.863 176.686 161.279C176.726 161.233 176.766 161.193 176.805 161.147C177.137 160.795 177.462 160.437 177.787 160.079C177.84 160.02 177.893 159.96 177.946 159.9C178.264 159.542 178.582 159.184 178.894 158.82C178.94 158.767 178.986 158.713 179.026 158.66C179.351 158.283 179.669 157.905 179.988 157.52C179.994 157.507 180.007 157.5 180.014 157.487C180.863 156.459 181.685 155.405 182.474 154.338C183.269 153.264 184.032 152.17 184.768 151.056C184.807 150.997 184.847 150.937 184.887 150.884C185.145 150.493 185.397 150.095 185.649 149.704C185.702 149.618 185.755 149.538 185.808 149.452C186.054 149.061 186.292 148.67 186.531 148.272C186.584 148.186 186.637 148.099 186.683 148.013C186.922 147.609 187.161 147.204 187.393 146.8C187.426 146.74 187.459 146.681 187.492 146.621C187.983 145.759 188.454 144.884 188.904 144.002C189.667 142.531 190.389 141.039 191.052 139.521C191.079 139.468 191.105 139.408 191.125 139.355C191.311 138.924 191.497 138.493 191.676 138.056C191.715 137.956 191.762 137.857 191.802 137.757C191.974 137.34 192.14 136.915 192.305 136.498C192.352 136.385 192.392 136.272 192.431 136.166C192.59 135.742 192.756 135.317 192.909 134.887C192.942 134.787 192.982 134.688 193.015 134.588C193.174 134.137 193.333 133.687 193.485 133.236C193.499 133.196 193.512 133.156 193.525 133.116C194.208 131.075 194.805 128.986 195.315 126.871C195.322 126.832 195.335 126.798 195.342 126.759C195.454 126.295 195.561 125.824 195.66 125.353C195.687 125.247 195.706 125.134 195.733 125.028C195.826 124.584 195.919 124.133 196.005 123.682C196.031 123.557 196.058 123.424 196.078 123.298C196.164 122.854 196.243 122.41 196.323 121.959C196.343 121.833 196.363 121.707 196.389 121.581C196.469 121.123 196.542 120.659 196.608 120.202C196.621 120.109 196.635 120.016 196.648 119.923C196.959 117.742 197.185 115.528 197.311 113.294C197.331 112.909 197.344 112.518 197.364 112.127C197.351 111.849 197.331 111.57 197.331 111.285C197.331 111.02 197.377 110.761 197.41 110.503C197.41 110.317 197.424 110.125 197.424 109.939C197.424 109.939 197.424 109.919 197.424 109.913C197.424 109.734 197.423 109.561 197.43 109.382C197.37 109.137 197.298 108.892 197.205 108.64H197.152C197.085 108.401 197.006 108.163 196.913 107.93C195.859 105.623 193.731 103.144 191.536 102.388C191.45 102.362 191.556 102.68 191.457 102.368C190.595 102.023 189.673 101.798 188.706 101.718C188.672 101.718 188.639 101.718 188.606 101.718C188.374 101.699 188.142 101.692 187.91 101.692C182.6 101.692 178.297 105.995 178.297 111.305C178.297 112.081 178.396 112.83 178.575 113.552C179.729 111.61 181.844 110.311 184.264 110.311C186.027 110.311 187.625 111 188.812 112.12C187.187 147.622 158.229 176.076 122.243 177.416C121.521 176.786 120.911 175.897 120.692 174.664L119.857 170.136V177.462C119.857 177.462 119.824 177.462 119.804 177.462V178.41C119.804 178.357 119.804 178.311 119.804 178.258C119.843 181.838 122.383 184.801 125.744 185.517C125.585 185.557 125.432 185.623 125.28 185.703C127.01 185.577 128.734 185.398 130.431 185.166C134.382 184.622 138.247 183.787 141.986 182.673C142 182.673 142.02 182.666 142.033 182.66L142.079 182.64Z" fill="#F6971B"/>
<path d="M207.182 101.665C206.738 101.665 206.3 101.705 205.869 101.765C205.823 101.765 205.77 101.772 205.723 101.785C203.847 102.07 202.15 102.899 200.791 104.105C199.564 105.338 198.623 107.029 198.113 108.633C198.013 108.938 197.94 109.237 197.874 109.528C197.874 109.555 197.861 109.575 197.854 109.601C197.834 109.707 197.741 109.747 197.655 109.727C197.595 109.714 197.536 109.681 197.523 109.601C197.509 109.528 197.483 109.455 197.463 109.376C197.463 109.555 197.463 109.727 197.456 109.906V109.933C197.483 110.118 197.469 110.31 197.443 110.496C197.41 110.755 197.363 111.013 197.363 111.278C197.363 111.564 197.383 111.842 197.397 112.12C197.416 112.512 197.423 112.903 197.344 113.281C197.218 115.515 196.992 117.729 196.681 119.91C196.667 120.003 196.654 120.096 196.641 120.189C196.574 120.653 196.502 121.11 196.422 121.568C196.402 121.694 196.382 121.82 196.356 121.946C196.276 122.39 196.197 122.841 196.11 123.285C196.084 123.411 196.064 123.543 196.037 123.669C195.951 124.12 195.858 124.564 195.766 125.015C195.739 125.121 195.719 125.234 195.693 125.34C195.587 125.811 195.487 126.275 195.375 126.745C195.368 126.785 195.355 126.818 195.348 126.858C194.838 128.973 194.241 131.055 193.558 133.103C193.545 133.143 193.531 133.183 193.518 133.223C193.366 133.673 193.207 134.124 193.048 134.575C193.014 134.674 192.975 134.774 192.941 134.873C192.789 135.304 192.63 135.729 192.464 136.153C192.424 136.266 192.378 136.378 192.338 136.484C192.172 136.909 192.007 137.326 191.834 137.744C191.795 137.843 191.748 137.943 191.708 138.042C191.529 138.473 191.344 138.911 191.158 139.342C191.132 139.395 191.105 139.454 191.085 139.507C190.416 141.032 189.7 142.524 188.937 143.989C188.48 144.871 188.009 145.746 187.525 146.608C187.492 146.667 187.459 146.727 187.426 146.787C187.194 147.191 186.955 147.602 186.716 148C186.663 148.086 186.617 148.172 186.564 148.259C186.325 148.656 186.086 149.047 185.841 149.439C185.788 149.525 185.735 149.604 185.682 149.691C185.43 150.088 185.178 150.479 184.92 150.871C184.88 150.93 184.84 150.99 184.8 151.043C184.064 152.157 183.295 153.251 182.506 154.325C181.711 155.399 180.895 156.446 180.047 157.474C180.04 157.487 180.027 157.494 180.02 157.507C179.702 157.891 179.384 158.269 179.059 158.647C179.013 158.7 178.966 158.753 178.926 158.806C178.615 159.171 178.297 159.529 177.978 159.887C177.925 159.947 177.872 160.006 177.819 160.066C177.494 160.424 177.17 160.782 176.838 161.133C176.798 161.18 176.759 161.219 176.719 161.266C176.168 161.849 175.612 162.426 175.041 162.996C174.471 163.566 173.895 164.123 173.311 164.674C172.138 165.774 170.938 166.841 169.698 167.869C169.678 167.889 169.658 167.902 169.632 167.922C169.241 168.247 168.849 168.565 168.452 168.883C168.412 168.916 168.365 168.95 168.326 168.983C167.934 169.294 167.537 169.606 167.139 169.911C167.099 169.937 167.066 169.971 167.026 169.997C165.143 171.429 163.181 172.762 161.172 174.021C159.966 174.777 158.739 175.506 157.486 176.196C157.46 176.209 157.44 176.222 157.413 176.236C156.956 176.488 156.492 176.733 156.028 176.978C156.001 176.991 155.968 177.011 155.941 177.025C155.471 177.27 154.993 177.515 154.516 177.754C153.031 178.49 151.519 179.179 149.981 179.822C148.443 180.465 146.885 181.062 145.301 181.606C145.301 181.606 145.301 181.606 145.294 181.606C144.784 181.785 144.267 181.957 143.75 182.123C143.723 182.129 143.69 182.143 143.663 182.149C143.146 182.315 142.629 182.474 142.112 182.627C142.099 182.627 142.079 182.633 142.066 182.64C138.327 183.747 134.468 184.589 130.51 185.133C130.484 185.133 130.464 185.139 130.437 185.146C128.714 185.378 126.977 185.563 125.226 185.689C124.974 185.822 124.723 186.001 124.477 186.233C124.517 186.233 124.55 186.246 124.59 186.246C121.819 188.918 119.671 197.563 119.711 200.692V218.002L121.408 208.834C122.402 203.251 126.34 194.235 128.979 193.764C168.425 189.68 199.942 159.29 205.273 120.666C205.332 120.679 205.385 120.693 205.445 120.706C205.392 120.633 205.346 120.547 205.299 120.467C205.657 117.822 205.896 115.13 206.002 112.412C207.215 111.099 208.939 110.264 210.868 110.264C213.288 110.264 215.403 111.57 216.556 113.506C216.729 112.783 216.835 112.034 216.835 111.259C216.835 105.948 212.532 101.646 207.222 101.646L207.182 101.665Z" fill="#FFD104"/>
<path d="M174.233 85.0118C174.943 82.7379 175.334 80.3247 175.334 77.8187C175.334 64.5594 164.581 53.8061 151.321 53.8061C149.491 53.8061 147.715 54.0183 145.998 54.4028C137.711 50.1399 128.316 47.7334 118.359 47.7334C84.9453 47.7334 57.8633 74.8154 57.8633 108.229C57.8633 112.286 58.2677 116.244 59.0301 120.076C58.4798 116.874 58.1948 113.579 58.1948 110.218C58.1948 78.0905 84.2426 52.0426 116.37 52.0426C125.784 52.0426 134.674 54.2835 142.544 58.2546C144.738 57.2668 147.125 56.637 149.637 56.4381C150.194 56.3917 150.751 56.3652 151.321 56.3652C163.168 56.3652 172.775 65.9715 172.775 77.8187C172.775 78.9789 172.682 80.1125 172.503 81.2197C172.112 83.6594 171.31 85.9532 170.169 88.0482C172.987 94.8834 174.545 102.368 174.545 110.218C174.545 142.345 148.497 168.393 116.37 168.393C113.128 168.393 109.952 168.121 106.856 167.61V167.624C110.582 168.34 114.427 168.724 118.359 168.724C151.772 168.724 178.854 141.642 178.854 108.229C178.854 100.001 177.21 92.1586 174.233 85.0118Z" fill="#F7981D"/>
<path d="M59.2159 120.427C58.7452 117.497 58.4999 114.494 58.4999 111.431C58.4999 80.139 83.8648 54.774 115.157 54.774C122.701 54.774 129.901 56.2591 136.484 58.9375C130.895 63.3329 127.302 70.1548 127.302 77.812C127.302 91.0713 138.055 101.825 151.315 101.825C158.342 101.825 164.667 98.8014 169.062 93.9883C170.839 99.4843 171.807 105.338 171.807 111.424C171.807 142.716 146.442 168.081 115.15 168.081C112.326 168.081 109.548 167.869 106.83 167.465L106.843 167.604C109.939 168.114 113.115 168.386 116.357 168.386C148.484 168.386 174.532 142.338 174.532 110.211C174.532 102.362 172.974 94.8701 170.156 88.0415C169.553 89.1553 168.857 90.2094 168.068 91.1973C164.136 96.1165 158.09 99.2655 151.308 99.2655C139.461 99.2655 129.855 89.6592 129.855 77.812C129.855 70.4664 133.547 63.9826 139.183 60.1175C140.237 59.3949 141.357 58.7717 142.53 58.248C134.661 54.2768 125.771 52.036 116.357 52.036C84.2295 52.036 58.1816 78.0838 58.1816 110.211C58.1816 113.572 58.4733 116.867 59.017 120.069C59.0435 120.202 59.0766 120.335 59.1032 120.474L59.2026 120.421L59.2159 120.427Z" fill="#FFD203"/>
<path d="M151.672 98.7816C163.938 98.7816 173.881 88.8381 173.881 76.5723C173.881 64.3064 163.938 54.363 151.672 54.363C139.406 54.363 129.463 64.3064 129.463 76.5723C129.463 88.8381 139.406 98.7816 151.672 98.7816Z" stroke="#FFD203" stroke-width="5" stroke-miterlimit="10"/>
<path d="M144.273 98.4037C141.025 97.3761 137.975 95.5795 135.403 93.0271C134.959 93.2591 134.508 93.4779 134.064 93.69C133.354 95.069 132.778 96.4479 132.347 97.7208C131.584 99.9683 131.889 103.648 132.625 107.513C135.615 106.624 138.201 105.524 139.613 104.178C141.211 102.653 142.914 100.651 144.273 98.4037V98.4037Z" stroke="#FFD203" stroke-width="5" stroke-miterlimit="10"/>
<path d="M116.37 52.0426C125.784 52.0426 134.674 54.2835 142.544 58.2546C144.738 57.2668 147.125 56.637 149.637 56.4381C150.194 56.3917 150.751 56.3652 151.321 56.3652C157.036 56.3652 162.227 58.606 166.072 62.2523L167.803 60.3628C163.5 56.2989 157.706 53.8061 151.321 53.8061C149.491 53.8061 147.715 54.0183 145.998 54.4028C137.711 50.1399 128.316 47.7334 118.359 47.7334C84.9453 47.7334 57.8633 74.8154 57.8633 108.229C57.8633 112.286 58.2677 116.244 59.0301 120.076C58.4798 116.874 58.1948 113.579 58.1948 110.218C58.1948 78.0905 84.2426 52.0426 116.37 52.0426Z" fill="#FFD104"/>
<path d="M173.57 83.6859C174.28 81.4119 174.671 80.3247 174.671 77.8187C174.671 70.9371 172.437 65.408 167.803 61.0258L166.072 62.2523C170.196 66.1638 172.775 71.6863 172.775 77.8187C172.775 78.9789 172.682 80.1125 172.503 81.2197C172.112 83.6594 171.31 85.9532 170.169 88.0482C172.987 94.8834 174.545 102.368 174.545 110.218C174.545 142.345 148.497 168.393 116.37 168.393C113.128 168.393 109.952 168.121 106.856 167.61V167.624C110.582 168.34 114.427 168.724 118.359 168.724C151.772 168.724 178.854 141.642 178.854 108.229C178.854 100.001 176.547 90.8326 173.57 83.6859Z" fill="#F7981D"/>
<path d="M129.867 77.8187C129.867 70.473 133.56 63.9892 139.195 60.1242C140.249 59.4015 141.37 58.7784 142.543 58.2546C134.674 54.2835 125.783 52.0426 116.369 52.0426C84.2422 52.0426 58.1943 78.0905 58.1943 110.218C58.1943 113.579 58.486 116.874 59.0297 120.076C59.0562 120.209 59.0893 120.341 59.1159 120.48L59.2153 120.427C58.7446 117.497 58.4993 114.494 58.4993 111.431C58.4993 80.139 83.8643 54.7741 115.156 54.7741C122.701 54.7741 129.9 56.2591 136.484 58.9375C130.895 63.3329 127.302 70.1548 127.302 77.812C127.302 84.9455 130.418 91.3497 135.357 95.7452L137.087 93.8557C132.658 89.9244 129.867 84.1964 129.867 77.8054V77.8187Z" fill="#F7981D"/>
<path d="M174.545 110.218C174.545 102.368 172.987 94.8767 170.17 88.0482C169.567 89.162 168.87 90.2161 168.081 91.2039C164.15 96.1231 158.104 99.2722 151.322 99.2722C145.859 99.2722 140.88 97.2303 137.095 93.869L135.364 95.7585C139.607 99.5374 145.196 101.838 151.322 101.838C158.349 101.838 164.674 98.8147 169.069 94.0016C170.846 99.4976 171.814 105.352 171.814 111.438C171.814 142.729 146.449 168.094 115.157 168.094C112.333 168.094 109.555 167.882 106.837 167.478L106.85 167.617C109.946 168.128 113.122 168.399 116.364 168.399C148.491 168.399 174.539 142.352 174.539 110.224L174.545 110.218Z" fill="#FFD104"/>
<path d="M131.02 98.3772C131.305 97.5418 131.65 96.6535 132.055 95.7585C132.273 95.2679 131.796 94.7706 131.299 94.9629C130.384 95.3275 129.482 95.6325 128.634 95.8778C125.949 96.6535 121.368 95.8645 116.84 94.6381C114.479 102.043 113.286 111.298 113.286 111.298C113.286 111.298 123.622 110.436 131.299 108.169C130.563 104.304 130.258 100.631 131.02 98.3772Z" stroke="#FFD104" stroke-width="5" stroke-miterlimit="10"/>
<path d="M114.001 77.2618C116.68 74.5569 119.424 72.3227 121.639 71.6796C123.694 71.0829 126.187 70.6321 128.726 70.5592C129.846 67.3505 131.716 64.3539 134.341 61.8412C134.712 61.4832 135.097 61.1518 135.488 60.8269C132.849 59.2756 129.886 58.2612 127.373 57.7242C120.571 56.2525 102.685 65.2754 102.685 65.2754C102.685 65.2754 108.267 72.2034 114.008 77.2618H114.001Z" stroke="#FFD104" stroke-width="5" stroke-miterlimit="10"/>
<path d="M125.716 82.8904C124.417 82.7776 123.17 82.5854 122.05 82.3401C119.783 81.8495 116.872 79.7877 114.002 77.2552C108.605 82.6981 103.48 90.0305 103.48 90.0305C103.48 90.0305 110.097 92.8149 116.839 94.6381C117.933 91.1907 119.286 88.1477 120.883 86.6162C122.209 85.3433 123.873 84.0174 125.716 82.8837V82.8904Z" stroke="#FFD104" stroke-width="5" stroke-miterlimit="10"/>
<path d="M156.345 99.0866C156.186 101.745 155.603 104.344 154.88 106.465C154.138 108.653 151.778 111.292 148.96 113.844C153.753 119.804 160.416 125.698 160.416 125.698C160.416 125.698 170.241 108.235 169.081 101.374C168.637 98.7286 167.702 95.5729 166.157 92.7751C165.793 93.1796 165.421 93.5707 165.024 93.9486C162.471 96.3883 159.494 98.0921 156.339 99.0799L156.345 99.0866Z" stroke="#FFD104" stroke-width="5" stroke-miterlimit="10"/>
<path d="M143.868 99.3385C143.557 99.2523 143.252 99.1661 142.94 99.0666C141.581 101.314 139.877 103.31 138.28 104.841C136.868 106.187 134.282 107.287 131.292 108.176C132.704 115.627 135.707 123.775 135.707 123.775C135.707 123.775 143.265 118.989 148.947 113.844C146.547 110.861 144.618 107.858 144.233 105.57C143.921 103.721 143.756 101.553 143.862 99.3385H143.868Z" stroke="#FFD104" stroke-width="5" stroke-miterlimit="10"/>
<path d="M154.879 106.465C155.595 104.344 156.185 101.745 156.344 99.0866C152.293 100.359 147.951 100.439 143.874 99.3385C143.761 101.553 143.933 103.721 144.245 105.57C144.629 107.858 146.559 110.861 148.958 113.844C151.776 111.292 154.143 108.653 154.879 106.465V106.465Z" stroke="#FFD104" stroke-width="5" stroke-miterlimit="10"/>
<path d="M169.107 101.294C168.821 99.0733 168.212 96.4811 167.184 94.0215C164.101 96.9452 160.236 98.9208 156.086 99.723C156.961 101.758 158.062 103.634 159.155 105.159C160.508 107.042 163.558 108.892 167.025 110.523C168.437 106.989 169.398 103.581 169.107 101.294V101.294Z" stroke="#FFD104" stroke-width="5" stroke-miterlimit="10"/>
<path d="M127.022 57.585C129.23 57.9695 131.789 58.6988 134.202 59.8391C131.146 62.7893 128.991 66.5549 128.003 70.6653C126.008 69.704 124.184 68.5173 122.713 67.3505C120.889 65.9119 119.179 62.7827 117.714 59.2491C121.307 57.9961 124.755 57.1873 127.029 57.585H127.022Z" stroke="#FFD104" stroke-width="5" stroke-miterlimit="10"/>
<path d="M150.678 99.776C162.944 99.776 172.887 89.8326 172.887 77.5667C172.887 65.3009 162.944 55.3575 150.678 55.3575C138.412 55.3575 128.469 65.3009 128.469 77.5667C128.469 89.8326 138.412 99.776 150.678 99.776Z" stroke="#FFD203" stroke-width="6" stroke-miterlimit="10"/>
</g>
<defs>
<filter id="filter0_d_36_4500" x="8.51953" y="0" width="212.315" height="222.042" filterUnits="userSpaceOnUse" color-interpolation-filters="sRGB">
<feFlood flood-opacity="0" result="BackgroundImageFix"/>
<feColorMatrix in="SourceAlpha" type="matrix" values="0 0 0 0 0 0 0 0 0 0 0 0 0 0 0 0 0 0 127 0" result="hardAlpha"/>
<feOffset dx="4" dy="4"/>
<feComposite in2="hardAlpha" operator="out"/>
<feColorMatrix type="matrix" values="0 0 0 0 0.0392157 0 0 0 0 0.364706 0 0 0 0 0.552941 0 0 0 1 0"/>
<feBlend mode="normal" in2="BackgroundImageFix" result="effect1_dropShadow_36_4500"/>
<feBlend mode="normal" in="SourceGraphic" in2="effect1_dropShadow_36_4500" result="shape"/>
</filter>
</defs>
</svg>
