<svg width="24" height="24" viewBox="0 0 24 24" fill="none" xmlns="http://www.w3.org/2000/svg">
<path d="M10.0675 16.8597C14.9628 16.8597 17.6395 12.4775 17.6395 8.67967C17.6395 8.55447 17.6395 8.42926 17.634 8.31002C18.1528 7.90459 18.6054 7.39781 18.9641 6.81949C18.4895 7.04605 17.9762 7.20106 17.4353 7.27261C17.9872 6.91488 18.4067 6.35444 18.6054 5.68072C18.0921 6.00864 17.5236 6.24712 16.9166 6.37829C16.4309 5.81785 15.741 5.47205 14.9739 5.47205C13.5058 5.47205 12.3137 6.75987 12.3137 8.34579C12.3137 8.57235 12.3358 8.79295 12.3855 9.00163C10.1724 8.88238 8.21311 7.73765 6.8996 5.99671C6.67332 6.42002 6.54086 6.91488 6.54086 7.43955C6.54086 8.43522 7.00997 9.31762 7.72744 9.83036C7.29144 9.81844 6.88304 9.68727 6.5243 9.47263C6.5243 9.48456 6.5243 9.49648 6.5243 9.50841C6.5243 10.9035 7.44046 12.0602 8.66015 12.3285C8.43939 12.3941 8.20208 12.4298 7.95924 12.4298C7.78815 12.4298 7.62258 12.412 7.45701 12.3762C7.79367 13.5209 8.77605 14.3497 9.94056 14.3735C9.02992 15.1426 7.88197 15.6017 6.63468 15.6017C6.41944 15.6017 6.20972 15.5898 6 15.56C7.16451 16.3827 8.56633 16.8597 10.0675 16.8597Z" fill="#E83D69"/>
<circle cx="12" cy="12" r="11.5" stroke="#E83D69"/>
</svg>
