<svg width="23" height="23" viewBox="0 0 23 23" fill="none" xmlns="http://www.w3.org/2000/svg">
<g clip-path="url(#clip0_36_4736)">
<path d="M11.038 23C17.1341 23 22.0759 18.0582 22.0759 11.962C22.0759 5.86594 17.1341 0.924072 11.038 0.924072C4.94187 0.924072 0 5.86594 0 11.962C0 18.0582 4.94187 23 11.038 23Z" fill="#E83D69"/>
<path d="M9.01769 17.7846C13.913 17.7846 16.5897 13.7281 16.5897 10.2125C16.5897 10.0966 16.5897 9.98073 16.5842 9.87035C17.103 9.49506 17.5556 9.02595 17.9143 8.49061C17.4397 8.70033 16.9264 8.84382 16.3855 8.91005C16.9374 8.57891 17.3569 8.06013 17.5556 7.43648C17.0423 7.74003 16.4738 7.96078 15.8668 8.0822C15.3811 7.56342 14.6912 7.24332 13.9241 7.24332C12.456 7.24332 11.2639 8.43542 11.2639 9.90347C11.2639 10.1132 11.286 10.3174 11.3357 10.5106C9.12255 10.4002 7.16331 9.34053 5.84979 7.72899C5.62351 8.12084 5.49106 8.57891 5.49106 9.06458C5.49106 9.98625 5.96017 10.8031 6.67764 11.2777C6.24164 11.2667 5.83323 11.1452 5.4745 10.9466C5.4745 10.9576 5.4745 10.9686 5.4745 10.9797C5.4745 12.2711 6.39065 13.3418 7.61035 13.5902C7.38959 13.6509 7.15227 13.684 6.90944 13.684C6.73835 13.684 6.57278 13.6674 6.40721 13.6343C6.74387 14.6939 7.72625 15.4611 8.89075 15.4832C7.98012 16.1951 6.83217 16.6201 5.58488 16.6201C5.36964 16.6201 5.15992 16.609 4.9502 16.5814C6.1147 17.3431 7.51652 17.7846 9.01769 17.7846Z" fill="#88D1E2"/>
</g>
<defs>
<clipPath id="clip0_36_4736">
<rect width="22.0759" height="22.0759" fill="white" transform="translate(0 0.924072)"/>
</clipPath>
</defs>
</svg>
