<svg width="1512" height="364" viewBox="0 0 1512 364" fill="none" xmlns="http://www.w3.org/2000/svg">
<path d="M114.286 84.1857C114.286 124.442 78.4927 157.229 34.1429 157.229C-10.207 157.229 -46 124.442 -46 84.1857C-46 43.9294 -10.207 11.1428 34.1429 11.1428C78.4927 11.1428 114.286 43.9294 114.286 84.1857Z" fill="#88D1E2" stroke="black" stroke-width="2"/>
<path d="M256.286 100.414C256.286 140.67 220.493 173.457 176.143 173.457C131.793 173.457 96 140.67 96 100.414C96 60.1579 131.793 27.3713 176.143 27.3713C220.493 27.3713 256.286 60.1579 256.286 100.414Z" fill="#88D1E2" stroke="black" stroke-width="2"/>
<path d="M408.428 120.7C408.428 160.956 372.635 193.743 328.285 193.743C283.936 193.743 248.143 160.956 248.143 120.7C248.143 80.4438 283.936 47.6572 328.285 47.6572C372.635 47.6572 408.428 80.4438 408.428 120.7Z" fill="#88D1E2" stroke="black" stroke-width="2"/>
<path d="M552.458 147.071C552.458 187.328 516.665 220.114 472.315 220.114C427.965 220.114 392.172 187.328 392.172 147.071C392.172 106.815 427.965 74.0286 472.315 74.0286C516.665 74.0286 552.458 106.815 552.458 147.071Z" fill="#88D1E2" stroke="black" stroke-width="2"/>
<path d="M698.514 163.3C698.514 203.556 662.721 236.343 618.371 236.343C574.022 236.343 538.229 203.556 538.229 163.3C538.229 123.044 574.022 90.2571 618.371 90.2571C662.721 90.2571 698.514 123.044 698.514 163.3Z" fill="#88D1E2" stroke="black" stroke-width="2"/>
<path d="M842.543 163.3C842.543 203.556 806.75 236.343 762.4 236.343C718.05 236.343 682.257 203.556 682.257 163.3C682.257 123.044 718.05 90.2571 762.4 90.2571C806.75 90.2571 842.543 123.044 842.543 163.3Z" fill="#88D1E2" stroke="black" stroke-width="2"/>
<path d="M988.6 163.3C988.6 203.556 952.807 236.343 908.457 236.343C864.107 236.343 828.314 203.556 828.314 163.3C828.314 123.044 864.107 90.2571 908.457 90.2571C952.807 90.2571 988.6 123.044 988.6 163.3Z" fill="#88D1E2" stroke="black" stroke-width="2"/>
<path d="M1132.63 147.071C1132.63 187.328 1096.84 220.114 1052.49 220.114C1008.14 220.114 972.343 187.328 972.343 147.071C972.343 106.815 1008.14 74.0286 1052.49 74.0286C1096.84 74.0286 1132.63 106.815 1132.63 147.071Z" fill="#88D1E2" stroke="black" stroke-width="2"/>
<path d="M1278.69 120.7C1278.69 160.956 1242.89 193.743 1198.54 193.743C1154.19 193.743 1118.4 160.956 1118.4 120.7C1118.4 80.4438 1154.19 47.6572 1198.54 47.6572C1242.89 47.6572 1278.69 80.4438 1278.69 120.7Z" fill="#88D1E2" stroke="black" stroke-width="2"/>
<path d="M1430.83 102.443C1430.83 142.699 1395.04 175.486 1350.69 175.486C1306.34 175.486 1270.54 142.699 1270.54 102.443C1270.54 62.1865 1306.34 29.3999 1350.69 29.3999C1395.04 29.3999 1430.83 62.1865 1430.83 102.443Z" fill="#88D1E2" stroke="black" stroke-width="2"/>
<path d="M1574.86 74.0429C1574.86 114.299 1539.06 147.086 1494.71 147.086C1450.36 147.086 1414.57 114.299 1414.57 74.0429C1414.57 33.7866 1450.36 1 1494.71 1C1539.06 1 1574.86 33.7866 1574.86 74.0429Z" fill="#88D1E2" stroke="black" stroke-width="2"/>
<path d="M115.286 147.186C115.286 187.442 79.4927 220.229 35.1429 220.229C-9.20697 220.229 -45 187.442 -45 147.186C-45 106.929 -9.20697 74.1428 35.1429 74.1428C79.4927 74.1428 115.286 106.929 115.286 147.186Z" fill="#4A70BA" stroke="black" stroke-width="2"/>
<path d="M257.286 163.414C257.286 203.67 221.493 236.457 177.143 236.457C132.793 236.457 97 203.67 97 163.414C97 123.158 132.793 90.3713 177.143 90.3713C221.493 90.3713 257.286 123.158 257.286 163.414Z" fill="#4A70BA" stroke="black" stroke-width="2"/>
<path d="M409.428 183.7C409.428 223.956 373.635 256.743 329.285 256.743C284.936 256.743 249.143 223.956 249.143 183.7C249.143 143.444 284.936 110.657 329.285 110.657C373.635 110.657 409.428 143.444 409.428 183.7Z" fill="#4A70BA" stroke="black" stroke-width="2"/>
<path d="M553.458 210.071C553.458 250.328 517.665 283.114 473.315 283.114C428.965 283.114 393.172 250.328 393.172 210.071C393.172 169.815 428.965 137.029 473.315 137.029C517.665 137.029 553.458 169.815 553.458 210.071Z" fill="#4A70BA" stroke="black" stroke-width="2"/>
<path d="M699.514 226.3C699.514 266.556 663.721 299.343 619.371 299.343C575.022 299.343 539.229 266.556 539.229 226.3C539.229 186.044 575.022 153.257 619.371 153.257C663.721 153.257 699.514 186.044 699.514 226.3Z" fill="#4A70BA" stroke="black" stroke-width="2"/>
<path d="M843.543 226.3C843.543 266.556 807.75 299.343 763.4 299.343C719.05 299.343 683.257 266.556 683.257 226.3C683.257 186.044 719.05 153.257 763.4 153.257C807.75 153.257 843.543 186.044 843.543 226.3Z" fill="#4A70BA" stroke="black" stroke-width="2"/>
<path d="M989.6 226.3C989.6 266.556 953.807 299.343 909.457 299.343C865.107 299.343 829.314 266.556 829.314 226.3C829.314 186.044 865.107 153.257 909.457 153.257C953.807 153.257 989.6 186.044 989.6 226.3Z" fill="#4A70BA" stroke="black" stroke-width="2"/>
<path d="M1133.63 210.071C1133.63 250.328 1097.84 283.114 1053.49 283.114C1009.14 283.114 973.343 250.328 973.343 210.071C973.343 169.815 1009.14 137.029 1053.49 137.029C1097.84 137.029 1133.63 169.815 1133.63 210.071Z" fill="#4A70BA" stroke="black" stroke-width="2"/>
<path d="M1279.69 183.7C1279.69 223.956 1243.89 256.743 1199.54 256.743C1155.19 256.743 1119.4 223.956 1119.4 183.7C1119.4 143.444 1155.19 110.657 1199.54 110.657C1243.89 110.657 1279.69 143.444 1279.69 183.7Z" fill="#4A70BA" stroke="black" stroke-width="2"/>
<path d="M1431.83 165.443C1431.83 205.699 1396.04 238.486 1351.69 238.486C1307.34 238.486 1271.54 205.699 1271.54 165.443C1271.54 125.187 1307.34 92.3999 1351.69 92.3999C1396.04 92.3999 1431.83 125.187 1431.83 165.443Z" fill="#4A70BA" stroke="black" stroke-width="2"/>
<path d="M1575.86 137.043C1575.86 177.299 1540.06 210.086 1495.71 210.086C1451.36 210.086 1415.57 177.299 1415.57 137.043C1415.57 96.7866 1451.36 64 1495.71 64C1540.06 64 1575.86 96.7866 1575.86 137.043Z" fill="#4A70BA" stroke="black" stroke-width="2"/>
<path d="M116.286 210.186C116.286 250.442 80.4927 283.229 36.1429 283.229C-8.20697 283.229 -44 250.442 -44 210.186C-44 169.929 -8.20697 137.143 36.1429 137.143C80.4927 137.143 116.286 169.929 116.286 210.186Z" fill="#1C1E56" stroke="black" stroke-width="2"/>
<path d="M258.286 226.414C258.286 266.67 222.493 299.457 178.143 299.457C133.793 299.457 98 266.67 98 226.414C98 186.158 133.793 153.371 178.143 153.371C222.493 153.371 258.286 186.158 258.286 226.414Z" fill="#1C1E56" stroke="black" stroke-width="2"/>
<path d="M197.257 284.386C197.257 324.642 161.464 357.428 117.115 357.428C72.7647 357.428 36.9717 324.642 36.9717 284.386C36.9717 244.129 72.7647 211.343 117.115 211.343C161.464 211.343 197.257 244.129 197.257 284.386Z" fill="#1C1E56" stroke="black" stroke-width="2"/>
<path d="M410.428 246.7C410.428 286.956 374.635 319.743 330.285 319.743C285.936 319.743 250.143 286.956 250.143 246.7C250.143 206.444 285.936 173.657 330.285 173.657C374.635 173.657 410.428 206.444 410.428 246.7Z" fill="#1C1E56" stroke="black" stroke-width="2"/>
<path d="M554.458 273.071C554.458 313.328 518.665 346.114 474.315 346.114C429.965 346.114 394.172 313.328 394.172 273.071C394.172 232.815 429.965 200.029 474.315 200.029C518.665 200.029 554.458 232.815 554.458 273.071Z" fill="#1C1E56" stroke="black" stroke-width="2"/>
<path d="M700.514 289.3C700.514 329.556 664.721 362.343 620.371 362.343C576.022 362.343 540.229 329.556 540.229 289.3C540.229 249.044 576.022 216.257 620.371 216.257C664.721 216.257 700.514 249.044 700.514 289.3Z" fill="#1C1E56" stroke="black" stroke-width="2"/>
<path d="M844.543 289.3C844.543 329.556 808.75 362.343 764.4 362.343C720.05 362.343 684.257 329.556 684.257 289.3C684.257 249.044 720.05 216.257 764.4 216.257C808.75 216.257 844.543 249.044 844.543 289.3Z" fill="#1C1E56" stroke="black" stroke-width="2"/>
<path d="M990.6 289.3C990.6 329.556 954.807 362.343 910.457 362.343C866.107 362.343 830.314 329.556 830.314 289.3C830.314 249.044 866.107 216.257 910.457 216.257C954.807 216.257 990.6 249.044 990.6 289.3Z" fill="#1C1E56" stroke="black" stroke-width="2"/>
<path d="M1134.63 273.071C1134.63 313.328 1098.84 346.114 1054.49 346.114C1010.14 346.114 974.343 313.328 974.343 273.071C974.343 232.815 1010.14 200.029 1054.49 200.029C1098.84 200.029 1134.63 232.815 1134.63 273.071Z" fill="#1C1E56" stroke="black" stroke-width="2"/>
<path d="M1280.69 246.7C1280.69 286.956 1244.89 319.743 1200.54 319.743C1156.19 319.743 1120.4 286.956 1120.4 246.7C1120.4 206.444 1156.19 173.657 1200.54 173.657C1244.89 173.657 1280.69 206.444 1280.69 246.7Z" fill="#1C1E56" stroke="black" stroke-width="2"/>
<path d="M1432.83 228.443C1432.83 268.699 1397.04 301.486 1352.69 301.486C1308.34 301.486 1272.54 268.699 1272.54 228.443C1272.54 188.187 1308.34 155.4 1352.69 155.4C1397.04 155.4 1432.83 188.187 1432.83 228.443Z" fill="#1C1E56" stroke="black" stroke-width="2"/>
<path d="M1576.86 200.043C1576.86 240.299 1541.06 273.086 1496.71 273.086C1452.36 273.086 1416.57 240.299 1416.57 200.043C1416.57 159.787 1452.36 127 1496.71 127C1541.06 127 1576.86 159.787 1576.86 200.043Z" fill="#1C1E56" stroke="black" stroke-width="2"/>
<path d="M1472.26 284.386C1472.26 324.642 1436.46 357.428 1392.11 357.428C1347.76 357.428 1311.97 324.642 1311.97 284.386C1311.97 244.129 1347.76 211.343 1392.11 211.343C1436.46 211.343 1472.26 244.129 1472.26 284.386Z" fill="#1C1E56" stroke="black" stroke-width="2"/>
<path d="M1576.97 257.343C1576.97 297.849 1549.94 330.343 1516.97 330.343C1484.01 330.343 1456.97 297.849 1456.97 257.343C1456.97 216.837 1484.01 184.343 1516.97 184.343C1549.94 184.343 1576.97 216.837 1576.97 257.343Z" fill="#1C1E56" stroke="black" stroke-width="2"/>
</svg>
